<svg xmlns="http://www.w3.org/2000/svg" viewBox="0 0 95.05 90.87"><defs><style>.cls-1{fill:#b3d5f1;}.cls-2{fill:#fff;}</style></defs><g id="Layer_2" data-name="Layer 2"><g id="OBJECTS"><path class="cls-1" d="M54.34,90.87C43.05,87.66,30.48,93,19.42,89.07,13.62,87,9,82.63,4.9,78,3,75.81,1,73.43.29,70.59s-.06-6.27,2.38-7.93c2.6-1.78,6.11-1,9.1,0S18,64.82,21,63.7s4.3-5.9,1.5-7.34a6.1,6.1,0,0,0-2.59-.48L9.6,55.48c-2-.08-4.24-.22-5.8-1.54-1.86-1.59-2.17-4.39-1.68-6.79s1.62-4.63,2.14-7c.84-3.84,1-9.09,4.79-10,3.5-.79,7.06,3.4,10.31,1.88a2.21,2.21,0,0,0,1.11-1c.64-1.42-1-2.89-2.48-3.21s-3.21-.14-4.52-1c-2-1.25-2-4.23-.87-6.25s3.13-3.39,4.82-5a22.88,22.88,0,0,0,5.53-8c.9-2.21,1.54-4.68,3.38-6.19C29.08-.85,33.11.06,36.5,1.08c3.14.95,6.35,1.94,8.93,4s4.39,5.35,3.69,8.55c-.44,2-1.79,3.69-2.59,5.58s-.91,4.42.71,5.68a4.45,4.45,0,0,0,4.2.31,8.24,8.24,0,0,0,5-9.33c1.69-1.08,4-.21,5.48,1.17s2.46,3.2,4,4.52c2.83,2.45,7.39,3.13,8.89,6.57,1.32,3-.67,6.58-3.25,8.66s-5.77,3.34-8.21,5.59-3.93,6.15-2,8.87c1.5,2.14,4.52,2.66,7.07,2.13a11.92,11.92,0,0,0,8.87-8.45c.47-1.77.51-3.64,1.11-5.37s2-3.39,3.81-3.52c3.44-.23,4.72,4.4,7.2,6.81,1.35,1.31,3.25,2,4.42,3.51,1.8,2.24,1.4,5.49.67,8.27C89.38,73.81,71.49,88.94,51.7,90.71"/><path class="cls-2" d="M54.3,80.42a1,1,0,0,0,1,1.45,6.47,6.47,0,0,0,1.09-.28,2.58,2.58,0,0,0,2.11-.77,1,1,0,0,0,.2-1.13,1,1,0,0,0-.58-1,2.48,2.48,0,0,0-3.56-.62,1.65,1.65,0,0,0-.49,1.51A.91.91,0,0,0,54.3,80.42Z"/><path class="cls-2" d="M62.16,74.13a2.94,2.94,0,0,0,2.51,0,2.33,2.33,0,0,0,1.63-1.41A1.78,1.78,0,0,0,66,71.2c0-.09,0-.18,0-.28.07-.83-1-1.21-1.69-.83s-1.55.43-2.19.87a2.05,2.05,0,0,0-.87,1.56A1.79,1.79,0,0,0,62.16,74.13Z"/><path class="cls-2" d="M42.61,77.31a.91.91,0,0,0,.41,1l.21.13a2.3,2.3,0,0,0,1.56,1.32A1.71,1.71,0,0,0,46.72,79,1.49,1.49,0,0,0,47,79a1,1,0,0,0,1.2-.22A2.84,2.84,0,0,0,48,75.1a1.17,1.17,0,0,0-1-.35,3.92,3.92,0,0,0-2.56.89,1.81,1.81,0,0,0-.33.5A2.18,2.18,0,0,0,42.61,77.31Z"/><path class="cls-2" d="M51.35,73.29a1.08,1.08,0,0,0,1.31.12c.48-.32,1.08-.64,1.56-1s1.14-1,.74-1.67v0a1.47,1.47,0,0,0-1-.88,2.61,2.61,0,0,0-2.14.36c-.61.39-1.52.85-1.72,1.54S50.56,73.1,51.35,73.29Zm.41-1.78-.06,0s0,0-.12,0C51.61,71.45,51.67,71.44,51.76,71.51Z"/><path class="cls-2" d="M64.36,77.17A2,2,0,0,0,64.5,80a.94.94,0,0,0,.78.52,2.18,2.18,0,0,0,1,.16,2.3,2.3,0,0,0,.94-.29c1-.28,1.84-.91,1.5-2.07A2.87,2.87,0,0,0,64.36,77.17Z"/><path class="cls-2" d="M73,70.19a2.54,2.54,0,0,0,.6.16,1,1,0,0,0,.63.09,1.72,1.72,0,0,0,1-.45,1.56,1.56,0,0,0,.62-1.07.69.69,0,0,0-.13-.5,1.76,1.76,0,0,0-.15-.44,2.08,2.08,0,0,0-3-.69A1.67,1.67,0,0,0,73,70.19Zm.68-1.49h0l0,0s0,0,0,0v0Zm0,0h0S73.7,68.65,73.69,68.68Zm.12-.12h0Zm-.12,0Z"/><path class="cls-2" d="M60.33,64.08a1.4,1.4,0,0,0,.21.71A1.1,1.1,0,0,0,62,66a2.79,2.79,0,0,0,.71-.36,2.24,2.24,0,0,0,.69-.29c1.14-.77.66-2.4-.77-2.82a2,2,0,0,0-2.06.47.86.86,0,0,0-.18.76A1.34,1.34,0,0,0,60.33,64.08Z"/><path class="cls-2" d="M71.16,62.6l1.66-1a.82.82,0,0,0,.06-1.26,1.11,1.11,0,0,0-1.13-.3v0a1.12,1.12,0,0,0-1.66-.6,2.15,2.15,0,0,0-.5,2.83A1.14,1.14,0,0,0,71.16,62.6Z"/><path class="cls-2" d="M73.47,73.72a1.18,1.18,0,0,0-1.14,1.21,1.22,1.22,0,0,0,.08.43.81.81,0,0,0,0,.74,1.18,1.18,0,0,0,1.36.49,1.5,1.5,0,0,0,1-1s0-.07,0-.1l.19-.44a1,1,0,0,0-.66-1.17.87.87,0,0,0-.22,0A1.42,1.42,0,0,0,73.47,73.72Z"/><path class="cls-2" d="M32.42,11.65a.76.76,0,0,0-1.27-.55,5.12,5.12,0,0,0-.61.62,2,2,0,0,0-1.1,1.35.82.82,0,0,0,.32.84.78.78,0,0,0,.79.44,1.92,1.92,0,0,0,2.62-1,1.29,1.29,0,0,0-.28-1.2A.71.71,0,0,0,32.42,11.65Z"/><path class="cls-2" d="M29.69,19A2.31,2.31,0,0,0,28,20a1.8,1.8,0,0,0-.53,1.58,1.4,1.4,0,0,0,.81.89,1.67,1.67,0,0,0,.08.2c.28.58,1.18.39,1.45-.11s.86-.9,1.11-1.46a1.56,1.56,0,0,0,0-1.38A1.38,1.38,0,0,0,29.69,19Z"/><path class="cls-2" d="M41.44,9.08c0-.3-.38-.52-.7-.54h-.18A1.79,1.79,0,0,0,39,8.28a1.33,1.33,0,0,0-1,1.28l-.16.18a.75.75,0,0,0-.71.62,2.21,2.21,0,0,0,1.58,2.34.9.9,0,0,0,.79-.16,3,3,0,0,0,1.34-1.61,1.19,1.19,0,0,0,0-.46A1.74,1.74,0,0,0,41.44,9.08Z"/><path class="cls-2" d="M37.22,15.23a.82.82,0,0,0-.92.44c-.19.41-.47.86-.64,1.3s-.38,1.09.18,1.41h0a1.12,1.12,0,0,0,1,.22,2,2,0,0,0,1.28-1.1c.26-.5.68-1.16.54-1.7A1.07,1.07,0,0,0,37.22,15.23Zm.43,1.35,0,0s0,0,.08-.06S37.74,16.59,37.65,16.58Z"/><path class="cls-2" d="M27,17.82A1.53,1.53,0,0,0,25.8,16a.74.74,0,0,0-.73,0,1.79,1.79,0,0,0-.75.31,1.74,1.74,0,0,0-.51.57c-.58.59-.87,1.33-.18,2A2.22,2.22,0,0,0,27,17.82Z"/><path class="cls-2" d="M24,25.91a1.43,1.43,0,0,0-.46.13.8.8,0,0,0-.46.19,1.4,1.4,0,0,0-.47.68,1.19,1.19,0,0,0,0,1,.53.53,0,0,0,.29.28,1.55,1.55,0,0,0,.27.24,1.62,1.62,0,0,0,2.3-.76A1.28,1.28,0,0,0,24,25.91Zm.14,1.26h0v0Zm0,0h0S24.18,27.21,24.17,27.19Zm0,.13v0h0S24.15,27.31,24.14,27.32Zm.08-.06h0l0,0Z"/><path class="cls-2" d="M34.9,24.94a1.05,1.05,0,0,0-.42-.39A.86.86,0,0,0,33,24.34a1.87,1.87,0,0,0-.32.52,1.56,1.56,0,0,0-.35.47c-.45,1,.52,1.86,1.64,1.57a1.53,1.53,0,0,0,1.18-1.13.66.66,0,0,0-.18-.58A1.12,1.12,0,0,0,34.9,24.94Z"/><path class="cls-2" d="M28.28,30.23l-.71,1.33a.64.64,0,0,0,.46.86.86.86,0,0,0,.88-.25l0,0a.86.86,0,0,0,1.34-.26,1.66,1.66,0,0,0-.79-2.08A.88.88,0,0,0,28.28,30.23Z"/><path class="cls-2" d="M22.32,23.75a.94.94,0,0,0,.28-1.27,1.1,1.1,0,0,0-.23-.25.61.61,0,0,0-.32-.47A.9.9,0,0,0,21,22,1.15,1.15,0,0,0,20.68,23a.24.24,0,0,0,0,.08l.05.37a.76.76,0,0,0,.91.52l.17-.06A1.26,1.26,0,0,0,22.32,23.75Z"/></g></g></svg>