<?xml version="1.0" encoding="utf-8"?>
<svg viewBox="0 0 512 512" style="enable-background:new 0 0 512 512;" xmlns="http://www.w3.org/2000/svg">
  <g id="XMLID_1_">
    <path id="XMLID_5_" d="M439.1,256c30.8-14.9,53.3-45.8,53.3-82.2c0-50.5-41.1-91.6-92.5-91.6c-19.6,0-37.4,5.6-52.3,15.9l0.9-6.5 C348.5,41.1,307.4,0,256,0s-92.5,41.1-92.5,91.6l0.9,6.5c-14.9-10.3-32.7-15.9-52.3-15.9c-51.4,0-92.5,41.1-92.5,91.6 c0,36.4,21.5,68.2,53.3,82.2c-30.8,14.9-53.3,45.8-53.3,82.2c0,50.5,41.1,91.6,92.5,91.6c19.6,0,37.4-5.6,52.3-15.9l-0.9,6.5 c0,50.5,41.1,91.6,92.5,91.6s92.5-41.1,92.5-91.6l-0.9-6.5c14.9,10.3,32.7,15.9,52.3,15.9c51.4,0,92.5-41.1,92.5-91.6 C492.4,301.8,470,270.9,439.1,256L439.1,256z M255.1,347.6c-51.4,0-92.5-41.1-92.5-91.6s41.1-91.6,92.5-91.6s92.5,41.1,92.5,91.6 S306.5,347.6,255.1,347.6z" style="fill: rgb(241, 167, 154);"/>
  </g>
</svg>