<svg xmlns="http://www.w3.org/2000/svg" viewBox="0 0 111.15 109.35"><defs><style>.cls-1{fill:#bcd4e1;}</style></defs><g id="Layer_2" data-name="Layer 2"><g id="OBJECTS"><path class="cls-1" d="M45.16,69.77c-1.48,1-3.43.18-4.93-.79-1.95-1.25-4-3.21-3.71-5.63s2.9-3.69,5.08-3.32,4,1.94,5.7,3.45A5.72,5.72,0,0,1,48,56.33a4.75,4.75,0,0,1,6.66.4,5.73,5.73,0,0,1-.06,7.19,7.46,7.46,0,0,1,5-3.33,4.77,4.77,0,0,1,4.93,3,5.93,5.93,0,0,1-2,6.18,12,12,0,0,1-6,2.35c1.65.08,3,1.57,3.54,3.25a12,12,0,0,1,.14,5.28,2.59,2.59,0,0,1-.39,1.23,2.08,2.08,0,0,1-1.39.7c-3.78.62-7.77-2.31-8.64-6.33A4.3,4.3,0,0,1,46,80.82a4.26,4.26,0,0,1-4.1-4.25c0-2.45,1.87-4.35,3.19-6.35"/><path class="cls-1" d="M17.86,14.62c-1.47,1-3.42.17-4.93-.8-1.94-1.25-4-3.21-3.7-5.63s2.9-3.69,5.08-3.31,4,1.94,5.69,3.44a5.72,5.72,0,0,1,.7-7.15,4.74,4.74,0,0,1,6.65.41,5.73,5.73,0,0,1-.05,7.19,7.4,7.4,0,0,1,5-3.33,4.74,4.74,0,0,1,4.93,3,5.92,5.92,0,0,1-2,6.18,12.16,12.16,0,0,1-6,2.34c1.64.08,3,1.57,3.54,3.25a12,12,0,0,1,.14,5.28,2.78,2.78,0,0,1-.39,1.24,2,2,0,0,1-1.39.69c-3.78.62-7.77-2.3-8.64-6.32a4.32,4.32,0,0,1-3.78,4.58,4.27,4.27,0,0,1-4.09-4.26c0-2.45,1.87-4.35,3.19-6.35"/><path class="cls-1" d="M16.23,79.17c-1.18.82-2.73.14-3.93-.64-1.56-1-3.22-2.56-3-4.49a3.45,3.45,0,0,1,4.05-2.64c1.74.29,3.19,1.54,4.55,2.75a4.56,4.56,0,0,1,.55-5.71,3.78,3.78,0,0,1,5.31.32,4.57,4.57,0,0,1,0,5.74,5.91,5.91,0,0,1,4-2.66,3.8,3.8,0,0,1,3.94,2.39,4.72,4.72,0,0,1-1.59,4.93A9.68,9.68,0,0,1,25.3,81a3.46,3.46,0,0,1,2.83,2.59,9.63,9.63,0,0,1,.11,4.21,2.22,2.22,0,0,1-.31,1,1.66,1.66,0,0,1-1.11.56,6.39,6.39,0,0,1-6.89-5,3.44,3.44,0,0,1-3,3.65,3.4,3.4,0,0,1-3.26-3.39c0-2,1.49-3.47,2.54-5.07"/><path class="cls-1" d="M64.34,39.07c-.93-.93-.73-2.56-.37-3.87.46-1.7,1.35-3.62,3-3.82S69.87,32.9,70,34.62a10.38,10.38,0,0,1-1.2,4.93,3.43,3.43,0,0,1,4.77-.77,4.11,4.11,0,0,1,.94,5.1,3.46,3.46,0,0,1-4.68,1.26,5.64,5.64,0,0,1,3.08,3.2,3.94,3.94,0,0,1-1.05,4.27,3.57,3.57,0,0,1-4.37-.38,10,10,0,0,1-2.62-4.14,3.39,3.39,0,0,1-1.47,3.27A7.12,7.12,0,0,1,60,52.42a1.52,1.52,0,0,1-.87-.07,1.57,1.57,0,0,1-.7-.92A6.46,6.46,0,0,1,61,43.75a2.92,2.92,0,0,1-3.65-2,3.23,3.23,0,0,1,2-3.86c1.59-.44,3.16.62,4.7,1.25"/><path class="cls-1" d="M97.82,46c-1.25-.23-1.9-1.72-2.26-3-.47-1.7-.69-3.84.58-5s3.22-.43,4.21.92a10.45,10.45,0,0,1,1.47,4.85,3.73,3.73,0,0,1,3.62-3.44,3.8,3.8,0,0,1,.06,7.54,5.09,5.09,0,0,1,4.19.88A3.94,3.94,0,0,1,111,53a3.76,3.76,0,0,1-3.87,2.23,8.87,8.87,0,0,1-4.28-1.94,3.51,3.51,0,0,1,.41,3.6,8,8,0,0,1-2.32,2.89,1.78,1.78,0,0,1-.77.45,1.5,1.5,0,0,1-1.06-.37,6.54,6.54,0,0,1-1.72-7.94,2.81,2.81,0,0,1-4.09.44A3.37,3.37,0,0,1,93,47.89c1.12-1.31,3-1.33,4.58-1.7"/><path class="cls-1" d="M5.52,48.66c-1.26-.23-1.91-1.72-2.27-3-.46-1.69-.68-3.83.59-4.95s3.22-.43,4.21.92a10.32,10.32,0,0,1,1.46,4.85A3.73,3.73,0,0,1,13.13,43a3.79,3.79,0,0,1,.07,7.53,5.09,5.09,0,0,1,4.19.89,3.93,3.93,0,0,1,1.27,4.2,3.76,3.76,0,0,1-3.87,2.24,8.79,8.79,0,0,1-4.28-2,3.53,3.53,0,0,1,.41,3.61A7.94,7.94,0,0,1,8.6,62.4a1.6,1.6,0,0,1-.77.45,1.45,1.45,0,0,1-1.06-.36,6.54,6.54,0,0,1-1.72-7.94A2.83,2.83,0,0,1,1,55a3.39,3.39,0,0,1-.24-4.43c1.11-1.3,3-1.32,4.58-1.69"/><path class="cls-1" d="M95.13,28.33c0,1.37-1.17,2.36-2.29,3-1.45.84-3.35,1.5-4.62.39s-1-3.32,0-4.63a9,9,0,0,1,4.11-2.54,3.67,3.67,0,0,1-3.86-3.12,3.93,3.93,0,0,1,2.71-4.31,3.63,3.63,0,0,1,4.12,2.71,6.28,6.28,0,0,1,0-4.61A3.45,3.45,0,0,1,98.79,13c1.54.29,2.62,2,2.81,3.63a10.46,10.46,0,0,1-.9,4.92,3,3,0,0,1,3.19-1.16A7.36,7.36,0,0,1,107,22.29a1.83,1.83,0,0,1,.57.72,1.82,1.82,0,0,1-.12,1.19,5.64,5.64,0,0,1-6.85,3.43,3.32,3.32,0,0,1,1.22,4.23,2.85,2.85,0,0,1-4,1.16c-1.41-.91-1.8-2.87-2.46-4.49"/><path class="cls-1" d="M63.68,9.86c.88-1,2.38-.75,3.6-.34,1.56.53,3.33,1.53,3.48,3.29a3.26,3.26,0,0,1-3.05,3.26,8.66,8.66,0,0,1-4.55-1.39,4.14,4.14,0,0,1,.63,5.16,3.46,3.46,0,0,1-4.75.92A4.11,4.11,0,0,1,58,15.69a5.6,5.6,0,0,1-3,3.26A3.3,3.3,0,0,1,51,17.74,4.36,4.36,0,0,1,51.43,13a9.21,9.21,0,0,1,3.88-2.75,3,3,0,0,1-3-1.64A8.71,8.71,0,0,1,51.39,5,2,2,0,0,1,51.47,4a1.55,1.55,0,0,1,.87-.74,5.59,5.59,0,0,1,7.07,2.88,3.26,3.26,0,0,1,1.94-3.91A3,3,0,0,1,64.9,4.49c.38,1.73-.64,3.4-1.25,5"/><path class="cls-1" d="M41.12,36.65c-.39-1,.29-2.17,1-3,.9-1.08,2.19-2.17,3.46-1.69s1.66,2.24,1.21,3.56a7.94,7.94,0,0,1-2.5,3.18A2.85,2.85,0,0,1,48,40a3.35,3.35,0,0,1-1,4.13,2.83,2.83,0,0,1-3.87-.85,5,5,0,0,1,1.23,3.54,3,3,0,0,1-2.17,2.75,3.07,3.07,0,0,1-3.1-1.94,8.69,8.69,0,0,1-.59-4.06,2.55,2.55,0,0,1-2.15,1.86,5.84,5.84,0,0,1-2.86-.51,1.47,1.47,0,0,1-.62-.38,1.49,1.49,0,0,1-.22-1,4.92,4.92,0,0,1,4.39-4.7,2.59,2.59,0,0,1-2-2.89,2.45,2.45,0,0,1,2.75-2.09c1.32.28,2.13,1.67,3.06,2.72"/><path class="cls-1" d="M46.16,99.18c-1.13.64-2.48-.12-3.51-.93-1.32-1-2.7-2.59-2.32-4.32a3.09,3.09,0,0,1,3.86-2,9.17,9.17,0,0,1,3.89,2.89,4.11,4.11,0,0,1,.94-5.1,3.45,3.45,0,0,1,4.77.77,4.13,4.13,0,0,1-.47,5.17,5.27,5.27,0,0,1,3.83-2,3.5,3.5,0,0,1,3.37,2.51,4.25,4.25,0,0,1-1.81,4.31,8.65,8.65,0,0,1-4.5,1.26,3.2,3.2,0,0,1,2.36,2.59,8.83,8.83,0,0,1-.22,3.82,2,2,0,0,1-.36.86,1.43,1.43,0,0,1-1,.4,5.88,5.88,0,0,1-5.84-5.17,3.08,3.08,0,0,1-3,3,3.13,3.13,0,0,1-2.69-3.35c.16-1.77,1.62-3,2.69-4.36"/><path class="cls-1" d="M76.92,75.42c-1.12-.64-1.3-2.27-1.26-3.64,0-1.77.47-3.88,2-4.51s3.18.7,3.72,2.31a10.61,10.61,0,0,1,0,5.1,3.53,3.53,0,0,1,4.44-2,4,4,0,0,1,2.09,4.68,3.58,3.58,0,0,1-4.24,2.49,5.32,5.32,0,0,1,3.72,2.27,4,4,0,0,1,0,4.42,3.6,3.6,0,0,1-4.32.8A9.49,9.49,0,0,1,79.53,84a3.49,3.49,0,0,1-.67,3.55,7.37,7.37,0,0,1-3,2A1.22,1.22,0,0,1,74.06,89a6.59,6.59,0,0,1,.68-8.12,2.84,2.84,0,0,1-4-1,3.36,3.36,0,0,1,1.07-4.29c1.44-.85,3.2-.24,4.84,0"/></g></g></svg>