<?xml version="1.0" encoding="utf-8"?>
<svg viewBox="-284.55622558593745 2.5887481689453153 1069.112451171875 144.82250366210937" style="background: rgba(255, 255, 255, 0);" xmlns="http://www.w3.org/2000/svg">
  <defs>
    <filter id="editing-hole" x="-100%" y="-100%" width="300%" height="300%">
      <feFlood flood-color="#785471" result="black"/>
      <feMorphology operator="dilate" radius="2" in="SourceGraphic" result="erode"/>
      <feGaussianBlur in="erode" stdDeviation="4" result="blur"/>
      <feOffset in="blur" dx="2" dy="2" result="offset"/>
      <feComposite operator="atop" in="offset" in2="black" result="merge"/>
      <feComposite operator="in" in="merge" in2="SourceGraphic" result="inner-shadow"/>
    </filter>
    <clipPath id="clippath1" transform="">
      <path d="M 0 1057.392 L 1269.625 1057.392 L 1269.625 0 L 0 0 Z" style="fill: none; clip-rule: nonzero;"/>
    </clipPath>
  </defs>
  <g filter="url(#editing-hole)" style="" transform="matrix(0.682059, 0, 0, 0.637006, 12.195253, 17.123432)">
    <g transform="translate(-135.48919439315796, 99.39145278930664)">
      <path d="M3.06-4.75L3.06-31.19L3.06-31.19Q2.81-31.25 2.47-31.56L2.47-31.56L2.47-31.56Q2.13-31.88 1.84-32.25L1.84-32.25L1.84-32.25Q1.56-32.63 1.38-33L1.38-33L1.38-33Q1.19-33.38 1.19-33.63L1.19-33.63L1.19-33.63Q1.38-35.69 2.72-36.72L2.72-36.72L2.72-36.72Q4.06-37.75 5.81-38.13L5.81-38.13L5.81-38.13Q7.56-38.50 9.44-38.50L9.44-38.50L9.44-38.50Q11.31-38.50 12.63-38.50L12.63-38.50L12.63-38.50Q14.81-38.50 16.66-38.28L16.66-38.28L16.66-38.28Q18.50-38.06 19.88-37.28L19.88-37.28L19.88-37.28Q21.25-36.50 22.06-35.06L22.06-35.06L22.06-35.06Q22.88-33.63 22.88-31.13L22.88-31.13L22.88-31.13Q22.88-29.88 22.78-28.91L22.78-28.91L22.78-28.91Q22.69-27.94 22.44-27.03L22.44-27.03L22.44-27.03Q22.19-26.13 21.69-25.09L21.69-25.09L21.69-25.09Q21.19-24.06 20.38-22.75L20.38-22.75L20.38-22.75Q22.94-21.94 24.63-21.22L24.63-21.22L24.63-21.22Q26.31-20.50 27.25-19.47L27.25-19.47L27.25-19.47Q28.19-18.44 28.53-16.97L28.53-16.97L28.53-16.97Q28.88-15.50 28.88-13.19L28.88-13.19L28.88-13.19Q28.88-10.44 27.69-8L27.69-8L27.69-8Q26.50-5.56 24.53-3.75L24.53-3.75L24.53-3.75Q22.56-1.94 19.94-0.91L19.94-0.91L19.94-0.91Q17.31 0.13 14.38 0.13L14.38 0.13L14.38 0.13Q13.75 0.13 12.69-0.09L12.69-0.09L12.69-0.09Q11.63-0.31 10.38-0.66L10.38-0.66L10.38-0.66Q9.13-1 7.81-1.47L7.81-1.47L7.81-1.47Q6.50-1.94 5.44-2.50L5.44-2.50L5.44-2.50Q4.38-3.06 3.72-3.63L3.72-3.63L3.72-3.63Q3.06-4.19 3.06-4.75L3.06-4.75ZM7.19-16.75L7.19-16.75L7.19-16.75Q7.31-15.25 7.06-13.63L7.06-13.63L7.06-13.63Q6.81-12 6.63-10.50L6.63-10.50L6.63-10.50Q6.44-9 6.50-7.66L6.50-7.66L6.50-7.66Q6.56-6.31 7.25-5.25L7.25-5.25L7.25-5.25Q7.94-4.19 9.50-3.41L9.50-3.41L9.50-3.41Q11.06-2.63 13.81-2.31L13.81-2.31L13.81-2.31Q16.13-2.31 18.41-3.16L18.41-3.16L18.41-3.16Q20.69-4 22.47-5.47L22.47-5.47L22.47-5.47Q24.25-6.94 25.38-8.97L25.38-8.97L25.38-8.97Q26.50-11 26.50-13.44L26.50-13.44L26.50-13.44Q26.50-15.06 25.94-16.19L25.94-16.19L25.94-16.19Q25.38-17.31 24.44-18.03L24.44-18.03L24.44-18.03Q23.50-18.75 22.22-19.06L22.22-19.06L22.22-19.06Q20.94-19.38 19.50-19.38L19.50-19.38L19.50-19.38Q17.69-19.38 16.25-19.28L16.25-19.28L16.25-19.28Q14.81-19.19 13.41-18.91L13.41-18.91L13.41-18.91Q12-18.63 10.53-18.09L10.53-18.09L10.53-18.09Q9.06-17.56 7.19-16.75ZM5.94-23.25L5.94-23.25L5.94-23.25Q5.94-22.75 6-22.22L6-22.22L6-22.22Q6.06-21.69 6.22-21.28L6.22-21.28L6.22-21.28Q6.38-20.88 6.75-20.59L6.75-20.59L6.75-20.59Q7.13-20.31 7.75-20.31L7.75-20.31L7.75-20.31Q9.88-20.31 12.13-21.13L12.13-21.13L12.13-21.13Q14.38-21.94 16.22-23.38L16.22-23.38L16.22-23.38Q18.06-24.81 19.28-26.78L19.28-26.78L19.28-26.78Q20.50-28.75 20.50-31.19L20.50-31.19L20.50-31.19Q20.50-31.44 20.38-31.91L20.38-31.91L20.38-31.91Q20.25-32.38 19.81-32.88L19.81-32.88L19.81-32.88Q19.38-33.38 18.50-33.84L18.50-33.84L18.50-33.84Q17.63-34.31 16.16-34.63L16.16-34.63L16.16-34.63Q14.69-34.94 12.50-35L12.50-35L12.50-35Q10.31-35.06 7.19-34.75L7.19-34.75L7.19-34.75Q7.06-34.63 6.91-33.94L6.91-33.94L6.91-33.94Q6.75-33.25 6.59-32.22L6.59-32.22L6.59-32.22Q6.44-31.19 6.34-29.97L6.34-29.97L6.34-29.97Q6.25-28.75 6.16-27.53L6.16-27.53L6.16-27.53Q6.06-26.31 6-25.19L6-25.19L6-25.19Q5.94-24.06 5.94-23.25ZM31.44-24.38L31.44-24.38L31.44-24.38Q32.19-24.69 32.75-24.50L32.75-24.50L32.75-24.50Q33.31-24.31 33.69-23.81L33.69-23.81L33.69-23.81Q34.06-23.31 34.25-22.66L34.25-22.66L34.25-22.66Q34.44-22 34.56-21.38L34.56-21.38L34.56-21.38Q35.38-22.75 36.91-23.59L36.91-23.59L36.91-23.59Q38.44-24.44 40.19-24.72L40.19-24.72L40.19-24.72Q41.94-25 43.69-24.84L43.69-24.84L43.69-24.84Q45.44-24.69 46.66-24.09L46.66-24.09L46.66-24.09Q47.88-23.50 48.38-22.47L48.38-22.47L48.38-22.47Q48.88-21.44 48.13-20.06L48.13-20.06L48.13-20.06Q46.50-21 44.72-21.56L44.72-21.56L44.72-21.56Q42.94-22.13 41.25-21.94L41.25-21.94L41.25-21.94Q39.56-21.75 38.13-20.66L38.13-20.66L38.13-20.66Q36.69-19.56 35.75-17.19L35.75-17.19L35.75-17.19Q34.81-14.81 34.59-10.91L34.59-10.91L34.59-10.91Q34.38-7 35.13-1.19L35.13-1.19L32.75-1.19L32.75-1.19Q32.75-1.19 32.66-2.22L32.66-2.22L32.66-2.22Q32.56-3.25 32.47-4.94L32.47-4.94L32.47-4.94Q32.38-6.63 32.22-8.69L32.22-8.69L32.22-8.69Q32.06-10.75 31.94-12.88L31.94-12.88L31.94-12.88Q31.81-15 31.72-16.97L31.72-16.97L31.72-16.97Q31.63-18.94 31.50-20.38L31.50-20.38L31.50-20.38Q31.50-20.56 31.47-21.13L31.47-21.13L31.47-21.13Q31.44-21.69 31.44-22.34L31.44-22.34L31.44-22.34Q31.44-23 31.44-23.56L31.44-23.56L31.44-23.56Q31.44-24.13 31.44-24.38ZM51.25-11.44L51.25-11.44L51.25-11.44Q51.25-12.88 51.50-14.78L51.50-14.78L51.50-14.78Q51.75-16.69 52.31-18.63L52.31-18.63L52.31-18.63Q52.88-20.56 53.72-22.44L53.72-22.44L53.72-22.44Q54.56-24.31 55.75-25.78L55.75-25.78L55.75-25.78Q56.94-27.25 58.50-28.16L58.50-28.16L58.50-28.16Q60.06-29.06 62-29.06L62-29.06L62-29.06Q64-29.06 65.72-27.69L65.72-27.69L65.72-27.69Q67.44-26.31 68.66-24.13L68.66-24.13L68.66-24.13Q69.88-21.94 70.50-19.25L70.50-19.25L70.50-19.25Q71.13-16.56 71-14L71-14L71-14Q71-10.25 69.56-7.31L69.56-7.31L69.56-7.31Q68.13-4.38 65.91-2.56L65.91-2.56L65.91-2.56Q63.69-0.75 61.16-0.13L61.16-0.13L61.16-0.13Q58.63 0.50 56.41-0.47L56.41-0.47L56.41-0.47Q54.19-1.44 52.72-4.13L52.72-4.13L52.72-4.13Q51.25-6.81 51.25-11.44ZM53.56-11.19L53.56-11.19L53.56-11.19Q53.75-7.38 54.88-5.31L54.88-5.31L54.88-5.31Q56-3.25 57.59-2.59L57.59-2.59L57.59-2.59Q59.19-1.94 61.06-2.56L61.06-2.56L61.06-2.56Q62.94-3.19 64.56-4.78L64.56-4.78L64.56-4.78Q66.19-6.38 67.34-8.78L67.34-8.78L67.34-8.78Q68.50-11.19 68.63-14.19L68.63-14.19L68.63-14.19Q68.75-16.44 68.28-18.56L68.28-18.56L68.28-18.56Q67.81-20.69 66.97-22.34L66.97-22.34L66.97-22.34Q66.13-24 64.91-24.97L64.91-24.97L64.91-24.97Q63.69-25.94 62.13-25.94L62.13-25.94L62.13-25.94Q60.63-25.94 59.44-25.19L59.44-25.19L59.44-25.19Q58.25-24.44 57.28-23.16L57.28-23.16L57.28-23.16Q56.31-21.88 55.63-20.25L55.63-20.25L55.63-20.25Q54.94-18.63 54.47-17L54.47-17L54.47-17Q54-15.38 53.78-13.84L53.78-13.84L53.78-13.84Q53.56-12.31 53.56-11.19ZM91.81-15.63L86-0.81L73.81-28.75L75.44-30.44L85.81-7.19L90.56-22.50L102.63-6L102.63-6Q103.19-9.06 103.34-12.16L103.34-12.16L103.34-12.16Q103.50-15.25 103.47-18.34L103.47-18.34L103.47-18.34Q103.44-21.44 103.41-24.63L103.41-24.63L103.41-24.63Q103.38-27.81 103.56-31L103.56-31L106.25-30L106.25-30Q106.25-25.31 106.25-22.06L106.25-22.06L106.25-22.06Q106.25-18.81 106.25-16.59L106.25-16.59L106.25-16.59Q106.25-14.38 106.22-13L106.22-13L106.22-13Q106.19-11.63 106.16-10.63L106.16-10.63L106.16-10.63Q106.13-9.63 106-8.78L106-8.78L106-8.78Q105.88-7.94 105.69-6.91L105.69-6.91L105.69-6.91Q105.50-5.88 105.25-4.38L105.25-4.38L105.25-4.38Q105-2.88 104.63-0.44L104.63-0.44L104.63-0.44Q102.69-1.94 100.88-4.19L100.88-4.19L100.88-4.19Q99.06-6.44 97.47-8.69L97.47-8.69L97.47-8.69Q95.88-10.94 94.44-12.84L94.44-12.84L94.44-12.84Q93-14.75 91.81-15.63L91.81-15.63ZM112.88-5.06L112.88-5.06L112.88-5.06Q114-5.06 114.97-4.63L114.97-4.63L114.97-4.63Q115.94-4.19 116.88-3.66L116.88-3.66L116.88-3.66Q117.81-3.13 118.78-2.72L118.78-2.72L118.78-2.72Q119.75-2.31 120.88-2.31L120.88-2.31L120.88-2.31Q122.19-2.31 123.59-2.78L123.59-2.78L123.59-2.78Q125-3.25 126.19-4.09L126.19-4.09L126.19-4.09Q127.38-4.94 128.13-6.16L128.13-6.16L128.13-6.16Q128.88-7.38 128.88-8.81L128.88-8.81L128.88-8.81Q128.94-9.25 128.91-9.88L128.91-9.88L128.91-9.88Q128.88-10.50 128.50-11.16L128.50-11.16L128.50-11.16Q128.13-11.81 127.25-12.41L127.25-12.41L127.25-12.41Q126.38-13 124.72-13.31L124.72-13.31L124.72-13.31Q123.06-13.63 120.56-13.66L120.56-13.66L120.56-13.66Q118.06-13.69 114.38-13.19L114.38-13.19L114.38-13.19Q113.44-13.19 112.56-13.72L112.56-13.72L112.56-13.72Q111.69-14.25 111-15.03L111-15.03L111-15.03Q110.31-15.81 109.88-16.72L109.88-16.72L109.88-16.72Q109.44-17.63 109.44-18.44L109.44-18.44L109.44-18.44Q109.44-20.88 110.47-22.41L110.47-22.41L110.47-22.41Q111.50-23.94 113.13-24.84L113.13-24.84L113.13-24.84Q114.75-25.75 116.75-26.13L116.75-26.13L116.75-26.13Q118.75-26.50 120.81-26.50L120.81-26.50L120.81-26.50Q121.75-26.50 122.97-26.41L122.97-26.41L122.97-26.41Q124.19-26.31 125.22-25.91L125.22-25.91L125.22-25.91Q126.25-25.50 126.97-24.63L126.97-24.63L126.97-24.63Q127.69-23.75 127.69-22.19L127.69-22.19L127.69-22.19Q127.56-21.13 127.34-20.91L127.34-20.91L127.34-20.91Q127.13-20.69 126.72-21.03L126.72-21.03L126.72-21.03Q126.31-21.38 125.75-22L125.75-22L125.75-22Q125.19-22.63 124.41-23.22L124.41-23.22L124.41-23.22Q123.63-23.81 122.53-24.13L122.53-24.13L122.53-24.13Q121.44-24.44 120.06-24.13L120.06-24.13L120.06-24.13Q118.63-24.13 117.19-23.84L117.19-23.84L117.19-23.84Q115.75-23.56 114.59-22.88L114.59-22.88L114.59-22.88Q113.44-22.19 112.72-21L112.72-21L112.72-21Q112-19.81 112-18L112-18L112-18Q112-17.06 112.84-16.72L112.84-16.72L112.84-16.72Q113.69-16.38 115.09-16.38L115.09-16.38L115.09-16.38Q116.50-16.38 118.28-16.47L118.28-16.47L118.28-16.47Q120.06-16.56 121.94-16.56L121.94-16.56L121.94-16.56Q123.81-16.56 125.56-16.28L125.56-16.28L125.56-16.28Q127.31-16 128.66-15.16L128.66-15.16L128.66-15.16Q130-14.31 130.75-12.75L130.75-12.75L130.75-12.75Q131.50-11.19 131.31-8.69L131.31-8.69L131.31-8.69Q131.31-6.88 130.28-5.25L130.28-5.25L130.28-5.25Q129.25-3.63 127.66-2.41L127.66-2.41L127.66-2.41Q126.06-1.19 124.13-0.50L124.13-0.50L124.13-0.50Q122.19 0.19 120.38 0L120.38 0L120.38 0Q119.63-0.06 118.34-0.41L118.34-0.41L118.34-0.41Q117.06-0.75 115.84-1.38L115.84-1.38L115.84-1.38Q114.63-2 113.75-2.91L113.75-2.91L113.75-2.91Q112.88-3.81 112.88-5.06ZM134.63-14.69L134.63-14.69L134.63-14.69Q134.63-16.56 135.44-18.84L135.44-18.84L135.44-18.84Q136.25-21.13 137.66-23.09L137.66-23.09L137.66-23.09Q139.06-25.06 140.84-26.41L140.84-26.41L140.84-26.41Q142.63-27.75 144.56-27.75L144.56-27.75L144.56-27.75Q145.63-27.75 146.66-27.31L146.66-27.31L146.66-27.31Q147.69-26.88 148.66-26.16L148.66-26.16L148.66-26.16Q149.63-25.44 150.41-24.53L150.41-24.53L150.41-24.53Q151.19-23.63 151.63-22.63L151.63-22.63L151.63-22.63Q152.06-21.63 152.09-20.69L152.09-20.69L152.09-20.69Q152.13-19.75 151.56-19.06L151.56-19.06L138.38-16.63L138.38-16.63Q138.13-16.56 137.94-16.03L137.94-16.03L137.94-16.03Q137.75-15.50 137.63-14.69L137.63-14.69L137.63-14.69Q137.50-13.88 137.41-12.91L137.41-12.91L137.41-12.91Q137.31-11.94 137.25-11.03L137.25-11.03L137.25-11.03Q137.19-10.13 137.19-9.41L137.19-9.41L137.19-9.41Q137.19-8.69 137.19-8.31L137.19-8.31L137.19-8.31Q137.19-6.56 138.03-5.47L138.03-5.47L138.03-5.47Q138.88-4.38 140.19-3.81L140.19-3.81L140.19-3.81Q141.50-3.25 143.16-3.06L143.16-3.06L143.16-3.06Q144.81-2.88 146.44-2.88L146.44-2.88L146.44-2.88Q148.06-2.88 149.50-3L149.50-3L149.50-3Q150.94-3.13 151.88-3.13L151.88-3.13L151.88-3.13Q151.88-2.88 151.69-2.56L151.69-2.56L151.69-2.56Q151.50-2.25 151.25-1.97L151.25-1.97L151.25-1.97Q151-1.69 150.75-1.47L150.75-1.47L150.75-1.47Q150.50-1.25 150.44-1.19L150.44-1.19L150.44-1.19Q149.94-1.06 148.91-0.84L148.91-0.84L148.91-0.84Q147.88-0.63 146.72-0.44L146.72-0.44L146.72-0.44Q145.56-0.25 144.56-0.13L144.56-0.13L144.56-0.13Q143.56 0 143.19 0L143.19 0L143.19 0Q141.25 0.38 139.81-0.06L139.81-0.06L139.81-0.06Q138.38-0.50 137.38-1.56L137.38-1.56L137.38-1.56Q136.38-2.63 135.75-4.16L135.75-4.16L135.75-4.16Q135.13-5.69 134.81-7.44L134.81-7.44L134.81-7.44Q134.50-9.19 134.47-11.06L134.47-11.06L134.47-11.06Q134.44-12.94 134.63-14.69ZM143.69-25.38L143.69-25.38L143.69-25.38Q143.13-25.38 142.22-24.78L142.22-24.78L142.22-24.78Q141.31-24.19 140.53-23.28L140.53-23.28L140.53-23.28Q139.75-22.38 139.22-21.34L139.22-21.34L139.22-21.34Q138.69-20.31 138.88-19.56L138.88-19.56L138.88-19.56Q140.50-19.38 142.25-19.63L142.25-19.63L142.25-19.63Q144-19.88 145.44-20.41L145.44-20.41L145.44-20.41Q146.88-20.94 147.81-21.66L147.81-21.66L147.81-21.66Q148.75-22.38 148.72-23.13L148.72-23.13L148.72-23.13Q148.69-23.88 147.53-24.47L147.53-24.47L147.53-24.47Q146.38-25.06 143.69-25.38ZM186.94-22.69L186.94-22.69L186.94-22.69Q186.38-22.88 185.41-22.84L185.41-22.84L185.41-22.84Q184.44-22.81 183.34-22.72L183.34-22.72L183.34-22.72Q182.25-22.63 181.25-22.50L181.25-22.50L181.25-22.50Q180.25-22.38 179.56-22.38L179.56-22.38L179.56-22.38Q179.25-22.38 179.16-23.28L179.16-23.28L179.16-23.28Q179.06-24.19 178.88-25.75L178.88-25.75L187.69-26.38L187.69-26.38Q187.88-28.56 187.94-29.50L187.94-29.50L187.94-29.50Q188-30.44 187.97-31.09L187.97-31.09L187.97-31.09Q187.94-31.75 187.91-32.59L187.91-32.59L187.91-32.59Q187.88-33.44 187.88-35.25L187.88-35.25L187.88-35.25Q189.50-35.50 190.34-35.41L190.34-35.41L190.34-35.41Q191.19-35.31 191.50-34.94L191.50-34.94L191.50-34.94Q191.81-34.56 191.78-33.84L191.78-33.84L191.78-33.84Q191.75-33.13 191.59-32.06L191.59-32.06L191.59-32.06Q191.44-31 191.34-29.50L191.34-29.50L191.34-29.50Q191.25-28 191.44-26.13L191.44-26.13L198.94-26.38L198.94-23.31L198.94-23.31Q198.44-23.31 197.38-23.25L197.38-23.25L197.38-23.25Q196.31-23.19 195.09-23.13L195.09-23.13L195.09-23.13Q193.88-23.06 192.84-23L192.84-23L192.84-23Q191.81-22.94 191.31-22.75L191.31-22.75L191.31-22.75Q190.81-20.50 190.25-17.94L190.25-17.94L190.25-17.94Q189.69-15.38 189.50-12.88L189.50-12.88L189.50-12.88Q189.31-10.38 189.63-8.22L189.63-8.22L189.63-8.22Q189.94-6.06 191.19-4.66L191.19-4.66L191.19-4.66Q192.44-3.25 194.75-2.72L194.75-2.72L194.75-2.72Q197.06-2.19 200.88-3.06L200.88-3.06L200.88-3.06Q200.75-2.13 200.16-1.53L200.16-1.53L200.16-1.53Q199.56-0.94 198.78-0.59L198.78-0.59L198.78-0.59Q198-0.25 197.13-0.09L197.13-0.09L197.13-0.09Q196.25 0.06 195.56 0.06L195.56 0.06L195.56 0.06Q192.38 0.06 190.50-1.09L190.50-1.09L190.50-1.09Q188.63-2.25 187.69-4.13L187.69-4.13L187.69-4.13Q186.75-6 186.50-8.41L186.50-8.41L186.50-8.41Q186.25-10.81 186.34-13.31L186.34-13.31L186.34-13.31Q186.44-15.81 186.69-18.25L186.69-18.25L186.69-18.25Q186.94-20.69 186.94-22.69ZM203.50-43.19L205.56-42.88L207.19-22.38L207.19-22.38Q207.63-22.75 208.31-23.50L208.31-23.50L208.31-23.50Q209-24.25 209.94-24.91L209.94-24.91L209.94-24.91Q210.88-25.56 212-26.03L212-26.03L212-26.03Q213.13-26.50 214.44-26.44L214.44-26.44L214.44-26.44Q217-26.19 218.53-24.38L218.53-24.38L218.53-24.38Q220.06-22.56 220.84-19.94L220.84-19.94L220.84-19.94Q221.63-17.31 221.88-14.22L221.88-14.22L221.88-14.22Q222.13-11.13 222.03-8.31L222.03-8.31L222.03-8.31Q221.94-5.50 221.72-3.31L221.72-3.31L221.72-3.31Q221.50-1.13 221.38-0.31L221.38-0.31L219.13-0.63L219.13-0.63Q219.13-1.19 219.16-2.41L219.16-2.41L219.16-2.41Q219.19-3.63 219.25-5.28L219.25-5.28L219.25-5.28Q219.31-6.94 219.31-8.75L219.31-8.75L219.31-8.75Q219.31-10.56 219.34-12.16L219.34-12.16L219.34-12.16Q219.38-13.75 219.34-15L219.34-15L219.34-15Q219.31-16.25 219.25-16.75L219.25-16.75L219.25-16.75Q219.31-18.50 218.56-20.13L218.56-20.13L218.56-20.13Q217.81-21.75 216.56-22.59L216.56-22.59L216.56-22.59Q215.31-23.44 213.56-23.16L213.56-23.16L213.56-23.16Q211.81-22.88 209.81-20.69L209.81-20.69L209.81-20.69Q208.06-18.06 207.25-15.53L207.25-15.53L207.25-15.53Q206.44-13 206.19-10.53L206.19-10.53L206.19-10.53Q205.94-8.06 206-5.47L206-5.47L206-5.47Q206.06-2.88 206 0L206 0L203.56-0.38L203.56-0.38Q203.75-1.06 203.84-2.91L203.84-2.91L203.84-2.91Q203.94-4.75 204-7.34L204-7.34L204-7.34Q204.06-9.94 204.09-13.13L204.09-13.13L204.09-13.13Q204.13-16.31 204.09-19.72L204.09-19.72L204.09-19.72Q204.06-23.13 204-26.56L204-26.56L204-26.56Q203.94-30 203.84-33.13L203.84-33.13L203.84-33.13Q203.75-36.25 203.66-38.88L203.66-38.88L203.66-38.88Q203.56-41.50 203.50-43.19L203.50-43.19ZM225-14.69L225-14.69L225-14.69Q225-16.56 225.81-18.84L225.81-18.84L225.81-18.84Q226.63-21.13 228.03-23.09L228.03-23.09L228.03-23.09Q229.44-25.06 231.22-26.41L231.22-26.41L231.22-26.41Q233-27.75 234.94-27.75L234.94-27.75L234.94-27.75Q236-27.75 237.03-27.31L237.03-27.31L237.03-27.31Q238.06-26.88 239.03-26.16L239.03-26.16L239.03-26.16Q240-25.44 240.78-24.53L240.78-24.53L240.78-24.53Q241.56-23.63 242-22.63L242-22.63L242-22.63Q242.44-21.63 242.47-20.69L242.47-20.69L242.47-20.69Q242.50-19.75 241.94-19.06L241.94-19.06L228.75-16.63L228.75-16.63Q228.50-16.56 228.31-16.03L228.31-16.03L228.31-16.03Q228.13-15.50 228-14.69L228-14.69L228-14.69Q227.88-13.88 227.78-12.91L227.78-12.91L227.78-12.91Q227.69-11.94 227.63-11.03L227.63-11.03L227.63-11.03Q227.56-10.13 227.56-9.41L227.56-9.41L227.56-9.41Q227.56-8.69 227.56-8.31L227.56-8.31L227.56-8.31Q227.56-6.56 228.41-5.47L228.41-5.47L228.41-5.47Q229.25-4.38 230.56-3.81L230.56-3.81L230.56-3.81Q231.88-3.25 233.53-3.06L233.53-3.06L233.53-3.06Q235.19-2.88 236.81-2.88L236.81-2.88L236.81-2.88Q238.44-2.88 239.88-3L239.88-3L239.88-3Q241.31-3.13 242.25-3.13L242.25-3.13L242.25-3.13Q242.25-2.88 242.06-2.56L242.06-2.56L242.06-2.56Q241.88-2.25 241.63-1.97L241.63-1.97L241.63-1.97Q241.38-1.69 241.13-1.47L241.13-1.47L241.13-1.47Q240.88-1.25 240.81-1.19L240.81-1.19L240.81-1.19Q240.31-1.06 239.28-0.84L239.28-0.84L239.28-0.84Q238.25-0.63 237.09-0.44L237.09-0.44L237.09-0.44Q235.94-0.25 234.94-0.13L234.94-0.13L234.94-0.13Q233.94 0 233.56 0L233.56 0L233.56 0Q231.63 0.38 230.19-0.06L230.19-0.06L230.19-0.06Q228.75-0.50 227.75-1.56L227.75-1.56L227.75-1.56Q226.75-2.63 226.13-4.16L226.13-4.16L226.13-4.16Q225.50-5.69 225.19-7.44L225.19-7.44L225.19-7.44Q224.88-9.19 224.84-11.06L224.84-11.06L224.84-11.06Q224.81-12.94 225-14.69ZM234.06-25.38L234.06-25.38L234.06-25.38Q233.50-25.38 232.59-24.78L232.59-24.78L232.59-24.78Q231.69-24.19 230.91-23.28L230.91-23.28L230.91-23.28Q230.13-22.38 229.59-21.34L229.59-21.34L229.59-21.34Q229.06-20.31 229.25-19.56L229.25-19.56L229.25-19.56Q230.88-19.38 232.63-19.63L232.63-19.63L232.63-19.63Q234.38-19.88 235.81-20.41L235.81-20.41L235.81-20.41Q237.25-20.94 238.19-21.66L238.19-21.66L238.19-21.66Q239.13-22.38 239.09-23.13L239.09-23.13L239.09-23.13Q239.06-23.88 237.91-24.47L237.91-24.47L237.91-24.47Q236.75-25.06 234.06-25.38ZM269.94-42L272.31-42L274.69-2.38L274.69-2.38Q280.25-2.38 285.84-3.09L285.84-3.09L285.84-3.09Q291.44-3.81 297.31-4.44L297.31-4.44L297.56-2.38L297.56-2.38Q297.50-2.38 296.41-2.22L296.41-2.22L296.41-2.22Q295.31-2.06 293.53-1.84L293.53-1.84L293.53-1.84Q291.75-1.63 289.50-1.38L289.50-1.38L289.50-1.38Q287.25-1.13 285-0.88L285-0.88L285-0.88Q282.75-0.63 280.69-0.38L280.69-0.38L280.69-0.38Q278.63-0.13 277.13 0L277.13 0L277.13 0Q277.06 0 276.81 0.03L276.81 0.03L276.81 0.03Q276.56 0.06 276.25 0.06L276.25 0.06L276.25 0.06Q275.94 0.06 275.63 0.06L275.63 0.06L275.63 0.06Q275.31 0.06 275.13 0.06L275.13 0.06L275.13 0.06Q273.75 0.06 272.88-1.41L272.88-1.41L272.88-1.41Q272-2.88 271.44-5.41L271.44-5.41L271.44-5.41Q270.88-7.94 270.63-11.22L270.63-11.22L270.63-11.22Q270.38-14.50 270.25-18.06L270.25-18.06L270.25-18.06Q270.13-21.63 270.16-25.25L270.16-25.25L270.16-25.25Q270.19-28.88 270.19-32.09L270.19-32.09L270.19-32.09Q270.19-35.31 270.16-37.94L270.16-37.94L270.16-37.94Q270.13-40.56 269.94-42L269.94-42ZM300.25-5.38L300.25-5.38L300.25-5.38Q300.25-8.94 302.22-10.56L302.22-10.56L302.22-10.56Q304.19-12.19 307.38-12.19L307.38-12.19L307.38-12.19Q308.63-12.19 309.72-12.13L309.72-12.13L309.72-12.13Q310.81-12.06 311.81-11.81L311.81-11.81L311.81-11.81Q312.81-11.56 313.78-11.06L313.78-11.06L313.78-11.06Q314.75-10.56 315.81-9.63L315.81-9.63L315.81-9.63Q315.81-9.81 315.84-10.41L315.84-10.41L315.84-10.41Q315.88-11 315.88-11.69L315.88-11.69L315.88-11.69Q315.88-12.38 315.88-12.97L315.88-12.97L315.88-12.97Q315.88-13.56 315.88-13.81L315.88-13.81L315.88-13.81Q315.81-14.94 315.81-16.72L315.81-16.72L315.81-16.72Q315.81-18.50 315.53-20.38L315.53-20.38L315.53-20.38Q315.25-22.25 314.41-23.94L314.41-23.94L314.41-23.94Q313.56-25.63 311.69-26.50L311.69-26.50L311.69-26.50Q310.38-26.50 309.25-26.06L309.25-26.06L309.25-26.06Q308.13-25.63 307-25.13L307-25.13L307-25.13Q305.88-24.63 304.75-24.22L304.75-24.22L304.75-24.22Q303.63-23.81 302.31-23.81L302.31-23.81L302.31-23.81Q302.31-25.38 303.28-26.41L303.28-26.41L303.28-26.41Q304.25-27.44 305.63-28L305.63-28L305.63-28Q307-28.56 308.50-28.75L308.50-28.75L308.50-28.75Q310-28.94 311.13-28.94L311.13-28.94L311.13-28.94Q312.25-28.75 313.22-28.50L313.22-28.50L313.22-28.50Q314.19-28.25 315.03-27.50L315.03-27.50L315.03-27.50Q315.88-26.75 316.59-25.22L316.59-25.22L316.59-25.22Q317.31-23.69 317.84-20.94L317.84-20.94L317.84-20.94Q318.38-18.19 318.78-13.97L318.78-13.97L318.78-13.97Q319.19-9.75 319.44-3.63L319.44-3.63L319.44-3.63Q319.56-2.81 318.91-2.22L318.91-2.22L318.91-2.22Q318.25-1.63 317.13-1.22L317.13-1.22L317.13-1.22Q316-0.81 314.59-0.53L314.59-0.53L314.59-0.53Q313.19-0.25 311.75-0.13L311.75-0.13L311.75-0.13Q310.31 0 309 0.06L309 0.06L309 0.06Q307.69 0.13 306.81 0.13L306.81 0.13L306.81 0.13Q305.69 0.13 304.53-0.25L304.53-0.25L304.53-0.25Q303.38-0.63 302.41-1.34L302.41-1.34L302.41-1.34Q301.44-2.06 300.84-3.09L300.84-3.09L300.84-3.09Q300.25-4.13 300.25-5.38ZM308.38-9.75L308.38-9.75L308.38-9.75Q305.25-8.88 304-7.66L304-7.66L304-7.66Q302.75-6.44 302.91-5.31L302.91-5.31L302.91-5.31Q303.06-4.19 304.38-3.28L304.38-3.28L304.38-3.28Q305.69-2.38 307.56-2.09L307.56-2.09L307.56-2.09Q309.44-1.81 311.63-2.41L311.63-2.41L311.63-2.41Q313.81-3 315.81-4.75L315.81-4.75L315.81-4.75Q315.06-6.56 314.31-7.53L314.31-7.53L314.31-7.53Q313.56-8.50 312.69-9L312.69-9L312.69-9Q311.81-9.50 310.75-9.63L310.75-9.63L310.75-9.63Q309.69-9.75 308.38-9.75ZM329.56-22.69L329.56-22.69L329.56-22.69Q329-22.88 328.03-22.84L328.03-22.84L328.03-22.84Q327.06-22.81 325.97-22.72L325.97-22.72L325.97-22.72Q324.88-22.63 323.88-22.50L323.88-22.50L323.88-22.50Q322.88-22.38 322.19-22.38L322.19-22.38L322.19-22.38Q321.88-22.38 321.78-23.28L321.78-23.28L321.78-23.28Q321.69-24.19 321.50-25.75L321.50-25.75L330.31-26.38L330.31-26.38Q330.50-28.56 330.56-29.50L330.56-29.50L330.56-29.50Q330.63-30.44 330.59-31.09L330.59-31.09L330.59-31.09Q330.56-31.75 330.53-32.59L330.53-32.59L330.53-32.59Q330.50-33.44 330.50-35.25L330.50-35.25L330.50-35.25Q332.13-35.50 332.97-35.41L332.97-35.41L332.97-35.41Q333.81-35.31 334.13-34.94L334.13-34.94L334.13-34.94Q334.44-34.56 334.41-33.84L334.41-33.84L334.41-33.84Q334.38-33.13 334.22-32.06L334.22-32.06L334.22-32.06Q334.06-31 333.97-29.50L333.97-29.50L333.97-29.50Q333.88-28 334.06-26.13L334.06-26.13L341.56-26.38L341.56-23.31L341.56-23.31Q341.06-23.31 340-23.25L340-23.25L340-23.25Q338.94-23.19 337.72-23.13L337.72-23.13L337.72-23.13Q336.50-23.06 335.47-23L335.47-23L335.47-23Q334.44-22.94 333.94-22.75L333.94-22.75L333.94-22.75Q333.44-20.50 332.88-17.94L332.88-17.94L332.88-17.94Q332.31-15.38 332.13-12.88L332.13-12.88L332.13-12.88Q331.94-10.38 332.25-8.22L332.25-8.22L332.25-8.22Q332.56-6.06 333.81-4.66L333.81-4.66L333.81-4.66Q335.06-3.25 337.38-2.72L337.38-2.72L337.38-2.72Q339.69-2.19 343.50-3.06L343.50-3.06L343.50-3.06Q343.38-2.13 342.78-1.53L342.78-1.53L342.78-1.53Q342.19-0.94 341.41-0.59L341.41-0.59L341.41-0.59Q340.63-0.25 339.75-0.09L339.75-0.09L339.75-0.09Q338.88 0.06 338.19 0.06L338.19 0.06L338.19 0.06Q335 0.06 333.13-1.09L333.13-1.09L333.13-1.09Q331.25-2.25 330.31-4.13L330.31-4.13L330.31-4.13Q329.38-6 329.13-8.41L329.13-8.41L329.13-8.41Q328.88-10.81 328.97-13.31L328.97-13.31L328.97-13.31Q329.06-15.81 329.31-18.25L329.31-18.25L329.31-18.25Q329.56-20.69 329.56-22.69ZM346.06-14.69L346.06-14.69L346.06-14.69Q346.06-16.56 346.88-18.84L346.88-18.84L346.88-18.84Q347.69-21.13 349.09-23.09L349.09-23.09L349.09-23.09Q350.50-25.06 352.28-26.41L352.28-26.41L352.28-26.41Q354.06-27.75 356-27.75L356-27.75L356-27.75Q357.06-27.75 358.09-27.31L358.09-27.31L358.09-27.31Q359.13-26.88 360.09-26.16L360.09-26.16L360.09-26.16Q361.06-25.44 361.84-24.53L361.84-24.53L361.84-24.53Q362.63-23.63 363.06-22.63L363.06-22.63L363.06-22.63Q363.50-21.63 363.53-20.69L363.53-20.69L363.53-20.69Q363.56-19.75 363-19.06L363-19.06L349.81-16.63L349.81-16.63Q349.56-16.56 349.38-16.03L349.38-16.03L349.38-16.03Q349.19-15.50 349.06-14.69L349.06-14.69L349.06-14.69Q348.94-13.88 348.84-12.91L348.84-12.91L348.84-12.91Q348.75-11.94 348.69-11.03L348.69-11.03L348.69-11.03Q348.63-10.13 348.63-9.41L348.63-9.41L348.63-9.41Q348.63-8.69 348.63-8.31L348.63-8.31L348.63-8.31Q348.63-6.56 349.47-5.47L349.47-5.47L349.47-5.47Q350.31-4.38 351.63-3.81L351.63-3.81L351.63-3.81Q352.94-3.25 354.59-3.06L354.59-3.06L354.59-3.06Q356.25-2.88 357.88-2.88L357.88-2.88L357.88-2.88Q359.50-2.88 360.94-3L360.94-3L360.94-3Q362.38-3.13 363.31-3.13L363.31-3.13L363.31-3.13Q363.31-2.88 363.13-2.56L363.13-2.56L363.13-2.56Q362.94-2.25 362.69-1.97L362.69-1.97L362.69-1.97Q362.44-1.69 362.19-1.47L362.19-1.47L362.19-1.47Q361.94-1.25 361.88-1.19L361.88-1.19L361.88-1.19Q361.38-1.06 360.34-0.84L360.34-0.84L360.34-0.84Q359.31-0.63 358.16-0.44L358.16-0.44L358.16-0.44Q357-0.25 356-0.13L356-0.13L356-0.13Q355 0 354.63 0L354.63 0L354.63 0Q352.69 0.38 351.25-0.06L351.25-0.06L351.25-0.06Q349.81-0.50 348.81-1.56L348.81-1.56L348.81-1.56Q347.81-2.63 347.19-4.16L347.19-4.16L347.19-4.16Q346.56-5.69 346.25-7.44L346.25-7.44L346.25-7.44Q345.94-9.19 345.91-11.06L345.91-11.06L345.91-11.06Q345.88-12.94 346.06-14.69ZM355.13-25.38L355.13-25.38L355.13-25.38Q354.56-25.38 353.66-24.78L353.66-24.78L353.66-24.78Q352.75-24.19 351.97-23.28L351.97-23.28L351.97-23.28Q351.19-22.38 350.66-21.34L350.66-21.34L350.66-21.34Q350.13-20.31 350.31-19.56L350.31-19.56L350.31-19.56Q351.94-19.38 353.69-19.63L353.69-19.63L353.69-19.63Q355.44-19.88 356.88-20.41L356.88-20.41L356.88-20.41Q358.31-20.94 359.25-21.66L359.25-21.66L359.25-21.66Q360.19-22.38 360.16-23.13L360.16-23.13L360.16-23.13Q360.13-23.88 358.97-24.47L358.97-24.47L358.97-24.47Q357.81-25.06 355.13-25.38ZM370-5.06L370-5.06L370-5.06Q371.13-5.06 372.09-4.63L372.09-4.63L372.09-4.63Q373.06-4.19 374-3.66L374-3.66L374-3.66Q374.94-3.13 375.91-2.72L375.91-2.72L375.91-2.72Q376.88-2.31 378-2.31L378-2.31L378-2.31Q379.31-2.31 380.72-2.78L380.72-2.78L380.72-2.78Q382.13-3.25 383.31-4.09L383.31-4.09L383.31-4.09Q384.50-4.94 385.25-6.16L385.25-6.16L385.25-6.16Q386-7.38 386-8.81L386-8.81L386-8.81Q386.06-9.25 386.03-9.88L386.03-9.88L386.03-9.88Q386-10.50 385.63-11.16L385.63-11.16L385.63-11.16Q385.25-11.81 384.38-12.41L384.38-12.41L384.38-12.41Q383.50-13 381.84-13.31L381.84-13.31L381.84-13.31Q380.19-13.63 377.69-13.66L377.69-13.66L377.69-13.66Q375.19-13.69 371.50-13.19L371.50-13.19L371.50-13.19Q370.56-13.19 369.69-13.72L369.69-13.72L369.69-13.72Q368.81-14.25 368.13-15.03L368.13-15.03L368.13-15.03Q367.44-15.81 367-16.72L367-16.72L367-16.72Q366.56-17.63 366.56-18.44L366.56-18.44L366.56-18.44Q366.56-20.88 367.59-22.41L367.59-22.41L367.59-22.41Q368.63-23.94 370.25-24.84L370.25-24.84L370.25-24.84Q371.88-25.75 373.88-26.13L373.88-26.13L373.88-26.13Q375.88-26.50 377.94-26.50L377.94-26.50L377.94-26.50Q378.88-26.50 380.09-26.41L380.09-26.41L380.09-26.41Q381.31-26.31 382.34-25.91L382.34-25.91L382.34-25.91Q383.38-25.50 384.09-24.63L384.09-24.63L384.09-24.63Q384.81-23.75 384.81-22.19L384.81-22.19L384.81-22.19Q384.69-21.13 384.47-20.91L384.47-20.91L384.47-20.91Q384.25-20.69 383.84-21.03L383.84-21.03L383.84-21.03Q383.44-21.38 382.88-22L382.88-22L382.88-22Q382.31-22.63 381.53-23.22L381.53-23.22L381.53-23.22Q380.75-23.81 379.66-24.13L379.66-24.13L379.66-24.13Q378.56-24.44 377.19-24.13L377.19-24.13L377.19-24.13Q375.75-24.13 374.31-23.84L374.31-23.84L374.31-23.84Q372.88-23.56 371.72-22.88L371.72-22.88L371.72-22.88Q370.56-22.19 369.84-21L369.84-21L369.84-21Q369.13-19.81 369.13-18L369.13-18L369.13-18Q369.13-17.06 369.97-16.72L369.97-16.72L369.97-16.72Q370.81-16.38 372.22-16.38L372.22-16.38L372.22-16.38Q373.63-16.38 375.41-16.47L375.41-16.47L375.41-16.47Q377.19-16.56 379.06-16.56L379.06-16.56L379.06-16.56Q380.94-16.56 382.69-16.28L382.69-16.28L382.69-16.28Q384.44-16 385.78-15.16L385.78-15.16L385.78-15.16Q387.13-14.31 387.88-12.75L387.88-12.75L387.88-12.75Q388.63-11.19 388.44-8.69L388.44-8.69L388.44-8.69Q388.44-6.88 387.41-5.25L387.41-5.25L387.41-5.25Q386.38-3.63 384.78-2.41L384.78-2.41L384.78-2.41Q383.19-1.19 381.25-0.50L381.25-0.50L381.25-0.50Q379.31 0.19 377.50 0L377.50 0L377.50 0Q376.75-0.06 375.47-0.41L375.47-0.41L375.47-0.41Q374.19-0.75 372.97-1.38L372.97-1.38L372.97-1.38Q371.75-2 370.88-2.91L370.88-2.91L370.88-2.91Q370-3.81 370-5.06ZM399-22.69L399-22.69L399-22.69Q398.44-22.88 397.47-22.84L397.47-22.84L397.47-22.84Q396.50-22.81 395.41-22.72L395.41-22.72L395.41-22.72Q394.31-22.63 393.31-22.50L393.31-22.50L393.31-22.50Q392.31-22.38 391.63-22.38L391.63-22.38L391.63-22.38Q391.31-22.38 391.22-23.28L391.22-23.28L391.22-23.28Q391.13-24.19 390.94-25.75L390.94-25.75L399.75-26.38L399.75-26.38Q399.94-28.56 400-29.50L400-29.50L400-29.50Q400.06-30.44 400.03-31.09L400.03-31.09L400.03-31.09Q400-31.75 399.97-32.59L399.97-32.59L399.97-32.59Q399.94-33.44 399.94-35.25L399.94-35.25L399.94-35.25Q401.56-35.50 402.41-35.41L402.41-35.41L402.41-35.41Q403.25-35.31 403.56-34.94L403.56-34.94L403.56-34.94Q403.88-34.56 403.84-33.84L403.84-33.84L403.84-33.84Q403.81-33.13 403.66-32.06L403.66-32.06L403.66-32.06Q403.50-31 403.41-29.50L403.41-29.50L403.41-29.50Q403.31-28 403.50-26.13L403.50-26.13L411-26.38L411-23.31L411-23.31Q410.50-23.31 409.44-23.25L409.44-23.25L409.44-23.25Q408.38-23.19 407.16-23.13L407.16-23.13L407.16-23.13Q405.94-23.06 404.91-23L404.91-23L404.91-23Q403.88-22.94 403.38-22.75L403.38-22.75L403.38-22.75Q402.88-20.50 402.31-17.94L402.31-17.94L402.31-17.94Q401.75-15.38 401.56-12.88L401.56-12.88L401.56-12.88Q401.38-10.38 401.69-8.22L401.69-8.22L401.69-8.22Q402-6.06 403.25-4.66L403.25-4.66L403.25-4.66Q404.50-3.25 406.81-2.72L406.81-2.72L406.81-2.72Q409.13-2.19 412.94-3.06L412.94-3.06L412.94-3.06Q412.81-2.13 412.22-1.53L412.22-1.53L412.22-1.53Q411.63-0.94 410.84-0.59L410.84-0.59L410.84-0.59Q410.06-0.25 409.19-0.09L409.19-0.09L409.19-0.09Q408.31 0.06 407.63 0.06L407.63 0.06L407.63 0.06Q404.44 0.06 402.56-1.09L402.56-1.09L402.56-1.09Q400.69-2.25 399.75-4.13L399.75-4.13L399.75-4.13Q398.81-6 398.56-8.41L398.56-8.41L398.56-8.41Q398.31-10.81 398.41-13.31L398.41-13.31L398.41-13.31Q398.50-15.81 398.75-18.25L398.75-18.25L398.75-18.25Q399-20.69 399-22.69ZM439.06-9.63L439.06-9.63L439.06-9.63Q439.06-10.44 439.16-11.06L439.16-11.06L439.16-11.06Q439.25-11.69 440.25-12L440.25-12L440.25-12Q441.31-11.56 441.81-10.66L441.81-10.66L441.81-10.66Q442.31-9.75 442.66-8.63L442.66-8.63L442.66-8.63Q443-7.50 443.28-6.31L443.28-6.31L443.28-6.31Q443.56-5.13 444.13-4.19L444.13-4.19L444.13-4.19Q444.69-3.25 445.75-2.72L445.75-2.72L445.75-2.72Q446.81-2.19 448.63-2.38L448.63-2.38L448.63-2.38Q451.88-2.69 454.13-3.53L454.13-3.53L454.13-3.53Q456.38-4.38 457.84-5.63L457.84-5.63L457.84-5.63Q459.31-6.88 460.16-8.56L460.16-8.56L460.16-8.56Q461-10.25 461.41-12.31L461.41-12.31L461.41-12.31Q461.81-14.38 461.91-16.78L461.91-16.78L461.91-16.78Q462-19.19 462-21.94L462-21.94L462-21.94Q462-24.75 461.59-27.50L461.59-27.50L461.59-27.50Q461.19-30.25 460.72-32.97L460.72-32.97L460.72-32.97Q460.25-35.69 459.84-38.41L459.84-38.41L459.84-38.41Q459.44-41.13 459.44-43.88L459.44-43.88L459.44-43.88Q459.44-44.19 459.47-44.41L459.47-44.41L459.47-44.41Q459.50-44.63 459.78-44.72L459.78-44.72L459.78-44.72Q460.06-44.81 460.53-44.75L460.53-44.75L460.53-44.75Q461-44.69 461.88-44.38L461.88-44.38L461.88-44.38Q461.94-44.31 462.16-43.53L462.16-43.53L462.16-43.53Q462.38-42.75 462.63-41.56L462.63-41.56L462.63-41.56Q462.88-40.38 463.13-38.94L463.13-38.94L463.13-38.94Q463.38-37.50 463.59-36.06L463.59-36.06L463.59-36.06Q463.81-34.63 464-33.34L464-33.34L464-33.34Q464.19-32.06 464.25-31.19L464.25-31.19L464.25-31.19Q464.50-27.44 464.88-23.56L464.88-23.56L464.88-23.56Q465.25-19.69 465.19-16.06L465.19-16.06L465.19-16.06Q465.13-12.44 464.41-9.34L464.41-9.34L464.41-9.34Q463.69-6.25 461.81-4.03L461.81-4.03L461.81-4.03Q459.94-1.81 456.63-0.66L456.63-0.66L456.63-0.66Q453.31 0.50 448.13 0.13L448.13 0.13L448.13 0.13Q446.25 0.13 444.59-0.72L444.59-0.72L444.59-0.72Q442.94-1.56 441.72-2.94L441.72-2.94L441.72-2.94Q440.50-4.31 439.78-6.06L439.78-6.06L439.78-6.06Q439.06-7.81 439.06-9.63ZM467.56-11.44L467.56-11.44L467.56-11.44Q467.56-12.88 467.81-14.78L467.81-14.78L467.81-14.78Q468.06-16.69 468.63-18.63L468.63-18.63L468.63-18.63Q469.19-20.56 470.03-22.44L470.03-22.44L470.03-22.44Q470.88-24.31 472.06-25.78L472.06-25.78L472.06-25.78Q473.25-27.25 474.81-28.16L474.81-28.16L474.81-28.16Q476.38-29.06 478.31-29.06L478.31-29.06L478.31-29.06Q480.31-29.06 482.03-27.69L482.03-27.69L482.03-27.69Q483.75-26.31 484.97-24.13L484.97-24.13L484.97-24.13Q486.19-21.94 486.81-19.25L486.81-19.25L486.81-19.25Q487.44-16.56 487.31-14L487.31-14L487.31-14Q487.31-10.25 485.88-7.31L485.88-7.31L485.88-7.31Q484.44-4.38 482.22-2.56L482.22-2.56L482.22-2.56Q480-0.75 477.47-0.13L477.47-0.13L477.47-0.13Q474.94 0.50 472.72-0.47L472.72-0.47L472.72-0.47Q470.50-1.44 469.03-4.13L469.03-4.13L469.03-4.13Q467.56-6.81 467.56-11.44ZM469.88-11.19L469.88-11.19L469.88-11.19Q470.06-7.38 471.19-5.31L471.19-5.31L471.19-5.31Q472.31-3.25 473.91-2.59L473.91-2.59L473.91-2.59Q475.50-1.94 477.38-2.56L477.38-2.56L477.38-2.56Q479.25-3.19 480.88-4.78L480.88-4.78L480.88-4.78Q482.50-6.38 483.66-8.78L483.66-8.78L483.66-8.78Q484.81-11.19 484.94-14.19L484.94-14.19L484.94-14.19Q485.06-16.44 484.59-18.56L484.59-18.56L484.59-18.56Q484.13-20.69 483.28-22.34L483.28-22.34L483.28-22.34Q482.44-24 481.22-24.97L481.22-24.97L481.22-24.97Q480-25.94 478.44-25.94L478.44-25.94L478.44-25.94Q476.94-25.94 475.75-25.19L475.75-25.19L475.75-25.19Q474.56-24.44 473.59-23.16L473.59-23.16L473.59-23.16Q472.63-21.88 471.94-20.25L471.94-20.25L471.94-20.25Q471.25-18.63 470.78-17L470.78-17L470.78-17Q470.31-15.38 470.09-13.84L470.09-13.84L470.09-13.84Q469.88-12.31 469.88-11.19ZM490.44-24.25L490.44-24.25L490.44-24.25Q490.44-24.56 490.84-24.88L490.84-24.88L490.84-24.88Q491.25-25.19 491.84-25.38L491.84-25.38L491.84-25.38Q492.44-25.56 493-25.63L493-25.63L493-25.63Q493.56-25.69 493.81-25.44L493.81-25.44L493.81-25.44Q494.19-17.69 495.28-13.09L495.28-13.09L495.28-13.09Q496.38-8.50 497.78-6.38L497.78-6.38L497.78-6.38Q499.19-4.25 500.81-4.22L500.81-4.22L500.81-4.22Q502.44-4.19 504-5.59L504-5.59L504-5.59Q505.56-7 506.91-9.44L506.91-9.44L506.91-9.44Q508.25-11.88 509.09-14.69L509.09-14.69L509.09-14.69Q509.94-17.50 510.13-20.31L510.13-20.31L510.13-20.31Q510.31-23.13 509.63-25.31L509.63-25.31L513.38-25.75L513.38-25.75Q513.44-24.81 513.72-22.66L513.72-22.66L513.72-22.66Q514-20.50 514.34-17.78L514.34-17.78L514.34-17.78Q514.69-15.06 515.13-12.13L515.13-12.13L515.13-12.13Q515.56-9.19 515.88-6.66L515.88-6.66L515.88-6.66Q516.19-4.13 516.44-2.34L516.44-2.34L516.44-2.34Q516.69-0.56 516.69-0.13L516.69-0.13L514-0.13L511.06-10.94L511.06-10.94Q510.19-8.75 508.94-6.75L508.94-6.75L508.94-6.75Q507.69-4.75 506.22-3.25L506.22-3.25L506.22-3.25Q504.75-1.75 503.13-0.91L503.13-0.91L503.13-0.91Q501.50-0.06 499.91-0.22L499.91-0.22L499.91-0.22Q498.31-0.38 496.81-1.69L496.81-1.69L496.81-1.69Q495.31-3 494.03-5.84L494.03-5.84L494.03-5.84Q492.75-8.69 491.81-13.19L491.81-13.19L491.81-13.19Q490.88-17.69 490.44-24.25ZM518.69-24.38L518.69-24.38L518.69-24.38Q519.44-24.69 520-24.50L520-24.50L520-24.50Q520.56-24.31 520.94-23.81L520.94-23.81L520.94-23.81Q521.31-23.31 521.50-22.66L521.50-22.66L521.50-22.66Q521.69-22 521.81-21.38L521.81-21.38L521.81-21.38Q522.63-22.75 524.16-23.59L524.16-23.59L524.16-23.59Q525.69-24.44 527.44-24.72L527.44-24.72L527.44-24.72Q529.19-25 530.94-24.84L530.94-24.84L530.94-24.84Q532.69-24.69 533.91-24.09L533.91-24.09L533.91-24.09Q535.13-23.50 535.63-22.47L535.63-22.47L535.63-22.47Q536.13-21.44 535.38-20.06L535.38-20.06L535.38-20.06Q533.75-21 531.97-21.56L531.97-21.56L531.97-21.56Q530.19-22.13 528.50-21.94L528.50-21.94L528.50-21.94Q526.81-21.75 525.38-20.66L525.38-20.66L525.38-20.66Q523.94-19.56 523-17.19L523-17.19L523-17.19Q522.06-14.81 521.84-10.91L521.84-10.91L521.84-10.91Q521.63-7 522.38-1.19L522.38-1.19L520-1.19L520-1.19Q520-1.19 519.91-2.22L519.91-2.22L519.91-2.22Q519.81-3.25 519.72-4.94L519.72-4.94L519.72-4.94Q519.63-6.63 519.47-8.69L519.47-8.69L519.47-8.69Q519.31-10.75 519.19-12.88L519.19-12.88L519.19-12.88Q519.06-15 518.97-16.97L518.97-16.97L518.97-16.97Q518.88-18.94 518.75-20.38L518.75-20.38L518.75-20.38Q518.75-20.56 518.72-21.13L518.72-21.13L518.72-21.13Q518.69-21.69 518.69-22.34L518.69-22.34L518.69-22.34Q518.69-23 518.69-23.56L518.69-23.56L518.69-23.56Q518.69-24.13 518.69-24.38ZM539.13-0.31L539.13-0.31L539.13-0.31Q539-1.31 538.91-3.22L538.91-3.22L538.91-3.22Q538.81-5.13 538.72-7.53L538.72-7.53L538.72-7.53Q538.63-9.94 538.56-12.56L538.56-12.56L538.56-12.56Q538.50-15.19 538.44-17.56L538.44-17.56L538.44-17.56Q538.38-19.94 538.28-21.84L538.28-21.84L538.28-21.84Q538.19-23.75 538-24.75L538-24.75L538-24.75Q538-24.81 537.97-25.06L537.97-25.06L537.97-25.06Q537.94-25.31 537.91-25.63L537.91-25.63L537.91-25.63Q537.88-25.94 537.88-26.16L537.88-26.16L537.88-26.16Q537.88-26.38 537.88-26.50L537.88-26.50L537.88-26.50Q538.81-27.25 539.47-27L539.47-27L539.47-27Q540.13-26.75 540.56-25.91L540.56-25.91L540.56-25.91Q541-25.06 541.19-23.81L541.19-23.81L541.19-23.81Q541.38-22.56 541.47-21.31L541.47-21.31L541.47-21.31Q541.56-20.06 541.56-19.03L541.56-19.03L541.56-19.03Q541.56-18 541.56-17.56L541.56-17.56L541.56-17.56Q541.69-18.63 541.94-20.06L541.94-20.06L541.94-20.06Q542.19-21.50 542.69-23L542.69-23L542.69-23Q543.19-24.50 543.91-25.97L543.91-25.97L543.91-25.97Q544.63-27.44 545.69-28.56L545.69-28.56L545.69-28.56Q546.75-29.69 548.09-30.31L548.09-30.31L548.09-30.31Q549.44-30.94 551.19-30.81L551.19-30.81L551.19-30.81Q553.94-30.69 555.72-29.31L555.72-29.31L555.72-29.31Q557.50-27.94 558.53-25.63L558.53-25.63L558.53-25.63Q559.56-23.31 560.03-20.31L560.03-20.31L560.03-20.31Q560.50-17.31 560.66-13.94L560.66-13.94L560.66-13.94Q560.81-10.56 560.75-7.09L560.75-7.09L560.75-7.09Q560.69-3.63 560.69-0.44L560.69-0.44L560.69-0.44Q560.13-0.31 559.56-0.03L559.56-0.03L559.56-0.03Q559 0.25 558.63 0.22L558.63 0.22L558.63 0.22Q558.25 0.19 558.09-0.34L558.09-0.34L558.09-0.34Q557.94-0.88 558.19-2.44L558.19-2.44L558.19-2.44Q558.25-3.56 558.41-5.91L558.41-5.91L558.41-5.91Q558.56-8.25 558.53-11.13L558.53-11.13L558.53-11.13Q558.50-14 558.19-17.06L558.19-17.06L558.19-17.06Q557.88-20.13 557.03-22.66L557.03-22.66L557.03-22.66Q556.19-25.19 554.63-26.78L554.63-26.78L554.63-26.78Q553.06-28.38 550.56-28.38L550.56-28.38L550.56-28.38Q548-27.31 546.28-24.38L546.28-24.38L546.28-24.38Q544.56-21.44 543.53-17.50L543.53-17.50L543.53-17.50Q542.50-13.56 542.03-8.97L542.03-8.97L542.03-8.97Q541.56-4.38 541.50 0L541.50 0L541.50 0Q541.38-0.06 541.03-0.06L541.03-0.06L541.03-0.06Q540.69-0.06 540.28-0.09L540.28-0.09L540.28-0.09Q539.88-0.13 539.53-0.19L539.53-0.19L539.53-0.19Q539.19-0.25 539.13-0.31ZM563.50-5.38L563.50-5.38L563.50-5.38Q563.50-8.94 565.47-10.56L565.47-10.56L565.47-10.56Q567.44-12.19 570.63-12.19L570.63-12.19L570.63-12.19Q571.88-12.19 572.97-12.13L572.97-12.13L572.97-12.13Q574.06-12.06 575.06-11.81L575.06-11.81L575.06-11.81Q576.06-11.56 577.03-11.06L577.03-11.06L577.03-11.06Q578-10.56 579.06-9.63L579.06-9.63L579.06-9.63Q579.06-9.81 579.09-10.41L579.09-10.41L579.09-10.41Q579.13-11 579.13-11.69L579.13-11.69L579.13-11.69Q579.13-12.38 579.13-12.97L579.13-12.97L579.13-12.97Q579.13-13.56 579.13-13.81L579.13-13.81L579.13-13.81Q579.06-14.94 579.06-16.72L579.06-16.72L579.06-16.72Q579.06-18.50 578.78-20.38L578.78-20.38L578.78-20.38Q578.50-22.25 577.66-23.94L577.66-23.94L577.66-23.94Q576.81-25.63 574.94-26.50L574.94-26.50L574.94-26.50Q573.63-26.50 572.50-26.06L572.50-26.06L572.50-26.06Q571.38-25.63 570.25-25.13L570.25-25.13L570.25-25.13Q569.13-24.63 568-24.22L568-24.22L568-24.22Q566.88-23.81 565.56-23.81L565.56-23.81L565.56-23.81Q565.56-25.38 566.53-26.41L566.53-26.41L566.53-26.41Q567.50-27.44 568.88-28L568.88-28L568.88-28Q570.25-28.56 571.75-28.75L571.75-28.75L571.75-28.75Q573.25-28.94 574.38-28.94L574.38-28.94L574.38-28.94Q575.50-28.75 576.47-28.50L576.47-28.50L576.47-28.50Q577.44-28.25 578.28-27.50L578.28-27.50L578.28-27.50Q579.13-26.75 579.84-25.22L579.84-25.22L579.84-25.22Q580.56-23.69 581.09-20.94L581.09-20.94L581.09-20.94Q581.63-18.19 582.03-13.97L582.03-13.97L582.03-13.97Q582.44-9.75 582.69-3.63L582.69-3.63L582.69-3.63Q582.81-2.81 582.16-2.22L582.16-2.22L582.16-2.22Q581.50-1.63 580.38-1.22L580.38-1.22L580.38-1.22Q579.25-0.81 577.84-0.53L577.84-0.53L577.84-0.53Q576.44-0.25 575-0.13L575-0.13L575-0.13Q573.56 0 572.25 0.06L572.25 0.06L572.25 0.06Q570.94 0.13 570.06 0.13L570.06 0.13L570.06 0.13Q568.94 0.13 567.78-0.25L567.78-0.25L567.78-0.25Q566.63-0.63 565.66-1.34L565.66-1.34L565.66-1.34Q564.69-2.06 564.09-3.09L564.09-3.09L564.09-3.09Q563.50-4.13 563.50-5.38ZM571.63-9.75L571.63-9.75L571.63-9.75Q568.50-8.88 567.25-7.66L567.25-7.66L567.25-7.66Q566-6.44 566.16-5.31L566.16-5.31L566.16-5.31Q566.31-4.19 567.63-3.28L567.63-3.28L567.63-3.28Q568.94-2.38 570.81-2.09L570.81-2.09L570.81-2.09Q572.69-1.81 574.88-2.41L574.88-2.41L574.88-2.41Q577.06-3 579.06-4.75L579.06-4.75L579.06-4.75Q578.31-6.56 577.56-7.53L577.56-7.53L577.56-7.53Q576.81-8.50 575.94-9L575.94-9L575.94-9Q575.06-9.50 574-9.63L574-9.63L574-9.63Q572.94-9.75 571.63-9.75ZM586.69-48.56L586.69-48.56L586.69-48.56Q587.56-48.44 588.22-48.09L588.22-48.09L588.22-48.09Q588.88-47.75 589.25-46.88L589.25-46.88L589.25-46.88Q589.25-45.69 589.34-43.59L589.34-43.59L589.34-43.59Q589.44-41.50 589.53-38.75L589.53-38.75L589.53-38.75Q589.63-36 589.75-32.81L589.75-32.81L589.75-32.81Q589.88-29.63 590-26.38L590-26.38L590-26.38Q590.13-23.13 590.22-19.94L590.22-19.94L590.22-19.94Q590.31-16.75 590.41-14L590.41-14L590.41-14Q590.50-11.25 590.56-9.13L590.56-9.13L590.56-9.13Q590.63-7 590.69-5.88L590.69-5.88L590.69-5.88Q590.69-5.75 590.66-5.44L590.66-5.44L590.66-5.44Q590.63-5.13 590.59-4.69L590.59-4.69L590.59-4.69Q590.56-4.25 590.53-3.84L590.53-3.84L590.53-3.84Q590.50-3.44 590.50-3.25L590.50-3.25L590.50-3.25Q590.44-2.88 590.44-2.34L590.44-2.34L590.44-2.34Q590.44-1.81 590.31-1.31L590.31-1.31L590.31-1.31Q590.19-0.81 589.91-0.41L589.91-0.41L589.91-0.41Q589.63 0 589 0.06L589 0.06L587.94-1.25L587.94-1.25Q587.88-1.31 587.78-3.59L587.78-3.59L587.78-3.59Q587.69-5.88 587.53-9.53L587.53-9.53L587.53-9.53Q587.38-13.19 587.25-17.78L587.25-17.78L587.25-17.78Q587.13-22.38 586.97-27.06L586.97-27.06L586.97-27.06Q586.81-31.75 586.69-36.06L586.69-36.06L586.69-36.06Q586.56-40.38 586.50-43.50L586.50-43.50L586.50-43.50Q586.50-43.75 586.53-44.50L586.53-44.50L586.53-44.50Q586.56-45.25 586.59-46.03L586.59-46.03L586.59-46.03Q586.63-46.81 586.66-47.53L586.66-47.53L586.66-47.53Q586.69-48.25 586.69-48.56ZM617.88-33.63L617.88-33.63L617.88-33.63Q618.88-35.06 620.53-36.09L620.53-36.09L620.53-36.09Q622.19-37.13 624.22-37.81L624.22-37.81L624.22-37.81Q626.25-38.50 628.59-38.88L628.59-38.88L628.59-38.88Q630.94-39.25 633.19-39.44L633.19-39.44L633.19-39.44Q635.44-39.63 637.56-39.69L637.56-39.69L637.56-39.69Q639.69-39.75 641.31-39.75L641.31-39.75L641.31-39.75Q641.44-39.75 641.88-39.72L641.88-39.72L641.88-39.72Q642.31-39.69 642.81-39.66L642.81-39.66L642.81-39.66Q643.31-39.63 643.72-39.63L643.72-39.63L643.72-39.63Q644.13-39.63 644.31-39.63L644.31-39.63L644.31-39.63Q644.56-38.25 644.03-37.72L644.03-37.72L644.03-37.72Q643.50-37.19 642.66-37.09L642.66-37.09L642.66-37.09Q641.81-37 640.88-37.16L640.88-37.16L640.88-37.16Q639.94-37.31 639.50-37.19L639.50-37.19L639.50-37.19Q638.88-37.13 637.53-36.84L637.53-36.84L637.53-36.84Q636.19-36.56 634.56-36.22L634.56-36.22L634.56-36.22Q632.94-35.88 631.09-35.47L631.09-35.47L631.09-35.47Q629.25-35.06 627.59-34.72L627.59-34.72L627.59-34.72Q625.94-34.38 624.63-34.06L624.63-34.06L624.63-34.06Q623.31-33.75 622.69-33.63L622.69-33.63L622.69-33.63Q621.69-33.25 621.56-32.69L621.56-32.69L621.56-32.69Q621.44-32.13 621.44-31.38L621.44-31.38L621.44-31.38Q621.44-30.06 621.59-28.44L621.59-28.44L621.59-28.44Q621.75-26.81 621.97-25.22L621.97-25.22L621.97-25.22Q622.19-23.63 622.41-22.31L622.41-22.31L622.41-22.31Q622.63-21 622.69-20.38L622.69-20.38L622.69-20.38Q622.94-20.31 623.63-20.31L623.63-20.31L623.63-20.31Q624.31-20.31 624.56-20.31L624.56-20.31L624.56-20.31Q626-20.31 627.38-20.56L627.38-20.56L627.38-20.56Q628.75-20.81 630.13-21.13L630.13-21.13L630.13-21.13Q631.50-21.44 632.94-21.66L632.94-21.66L632.94-21.66Q634.38-21.88 635.88-21.88L635.88-21.88L635.88-19.56L635.88-19.56Q635.25-19.56 634.13-19.47L634.13-19.47L634.13-19.47Q633-19.38 631.66-19.13L631.66-19.13L631.66-19.13Q630.31-18.88 628.94-18.59L628.94-18.59L628.94-18.59Q627.56-18.31 626.44-18L626.44-18L626.44-18Q625.31-17.69 624.59-17.38L624.59-17.38L624.59-17.38Q623.88-17.06 623.88-16.75L623.88-16.75L623.88-3.75L623.88-3.75Q626.81-3.75 629.72-3.94L629.72-3.94L629.72-3.94Q632.63-4.13 635.56-4.34L635.56-4.34L635.56-4.34Q638.50-4.56 641.44-4.75L641.44-4.75L641.44-4.75Q644.38-4.94 647.31-4.94L647.31-4.94L647.31-4.94Q647.31-4.19 646.81-3.72L646.81-3.72L646.81-3.72Q646.31-3.25 645.66-2.97L645.66-2.97L645.66-2.97Q645-2.69 644.25-2.56L644.25-2.56L644.25-2.56Q643.50-2.44 643.13-2.38L643.13-2.38L643.13-2.38Q642.88-2.31 641.56-2.19L641.56-2.19L641.56-2.19Q640.25-2.06 638.31-1.81L638.31-1.81L638.31-1.81Q636.38-1.56 634-1.31L634-1.31L634-1.31Q631.63-1.06 629.31-0.81L629.31-0.81L629.31-0.81Q627-0.56 624.94-0.34L624.94-0.34L624.94-0.34Q622.88-0.13 621.50 0L621.50 0L621.50 0Q621.31 0.06 620.94 0.06L620.94 0.06L620.94 0.06Q620.94-8.31 620.41-16.84L620.41-16.84L620.41-16.84Q619.88-25.38 617.88-33.63ZM650.63-0.31L650.63-0.31L650.63-0.31Q650.50-1.31 650.41-3.22L650.41-3.22L650.41-3.22Q650.31-5.13 650.22-7.53L650.22-7.53L650.22-7.53Q650.13-9.94 650.06-12.56L650.06-12.56L650.06-12.56Q650-15.19 649.94-17.56L649.94-17.56L649.94-17.56Q649.88-19.94 649.78-21.84L649.78-21.84L649.78-21.84Q649.69-23.75 649.50-24.75L649.50-24.75L649.50-24.75Q649.50-24.81 649.47-25.06L649.47-25.06L649.47-25.06Q649.44-25.31 649.41-25.63L649.41-25.63L649.41-25.63Q649.38-25.94 649.38-26.16L649.38-26.16L649.38-26.16Q649.38-26.38 649.38-26.50L649.38-26.50L649.38-26.50Q650.31-27.25 650.97-27L650.97-27L650.97-27Q651.63-26.75 652.06-25.91L652.06-25.91L652.06-25.91Q652.50-25.06 652.69-23.81L652.69-23.81L652.69-23.81Q652.88-22.56 652.97-21.31L652.97-21.31L652.97-21.31Q653.06-20.06 653.06-19.03L653.06-19.03L653.06-19.03Q653.06-18 653.06-17.56L653.06-17.56L653.06-17.56Q653.19-18.63 653.44-20.06L653.44-20.06L653.44-20.06Q653.69-21.50 654.19-23L654.19-23L654.19-23Q654.69-24.50 655.41-25.97L655.41-25.97L655.41-25.97Q656.13-27.44 657.19-28.56L657.19-28.56L657.19-28.56Q658.25-29.69 659.59-30.31L659.59-30.31L659.59-30.31Q660.94-30.94 662.69-30.81L662.69-30.81L662.69-30.81Q665.44-30.69 667.22-29.31L667.22-29.31L667.22-29.31Q669-27.94 670.03-25.63L670.03-25.63L670.03-25.63Q671.06-23.31 671.53-20.31L671.53-20.31L671.53-20.31Q672-17.31 672.16-13.94L672.16-13.94L672.16-13.94Q672.31-10.56 672.25-7.09L672.25-7.09L672.25-7.09Q672.19-3.63 672.19-0.44L672.19-0.44L672.19-0.44Q671.63-0.31 671.06-0.03L671.06-0.03L671.06-0.03Q670.50 0.25 670.13 0.22L670.13 0.22L670.13 0.22Q669.75 0.19 669.59-0.34L669.59-0.34L669.59-0.34Q669.44-0.88 669.69-2.44L669.69-2.44L669.69-2.44Q669.75-3.56 669.91-5.91L669.91-5.91L669.91-5.91Q670.06-8.25 670.03-11.13L670.03-11.13L670.03-11.13Q670-14 669.69-17.06L669.69-17.06L669.69-17.06Q669.38-20.13 668.53-22.66L668.53-22.66L668.53-22.66Q667.69-25.19 666.13-26.78L666.13-26.78L666.13-26.78Q664.56-28.38 662.06-28.38L662.06-28.38L662.06-28.38Q659.50-27.31 657.78-24.38L657.78-24.38L657.78-24.38Q656.06-21.44 655.03-17.50L655.03-17.50L655.03-17.50Q654-13.56 653.53-8.97L653.53-8.97L653.53-8.97Q653.06-4.38 653 0L653 0L653 0Q652.88-0.06 652.53-0.06L652.53-0.06L652.53-0.06Q652.19-0.06 651.78-0.09L651.78-0.09L651.78-0.09Q651.38-0.13 651.03-0.19L651.03-0.19L651.03-0.19Q650.69-0.25 650.63-0.31ZM682.69-22.69L682.69-22.69L682.69-22.69Q682.13-22.88 681.16-22.84L681.16-22.84L681.16-22.84Q680.19-22.81 679.09-22.72L679.09-22.72L679.09-22.72Q678-22.63 677-22.50L677-22.50L677-22.50Q676-22.38 675.31-22.38L675.31-22.38L675.31-22.38Q675-22.38 674.91-23.28L674.91-23.28L674.91-23.28Q674.81-24.19 674.63-25.75L674.63-25.75L683.44-26.38L683.44-26.38Q683.63-28.56 683.69-29.50L683.69-29.50L683.69-29.50Q683.75-30.44 683.72-31.09L683.72-31.09L683.72-31.09Q683.69-31.75 683.66-32.59L683.66-32.59L683.66-32.59Q683.63-33.44 683.63-35.25L683.63-35.25L683.63-35.25Q685.25-35.50 686.09-35.41L686.09-35.41L686.09-35.41Q686.94-35.31 687.25-34.94L687.25-34.94L687.25-34.94Q687.56-34.56 687.53-33.84L687.53-33.84L687.53-33.84Q687.50-33.13 687.34-32.06L687.34-32.06L687.34-32.06Q687.19-31 687.09-29.50L687.09-29.50L687.09-29.50Q687-28 687.19-26.13L687.19-26.13L694.69-26.38L694.69-23.31L694.69-23.31Q694.19-23.31 693.13-23.25L693.13-23.25L693.13-23.25Q692.06-23.19 690.84-23.13L690.84-23.13L690.84-23.13Q689.63-23.06 688.59-23L688.59-23L688.59-23Q687.56-22.94 687.06-22.75L687.06-22.75L687.06-22.75Q686.56-20.50 686-17.94L686-17.94L686-17.94Q685.44-15.38 685.25-12.88L685.25-12.88L685.25-12.88Q685.06-10.38 685.38-8.22L685.38-8.22L685.38-8.22Q685.69-6.06 686.94-4.66L686.94-4.66L686.94-4.66Q688.19-3.25 690.50-2.72L690.50-2.72L690.50-2.72Q692.81-2.19 696.63-3.06L696.63-3.06L696.63-3.06Q696.50-2.13 695.91-1.53L695.91-1.53L695.91-1.53Q695.31-0.94 694.53-0.59L694.53-0.59L694.53-0.59Q693.75-0.25 692.88-0.09L692.88-0.09L692.88-0.09Q692 0.06 691.31 0.06L691.31 0.06L691.31 0.06Q688.13 0.06 686.25-1.09L686.25-1.09L686.25-1.09Q684.38-2.25 683.44-4.13L683.44-4.13L683.44-4.13Q682.50-6 682.25-8.41L682.25-8.41L682.25-8.41Q682-10.81 682.09-13.31L682.09-13.31L682.09-13.31Q682.19-15.81 682.44-18.25L682.44-18.25L682.44-18.25Q682.69-20.69 682.69-22.69ZM698.38-24.38L698.38-24.38L698.38-24.38Q699.13-24.69 699.69-24.50L699.69-24.50L699.69-24.50Q700.25-24.31 700.63-23.81L700.63-23.81L700.63-23.81Q701-23.31 701.19-22.66L701.19-22.66L701.19-22.66Q701.38-22 701.50-21.38L701.50-21.38L701.50-21.38Q702.31-22.75 703.84-23.59L703.84-23.59L703.84-23.59Q705.38-24.44 707.13-24.72L707.13-24.72L707.13-24.72Q708.88-25 710.63-24.84L710.63-24.84L710.63-24.84Q712.38-24.69 713.59-24.09L713.59-24.09L713.59-24.09Q714.81-23.50 715.31-22.47L715.31-22.47L715.31-22.47Q715.81-21.44 715.06-20.06L715.06-20.06L715.06-20.06Q713.44-21 711.66-21.56L711.66-21.56L711.66-21.56Q709.88-22.13 708.19-21.94L708.19-21.94L708.19-21.94Q706.50-21.75 705.06-20.66L705.06-20.66L705.06-20.66Q703.63-19.56 702.69-17.19L702.69-17.19L702.69-17.19Q701.75-14.81 701.53-10.91L701.53-10.91L701.53-10.91Q701.31-7 702.06-1.19L702.06-1.19L699.69-1.19L699.69-1.19Q699.69-1.19 699.59-2.22L699.59-2.22L699.59-2.22Q699.50-3.25 699.41-4.94L699.41-4.94L699.41-4.94Q699.31-6.63 699.16-8.69L699.16-8.69L699.16-8.69Q699-10.75 698.88-12.88L698.88-12.88L698.88-12.88Q698.75-15 698.66-16.97L698.66-16.97L698.66-16.97Q698.56-18.94 698.44-20.38L698.44-20.38L698.44-20.38Q698.44-20.56 698.41-21.13L698.41-21.13L698.41-21.13Q698.38-21.69 698.38-22.34L698.38-22.34L698.38-22.34Q698.38-23 698.38-23.56L698.38-23.56L698.38-23.56Q698.38-24.13 698.38-24.38ZM721.81 0.13L720.88-24.25L720.88-24.25Q721.63-24.25 722.16-24.31L722.16-24.31L722.16-24.31Q722.69-24.38 723.06-23.69L723.06-23.69L723.06-23.69Q723.25-20.88 723.50-17.97L723.50-17.97L723.50-17.97Q723.75-15.06 724-12.13L724-12.13L724-12.13Q724.25-9.19 724.34-6.22L724.34-6.22L724.34-6.22Q724.44-3.25 724.38-0.44L724.38-0.44L724.38-0.44Q724.38-0.06 724.19 0.03L724.19 0.03L724.19 0.03Q724 0.13 723.66 0.09L723.66 0.09L723.66 0.09Q723.31 0.06 722.84 0.03L722.84 0.03L722.84 0.03Q722.38 0 721.81 0.13L721.81 0.13ZM717.25-35.44L717.25-35.44L717.25-35.44Q717.25-35.88 717.31-36.41L717.31-36.41L717.31-36.41Q717.38-36.94 717.59-37.38L717.59-37.38L717.59-37.38Q717.81-37.81 718.16-38.13L718.16-38.13L718.16-38.13Q718.50-38.44 719-38.44L719-38.44L719-38.44Q719.75-38.44 720.50-38.38L720.50-38.38L720.50-38.38Q721.25-38.31 721.94-38.09L721.94-38.09L721.94-38.09Q722.63-37.88 723.06-37.41L723.06-37.41L723.06-37.41Q723.50-36.94 723.50-36.06L723.50-36.06L723.50-36.06Q723.50-34.56 722.38-33.41L722.38-33.41L722.38-33.41Q721.25-32.25 719.63-32.25L719.63-32.25L719.63-32.25Q718.38-32.25 717.81-33.22L717.81-33.22L717.81-33.22Q717.25-34.19 717.25-35.44ZM720.88-35.13L720.88-35.13L720.88-35.13Q720.69-35.13 720.69-34.81L720.69-34.81L720.69-34.81Q720.69-34.50 720.88-34.50L720.88-34.50L720.88-34.50Q721.13-34.50 721.13-34.81L721.13-34.81L721.13-34.81Q721.13-35.13 720.88-35.13ZM727.38-14.69L727.38-14.69L727.38-14.69Q727.38-16.56 728.19-18.84L728.19-18.84L728.19-18.84Q729-21.13 730.41-23.09L730.41-23.09L730.41-23.09Q731.81-25.06 733.59-26.41L733.59-26.41L733.59-26.41Q735.38-27.75 737.31-27.75L737.31-27.75L737.31-27.75Q738.38-27.75 739.41-27.31L739.41-27.31L739.41-27.31Q740.44-26.88 741.41-26.16L741.41-26.16L741.41-26.16Q742.38-25.44 743.16-24.53L743.16-24.53L743.16-24.53Q743.94-23.63 744.38-22.63L744.38-22.63L744.38-22.63Q744.81-21.63 744.84-20.69L744.84-20.69L744.84-20.69Q744.88-19.75 744.31-19.06L744.31-19.06L731.13-16.63L731.13-16.63Q730.88-16.56 730.69-16.03L730.69-16.03L730.69-16.03Q730.50-15.50 730.38-14.69L730.38-14.69L730.38-14.69Q730.25-13.88 730.16-12.91L730.16-12.91L730.16-12.91Q730.06-11.94 730-11.03L730-11.03L730-11.03Q729.94-10.13 729.94-9.41L729.94-9.41L729.94-9.41Q729.94-8.69 729.94-8.31L729.94-8.31L729.94-8.31Q729.94-6.56 730.78-5.47L730.78-5.47L730.78-5.47Q731.63-4.38 732.94-3.81L732.94-3.81L732.94-3.81Q734.25-3.25 735.91-3.06L735.91-3.06L735.91-3.06Q737.56-2.88 739.19-2.88L739.19-2.88L739.19-2.88Q740.81-2.88 742.25-3L742.25-3L742.25-3Q743.69-3.13 744.63-3.13L744.63-3.13L744.63-3.13Q744.63-2.88 744.44-2.56L744.44-2.56L744.44-2.56Q744.25-2.25 744-1.97L744-1.97L744-1.97Q743.75-1.69 743.50-1.47L743.50-1.47L743.50-1.47Q743.25-1.25 743.19-1.19L743.19-1.19L743.19-1.19Q742.69-1.06 741.66-0.84L741.66-0.84L741.66-0.84Q740.63-0.63 739.47-0.44L739.47-0.44L739.47-0.44Q738.31-0.25 737.31-0.13L737.31-0.13L737.31-0.13Q736.31 0 735.94 0L735.94 0L735.94 0Q734 0.38 732.56-0.06L732.56-0.06L732.56-0.06Q731.13-0.50 730.13-1.56L730.13-1.56L730.13-1.56Q729.13-2.63 728.50-4.16L728.50-4.16L728.50-4.16Q727.88-5.69 727.56-7.44L727.56-7.44L727.56-7.44Q727.25-9.19 727.22-11.06L727.22-11.06L727.22-11.06Q727.19-12.94 727.38-14.69ZM736.44-25.38L736.44-25.38L736.44-25.38Q735.88-25.38 734.97-24.78L734.97-24.78L734.97-24.78Q734.06-24.19 733.28-23.28L733.28-23.28L733.28-23.28Q732.50-22.38 731.97-21.34L731.97-21.34L731.97-21.34Q731.44-20.31 731.63-19.56L731.63-19.56L731.63-19.56Q733.25-19.38 735-19.63L735-19.63L735-19.63Q736.75-19.88 738.19-20.41L738.19-20.41L738.19-20.41Q739.63-20.94 740.56-21.66L740.56-21.66L740.56-21.66Q741.50-22.38 741.47-23.13L741.47-23.13L741.47-23.13Q741.44-23.88 740.28-24.47L740.28-24.47L740.28-24.47Q739.13-25.06 736.44-25.38ZM751.31-5.06L751.31-5.06L751.31-5.06Q752.44-5.06 753.41-4.63L753.41-4.63L753.41-4.63Q754.38-4.19 755.31-3.66L755.31-3.66L755.31-3.66Q756.25-3.13 757.22-2.72L757.22-2.72L757.22-2.72Q758.19-2.31 759.31-2.31L759.31-2.31L759.31-2.31Q760.63-2.31 762.03-2.78L762.03-2.78L762.03-2.78Q763.44-3.25 764.63-4.09L764.63-4.09L764.63-4.09Q765.81-4.94 766.56-6.16L766.56-6.16L766.56-6.16Q767.31-7.38 767.31-8.81L767.31-8.81L767.31-8.81Q767.38-9.25 767.34-9.88L767.34-9.88L767.34-9.88Q767.31-10.50 766.94-11.16L766.94-11.16L766.94-11.16Q766.56-11.81 765.69-12.41L765.69-12.41L765.69-12.41Q764.81-13 763.16-13.31L763.16-13.31L763.16-13.31Q761.50-13.63 759-13.66L759-13.66L759-13.66Q756.50-13.69 752.81-13.19L752.81-13.19L752.81-13.19Q751.88-13.19 751-13.72L751-13.72L751-13.72Q750.13-14.25 749.44-15.03L749.44-15.03L749.44-15.03Q748.75-15.81 748.31-16.72L748.31-16.72L748.31-16.72Q747.88-17.63 747.88-18.44L747.88-18.44L747.88-18.44Q747.88-20.88 748.91-22.41L748.91-22.41L748.91-22.41Q749.94-23.94 751.56-24.84L751.56-24.84L751.56-24.84Q753.19-25.75 755.19-26.13L755.19-26.13L755.19-26.13Q757.19-26.50 759.25-26.50L759.25-26.50L759.25-26.50Q760.19-26.50 761.41-26.41L761.41-26.41L761.41-26.41Q762.63-26.31 763.66-25.91L763.66-25.91L763.66-25.91Q764.69-25.50 765.41-24.63L765.41-24.63L765.41-24.63Q766.13-23.75 766.13-22.19L766.13-22.19L766.13-22.19Q766-21.13 765.78-20.91L765.78-20.91L765.78-20.91Q765.56-20.69 765.16-21.03L765.16-21.03L765.16-21.03Q764.75-21.38 764.19-22L764.19-22L764.19-22Q763.63-22.63 762.84-23.22L762.84-23.22L762.84-23.22Q762.06-23.81 760.97-24.13L760.97-24.13L760.97-24.13Q759.88-24.44 758.50-24.13L758.50-24.13L758.50-24.13Q757.06-24.13 755.63-23.84L755.63-23.84L755.63-23.84Q754.19-23.56 753.03-22.88L753.03-22.88L753.03-22.88Q751.88-22.19 751.16-21L751.16-21L751.16-21Q750.44-19.81 750.44-18L750.44-18L750.44-18Q750.44-17.06 751.28-16.72L751.28-16.72L751.28-16.72Q752.13-16.38 753.53-16.38L753.53-16.38L753.53-16.38Q754.94-16.38 756.72-16.47L756.72-16.47L756.72-16.47Q758.50-16.56 760.38-16.56L760.38-16.56L760.38-16.56Q762.25-16.56 764-16.28L764-16.28L764-16.28Q765.75-16 767.09-15.16L767.09-15.16L767.09-15.16Q768.44-14.31 769.19-12.75L769.19-12.75L769.19-12.75Q769.94-11.19 769.75-8.69L769.75-8.69L769.75-8.69Q769.75-6.88 768.72-5.25L768.72-5.25L768.72-5.25Q767.69-3.63 766.09-2.41L766.09-2.41L766.09-2.41Q764.50-1.19 762.56-0.50L762.56-0.50L762.56-0.50Q760.63 0.19 758.81 0L758.81 0L758.81 0Q758.06-0.06 756.78-0.41L756.78-0.41L756.78-0.41Q755.50-0.75 754.28-1.38L754.28-1.38L754.28-1.38Q753.06-2 752.19-2.91L752.19-2.91L752.19-2.91Q751.31-3.81 751.31-5.06Z" fill="#c3a4bd"/>
    </g>
  </g>
  <g transform="matrix(-0.011413, 0.045162, -0.052746, -0.013329, -64.282273, 50.590558)" style="">
    <g transform="matrix(1, 0, 0, -1, -225.711929, 1120.050049)">
      <g transform="">
        <path d="M 0 1057.392 L 1269.625 1057.392 L 1269.625 0 L 0 0 Z" style="fill: none;"/>
      </g>
      <g style="clip-path: url(#clippath1);" transform="matrix(1, 3, 2.5, -1, 0, 941.526367)">
        <g transform="translate(263.2477 597.629)">
          <path d="M 0 0 C -10.84 4.466 -21.68 8.936 -32.522 13.398 C -36.631 15.089 -40.823 16.601 -44.842 18.481 C -54.439 22.973 -56.076 35.196 -47.955 41.586 C -43.526 45.072 -38.579 45.097 -33.539 43.041 C -23.4 38.906 -13.28 34.726 -3.156 30.557 C 12.25 24.212 27.654 17.86 43.06 11.512 C 43.94 11.149 44.846 10.842 45.703 10.43 C 53.557 6.658 55.393 0.981 53.653 -6.827 C 53.179 -8.958 52.183 -11.028 51.13 -12.964 C 37.786 -37.518 24.378 -62.035 11.015 -86.578 C 9.128 -90.043 6.712 -92.914 2.841 -94.137 C -2.442 -95.806 -7.252 -94.867 -11.195 -90.873 C -15.158 -86.859 -15.904 -81.994 -14.183 -76.764 C -13.594 -74.975 -12.571 -73.317 -11.661 -71.646 C -2.998 -55.754 5.687 -39.873 14.352 -23.981 C 15.091 -22.625 15.731 -21.214 16.805 -19.046 C 9.932 -19.883 3.794 -20.354 -2.242 -21.406 C -80.018 -34.958 -137.969 -77.279 -178.688 -143.99 C -199.41 -177.941 -211.611 -215.032 -215.966 -254.575 C -217.163 -265.441 -217.375 -276.423 -217.827 -287.36 C -218.156 -295.327 -225.001 -300.358 -231.74 -297.213 C -235.935 -295.255 -237.77 -291.672 -237.64 -287.164 C -237.389 -278.435 -237.38 -269.676 -236.6 -260.989 C -234.073 -232.854 -228.042 -205.462 -217.671 -179.149 C -192.174 -114.462 -150.021 -64.053 -88.833 -30.261 C -62.327 -15.622 -33.955 -6.229 -3.992 -1.701 C -2.594 -1.49 -1.218 -1.134 0.168 -0.845 C 0.112 -0.563 0.056 -0.282 0 0" style="fill-opacity: 1; fill: rgb(184, 153, 178);"/>
        </g>
      </g>
    </g>
  </g>
</svg>