<svg xmlns="http://www.w3.org/2000/svg" viewBox="0 0 62.69 68.77"><defs><style>.cls-1{fill:#4c4c4c;}</style></defs><g id="Layer_2" data-name="Layer 2"><g id="OBJECTS"><path class="cls-1" d="M51.8,59.77a.82.82,0,0,0-.57-1.46c-2.45.26-4.91.61-7.37.74a18.51,18.51,0,0,1-7.51-1.55,14.16,14.16,0,0,0-10.5.08A96.28,96.28,0,0,1,28.23,48l.19-.06c4.56,2.44,9.08,5,14.44,4.65,5.71-.38,10.76-3.35,15.56-6.21.73-.43.17-1.51-.57-1.46-5.34.38-10.32-2-15.55-2.59a18,18,0,0,0-7.57.69,37.45,37.45,0,0,0-4.31,1.76c-.47.22-.93.43-1.38.67.06-.19.12-.37.19-.55s.23-.35.34-.54a.71.71,0,0,0,.05-.58q1.34-3.73,3-7.33h0a5.07,5.07,0,0,0,5.17,2.16c2.8-.42,5.53-.24,8.35-.45,6-.43,11.27-3.7,16.23-6.82a.82.82,0,0,0-.57-1.46,17.94,17.94,0,0,1-8.26-.67c-2.29-.7-4.41-1.33-6.82-.86a39.16,39.16,0,0,0-12.88,5.44c1.36-2.81,2.83-5.58,4.37-8.31h0c2.68-1.77,5.87-2.53,8.54-4.35a21.94,21.94,0,0,0,6.1-6.34c2.84-4.47,4.41-10,8.87-13.26.72-.52,0-1.83-.78-1.41C57.74,1.72,54,1.56,50.77,3.13a35.9,35.9,0,0,0-8.41,6.26C38.45,13,34.25,18.78,37,24.21q-1.65,2.91-3.18,5.86a26.78,26.78,0,0,0-1.24-6.23,31.48,31.48,0,0,1-1-13.84.82.82,0,0,0-1.28-.78C28,10.64,26.64,13,25.43,15.42c-1.33,2.6-2.62,5.34-2.79,8.29a13.1,13.1,0,0,0,1.89,7.53,10.38,10.38,0,0,0,2.53,2.95c1.19.88,2.68.79,3.74,1.93a.81.81,0,0,0,.1.09c-.92,2.06-1.77,4.16-2.55,6.28-1.72-3-5.27-3.9-7.89-6-3.37-2.69-3.05-7.6-5.66-10.85a.82.82,0,0,0-1.28,0,27.54,27.54,0,0,0-2.2,4.54,13.92,13.92,0,0,0-1.24,4.25,6.12,6.12,0,0,0,1.68,4c1.18,1.47,2.44,2.89,3.67,4.32A11,11,0,0,0,23,46.84a9,9,0,0,0,4-.33,97.48,97.48,0,0,0-2.57,10A10.17,10.17,0,0,0,22,53.15c-1.8-1.54-4.22-2.32-6.38-3.18C10.87,48.06,6,46.33.92,45.86c-1-.1-1.3,1.46-.26,1.6,2.74.38,4.61,2.47,6.31,4.46a38.59,38.59,0,0,0,5.93,5.85c2.51,1.93,7.21,5,10.61,3.88-.3,2.06-.55,4.13-.72,6.21-.09,1,1.51,1.29,1.6.25.2-2.29.47-4.56.82-6.83,1.88,3.41,6.11,5,10,4.8a29.9,29.9,0,0,0,8.21-2A28.55,28.55,0,0,0,51.8,59.77Zm-3.92-30c2.5-.23,4.77.95,7.15,1.49a17.11,17.11,0,0,0,3.62.42c-3.59,2.18-7.39,4.16-11.58,4.7-2.25.3-4.52.06-6.78.2s-4.69,1.18-6.29-1a46.14,46.14,0,0,1,6.27-3.38A26,26,0,0,1,47.88,29.78ZM45.09,9.12A25.73,25.73,0,0,1,52.87,4,41.59,41.59,0,0,1,58,2.78c-2.45,3-3.92,6.66-5.85,10A21,21,0,0,1,46,19.63c-2.33,1.63-5.07,2.44-7.54,3.79C35.58,18,41.39,12.3,45.09,9.12ZM29.62,33.49a5.3,5.3,0,0,1-2.93-2,11.37,11.37,0,0,1-2.44-7.39,18.09,18.09,0,0,1,2.32-7.35,18.9,18.9,0,0,1,3.17-5,31.16,31.16,0,0,0,.73,10.36c1,4,3,8.33.82,12.29A5.38,5.38,0,0,0,29.62,33.49ZM37,44.07a18.56,18.56,0,0,1,7.31.19c3.61.71,7.13,1.9,10.77,2.21C51.2,48.68,47.16,50.65,42.69,51c-4.76.32-8.87-2-12.92-4.15a25.7,25.7,0,0,1,2.74-1.22A23,23,0,0,1,37,44.07ZM21.65,45c-2.71-.63-4.23-2.39-6-4.44-1.53-1.8-4.39-4.12-3.91-6.7a21.76,21.76,0,0,1,2.42-6.18c1.73,2.94,1.84,6.69,4.29,9.26,2.65,2.77,7.48,3.43,8.89,7.33a.93.93,0,0,0,.1.2C26,45.72,23.35,45.37,21.65,45ZM10.87,53.85c-1.7-1.69-3.2-3.84-5-5.49A64,64,0,0,1,14,51.07a32.68,32.68,0,0,1,6.22,2.77c1.95,1.31,2.87,3.37,3.68,5.48a2.51,2.51,0,0,1,0,.27C20.28,62.45,13.18,56.16,10.87,53.85ZM37.11,64.23c-4.07.69-9.53-.34-10.93-4.7a.85.85,0,0,0,.15-.41,11.93,11.93,0,0,1,5.75-1c2.29.18,4.31,1.23,6.47,1.91,3.07,1,6.33.69,9.53.3A33,33,0,0,1,37.11,64.23Z"/></g></g></svg>