<svg xmlns="http://www.w3.org/2000/svg" xmlns:xlink="http://www.w3.org/1999/xlink" viewBox="0 0 41.72 44.2"><defs><style>.cls-1{isolation:isolate;}.cls-2{opacity:0.7;}.cls-3{fill:#e6e6e6;}.cls-4,.cls-5,.cls-6,.cls-7,.cls-8{opacity:0.8;mix-blend-mode:multiply;}.cls-4{fill:url(#linear-gradient);}.cls-5{fill:url(#linear-gradient-2);}.cls-6{fill:url(#linear-gradient-3);}.cls-7{fill:url(#linear-gradient-4);}.cls-8{fill:url(#linear-gradient-5);}.cls-11,.cls-12,.cls-9{opacity:0.3;mix-blend-mode:screen;}.cls-10,.cls-11{fill:#fff;}.cls-12{fill:url(#linear-gradient-6);}</style><linearGradient id="linear-gradient" x1="56.16" y1="57.65" x2="52.6" y2="58.28" gradientTransform="matrix(0.76, -0.65, 0.85, 0.99, -69.14, -6.52)" gradientUnits="userSpaceOnUse"><stop offset="0" stop-color="#f0f0f0"/><stop offset="0.65" stop-color="#fff"/></linearGradient><linearGradient id="linear-gradient-2" x1="56.65" y1="49.44" x2="53.19" y2="49.68" xlink:href="#linear-gradient"/><linearGradient id="linear-gradient-3" x1="49.08" y1="65.61" x2="44.21" y2="65.94" gradientTransform="matrix(0.76, -0.65, 0.85, 0.99, -69.14, -6.52)" gradientUnits="userSpaceOnUse"><stop offset="0" stop-color="#fff"/><stop offset="0.08" stop-color="#fcfcfc"/><stop offset="0.46" stop-color="#f3f3f3"/><stop offset="1" stop-color="#f0f0f0"/></linearGradient><linearGradient id="linear-gradient-4" x1="48.05" y1="58.18" x2="44.49" y2="58.43" xlink:href="#linear-gradient-3"/><linearGradient id="linear-gradient-5" x1="57.37" y1="72.58" x2="49.84" y2="73.1" xlink:href="#linear-gradient"/><linearGradient id="linear-gradient-6" x1="42.87" y1="60.4" x2="40.81" y2="58.56" gradientTransform="matrix(0.76, -0.65, 0.85, 0.99, -69.14, -6.52)" gradientUnits="userSpaceOnUse"><stop offset="0.22" stop-color="#f0be92"/><stop offset="0.27" stop-color="#e5b58b"/><stop offset="0.35" stop-color="#c79e79"/><stop offset="0.45" stop-color="#97785c"/><stop offset="0.57" stop-color="#554334"/><stop offset="0.71" stop-color="#010101"/><stop offset="0.71"/></linearGradient></defs><g class="cls-1"><g id="Layer_2" data-name="Layer 2"><g id="Layer_1-2" data-name="Layer 1"><g class="cls-2"><path class="cls-3" d="M41.72,31.79c-1.78,2-1.17,2.74-3.22,4.3-.27.34-.56.64-.84.93l-.9.78-.67.57-.67.58-1.53,1.3C33,41,30,43.93,28.42,44.19S24.6,41.41,22.7,39s-4.05-4.85-6.05-7.34l-.74-.93c-1.36-1.7-3.15-3.76-4.47-5.52l-.75-.91c-2.53-3-5.13-6-7.9-8.69l-.7-.8L0,12.35l.79-.69C6.14,9.67,9.31,5.14,13.5.71L14.32,0l4.87,5.64.46.54c3.15,4.26,6.43,8.14,9.8,11.93l.71.81c3.77,4.9,6.16,6.48,10,11Z"/><path class="cls-4" d="M11.71,8.18c1.88,1.93.28,1.85,5.91,4.07s8.35,5.88,8.72,7.07,3,6.26,3,6.26-3.85-5.28-5.85-6.79a31.25,31.25,0,0,0-6.34-4.11C15.07,13.84,11.71,8.18,11.71,8.18Z"/><path class="cls-5" d="M10.72,3.76c1.23.9,2.95,2.17,3.33,2.4.62.38,5.84,4.41,4.91,3.34L15.59,5.58c-.38-.44-2.62-1.47-3.7-3.12Z"/><path class="cls-6" d="M17.07,23.35c1.1,2.62,4.2,1.83,5.22,3.18s5.66,4.06,6.38,5.64l-5-3.39s-1.27-1.92-2.88-2.09a6.05,6.05,0,0,1-2.94-1.39Z"/><path class="cls-7" d="M12,18.53s3-.16,3.26.9,2.16,2.14,2.15,2.49a13.11,13.11,0,0,0,1.4,2.31,9.41,9.41,0,0,0-1.28-3c-.67-.61-2.06-2.41-2.34-2.73S12,18.53,12,18.53Z"/><path class="cls-8" d="M36.63,30c-1.81-.59-5.69-2.15-7.33-5.19,0,0,2.63,4.55,3.45,5.51s2,1.29,3.36,2.39c1,.81,1.21,3.31,1.26,4.57l.29-.25c.28-.29.57-.59.84-.93a3.71,3.71,0,0,0,1.73-2.5C39.59,32.68,38.07,30.45,36.63,30Z"/><g class="cls-9"><path class="cls-10" d="M10.07,11.65A6.46,6.46,0,0,0,12,13c.38.12.82.18,1.21.34a8.65,8.65,0,0,1,1.11.52,18.14,18.14,0,0,1,2,1.33A9,9,0,0,1,18,16.87c.93,1.3,1.42,2.86,2.62,3.85.57.53,1.23,1,1.85,1.46A4.21,4.21,0,0,1,23.88,24a4.35,4.35,0,0,0-1.59-1.68C21.65,21.9,21,21.5,20.34,21c-1.3-1-1.82-2.61-2.74-3.82a13.51,13.51,0,0,0-3.53-3A8.18,8.18,0,0,0,13,13.6c-.36-.17-.77-.24-1.16-.39a3.4,3.4,0,0,1-1-.7C10.59,12.24,10.33,12,10.07,11.65Z"/></g><path class="cls-11" d="M7.25,12.15c-.35-.32-.71-.64-1-1a13.23,13.23,0,0,1-.9-1.06c-.17-.22-.33-.45-.49-.68-.3.22-.6.43-.91.63l.65.7c.34.34.68.67,1.06,1s.77.57,1.16.86L11.45,16Z"/><path class="cls-12" d="M12.79,23.36l-.64,2.74c1.21,1.53,2.63,3.19,3.76,4.6L14,26s.09-2.94-.29-3.13a38.63,38.63,0,0,1-2.85-3.32Z"/></g></g></g></g></svg>