<svg xmlns="http://www.w3.org/2000/svg" xmlns:xlink="http://www.w3.org/1999/xlink" viewBox="0 0 42.17 29.74"><defs><style>.cls-1{isolation:isolate;}.cls-2{opacity:0.7;}.cls-3{fill:#e6e6e6;}.cls-4,.cls-5,.cls-6,.cls-7,.cls-8{opacity:0.8;mix-blend-mode:multiply;}.cls-4{fill:url(#linear-gradient);}.cls-5{fill:url(#linear-gradient-2);}.cls-6{fill:url(#linear-gradient-3);}.cls-7{fill:url(#linear-gradient-4);}.cls-8{fill:url(#linear-gradient-5);}.cls-11,.cls-12,.cls-9{opacity:0.3;mix-blend-mode:screen;}.cls-10,.cls-11{fill:#fff;}.cls-12{fill:url(#linear-gradient-6);}</style><linearGradient id="linear-gradient" x1="95.25" y1="172.92" x2="91.69" y2="173.55" gradientTransform="matrix(-0.3, 0.95, -1.25, -0.39, 268.32, -0.51)" gradientUnits="userSpaceOnUse"><stop offset="0" stop-color="#f0f0f0"/><stop offset="0.65" stop-color="#fff"/></linearGradient><linearGradient id="linear-gradient-2" x1="95.99" y1="166.07" x2="92.53" y2="166.31" xlink:href="#linear-gradient"/><linearGradient id="linear-gradient-3" x1="88.13" y1="180.88" x2="83.52" y2="181.19" gradientTransform="matrix(-0.3, 0.95, -1.25, -0.39, 268.32, -0.51)" gradientUnits="userSpaceOnUse"><stop offset="0" stop-color="#fff"/><stop offset="0.08" stop-color="#fcfcfc"/><stop offset="0.46" stop-color="#f3f3f3"/><stop offset="1" stop-color="#f0f0f0"/></linearGradient><linearGradient id="linear-gradient-4" x1="87.39" y1="174.81" x2="83.82" y2="175.06" xlink:href="#linear-gradient-3"/><linearGradient id="linear-gradient-5" x1="96.33" y1="186.47" x2="88.8" y2="186.98" xlink:href="#linear-gradient"/><linearGradient id="linear-gradient-6" x1="82.2" y1="177.03" x2="80.14" y2="175.19" gradientTransform="matrix(-0.3, 0.95, -1.25, -0.39, 268.32, -0.51)" gradientUnits="userSpaceOnUse"><stop offset="0.22" stop-color="#f0be92"/><stop offset="0.27" stop-color="#e5b58b"/><stop offset="0.35" stop-color="#c79e79"/><stop offset="0.45" stop-color="#97785c"/><stop offset="0.57" stop-color="#554334"/><stop offset="0.71" stop-color="#010101"/><stop offset="0.71"/></linearGradient></defs><g class="cls-1"><g id="Layer_2" data-name="Layer 2"><g id="Layer_1-2" data-name="Layer 1"><g class="cls-2"><path class="cls-3" d="M0,17.88c.43-2.67-.45-2.94.48-5.35A11.67,11.67,0,0,1,.69,11.3q.18-.59.36-1.14l.27-.84c.08-.28.17-.56.26-.84.21-.64.41-1.29.61-1.92C2.54,5.45,3.59,1.37,4.76.34s4.72.35,7.62,1.42S14.85,3,17.86,4.09L19,4.48C21,5.21,23.63,6,25.69,6.82l1.11.38c3.75,1.24,7.51,2.37,11.3,3.22l1,.32,3.06,1s-.12.37-.31,1c-3.5,4.51-3.8,10-5,16-.21.66-.32,1-.32,1L29.4,27.51l-.68-.21c-4.92-2-9.76-3.53-14.61-5l-1-.32C7.29,19.84,8,20.46,2.36,18.64Z"/><path class="cls-4" d="M34.41,21.41c-2.61-.64-1.21-1.42-7.16-.34s-10.2-.6-11.14-1.41a19.68,19.68,0,0,1-2.35-3,12.52,12.52,0,0,0,5,2,30,30,0,0,0,7.55.15C28.58,18.37,34.41,21.41,34.41,21.41Z"/><path class="cls-5" d="M37.58,24.65c-1.51-.12-3.64-.29-4.09-.29-.72,0-7.29-.67-5.93-.24l4.93,1.55c.55.17,3-.14,4.79.7Z"/><path class="cls-6" d="M21.86,11.35c-2.31-1.65-4.53.65-6.11,0s-3.41.25-4.86-.71l6,.26s-1.44.25,0-.45a6,6,0,0,1,3.23-.37Z"/><path class="cls-7" d="M28.68,12.79s-2.42,1.69-3.25,1-3-.69-3.13-1a13.65,13.65,0,0,0-2.41-1.22,9.34,9.34,0,0,0,2.68,1.88c.88.16,3,1,3.42,1.08S28.68,12.79,28.68,12.79Z"/><path class="cls-8" d="M5.28,16.73c1.85-.46,6-1.17,9,.54,0,0-4.63-2.47-5.83-2.86s-2.38,0-4.12-.26C3,14,1.51,12,.81,10.93l-.12.37a11.67,11.67,0,0,0-.21,1.23,3.68,3.68,0,0,0-.16,3C1.34,16,3.81,17.1,5.28,16.73Z"/><g class="cls-9"><path class="cls-10" d="M34,17.6a6.36,6.36,0,0,0-2.34-.15c-.38.1-.79.28-1.2.35a8.74,8.74,0,0,1-1.23.14,17.25,17.25,0,0,1-2.39-.08,9.18,9.18,0,0,1-2.32-.52c-1.48-.62-2.71-1.68-4.26-1.89-.76-.15-1.55-.17-2.34-.27s2,.41,1.35-.12c.67.43-2.09-.15-1.3-.12s1.58,0,2.37.13c1.63.15,2.93,1.26,4.35,1.81a13.46,13.46,0,0,0,4.58.69,9.5,9.5,0,0,0,1.19-.07c.39-.05.78-.2,1.2-.28a3.19,3.19,0,0,1,1.2.07A10.62,10.62,0,0,1,34,17.6Z"/></g><path class="cls-11" d="M36.12,15.69c.46.09.94.17,1.38.27a13.52,13.52,0,0,1,1.32.43l.77.31c.14-.34.29-.67.44-1l-.92-.25c-.46-.11-.93-.21-1.42-.28s-1-.08-1.44-.12l-5.72-.39Z"/><path class="cls-12" d="M25.5,9.08l-.9-2.66C22.76,5.76,20.68,5.09,19,4.48l4.11,3S24.55,10,25,10a38.54,38.54,0,0,1,4.17,1.32Z"/></g></g></g></g></svg>