<?xml version="1.0" standalone="no"?>
<!DOCTYPE svg PUBLIC "-//W3C//DTD SVG 20010904//EN"
 "http://www.w3.org/TR/2001/REC-SVG-20010904/DTD/svg10.dtd">
<svg version="1.0" xmlns="http://www.w3.org/2000/svg"
 width="632.000000pt" height="1302.000000pt" viewBox="0 0 632.000000 1302.000000"
 preserveAspectRatio="xMidYMid meet">
<metadata>
Created by potrace 1.16, written by Peter Selinger 2001-2019
</metadata>
<g transform="translate(0.000000,1302.000000) scale(0.100000,-0.100000)"
fill="#000000" stroke="none">
<path d="M894 12816 c-17 -17 -36 -49 -42 -71 -7 -23 -37 -71 -70 -110 -61
-74 -100 -135 -132 -209 -17 -41 -17 -45 -2 -35 16 10 45 51 97 135 26 41 162
184 175 184 6 0 10 -15 10 -34 0 -19 9 -80 20 -136 23 -110 21 -163 -6 -335
-39 -244 -125 -517 -229 -724 -89 -178 -87 -173 -165 -491 -12 -47 -34 -128
-50 -180 -75 -249 -102 -361 -126 -518 -4 -24 -10 -39 -15 -35 -10 11 -70 227
-79 288 -4 28 -16 95 -26 150 -14 77 -18 145 -17 300 2 236 11 317 52 445 54
168 100 324 105 355 2 17 27 95 54 175 28 80 56 165 62 190 7 24 23 58 36 74
14 16 34 46 45 67 11 22 24 39 29 39 6 0 10 7 10 15 0 8 -5 15 -10 15 -16 0
-108 -149 -126 -205 -9 -27 -34 -93 -55 -145 -21 -52 -45 -124 -53 -160 -15
-66 -103 -350 -125 -405 -7 -16 -17 -51 -22 -78 -5 -26 -13 -57 -19 -67 -6
-11 -16 -98 -22 -193 -10 -161 -9 -186 16 -392 26 -226 65 -392 123 -529 l25
-59 -16 -116 c-33 -254 -68 -470 -87 -548 -11 -45 -24 -124 -30 -174 -9 -92
-17 -112 -50 -130 -15 -8 -21 -2 -37 33 -24 55 -125 157 -131 132 -2 -11 15
-34 43 -60 28 -25 46 -50 46 -64 l0 -22 -45 25 c-39 22 -45 23 -45 9 0 -9 20
-30 45 -45 25 -16 45 -33 45 -38 0 -11 -54 -39 -75 -39 -8 0 -15 -9 -15 -20 0
-24 8 -25 59 -4 22 9 45 14 52 12 25 -8 46 -104 53 -248 5 -123 13 -173 52
-335 25 -104 50 -200 55 -214 6 -13 18 -101 29 -195 24 -215 57 -440 71 -486
6 -19 30 -78 54 -130 45 -100 63 -160 47 -160 -5 0 -17 20 -26 43 -46 121
-243 344 -371 422 -65 39 -75 42 -75 21 0 -8 12 -17 26 -20 24 -6 105 -77 202
-176 68 -69 143 -180 184 -274 24 -53 66 -128 94 -166 38 -51 56 -86 68 -137
9 -37 41 -120 71 -183 30 -63 73 -162 95 -219 40 -102 57 -137 105 -216 14
-22 25 -47 25 -55 0 -8 -15 13 -34 46 -33 62 -113 161 -175 218 -18 17 -101
99 -185 182 -121 122 -275 254 -464 397 -9 7 -12 2 -12 -21 0 -27 11 -38 103
-102 120 -86 381 -342 447 -440 24 -36 73 -103 110 -150 72 -91 121 -171 194
-317 36 -72 51 -120 71 -218 29 -146 27 -135 17 -135 -5 0 -17 19 -28 42 -10
22 -30 58 -45 78 -14 20 -35 56 -46 81 -11 24 -55 87 -99 138 -43 51 -97 120
-120 152 -52 75 -252 309 -270 316 -8 3 -14 13 -14 23 0 17 -116 136 -267 275
-43 39 -53 44 -53 28 0 -20 91 -127 275 -322 132 -140 232 -253 275 -311 19
-26 73 -98 120 -161 47 -63 106 -148 131 -189 61 -99 133 -239 126 -246 -5 -6
-160 101 -219 150 -20 17 -58 42 -85 56 -52 27 -191 148 -315 273 -42 42 -117
137 -166 210 -50 72 -102 143 -116 156 l-26 24 0 -30 c0 -22 20 -61 67 -130
108 -160 135 -193 239 -293 116 -113 186 -166 440 -338 l189 -128 7 -50 c3
-27 7 -102 7 -167 1 -108 -1 -123 -26 -180 -25 -56 -28 -73 -28 -179 0 -64 -1
-116 -1 -115 -1 1 -11 37 -23 80 -26 95 -63 171 -144 290 -82 123 -112 154
-241 255 -61 47 -136 108 -166 135 -49 43 -300 217 -315 217 -3 0 -5 -10 -5
-22 1 -18 21 -35 98 -81 53 -32 137 -91 187 -132 50 -41 140 -112 200 -159
100 -77 149 -128 201 -211 10 -16 41 -61 68 -99 41 -57 58 -96 103 -234 29
-91 53 -172 53 -180 0 -22 -32 22 -96 134 -31 55 -70 120 -86 146 -24 39 -348
356 -493 483 -22 20 -62 55 -89 80 -28 25 -56 45 -64 45 -8 0 -30 17 -49 38
-28 30 -34 33 -31 16 2 -12 45 -55 105 -103 109 -87 448 -410 549 -523 60 -66
114 -149 168 -256 15 -29 42 -73 60 -97 40 -52 118 -245 99 -245 -4 0 -55 39
-113 86 -66 54 -135 99 -188 124 -111 52 -339 206 -487 327 -92 75 -127 111
-148 151 -30 55 -47 60 -47 13 0 -32 82 -129 139 -166 20 -12 61 -45 92 -73
78 -71 323 -234 425 -281 86 -41 180 -108 244 -176 l35 -37 -39 7 c-76 13
-429 208 -531 293 -64 53 -272 239 -317 284 -44 44 -48 46 -48 24 0 -35 343
-350 443 -407 40 -23 95 -56 122 -74 153 -100 293 -167 375 -180 65 -11 80
-21 164 -112 85 -92 117 -143 91 -143 -9 0 -65 23 -125 50 -60 28 -112 50
-115 50 -3 0 -140 67 -304 148 -287 143 -313 158 -551 330 -25 18 -57 39 -72
47 -27 15 -28 15 -28 -8 0 -18 19 -37 79 -80 43 -32 83 -57 89 -57 6 0 28 -16
49 -36 41 -39 153 -107 248 -150 80 -37 253 -133 261 -146 9 -14 -46 -1 -136
32 -41 16 -113 40 -159 55 -46 14 -157 58 -245 96 -89 39 -167 73 -174 76 -8
3 -12 -3 -12 -18 0 -19 12 -30 59 -52 32 -15 63 -27 69 -27 6 0 59 -22 119
-49 59 -27 149 -62 198 -79 50 -16 124 -42 165 -56 101 -34 290 -86 316 -86
34 0 131 -37 242 -93 83 -41 115 -63 150 -104 25 -29 53 -55 61 -58 26 -9 67
-75 100 -161 29 -74 61 -124 80 -124 4 0 28 -44 54 -98 73 -154 126 -229 213
-302 64 -53 74 -66 57 -68 -12 -2 -42 12 -70 32 -26 19 -72 44 -102 56 -30 11
-74 30 -98 41 -106 48 -392 55 -652 16 -96 -14 -179 -23 -185 -20 -13 8 -699
23 -744 16 -21 -4 -32 -11 -32 -23 0 -20 -39 -17 405 -22 237 -3 346 -7 360
-16 18 -10 16 -11 -16 -12 -20 0 -96 -9 -170 -21 -98 -15 -157 -19 -219 -14
-144 10 -360 -20 -360 -51 0 -14 24 -13 70 3 8 3 112 9 230 13 118 5 254 14
303 21 140 20 129 -1 -43 -76 -58 -26 -145 -70 -195 -100 -90 -54 -327 -165
-352 -165 -7 0 -13 -11 -13 -25 0 -32 12 -31 77 5 29 17 58 30 64 30 21 0 165
72 202 101 40 32 344 174 462 217 65 23 85 25 268 26 108 1 192 -1 185 -5 -7
-4 -51 -15 -98 -24 -158 -32 -218 -68 -623 -378 -136 -103 -216 -133 -434
-158 -90 -10 -103 -14 -103 -30 0 -25 43 -25 192 1 191 32 232 51 409 188 356
274 402 300 613 343 149 30 226 34 371 15 258 -32 269 -35 327 -79 29 -22 85
-55 123 -73 69 -33 72 -35 124 -126 36 -62 82 -120 138 -177 79 -80 133 -143
133 -155 0 -6 -85 25 -188 69 -108 45 -339 102 -484 120 -178 21 -257 12 -332
-38 l-52 -34 -39 42 c-34 36 -49 44 -103 54 -57 11 -69 10 -130 -10 -37 -12
-80 -29 -97 -37 -38 -19 -182 -158 -201 -194 -22 -42 -54 -187 -54 -243 0 -46
5 -56 61 -128 l60 -77 52 0 c33 1 79 11 125 30 l74 29 13 -33 c8 -18 17 -44
20 -59 7 -28 67 -87 88 -87 47 0 152 42 222 90 148 100 235 239 235 376 0 51
1 53 28 52 15 0 83 12 151 26 84 17 173 28 280 32 l157 7 65 -31 c82 -40 169
-109 219 -175 85 -111 180 -242 180 -249 0 -7 -66 -4 -240 11 -92 7 -279 -4
-380 -24 -51 -10 -115 -34 -200 -76 -100 -50 -138 -64 -191 -69 -47 -5 -81
-15 -115 -36 -42 -25 -46 -29 -26 -32 25 -4 28 -12 10 -30 -20 -20 -2 -24 31
-8 16 9 50 16 74 16 24 0 68 5 98 10 44 9 68 7 139 -11 149 -36 254 -77 341
-130 46 -29 102 -60 124 -70 22 -10 72 -44 110 -77 91 -76 191 -144 364 -244
25 -15 116 -51 201 -79 151 -51 158 -52 265 -52 122 1 263 15 402 40 79 14 94
15 111 2 55 -39 189 -142 207 -158 46 -42 145 -202 145 -235 0 -31 -175 -41
-326 -18 -88 13 -144 16 -202 11 -120 -10 -252 -32 -252 -42 0 -4 39 -4 88 0
79 7 193 8 517 3 61 -1 123 -1 138 0 21 2 38 -6 64 -33 l36 -35 -46 -7 c-25
-4 -51 -4 -57 0 -20 12 -224 35 -318 35 -92 0 -95 -1 -177 -45 -45 -25 -105
-52 -132 -60 -28 -8 -67 -28 -88 -45 -21 -16 -56 -35 -79 -41 -22 -6 -66 -24
-98 -40 -89 -45 -175 -61 -328 -62 -152 -1 -282 19 -388 59 -90 34 -187 59
-302 79 -281 48 -411 98 -545 210 -103 86 -325 302 -325 317 0 16 101 6 292
-30 178 -34 396 -53 497 -45 59 5 136 -2 291 -28 32 -5 105 -34 175 -68 208
-103 316 -134 530 -151 55 -5 129 -11 165 -14 l65 -6 -44 15 c-24 8 -128 26
-231 39 -219 29 -305 55 -470 139 -99 51 -131 62 -230 80 -117 21 -136 23
-270 18 -107 -4 -397 27 -477 50 -80 23 -341 45 -356 30 -7 -7 4 -38 31 -93
22 -46 48 -104 57 -131 27 -77 87 -156 202 -268 144 -139 315 -246 448 -280
17 -4 53 -16 80 -28 87 -36 177 -59 270 -71 50 -6 146 -21 215 -32 76 -13 174
-22 250 -22 l126 -1 114 58 c63 31 140 70 170 87 30 16 91 45 135 64 342 149
314 140 530 165 44 5 100 15 125 22 60 16 144 -5 263 -65 48 -24 89 -40 92
-36 17 27 -129 110 -231 131 -52 11 -73 10 -140 -4 -44 -8 -117 -21 -164 -27
-47 -6 -99 -14 -117 -16 -17 -3 -53 -16 -80 -30 -26 -15 -82 -39 -123 -54 -83
-31 -240 -106 -400 -193 -162 -87 -173 -90 -315 -77 -66 6 -172 19 -235 30
-63 10 -158 23 -210 29 -198 22 -479 134 -648 260 -119 89 -254 237 -302 333
-53 107 -51 124 8 61 92 -99 277 -245 369 -292 62 -31 188 -65 393 -106 101
-21 208 -46 239 -57 117 -41 148 -50 219 -64 110 -21 328 -18 427 5 89 22 301
104 326 127 9 8 61 32 115 53 55 21 117 51 138 65 45 30 105 33 281 15 55 -6
150 -12 210 -14 61 -3 112 -5 115 -5 3 0 16 -18 30 -40 13 -22 32 -40 41 -40
20 0 155 -127 146 -137 -4 -3 -20 0 -37 7 -17 7 -33 10 -37 6 -8 -8 -10 -6 70
-51 38 -21 81 -48 95 -60 15 -12 66 -43 114 -69 107 -58 139 -82 118 -89 -106
-34 -430 -66 -745 -73 -248 -5 -351 -19 -468 -61 -82 -29 -171 -79 -206 -117
l-24 -26 22 0 c13 0 37 11 53 25 43 36 93 60 216 104 l107 38 225 7 c279 8
547 24 620 36 171 29 219 34 246 21 19 -8 30 -9 39 -1 17 14 138 -45 193 -94
20 -18 58 -43 84 -56 26 -13 60 -36 75 -52 24 -25 33 -28 92 -28 l64 0 -20 23
c-24 26 -65 105 -83 160 -7 22 -18 51 -26 65 -8 15 -14 39 -14 53 0 15 -11 70
-25 123 -17 66 -22 102 -16 114 5 10 17 46 26 81 9 36 29 90 44 120 16 31 49
117 74 191 45 132 46 138 54 310 8 181 -5 482 -26 570 -53 227 -194 667 -231
720 -10 14 -32 58 -49 98 -38 85 -94 183 -116 202 -8 7 -15 19 -15 26 0 8 -4
14 -10 14 -5 0 -18 17 -29 38 -11 20 -39 74 -63 119 -24 45 -60 114 -81 154
-21 39 -50 90 -66 113 -16 22 -46 75 -68 116 -22 41 -48 89 -57 105 -9 17 -25
52 -36 78 -21 50 -47 60 -42 16 15 -143 20 -459 10 -684 -11 -248 -10 -265 10
-375 24 -132 30 -182 37 -335 12 -214 56 -514 96 -650 12 -38 34 -116 50 -173
16 -57 55 -155 89 -222 33 -66 60 -126 60 -133 0 -8 14 -34 31 -57 18 -24 56
-90 85 -147 67 -130 102 -183 140 -208 33 -21 48 -73 80 -265 8 -52 31 -136
50 -187 19 -51 34 -97 34 -104 0 -16 -19 -7 -137 67 -58 36 -131 77 -162 91
-31 14 -85 49 -121 77 -84 68 -155 116 -172 116 -35 0 -165 103 -266 211 -142
151 -188 219 -229 342 -39 118 -70 175 -174 323 -83 117 -194 330 -222 424 -9
30 -23 132 -32 225 -20 218 -113 702 -184 952 -17 59 -39 149 -50 198 -38 176
-109 431 -173 625 -24 73 -160 353 -201 415 -15 22 -67 99 -115 170 -49 72
-110 164 -135 206 -26 42 -66 91 -89 109 -24 18 -63 52 -88 76 -158 148 -188
174 -204 174 -15 0 -17 -5 -12 -27 10 -41 10 -51 -8 -132 -12 -54 -18 -140
-21 -320 -2 -135 -7 -325 -11 -422 -5 -130 -4 -189 6 -230 14 -57 155 -417
208 -529 17 -36 43 -94 59 -130 16 -36 47 -88 69 -117 21 -28 62 -90 89 -138
28 -47 68 -114 90 -148 22 -34 56 -92 75 -128 19 -36 49 -92 66 -125 18 -32
75 -115 128 -184 53 -69 113 -147 134 -174 56 -74 121 -147 179 -200 43 -40
52 -53 47 -72 -5 -17 -2 -24 9 -24 23 0 70 -59 118 -149 24 -44 50 -81 57 -81
7 0 25 -26 39 -58 15 -31 36 -70 49 -87 27 -37 73 -126 84 -166 l9 -29 -27 19
c-57 40 -122 103 -122 118 0 8 -8 27 -19 41 -10 15 -33 57 -50 94 -41 85 -150
250 -204 307 -64 66 -214 179 -287 216 -90 45 -174 69 -349 101 -83 15 -154
30 -159 33 -5 3 -48 59 -96 124 -48 65 -108 141 -134 170 -26 29 -67 86 -91
127 -24 41 -69 100 -99 132 -30 31 -52 60 -49 65 3 5 -14 34 -39 64 -25 30
-59 81 -75 114 -16 34 -50 85 -75 115 -25 30 -56 73 -69 95 -29 48 -50 135
-36 145 7 3 3 28 -9 67 -33 105 -42 182 -35 279 l7 91 66 44 c126 83 157 177
132 401 -16 146 -43 211 -117 278 -30 28 -60 50 -67 50 -25 0 -26 -14 -4 -38
21 -23 21 -25 3 -17 -49 20 -94 17 -139 -9 -95 -56 -120 -133 -113 -346 4
-122 10 -159 32 -225 34 -102 43 -114 102 -129 l48 -12 6 -125 c4 -68 14 -151
23 -185 8 -33 19 -100 22 -149 l7 -89 -44 37 c-24 21 -55 41 -69 44 -29 7
-149 117 -199 182 -38 49 -256 464 -267 507 -6 24 -5 26 15 21 28 -7 27 -3
-14 47 -41 51 -46 102 -16 153 11 17 33 83 50 146 48 184 141 409 201 487 102
133 243 420 329 670 28 80 69 197 92 260 l42 115 1 275 1 275 -33 135 c-47
195 -78 278 -121 328 -35 41 -39 43 -75 37 -59 -12 -99 -55 -223 -243 -139
-210 -182 -301 -216 -452 -70 -311 -87 -438 -88 -659 0 -120 -3 -159 -10 -141
-27 68 -111 139 -188 160 -69 18 -113 -4 -191 -96 -61 -72 -65 -75 -68 -50 -2
15 2 33 8 41 8 9 10 35 5 77 -4 45 -2 77 10 113 22 71 28 188 17 346 -9 131
-11 139 -50 215 -22 44 -59 140 -82 214 -23 74 -73 209 -112 299 -40 95 -67
173 -64 184 3 11 -2 30 -11 43 -9 14 -21 51 -28 85 -16 75 -6 122 39 192 19
29 44 82 56 120 12 37 24 67 27 67 3 0 18 -10 35 -21 26 -19 47 -22 183 -27
147 -5 157 -4 242 23 48 15 100 34 116 41 15 8 50 19 79 24 28 6 63 16 77 23
14 8 67 35 118 61 70 36 108 64 162 119 97 100 143 137 237 191 86 49 124 56
195 36 20 -6 96 -14 170 -20 142 -10 248 -40 319 -90 17 -12 48 -23 70 -24 35
-2 52 -11 98 -53 15 -15 52 -17 52 -5 0 5 -17 36 -38 68 -24 38 -90 106 -177
184 -76 69 -156 142 -179 164 -43 40 -188 114 -277 140 -28 9 -111 20 -183 26
-111 9 -144 8 -221 -6 -337 -62 -561 -153 -720 -291 -157 -136 -303 -296 -395
-433 -47 -69 -100 -204 -100 -256 0 -17 -7 -50 -15 -75 -7 -24 -19 -63 -25
-87 -6 -23 -15 -40 -19 -37 -5 2 -21 44 -35 92 -48 156 -94 296 -120 365 -24
64 -48 175 -65 304 -5 34 -14 71 -20 82 -7 12 -8 22 -4 22 4 0 8 62 8 137 0
77 6 164 13 198 18 80 102 276 121 283 9 3 46 38 84 78 37 40 89 85 115 99 26
15 74 54 107 85 41 40 73 62 102 69 33 9 64 33 140 109 123 121 232 182 342
190 82 6 125 -13 192 -85 50 -53 77 -129 64 -180 -11 -45 -65 -113 -113 -144
-55 -35 -101 -37 -277 -14 -187 25 -252 41 -293 75 -40 33 -59 37 -87 16 -17
-12 -16 -14 21 -26 21 -7 50 -22 64 -35 29 -26 127 -48 305 -70 209 -26 274
-18 338 43 74 70 96 152 68 252 -15 53 -92 131 -172 175 -62 33 -137 36 -203
6 -23 -10 -64 -21 -91 -25 -45 -7 -57 -16 -174 -129 -88 -85 -169 -151 -266
-217 -77 -52 -169 -122 -205 -155 -36 -33 -73 -67 -83 -74 -16 -13 -17 -12 -8
10 5 13 35 78 66 144 32 66 61 138 64 160 l6 39 90 1 c86 0 93 2 150 37 81 49
137 110 175 188 17 36 38 77 46 92 16 31 19 136 4 190 -6 21 -22 51 -35 67
-14 16 -25 31 -25 35 0 15 119 92 235 151 71 37 156 86 188 109 33 22 78 55
102 71 23 17 71 57 107 90 35 33 86 75 114 93 47 32 69 62 135 180 21 36 41
57 67 70 27 12 45 32 66 71 17 32 63 86 109 130 101 97 204 223 229 281 10 24
28 74 38 110 11 36 36 112 56 170 67 192 102 317 93 332 -18 33 -336 -116
-546 -255 -130 -86 -172 -123 -322 -280 -46 -48 -109 -105 -140 -126 -31 -21
-78 -63 -105 -92 -27 -30 -64 -70 -82 -90 -19 -20 -73 -57 -121 -83 -75 -40
-112 -70 -249 -204 -91 -89 -170 -175 -182 -198 -11 -22 -52 -72 -91 -110 -76
-77 -188 -250 -217 -336 -49 -148 -180 -369 -232 -392 -16 -7 -10 50 19 164
10 41 25 131 33 198 9 68 18 127 20 131 2 3 12 60 21 126 12 79 23 127 35 140
28 33 173 297 190 345 8 25 29 70 47 100 42 73 118 263 145 359 21 78 41 125
63 151 8 8 19 44 25 79 6 35 25 98 41 139 33 82 99 451 99 557 0 33 5 94 11
135 27 191 -9 731 -56 844 -8 18 -11 36 -8 39 3 4 -1 9 -9 12 -9 4 -13 15 -11
29 7 35 -8 36 -43 2z m96 -743 c0 -127 -45 -518 -81 -693 -18 -92 -77 -280
-126 -405 -12 -33 -38 -105 -57 -160 -59 -176 -254 -597 -295 -638 -36 -36
-10 192 43 373 63 215 146 538 165 642 6 36 45 129 106 254 53 108 103 220
110 248 8 28 33 105 55 171 22 66 45 150 52 188 13 78 28 88 28 20z m1500
-790 c-53 -182 -152 -447 -193 -514 -72 -121 -496 -524 -667 -634 -95 -62
-129 -77 -304 -139 -175 -63 -228 -87 -330 -153 -105 -68 -319 -229 -431 -326
-89 -77 -100 -84 -104 -64 -4 29 186 407 202 402 18 -7 31 6 61 60 15 28 40
64 55 81 44 46 113 134 144 182 15 23 31 42 36 42 6 0 61 49 124 108 83 79
133 118 187 145 105 54 124 70 179 150 41 58 61 78 108 102 42 22 101 74 218
191 89 89 182 174 210 190 28 15 70 44 95 63 25 19 70 45 100 58 30 14 73 37
95 52 51 34 165 83 165 71 0 -18 -68 -158 -105 -216 -37 -58 -102 -173 -195
-345 -64 -119 -106 -174 -237 -314 -61 -66 -109 -122 -107 -125 3 -3 11 3 18
13 7 9 19 17 26 17 7 0 59 46 116 101 102 101 163 187 213 303 12 28 34 66 48
85 15 19 46 73 70 120 24 47 50 92 58 101 7 8 39 65 70 127 31 62 60 115 65
118 6 4 10 16 10 28 0 16 3 18 12 9 8 -8 6 -30 -12 -89z m-660 -1063 c0 -5 -8
-14 -19 -19 -10 -6 -21 -21 -25 -34 -3 -13 -23 -35 -44 -49 -20 -14 -76 -58
-122 -97 -95 -81 -206 -156 -423 -287 -82 -49 -181 -115 -220 -147 -86 -70
-125 -94 -235 -142 -46 -20 -102 -49 -125 -64 -77 -52 -308 -174 -315 -166 -4
4 2 12 12 19 11 6 66 56 122 111 128 124 224 210 272 243 20 13 44 31 52 39
40 38 251 185 325 226 74 42 308 137 335 137 20 0 145 53 165 70 11 10 34 25
50 33 17 8 62 42 100 76 67 57 95 72 95 51z m-782 -807 c4 -86 3 -90 -37 -168
-82 -164 -213 -265 -325 -251 -40 4 -56 12 -74 33 -38 48 -55 106 -50 175 7
103 13 110 193 205 88 46 178 97 200 113 l40 29 24 -24 c22 -21 25 -35 29
-112z m-529 -235 c7 -58 17 -90 40 -128 37 -61 39 -93 6 -140 -28 -40 -180
-383 -197 -445 -6 -22 -14 -77 -17 -123 -3 -45 -10 -82 -16 -81 -14 1 -78 230
-107 383 -24 124 -24 126 -6 143 17 15 18 26 13 78 -4 33 -13 73 -19 90 -9 22
-9 43 -1 91 13 67 21 84 37 84 6 0 32 13 57 29 77 49 196 110 198 103 1 -4 7
-42 12 -84z m1749 -959 c34 -6 78 -22 98 -35 19 -13 42 -24 50 -24 26 0 78
-27 109 -56 44 -41 155 -138 253 -221 75 -63 131 -127 121 -138 -2 -2 -45 22
-95 54 -126 79 -334 143 -557 171 -87 11 -163 22 -168 26 -18 11 -120 5 -174
-10 -38 -12 -74 -33 -122 -74 -98 -84 -117 -96 -230 -140 -124 -49 -287 -91
-407 -103 -118 -12 -158 -23 -235 -66 l-64 -36 48 64 c224 294 322 374 610
495 192 81 378 116 575 109 69 -3 153 -10 188 -16z m-125 -274 c14 -6 6 -12
-35 -29 -75 -31 -216 -129 -323 -226 -115 -104 -228 -163 -440 -231 -179 -58
-289 -71 -420 -50 -125 19 -121 58 18 154 51 34 121 55 210 62 92 6 321 62
377 91 25 13 52 24 60 24 32 0 118 50 194 111 110 90 113 91 154 100 42 9 177
5 205 -6z m-134 -1111 c6 -14 26 -92 43 -172 l31 -147 -12 -140 c-21 -230 -27
-277 -50 -345 -11 -36 -28 -102 -36 -148 -8 -49 -31 -119 -55 -172 -22 -50
-40 -94 -40 -99 0 -5 -18 -40 -39 -78 -34 -60 -120 -298 -151 -421 -18 -72
-30 -37 -31 91 -1 132 -26 288 -48 295 -10 3 -12 -9 -8 -54 28 -341 30 -371
17 -457 -12 -89 -30 -126 -30 -63 0 19 -4 38 -10 41 -6 4 -10 -7 -10 -27 -1
-63 -19 -5 -30 96 -6 52 -22 140 -36 193 -34 134 -37 178 -25 403 16 309 80
628 159 791 39 79 229 367 274 417 30 31 72 29 87 -4z m151 -471 c17 -99 14
-425 -6 -519 -15 -75 -48 -173 -97 -290 -14 -33 -37 -101 -51 -150 -44 -158
-205 -469 -336 -649 -16 -22 -38 -62 -49 -90 -50 -127 -103 -251 -112 -259
-16 -17 -22 3 -11 41 6 21 22 72 36 113 14 41 26 95 26 120 0 25 5 63 11 85
10 35 12 38 24 22 8 -11 11 -34 8 -60 -3 -23 -2 -39 2 -34 16 14 36 81 45 147
5 36 24 99 43 140 18 41 60 158 91 260 53 170 85 246 198 476 25 52 43 105 48
145 5 35 22 116 38 179 16 63 32 147 35 185 7 95 27 205 37 205 4 0 13 -30 20
-67z m-882 -852 c115 -59 180 -213 152 -361 -21 -114 -132 -275 -220 -320 -35
-18 -42 -18 -87 -5 -71 21 -126 65 -154 122 -21 41 -24 62 -24 153 0 67 6 118
15 140 19 48 105 175 154 228 61 66 99 76 164 43z m232 -471 c4 -58 15 -124
23 -147 13 -36 14 -52 3 -115 -7 -40 -26 -102 -41 -138 -24 -56 -28 -82 -32
-185 -2 -66 -10 -145 -18 -176 -8 -31 -15 -80 -15 -108 0 -28 -2 -51 -5 -51
-3 0 -44 37 -91 83 -90 86 -129 146 -120 180 4 16 -6 31 -38 61 -58 54 -86
102 -86 148 0 48 19 136 36 170 12 23 18 26 48 21 29 -5 43 1 83 30 26 19 60
48 75 64 49 52 117 174 135 244 15 58 19 66 26 47 5 -13 12 -70 17 -128z
m-518 -182 c18 -14 48 -33 66 -42 25 -13 32 -22 26 -34 -4 -9 -15 -52 -24 -94
l-16 -78 -36 68 c-20 37 -47 108 -61 157 -13 50 -28 99 -32 110 -4 11 5 1 19
-21 14 -23 40 -52 58 -66z m1791 -255 c65 -118 121 -266 232 -613 54 -168 108
-334 121 -370 43 -121 154 -472 154 -486 0 -8 6 -17 14 -20 8 -3 12 -12 10
-19 -5 -13 11 -78 92 -370 14 -49 41 -130 61 -180 30 -74 113 -312 113 -322 0
-2 -9 -3 -20 -3 -17 0 -13 -8 25 -58 26 -34 61 -97 80 -147 19 -49 35 -90 35
-92 0 -2 -8 1 -19 6 -37 20 -149 173 -201 275 -8 16 -32 48 -53 72 -51 58
-171 238 -240 359 -31 55 -88 185 -127 290 -86 226 -88 235 -135 440 -21 88
-45 187 -55 220 -10 33 -30 114 -45 180 -15 66 -38 166 -51 221 -13 56 -24
115 -24 132 0 17 -7 66 -16 109 -15 77 -34 426 -26 471 4 21 5 22 17 5 7 -10
33 -55 58 -100z m90 24 c59 -53 105 -115 310 -422 134 -199 128 -189 206 -378
81 -196 154 -442 221 -742 16 -71 44 -193 64 -270 114 -452 208 -1035 166
-1035 -5 0 -10 7 -10 16 0 9 -6 28 -14 42 -7 15 -21 53 -30 84 -11 36 -32 75
-55 102 -62 71 -97 143 -150 302 -27 82 -66 194 -86 249 -20 55 -56 172 -80
260 -24 88 -76 259 -115 380 -39 121 -93 292 -121 380 -45 142 -118 365 -192
585 -14 41 -36 109 -50 150 -30 94 -47 140 -59 164 -6 11 -23 51 -40 90 -16
39 -32 77 -35 84 -10 24 13 11 70 -41z m-204 -139 c2 -186 53 -454 193 -1018
64 -259 113 -419 154 -508 8 -18 14 -42 12 -54 -8 -57 -183 271 -281 528 -25
67 -62 157 -82 202 -26 61 -35 94 -35 137 0 31 -5 99 -11 152 -9 72 -9 105 0
135 7 23 14 142 17 301 4 267 12 342 25 257 4 -25 8 -84 8 -132z m-564 -75
c81 -11 116 -74 135 -242 6 -51 12 -97 15 -100 2 -4 0 -13 -4 -20 -5 -8 -13 5
-20 36 -19 72 -20 73 -32 73 -7 0 -9 -13 -5 -37 3 -21 9 -66 12 -101 4 -34 11
-65 15 -68 28 -17 -11 -101 -67 -147 -48 -41 -79 -44 -109 -12 -23 26 -25 26
-25 7 0 -11 -5 -24 -10 -27 -16 -10 -57 21 -75 55 -42 82 -66 314 -45 440 11
69 16 78 57 119 42 39 49 43 82 37 20 -4 54 -10 76 -13z m2600 -1108 c20 -66
58 -165 83 -220 50 -111 172 -448 197 -547 19 -72 78 -376 94 -488 22 -144 72
-466 91 -580 10 -63 24 -171 30 -240 6 -69 15 -158 20 -198 12 -90 13 -163 1
-142 -8 15 -38 140 -61 253 -6 31 -13 57 -16 57 -7 0 7 -213 17 -260 6 -25 21
-73 35 -108 38 -97 14 -139 -27 -46 -11 24 -24 46 -30 49 -5 4 -23 34 -41 68
-17 34 -43 80 -58 102 -40 58 -143 268 -173 350 -13 39 -50 179 -81 313 -52
223 -57 257 -66 425 -5 100 -14 211 -20 247 -5 36 -19 126 -31 200 -19 121
-21 153 -13 305 11 212 11 371 1 500 -5 61 -5 96 1 90 5 -5 26 -64 47 -130z
m-3280 81 c100 -12 155 -29 155 -48 0 -4 -46 -4 -102 -1 -67 3 -148 0 -232
-11 -71 -9 -132 -14 -135 -11 -2 3 4 12 15 21 18 14 16 15 -21 9 -72 -10 -220
-23 -223 -20 -2 2 1 12 7 22 9 17 30 21 173 32 90 7 168 14 173 16 20 7 83 4
190 -9z m3318 -31 c4 -8 26 -45 50 -82 24 -37 88 -146 141 -242 54 -95 112
-194 130 -220 80 -112 231 -448 250 -557 4 -21 24 -91 46 -154 21 -63 54 -180
72 -260 l33 -145 -1 -310 -2 -310 -45 -135 c-48 -147 -104 -268 -116 -254 -5
5 -13 63 -20 129 -7 66 -16 156 -21 200 -5 44 -14 136 -20 205 -6 69 -33 260
-60 425 -26 165 -55 347 -64 405 -8 58 -22 137 -30 175 -8 39 -24 126 -37 195
-28 160 -148 519 -225 673 -28 55 -104 256 -104 273 0 11 19 2 23 -11z m-3454
-565 c16 -4 36 -26 58 -66 26 -47 33 -70 32 -114 0 -51 -5 -63 -82 -185 -82
-129 -82 -129 -152 -163 -126 -62 -220 -86 -250 -64 -6 4 -32 35 -58 69 -53
69 -56 88 -32 191 22 93 38 118 138 216 83 80 99 92 162 112 68 22 115 23 184
4z m541 -17 c58 -8 132 -25 165 -37 33 -13 88 -29 122 -36 35 -7 71 -18 80
-26 17 -11 16 -13 -7 -18 -14 -3 -68 -10 -121 -16 -53 -6 -121 -18 -150 -25
-31 -9 -73 -12 -99 -9 -25 3 -63 1 -85 -4 -32 -7 -48 -5 -80 11 -32 16 -59 20
-141 19 l-102 0 -6 26 c-3 15 -8 36 -11 48 -5 16 3 25 46 49 86 46 171 50 389
18z m-212 -189 l27 -6 -38 -19 c-21 -11 -35 -24 -32 -29 4 -6 14 -6 26 1 11 5
32 9 47 7 25 -3 27 -6 27 -53 -1 -70 -29 -136 -87 -206 -49 -60 -139 -137
-189 -164 -46 -25 -141 -35 -166 -19 -24 15 -46 53 -57 96 -5 23 -2 30 23 42
31 16 92 95 114 148 8 18 35 61 61 94 25 34 46 66 46 72 0 19 33 36 79 43 45
6 64 5 119 -7z m1027 -455 c119 -10 178 -18 410 -59 157 -27 186 -35 270 -77
151 -77 307 -201 372 -298 18 -27 52 -75 74 -105 48 -66 106 -177 96 -186 -3
-4 -39 17 -79 47 -40 29 -118 83 -173 120 -55 36 -131 92 -170 123 -38 31
-101 72 -140 93 -38 20 -87 47 -107 60 -20 12 -88 36 -150 52 -62 17 -130 37
-150 46 -21 8 -95 24 -165 34 -350 53 -354 53 -436 42 -43 -6 -114 -11 -156
-11 -43 0 -111 -7 -150 -16 -61 -14 -96 -14 -80 0 22 19 258 118 300 126 119
21 265 24 434 9z m-122 -159 c154 -15 314 -44 375 -69 29 -12 90 -30 135 -42
50 -12 116 -40 167 -68 47 -27 107 -59 134 -72 27 -13 71 -44 96 -69 26 -25
74 -61 106 -80 32 -19 84 -54 114 -78 30 -23 81 -63 113 -87 l58 -44 -35 -6
c-30 -6 -200 10 -216 20 -3 2 -12 0 -19 -4 -9 -6 6 -15 45 -28 l59 -20 -55
-12 c-113 -24 -198 -25 -300 -1 -106 25 -234 68 -319 107 -97 45 -391 243
-391 263 0 21 118 -28 312 -128 117 -60 229 -113 248 -117 19 -4 61 -18 93
-31 53 -23 77 -24 77 -5 0 11 -65 40 -162 72 -48 15 -104 39 -126 53 -105 66
-328 168 -429 196 -70 19 -141 47 -203 81 -52 28 -107 58 -121 65 -39 21 -196
74 -218 74 -29 0 -34 17 -8 24 12 3 49 6 82 7 33 0 83 5 110 9 53 9 102 7 278
-10z"/>
<path d="M1293 5308 c11 -80 -17 -234 -58 -323 -21 -44 -48 -95 -62 -112 -16
-23 -20 -33 -10 -33 24 0 65 53 107 139 33 68 43 102 51 173 14 125 9 192 -15
196 -17 4 -18 -1 -13 -40z"/>
<path d="M5805 1001 c-16 -10 -44 -35 -62 -55 -17 -20 -38 -36 -45 -36 -8 0
-25 -15 -39 -32 -21 -29 -24 -45 -27 -141 -6 -166 34 -304 113 -399 14 -16 25
-42 25 -58 0 -36 44 -160 79 -222 19 -35 32 -48 49 -48 28 0 28 7 -4 53 -29
43 -64 138 -64 174 0 23 2 24 40 18 34 -6 52 -1 125 35 100 49 128 79 166 182
35 92 38 201 10 295 -35 114 -88 175 -198 225 -73 33 -126 36 -168 9z m158
-43 c94 -50 129 -92 162 -195 45 -137 38 -223 -32 -370 -12 -25 -34 -42 -95
-73 -44 -22 -89 -40 -99 -40 -26 0 -90 41 -121 78 -14 17 -42 72 -63 124 -29
73 -38 110 -41 173 -3 53 -1 73 5 60 8 -19 9 -19 19 5 5 14 12 48 16 75 8 55
39 115 84 163 40 43 84 43 165 0z"/>
</g>
</svg>
