<svg xmlns="http://www.w3.org/2000/svg" viewBox="0 0 1882.85 2436.4"><defs><style>.cls-1{fill:#ffffff00;}.cls-2{fill:#ffffff00;}.cls-3{fill-rule:evenodd;}</style></defs><g id="Layer_2" data-name="Layer 2"><g id="Layer_1-2" data-name="Layer 1"><rect class="cls-1" x="1.5" y="1.5" width="1879.85" height="2433.4"/><path class="cls-2" d="M1882.85,2436.4H0V0H1882.85ZM3,2433.4H1879.85V3H3Z"/><path class="cls-3" d="M625.22,2434.11a2.72,2.72,0,0,1-1.57.79h3.94c-.78,0-.78-.79-1.57-.79Zm15-19.71c-.79,0-1.58.79-2.37,1.58-.79,6.3-.79,13.4-4.73,18.92h7.1v-.79c.79-1.58,1.57-2.36,1.57-3.94l2.37-9.46v-2.37c1.58-1.58,3.15-2.36,3.94-3.15,0-1.58-.79-2.37-.79-3.16C644.15,2411.24,642.57,2412.82,640.21,2414.4ZM809,2189.67q1.17,18.91,2.36,37.85c0,3.94-.79,7.88-.79,12.61,0,9.46-1.57,19.71-.79,29.18,0,7.1-2.36,12.61-3.94,18.13-3.16,9.47-6.31,18.14-9.47,27.6-1.57,4.73-4.72,9.47-7.09,15-3.16,6.31-4.73,13.4-6.31,21.29a2.41,2.41,0,0,1-.79,1.57c-2.36,3.16-2.36,6.31-1.58,9.47a207.68,207.68,0,0,1,5.52,21.29,19.55,19.55,0,0,1,.79,6.31c.79,3.94.79,8.67,4,11.82,0,.79.79.79.79,1.58,1.57,7.88,4.72,14.19,8.67,21.29,1.58,3.94,4.73,7.1,7.1,10.25H789.24l-4.73-4.73c-1.58-2.36-4.73-3.94-7.1-5.52a17.4,17.4,0,0,1-3.94-2.37c-2.37-.78-3.94-1.57-6.31-2.36-.79-.79-2.37-1.58-3.15-3.16-4.73-4.73-10.25-7.88-15.77-11-4-1.58-7.89-3.95-12.62-6.31-.79.78-2.37,1.57-3.94,3.15l-4.74-2.37h-.78c-7.89-1.57-15.77.79-23.66,1.58l-9.46,2.37c-6.31.78-11.83.78-18.14,1.58-3.15,0-7.1.78-10.24.78a85.36,85.36,0,0,0-24.45,1.58h-3.16c-3.94,1.58-7.88.79-11,.79h-.8c-7.88-1.58-15.76,0-22.86.79H592.9a95.86,95.86,0,0,0-26,.79c-.78.78-2.36.78-3.15.78-1.58.79-3.16.79-4.73,1.58a181.63,181.63,0,0,1-22.08,7.89,87.36,87.36,0,0,0-21.29,13.4v.79h-7.88a83.05,83.05,0,0,1,37.85-22.08l7.09-2.36a91.5,91.5,0,0,1,14.19-3.16c1.58-.79,3.15-.79,5.52-.79a10.11,10.11,0,0,1,4.74-.78c3.15,0,6.31-.8,9.46,0h16.56c7.09-.8,15-1.58,22.87-.8h2.36a60.34,60.34,0,0,0,11.83-.78c3.15,0,6.31-.79,9.46-.79a21.78,21.78,0,0,1,7.09-.79c8.68-.79,17.35-.79,26-1.58,10.25-1.57,21.29-3.15,31.54-5.51a21.58,21.58,0,0,0,7.1-.8c1.57-1.57.79-2.36-.79-3.15-5.53-4.73-11.83-7.88-18.14-11-5.52-3.15-11-5.52-15.77-9.46-5.52-5.52-12.62-7.89-18.93-11.83l-4.73-2.37a2.43,2.43,0,0,1-.78-1.57c0-.79,0-.79.78-1.58,3.95.79,7.1,3.15,11,3.94.79-1.57,0-2.36-.78-3.15A45.59,45.59,0,0,0,667,2349a149.24,149.24,0,0,1-11-11.83c-2.37,0-4.74-.78-6.31-.78a104.83,104.83,0,0,1-7.89-11.83c-.78,0-.78,0-1.57-.79a106.65,106.65,0,0,0-14.19.79,6,6,0,0,1-3.16.78c-7.88-1.57-15.77-3.15-23.66-3.15-6.3.79-12.61-1.57-19.71-1.57a66.91,66.91,0,0,0-12.62-.8h-3.94c-4.73,0-9.46,3.16-13.41,5.52l-2.36,2.37c-7.1,2.37-13.4,5.52-19.71,7.89-5.52.79-9.47,3.15-13.41,6.31a20.94,20.94,0,0,1-11,5.51,54.77,54.77,0,0,0-10.26,4,141.7,141.7,0,0,1-16.55,6.3,137.3,137.3,0,0,1-17.36,4c-11,2.37-22.08,1.57-33.11,1.57-3.16,0-7.1-.78-10.25-.78-11-.79-22.08-4-33.12-7.1-3.16-.79-5.52-3.15-8.67-3.94-11-3.16-22.87-6.31-34.7-7.89-2.36,0-3.95-.79-6.31-1.57-11-2.37-22.08-4-33.12-7.1-12.61-3.16-23.65-7.89-33.91-15.77a227.25,227.25,0,0,1-26.8-21.29c-7.1-5.52-12.62-11.83-18.93-18.14l-3.15-3.15a125.85,125.85,0,0,0,4.73,13.4c4.73,11,12.61,20.5,20.5,29.18l16.56,16.56a74,74,0,0,1,6.31,3.94c6.3,6.31,15,11,22.87,15.77,6.3,3.15,12.61,5.52,18.13,8.68,1.58,1.57,3.94,1.57,5.52,1.57,3.15,1.58,6.31,3.15,10.25,4.73a38.7,38.7,0,0,0,10.25,3.15c1.58.79,3.15.79,3.94,1.58,13.41,4.73,26.82,6.31,41,7.1,5.52,0,11,1.58,16.56,2.36,7.1,2.37,14.19,3.16,22.08,4h9.46a85.61,85.61,0,0,1,14.19,1.58c7.1,1.57,12.62-.8,18.93-3.16l14.19-7.1,4.73-2.36c9.46-6.31,18.93-11,29.17-15.77a147.87,147.87,0,0,0,15.78-7.89c3.16-1.57,6.31-1.57,8.67-3.15,3.16-.79,5.52-2.37,8.68-3.16a47.51,47.51,0,0,0,9.46-3.94,39.7,39.7,0,0,1,18.13-7.09h4c4.72,0,9.46-1.58,14.19-2.37a68.93,68.93,0,0,0,12.62-1.58,137.1,137.1,0,0,0,17.35-3.94c2.36-.79,4.72,0,7.88.79.79,0,1.58.79,3.16.79,1.57.78,3.15.78,5.51,1.57,3.16,0,6.31,1.58,8.68,3.16a4.1,4.1,0,0,1,3.15,1.58,29.38,29.38,0,0,0,8.68,3.94c2.36,1.58,4.72,3.94,7.09,5.52a8.53,8.53,0,0,1,.79,3.94l-.79.79c-1.57-.79-3.15-.79-4.73-2.37-3.94-2.36-8.67-5.52-14.19-7.1l-4.73-2.36c-3.16-.79-6.31-2.36-9.46-3.15a23.36,23.36,0,0,0-7.89-1.58,19.18,19.18,0,0,0-9.46,0,41.1,41.1,0,0,1-16.56,3.15c-3.15,0-6.31,0-8.67.79a60.05,60.05,0,0,1-16.57,2.37,27.29,27.29,0,0,0-14.19,3.94c-7.88,3.94-15.77,7.1-23.65,10.25-7.89,2.36-14.2,6.31-21.29,9.47a36.87,36.87,0,0,0-5.52,2.36c-6.31,1.58-11.83,4.73-17.35,8.67-6.31,3.94-13.41,7.1-19.72,10.25-5.52,3.16-10.25,4.74-15.76,7.1-2.37.79-4.74.79-7.11,1.58-3.15,0-6.3,0-8.67-.79a139.23,139.23,0,0,1-18.13-.79c-3.15,0-5.52-.79-8.68-.79-7.09-.79-15-3.15-22.86-3.94a10,10,0,0,0-4.74-.79c-10.24-.79-20.5-2.37-30-3.94a11.19,11.19,0,0,1-4.73-1.58c-4.73-.79-8.68-3.15-13.4-3.94s-8.68-3.16-13.41-4.73c-2.37-1.58-5.52-3.16-7.89-2.37a54.15,54.15,0,0,0-7.88-3.15,102.88,102.88,0,0,1-24.45-12.62c-.78,0-.78-.79-1.57-.79-13.41-7.09-23.66-17.34-33.91-27.6a117.69,117.69,0,0,1-16.56-18.14,134.74,134.74,0,0,1-8.67-14.19c-1.58-4.73-3.16-8.67-4.73-13.4-.79-1.58-1.58-3.94-2.37-5.52-1.58-2.37-2.36-5.52-3.94-7.89a66.86,66.86,0,0,1-4.73-7.88,17.78,17.78,0,0,0,2.36-3.94c7.1.78,13.41.78,19.72,1.57,2.36,0,5.51-.79,7.88,0,9.46.79,18.93,2.37,27.6,5.53,9.46,2.36,19.71,3.15,29.18,3.94s18.13,1.57,27.59,2.36c.79,0,1.58.79,3.16.79a153.77,153.77,0,0,1,18.14-1.58,22.35,22.35,0,0,1,10.24,0c8.68,2.37,17.35,3.16,26,4.73,5.52.79,11.05,1.58,15.78,4.73a169.1,169.1,0,0,0,20.5,11,55.51,55.51,0,0,0,6.31,2.36c1.57.79,2.36,1.58,3.94,1.58,7.88,3.94,15.77,5.52,23.65,7.88a69,69,0,0,0,12.62,1.58c8.68.79,17.35,3.15,26,3.15,4.72,0,9.45,1.58,14.19,2.37l9.46,2.36c.78,0,1.58.79,3.94,1.58-3.16,0-3.94.79-4.73.79L488,2309.52c-5.52-.78-11-1.58-16.56-.78a47,47,0,0,1-11-1.58c-4.73-.79-8.67-1.58-13.4-2.37a71.13,71.13,0,0,1-25.23-7.09c-2.37-.79-4-1.58-6.31-2.37-3.15-.79-5.52-2.37-8.68-3.94a79.36,79.36,0,0,1-11.82-5.52c-10.26-7.1-21.29-10.26-33.12-11a60.68,60.68,0,0,1-11.83-1.58,65,65,0,0,0-21.29-1.58c-11,1.58-22.08.79-32.33-.78-2.37,0-4.74-.79-6.31-.79-11.83.79-22.86-1.58-34.69-3.94-6.31-1.58-13.41-3.16-20.51-4.74a155.07,155.07,0,0,0-19.71-1.58c-.79,0-2.37,0-3.15.8v1.58c3.15,3.94,6.3,7.88,10.25,11a151,151,0,0,0,11.82,11c8.68,9.46,18.93,18.14,28.39,26,7.89,6.31,16.56,12.62,26,15.77a127.14,127.14,0,0,0,28.39,7.89c4.73.79,8.67,2.37,13.41,3.15a39.87,39.87,0,0,0,10.25,1.58c3.94.79,8.67,1.58,13.4,2.36a66.45,66.45,0,0,1,11.83,3.16c3.94.79,8.68,1.58,11.83,3.94a149.63,149.63,0,0,0,22.87,7.1c5.52.79,10.24,1.57,15,2.36a60.68,60.68,0,0,0,11.82,1.58c14.2,0,28.39.79,42.59-2.37a80,80,0,0,0,22.86-8.67,39,39,0,0,1,13.4-4.73c3.16-1.57,5.53-2.37,8.68-4.73,3.94-3.94,8.67-7.1,15-7.89,2.37,0,4-1.57,6.31-2.36,6.31-2.37,11.83-6.31,18.14-9.46,3.94-2.37,7.88-3.95,12.61-3.16H574c7.88-1.57,15.77,0,22.87,1.58a21.84,21.84,0,0,1,7.1.79c4.73,0,9.45,0,15,2.37a22,22,0,0,0,7.1.78c2.36,0,4.72-.78,7.09-.78.79,0,1.58-.8,2.37-1.58-3.16-3.16-5.52-6.31-9.46-8.68a23.37,23.37,0,0,0-7.89-1.57c-7.1,4.72-15.77,3.15-23.66,3.15H592.9c-6.31-3.15-13.41-3.15-20.51-3.95H558.2c-13.4.8-26.81,1.58-39.43,3.16a21.75,21.75,0,0,1-7.09.79c-.79-2.37.78-3.15,2.36-3.15,4.73.78,8.68-1.58,13.41-2.37a86.69,86.69,0,0,0,14.19-1.58,152.91,152.91,0,0,1,18.92-1.57c2.37,0,4,.78,6.31.78a46.06,46.06,0,0,0,10.26,1.58c3.94.79,7.88.79,11,1.58a51.6,51.6,0,0,0,18.93,1.58c1.58-.8,3.15,0,3.94,0a48.25,48.25,0,0,1,9.47-3.95c1.57,0,3.15.79,5.52.79l.79.79c0-2.37,0-3.94-.79-5.52v-.79c-1.58-3.94-3.95-7.88-5.52-11.82-4-5.53-7.89-10.26-11.83-15.78a38.39,38.39,0,0,1-2.75-4.94c-8.82-3.6-15.4-10.62-23.27-16.35-3.16-2.36-5.52-5.52-10.26-7.88-3.94-.79-7.88,1.58-11.83,2.36-3.93,0-7.88,1.58-12.61,2.37h-9.46a6,6,0,0,1-4,1.57L499.06,2252c-5.52,0-11,0-17.34-1.58-7.11-2.36-14.2-3.94-21.3-6.3-8.67-3.16-18.14-5.52-26.81-10.26a17.19,17.19,0,0,0-3.94-2.36,20.87,20.87,0,0,1-7.88-4.73c-2.37-1.58-5.53-3.16-7.89-4.73-11.83-7.1-23.66-14.2-33.91-23.66-3.94-3.15-8.67-7.09-13.4-11-3.94-1.58-8.68-3.94-13.41-6.31-5.52-3.94-11.83-6.3-17.35-11-4.72-3.15-9.46-3.94-14.19-6.3-5.52-2.37-11-2.37-16.55-5.52h-2.37c-3.16-.79-7.1-1.58-10.25-3.16a123.94,123.94,0,0,0-12.62-2.37c-3.94.79-9.46,1.58-14.2,2.37a100.27,100.27,0,0,1-15,.79c-3.15,1.58-6.3,3.15-10.25,4.73a5.94,5.94,0,0,0,.79-3.15c.79-1.58,2.37-2.37,3.94-4.74-1.57,0-2.36-.78-3.15-.78-1.58,0-3.15.78-4.73.78,9.46-7.88,19.71-12.61,32.33-11,9.46-4.73,19.71-9.46,29.18-14.19,10.24-5.52,20.5-7.89,31.54-8.68a140.73,140.73,0,0,0,18.14-1.58c9.45-.79,19.71-1.57,29.17,0,7.09,1.58,14.19,1.58,21.29,1.58,4.45.37,8.74.92,13,1.56a25.62,25.62,0,0,1-2.76-3.93c-3.15-5.52-7.89-10.25-11.83-15.77-3.15-5.52-7.89-10.25-11-15.77-7.89-11-18.13-18.92-29.17-26-3.95-2.36-8.67-3.94-14.2-6.31-1.58,0-3.15-.79-4.73-.79H321.64c-3.15.79-7.1.79-10.25,1.58H298.78c-7.11,1.58-15,3.16-22.87,4.73a174.2,174.2,0,0,0-19.72,3.95c-.78,0-1.57-.79-2.37-.79h-1.57c-.79.79-.79.79-.79,1.57,1.58,6.31-.79,12.62-.79,18.14,0,1.58-.78,2.37-.78,3.16-3.16,7.09-6.31,13.4-11,19.71a59.47,59.47,0,0,1-8.68,11c-1.58,2.36-4.73,3.94-7.09,5.52l-.79.78c-.79,0-.79,0-.79.8l-4.73,2.36c-.79.79-2.37,1.58-3.16,2.36a44.07,44.07,0,0,1-10.25,6.31,2.89,2.89,0,0,1-2.36.79c-5.52,1.58-11,2.37-15.77,4-2.37-.79-4.73-1.58-5.52-2.37-5.52-3.15-7.88-7.1-8.68-11.83a50.47,50.47,0,0,0-4.73-12.62,5.92,5.92,0,0,1-3.15,1.58,105.19,105.19,0,0,1-14.2,5.52c-2.37.79-4.73,2.37-7.09,2.37-4,0-7.89-.79-12.62-.79-1.57-2.37-3.15-3.94-4.73-6.31-3.16-3.94-6.31-8.68-9.47-11.83-3.15-3.94-3.94-7.09-3.94-11.83.79-9.46,3.16-18.92,5.53-28.38,2.36-6.31,5.52-12.62,11-17.35,5.51-3.94,9.45-8.68,14.19-13.4,3.94-3.16,7.09-5.52,11.83-7.1l14.19-4.73a15.66,15.66,0,0,1,10.25-.79c5.52.79,10.25,2.36,15,3.15a136.58,136.58,0,0,1,10.25,11.83,14,14,0,0,0,5.52-3.94,70.8,70.8,0,0,0,7.89-4.73c1.57-.79,3.15-.79,4.73-1.58a2.45,2.45,0,0,0,1.58-.79,26.71,26.71,0,0,1,7.88-.79c3.15,0,5.52-.79,7.89-.79a117.44,117.44,0,0,1,16.56,1.58c10.24,1.58,19.71,1.58,30,3.94a38.84,38.84,0,0,0,10.25,3.16c2.36.79,5.52,1.58,8.67,2.36,7.1,1.58,14.2,3.16,21.29,6.31a39.89,39.89,0,0,1,10.25,3.94c.8.79,1.58.79,2.37,1.58,6.31,3.16,12.62,4.73,18.93,7.1,0,.79,1.57,0,2.36,0a2.9,2.9,0,0,1-.79-2.37,20.07,20.07,0,0,1-6.31-7.88l-2.36-2.37a153.06,153.06,0,0,0-11.83-11,1.69,1.69,0,0,0-1.57-1.57,138.83,138.83,0,0,1-9.47-11c-3.15-3.95-5.52-8.68-7.88-12.62s-3.95-7.1-6.31-11c-1.58-2.37-4-3.94-7.1-5.52-.78,0-.78,0-1.58-.79-8.67-3.94-17.34-7.89-25.23-15a14.56,14.56,0,0,0-9.46-3.94c-4.73-1.58-9.47-1.58-14.19-2.37-5.52-.79-11-.79-16.56-1.57-2.37-.8-5.52-.8-7.89-1.58-2.37,0-5.52-.79-7.88-.79H221.5a10,10,0,0,0-4.73-.79,76.42,76.42,0,0,0-13.41.79h-3.15c-3.15.79-6.31.79-9.47,1.57-4.72.8-8.67,1.58-12.61,2.37-6.3,1.58-11.83,2.37-17.35,4-4.73,1.57-9.46,2.36-13.4,4.72-4.73,2.37-8.68,5.53-13.41,8.68-3.94,2.37-7.1,5.52-11,7.88-7.09,4.74-14.19,10.25-21.29,15.77-5.52,4.74-11,9.47-17.35,13.41-4.73,3.15-9.46,7.89-15,11-3.15.79-4.73,3.15-7.88,4.73-6.31,1.58-12.62,3.94-19.72,5.52-3.94.79-8.67,1.58-12.61,2.37-6.31.78-12.62,2.36-19.71,2.36H1.5v-5.52c6.3-.79,13.41-.79,19.71-2.37h6.31c9.46-1.57,18.93-3.15,27.6-7.09,11-3.15,19.71-10.25,28.38-17.35,6.31-4.73,12.62-9.46,18.93-15,3.15-2.37,5.52-4.73,8.67-6.31l2.37-2.36c7.88-4,15-9.47,22.08-15a88,88,0,0,1,33.12-14.19,161.59,161.59,0,0,0,18.92-3.95,2.76,2.76,0,0,1,.79-1.57c.79,0,1.58.79,3.16-.79a6,6,0,0,1-3.16.79c-3.15-1.58-6.31-.79-9.46,0a118,118,0,0,1-17.35,1.57,44.54,44.54,0,0,1-14.19-2.36c-1.58.79-2.37.79-3.94,1.58a11.23,11.23,0,0,1-4.74-1.58,206,206,0,0,0-37.06,12.62c-5.52,1.57-10.25,4.73-15,7.09a37.85,37.85,0,0,0-5.52,2.37c-6.31,3.16-13.41,5.52-19.71,8.68-.79.78-2.37.78-3.16,1.57a84.23,84.23,0,0,1-17.34,11.83l-4.74,2.36c-3.15,1.58-7.09,3.16-11,4.74a14.94,14.94,0,0,1-6.3,1.57c-5.53,4-11,7.1-17.35,8.68v-7.1a41.37,41.37,0,0,0,12.61-4.73c7.89-4,15.77-7.1,24.45-11a86.06,86.06,0,0,0,11.83-6.31c9.46-7.09,19.71-11.83,30.75-16.56,1.57,0,2.36-.78,3.94-1.58,5.53-2.36,10.25-4.72,15-7.09,2.36-1.58,3.94-3.16,6.3-3.94-3.15-.8-7.88-.8-10.25-.8A183.56,183.56,0,0,1,74,1957.05a213.63,213.63,0,0,1-22.87.79,177.14,177.14,0,0,0-49.67,4.73v-3.94c1.58-.79,2.36-.79,3.94-1.58,16.56-3.94,32.33-4.73,48.89-3.94a80,80,0,0,0,23.66-.79l30.75-4.73h8.67c-8.67-4.73-24.44-5.52-30.75-2.37-5.52,0-11.83-.78-18.14-.78a15.4,15.4,0,0,1-5.52-.79c-3.94-.79-7.88,0-12.61,0-3.16.79-7.1,0-10.25.79a39.17,39.17,0,0,0-8.68.78,2.77,2.77,0,0,0-1.58-.78c-9.45,0-18.13-2.37-26.8-1.58-.79,0-1.58,0-1.58.79v-5.53c3.15-.78,6.3-.78,9.46-1.57,8.67-.79,18.14.79,27.6.79a153.51,153.51,0,0,0,18.92.78H81.14c9.47,0,18.14-.78,27.6.8a46.47,46.47,0,0,1,11,1.57c3.15-.79,5.52-1.57,7.89-1.57,9.45-1.58,19.71-3.16,30-3.94.78,0,2.37-.8,3.94-.8,4.73-.78,9.46-.78,14.19-1.57a82.26,82.26,0,0,1,19.72,0h7.88c4.73.79,8.68,1.57,13.41,1.57h4.73a2.43,2.43,0,0,1,1.58.8,35.89,35.89,0,0,1,15.77,3.94.76.76,0,0,1,.78.78l11.83,4.74a53.53,53.53,0,0,1,7.89,3.15,73.88,73.88,0,0,1,14.19,9.46c3.16,2.37,4.73,2.37,7.89.79v-.79c-7.89-4.73-13.41-12.61-21.3-17.35l-1.57-1.58c-3.94-6.3-7.89-11.82-11.83-18.92-3.15-4.73-5.52-10.24-7.88-15.77-.79-1.58-1.58-2.37-1.58-3.94-2.37-3.94-3.94-7.1-5.52-10.25-2.36-1.58-3.95-1.58-4.73-2.37-1.58-2.36-3.15-3.94-3.94-6.31-.79-.78-.79-1.58-1.58-3.15q-2.37-5.91-4.73-11.83v-.79c-1.58-4.73-4-7.89-6.31-11.83a20.63,20.63,0,0,1-3.94-4.73,4.07,4.07,0,0,1-3.16-1.58c-2.36-1.57-4.73-3.14-6.3-6.3-3.16-3.94-5.52-7.89-10.26-10.25-6.3-3.16-11.83-6.31-18.13-9.47-4.74-2.36-9.47-3.94-14.2-6.3l-14.19-4.73c-.79,0-1.58-.8-2.37,0-6.3,0-11.82-2.37-17.35-3.95s-11-3.94-17.34-4.73c-3.15,0-6.31-1.58-9.46-2.36-4.74-.79-7.89-3.16-11.83-4.73-7.1-3.94-14.2-5.52-21.29-7.89a47.73,47.73,0,0,1-15-4.73c-3.16-2.37-7.1-3.94-11-5.52-3.95-.79-7.1-3.15-11.83-5.52-7.88,0-14.19-6.31-21.29-8.67v-7.1c4.73,3.16,10.25,5.52,16.56,7.89a177.66,177.66,0,0,1,18.13,7.88c11,4.73,22.08,9.46,33.91,12.61,7.09,1.58,14.19,4.74,20.51,7.11,6.3,3.14,12.61,3.94,19.71,5.51l-3.16-3.15c-8.67-4.73-16.55-9.47-25.23-14.19-3.94-2.37-8.67-4-12.62-5.52-2.36-1.58-5.52-2.37-7.88-4-7.1-3.94-13.41-7.88-20.5-11.83a8,8,0,0,1-4.74-3.94c-3.94-4.73-8.67-7.88-12.61-8.67-3.95-3.16-7.1-4.73-10.26-7.1a111.47,111.47,0,0,0-11.82-8.67v-7.1A59.88,59.88,0,0,1,11,1726.8c5.52,4.73,11.83,8.67,18.14,12.62,7.09,5.52,14.19,10.25,21.29,15.77,6.3,3.94,12.61,7.88,19.71,10.25,7.89,3.15,15,7.1,22.87,11,7.1,3.94,14.19,7.88,22.07,11.83,11.83,5.52,22.87,11,34.7,15.77l26,11.83h4l-2.37-4.74c-1.58-2.37-3.15-5.52-4.73-7.88-7.89-6.31-10.25-8.68-16.56-17.35-3.16-3.94-6.31-6.31-11.83-7.1s-11-1.57-16.55-3.94a133.43,133.43,0,0,1-21.3-10.25c-3.94-2.36-7.88-4.73-11-6.31-3.94-2.36-7.88-3.94-11-7.1a148,148,0,0,0-15-8.67c-5.52-3.15-11-6.3-15.77-10.25-6.31-5.52-12.61-11-18.92-17.35-6.31-5.52-13.41-11.82-19.71-18.13-4.74-3.95-9.47-7.89-13.41-12.62v-7.1l2.36,2.37c0,.78.79.78.79,1.58,6.31,7.09,14.2,12.61,21.29,18.92,3.94,4.73,8.68,8.68,13.4,12.62l18.93,16.56c3.16,2.36,7.1,3.94,10.25,6.3l30.76,18.93c4.73,2.36,9.46,5.52,15,7.1,2.37.79,5.52,3.15,8.67,4.73,4.74,2.36,9.46,3.94,15.77,3.15l-11.83-11.82a16.62,16.62,0,0,0-3.94-2.37,75.2,75.2,0,0,0-15.77-11.83L93,1736.27c-6.31-1.58-11.83-5.53-17.35-9.47-3.94-3.94-8.67-6.31-13.4-9.46-5.53-3.95-11-7.1-15.77-10.25a10.91,10.91,0,0,1-3.16-2.37c-5.52-6.31-12.62-11-18.92-16.56a34.74,34.74,0,0,1-8.68-6.31,16.88,16.88,0,0,1-3.94-3.15c-2.36-3.16-4.73-5.52-7.1-8.68s-3.94-6.3-3.15-10.25c0-.78.79-1.58,1.58-3.15,1.57,1.57,3.15,2.37,3.15,3.94,2.37,6.31,6.31,11,11,15.77,6.31,4.74,12.61,9.47,18.92,15a21.1,21.1,0,0,1,4.74,3.94,155.58,155.58,0,0,0,18.13,13.41c5.52,3.94,12.62,7.09,18.13,11.82,8.68,7.1,18.93,11.83,28.39,15.78a29.57,29.57,0,0,1,11.83,7.09,1.7,1.7,0,0,0,1.58,1.58c8.68,5.52,15.77,12.62,23.66,18.92.79.79,2.36,1.58,3.93,3.15v-3.94c-1.57-4.73-3.14-8.67-4.72-12.61a94.66,94.66,0,0,0-6.31-15.77c-2.37-4-5.52-7.1-7.88-10.25-4-7.1-7.11-14.2-11-20.51-5.53-9.46-10.26-18.92-18.14-26-4.73-4.73-8.68-9.46-12.62-14.19a82.54,82.54,0,0,1-9.46-7.89l-15-15C53.54,1633,44.87,1625.08,37,1617.2c-11-10.26-23.66-19.72-35.48-29.18v-5.52c2.36,1.58,4.73,3.15,5.52,7.1,2.37,1.57,3.94,3.15,7.09,3.94,2.37,0,3.95,1.58,5.52,3.15,3.16,3.94,6.31,8.68,11.83,10.25.79,0,2.37,1.58,3.16,2.37,2.36,4.73,5.52,7.89,9.46,8.67l24.44,24.45a140.89,140.89,0,0,0,11,9.46c7.89,7.88,15.77,15,22.87,22.87,4.73,4.73,7.89,10.25,11,15.77,5.52,9.46,10.25,18.92,15.77,27.6,1.58,3.15,3.94,5.51,6.31,7.88,0-2.37,0-4.73-.79-6.31-3.15-7.88-4.73-15.77-7.09-22.86l-7.11-21.3c-2.36-3.94-3.93-7.88-7.09-11-3.15-4-5.52-7.89-8.67-11.83-3.16-5.52-6.31-11-10.26-15.77-4.73-6.31-10.25-11-16.55-15.77-7.1-5.52-15-10.25-21.3-15.77A128.42,128.42,0,0,0,37,1588.81c-8.67-7.1-18.13-12.62-27.59-18.14-2.37-1.57-5.53-3.15-7.89-4.73v-7.1c3.94,2.37,7.1,4.74,11,7.1,11.83,7.1,23.65,15,33.91,23.66a86.09,86.09,0,0,1,8.67,7.88c9.46,7.1,18.14,14.19,27.59,21.29a90.23,90.23,0,0,1,18.93,19.71c3.16,5.52,7.1,11,11,16.57a107.08,107.08,0,0,1,18.14,41c1.57,5.51,3.15,11.83,5.52,17.34,1.57,5.52,3.15,10.25,3.94,15,1.58,4.73,2.37,10.25,4.73,14.19,3.16,5.52,5.52,10.25,8.68,15,.35.52.71,1,1.08,1.54-.49-9.69,1.6-19.22,6-29.14-3.94-1.58-7.89-3.16-11-5.52A41.12,41.12,0,0,1,134,1705.51c0-1.58-.79-3.15-.79-4.73,0-3.94-.79-7.1-.79-11-.78-11.83.79-22.87,6.31-33.12,1-2.36,2-4.57,3.17-6.64-1.58-4.42-1.49-20.56-.8-28.84-.79-7.1-.79-12.62-1.58-18.93-6.31-3.94-12.62-8.67-18.93-13.4-.78,0-1.57-.79-2.36-1.58-7.1-4.73-14.19-9.46-20.5-13.4-4.73-3.95-10.25-6.31-15-10.25-5.52-3.95-10.24-7.89-15.76-11.83-4-3.94-8.68-7.1-12.62-11-5.52-5.52-10.25-11-15.77-15.77l-6.31-6.31c-4.73-4.73-8.67-11-12.62-16.56-3.15-3.94-5.52-7.88-8.67-12.62-2.36-4.73-5.52-8.67-8.67-12.61-.79,0-.79,0-.79-.79V1465.8a94.26,94.26,0,0,0,8.67,9.46c2.37,2.36,3.94,5.52,5.52,7.88,4.74,7.1,9.46,15,15,22.08,9.47,13.41,21.29,25.23,33.91,35.49,7.1,6.3,15,12.62,21.29,19.71,1.58,0,2.37,0,3.15.79,5.52,3.15,10.26,6.31,15,9.46a59.4,59.4,0,0,0,11,8.68,24.65,24.65,0,0,0,5.52,3.94c5.53,3.94,11.05,7.09,15.78,11,0,.8,1.57.8,2.36.8,0-1.58,0-2.37-.79-3.16-3.15-6.31-7.09-13.4-10.24-20.5-2.37-3.94-4.74-7.88-7.11-11A58,58,0,0,0,115,1551a65.56,65.56,0,0,0-6.3-9.46l-2.37-2.37c-1.57-3.94-3.94-6.31-6.3-9.46-3.16-4-6.31-7.89-9.46-12.62a83.61,83.61,0,0,1-7.11-8.67c-2.36-4-5.51-7.1-7.88-11L73.26,1495c-5.53-6.3-11.83-11.83-16.57-18.13a55.28,55.28,0,0,0-11-12.62c-3.16-2.36-5.52-5.52-8.68-7.88L30.67,1450A148.77,148.77,0,0,0,12.54,1428c-3.94-3.15-7.1-7.1-11-11.83v-5.52c.79.79,2.36,1.58,3.15,2.37,7.89,7.88,16.56,15.77,24.45,23.65,5.52,5.52,10.24,11.83,17.35,15.77.78,0,1.57,1.58,1.57,2.37v4.73a17.15,17.15,0,0,1,3.94,3.16c2.37,1.57,4.73,3.15,6.31,5.52,3.16,5.51,7.1,9.45,11,13.4,1.58,1.57,3.16,3.94,4.73,5.51,3.15,4,6.31,7.11,9.46,11.05,4.74,7.09,9.47,14.19,14.2,20.5,2.37,2.36,4.73,3.94,6.31,6.31a83.28,83.28,0,0,0,7.88,9.46,111.56,111.56,0,0,1,8.67,11.83,8.89,8.89,0,0,1,2.37,6.3,18.55,18.55,0,0,0,4.74,7.1,45.19,45.19,0,0,0,3.15,4.73c2.36,4.74,4.73,9.47,7.88,15,0,.78.79.78,2.37,1.57v-3.15a139.07,139.07,0,0,1-3.16-15.77c-.79-4.73-.79-9.47-3.15-13.41a8.57,8.57,0,0,0-.79-3.94c0-1.58,0-3.15-.79-3.94-3.94-8.67-7.88-16.56-12.62-25.23-2.36-4-4.72-8.68-7.09-12.62-3.15-5.52-6.31-11-10.25-15.78-7.1-8.67-14.2-16.55-19.72-26-1.57-2.36-3.15-4.72-4.72-7.09-7.89-8.67-15-18.14-23.66-25.23l-18.93-18.93c-5.52-4.73-11-8.67-17.34-13.4-5.53-3.94-11.83-7.89-17.35-12.62v-8.67l21.29,16.55c7.09,5.52,13.4,11,20.5,16.57a282.67,282.67,0,0,1,27.6,26c3.94,3.94,7.89,8.67,11.82,12.61,7.1,8.67,7.1,8.67,16.57,13.41,3.15,3.94,5.52,7.89,8.67,11.83,1.58,3.15,4.73,5.51,7.09,7.88a38.94,38.94,0,0,1,5.52,6.31c.79,1.58,1.59,2.37,2.37,3.94,1.58,4,3.94,7.89,5.52,11.83a27.47,27.47,0,0,0,1.74,2.32,34.2,34.2,0,0,1-.95-4.69c-1.57-5.51-3.15-9.46-7.09-12.62v-.78c-.8,0-.8-.79-1.59-1.58-2.36-4.73-4.72-10.25-7.09-15.77,0-.78-.79-1.58-.79-2.37-2.36-5.52-4.73-10.24-6.31-15.76-.79-3.16-2.36-6.31-3.15-8.68-1.58-2.37-2.37-5.52-3.94-7.88l-2.37-4.74a2.43,2.43,0,0,0-.79-1.57,4.1,4.1,0,0,1-1.58-3.15c-1.57-3.16-3.93-6.31-4.73-9.47-2.36-6.31-3.15-11.83-4.73-18.14-.79-.78-.79-2.36-1.58-3.15a6.7,6.7,0,0,0-1.57-4.73c-3.94-5.52-7.89-9.46-11-14.19a94.61,94.61,0,0,1-6.31-12.62L59.85,1353c0-.79-.79-1.58-1.58-2.37v-.79c0-4.73-3.15-8.67-6.31-11.82q-2.35-3.55-4.73-7.1c-2.36-3.16-5.52-6.31-7.89-9.46-2.36-2.37-3.93-4.74-5.51-6.31a20.8,20.8,0,0,0-4.73-3.94.78.78,0,0,0-.79-.8c-4.73-3.94-9.46-7.88-12.62-12.61-.78-.79-1.58-2.36-3.15-3.16-3.15-1.57-7.1-3.94-11-5.51v-3.94c.79.78,2.36.78,3.15,1.57,5.52,3.15,11,5.52,15.78,9.46.78.79,1.57.79,2.36,1.58a18.39,18.39,0,0,0,5.52,5.52c3.15,3.94,7.1,6.31,10.25,10.25,3.15,2.36,6.31,4.73,8.67,7.89a112.47,112.47,0,0,1,11,15.77,73.51,73.51,0,0,1,9.46,17.35c0,1.57,1.58,3.15,2.37,5.51,2.37-1.57,1.58-3.15,1.58-3.94a51.34,51.34,0,0,0-5.52-16.56,146.8,146.8,0,0,1-7.89-15.77c-2.36-7.1-4.73-15-5.51-23.65-.8-10.26-3.16-21.3-4.74-31.55a87.51,87.51,0,0,1-1.57-13.4c0-7.89-1.58-14.2-2.37-21.29a63.11,63.11,0,0,0-4.74-23.65c-2.36-8.68-3.93-17.35-6.3-26-1.58-5.53-2.37-10.26-3.94-15.78,0-1.57-.79-3.16-.79-4.73a67.12,67.12,0,0,1-2.37-18.14,236.54,236.54,0,0,1-.79-23.65c.79-5.52-1.57-11-3.94-16.56-.78-2.36-.78-5.52-3.94-7.1-1.58.79-3.95,1.58-5.52,2.37a73.43,73.43,0,0,1-10.25,3.15v-5.52a28.74,28.74,0,0,0,13.41-5.52c.78,0,.78-.79.78-1.57L1.5,1081.78v-4.72c3.15,1.57,6.3,3.93,9.46,5.51a12.8,12.8,0,0,0,4.73,2.37c-.78-5.52-2.37-9.47-6.3-11.83-1.59-.79-2.37-2.36-3.95-3.16-1.58-1.57-2.36-3.15-3.94-3.94v-5.52c1.58,2.37,3.94,4,6.3,5.52A45.67,45.67,0,0,1,22,1084.15a11.19,11.19,0,0,0,1.58,4.73,27.24,27.24,0,0,0,4.73-2.36,6.15,6.15,0,0,1,3.15-3.16,59.93,59.93,0,0,0,2.37-16.56,67.81,67.81,0,0,1,3.94-21.29c2.37-10.25,3.94-19.71,5.52-30,1.58-15.77,4.73-30.76,7.1-46.53q1.17-10.63,2.37-21.29a19.38,19.38,0,0,0-.8-6.31,193.54,193.54,0,0,1-7.88-18.92c-1.58-6.31-3.15-13.41-5.52-19.71-.79-3.16-1.58-6.31-2.37-8.67C34.62,886.23,33,878.34,33,870.46c-.79-8.68-2.37-16.56-3.16-25.23a154.87,154.87,0,0,1-1.57-18.93,17.34,17.34,0,0,1-.79-6.31c0-1.58,0-3.94.79-5.52,0-4.73.79-9.46.79-14.19.78-.79.78-2.37.78-3.16-1.57-7.09,1.58-15,.79-22.07,3.16-3.95,3.95-8.68,4.74-12.62.78-5.52,1.57-10.25,4.73-15,.79,0,.79-.79.79-2.37.78-4.73,3.15-8.68,3.94-13.4,1.58-3.95,2.36-7.89,3.94-11a94.3,94.3,0,0,1,3.95-14.19,68.93,68.93,0,0,0,3.93-11.83,39.58,39.58,0,0,1,1.58-9.46c1.58-4.73,3.16-9.46,4.73-13.4,3.16-7.1,6.31-15,8.68-22.08,2.36-9.46,7.88-18.14,13.4-26,.79-1.58,1.58-2.37,2.37-3.94C89,617.34,90.61,616.55,93,615v4.74c-3.16,1.57-4.73,3.94-6.31,7.09A6,6,0,0,0,85.08,630c-1.58,2.36-2.37,3.94-3.94,6.31-4,2.36-5.52,7.09-6.31,11.82a110.43,110.43,0,0,1-5.52,17.35c-2.36,3.94-2.36,8.68-3.94,12.61-2.37,5.53-3.15,11-5.52,15.78-.79.78-.79,1.57-1.58,3.15,0,1.58-.79,3.16-.79,4.73a25.25,25.25,0,0,1-2.36,11c-.79,3.15-2.36,6.31-3.16,9.46,0,2.37-.79,5.52-2.36,7.1C48,732.46,48,736.4,47.23,739.56q-1.17,3.54-2.36,7.1c-.79,6.31-4.73,12.61-6.31,18.92-.79,3.95-1.58,7.1-2.37,11a91.49,91.49,0,0,1-.78,15v10.25a25.22,25.22,0,0,1-2.37,11c0,3.15.79,5.51.79,7.88a116.25,116.25,0,0,0,.79,16.56c.79,7.1.79,14.19,2.36,21.29.79,4.73.79,10.25,2.36,15,1.59,5.52,2.37,10.25,1.59,15.77,2.36,3.15,3.15,7.1,3.94,11l7.09,26,2.37,2.37a38.34,38.34,0,0,0,.79-9.47c1.57-5.51,3.15-11,3.15-16.55a7.12,7.12,0,0,0,.79-3.95c.79-7.09,3.16-13.4,5.52-20.5,1.58-5.52,3.15-11.83,4.73-18.13,2.37-7.1,4-15,7.1-22.08,1.58-3.94,1.58-7.89,2.37-11.83,1.57-5.52,2.36-10.25,3.93-15.77.79-1.58,1.58-3.94,2.37-5.52v-3.16c2.37-6.3,3.16-13.4,5.53-20.49,1.57-5.53,3.15-11.05,5.51-15.78.79-2.36,2.37-4.73,3.16-7.09,1.57-2.37,2.36-4.74,3.94-7.1v-.79a23.56,23.56,0,0,0,3.15-6.31c1.58-2.37,2.37-4.73,3.95-7.09a45.08,45.08,0,0,1,3.15-6.31,23.81,23.81,0,0,0,3.16-7.89c1.57-5.51,3.93-11,5.52-16.56,2.36-7.88,5.52-16.56,7.88-24.44,5.52-17.35,7.88-35.49,11-53.62.79-7.1.79-15,1.58-22.87a10,10,0,0,0-.79-4.73c-.79-3.95-2.37-7.88-2.37-11.83-1.58-6.31-3.15-12.61-2.37-19.71,0-.79-.78-1.58-1.57-3.16a17.31,17.31,0,0,0-3.94,2.37,139.08,139.08,0,0,1-9.46,11l-4,3.94-4.73,4.73c-2.37,3.16-4.73,6.31-5.52,10.26-.79,0-.79.78-1.58.78-1.57,1.58-2.36,3.16-3.15,3.94-1.58,2.37-3.15,4-3.94,6.31V611a4.1,4.1,0,0,0-3.16,1.58c-.79,1.58-1.58,2.36-3.94,2.36a31.63,31.63,0,0,0,3.94-7.09A23.6,23.6,0,0,1,99.28,600c1.57-2.36,2.36-3.94,3.94-5.52,0-.79.79-1.57.79-2.36.79-1.58,1.57-2.37,2.36-4,.79-.79.79-1.57,1.58-2.36a10.91,10.91,0,0,1,2.37-3.16c.78-.78,2.36-1.57,3.15-3.15,3.16-3.15,5.52-7.1,8.68-10.25,0-.79.78-.79.78-1.58a6,6,0,0,0,1.58-3.15,82,82,0,0,0,3.16-11c2.36-1.57,3.94-3.15,7.09-4.72a13.35,13.35,0,0,1,1.58-4,8.4,8.4,0,0,1,.78,9.47,2.9,2.9,0,0,0,2.37.79c.79.78.79.78,1.58.78,0,.79-.79,1.58-.79,2.37a11.23,11.23,0,0,0,1.58,4.73c.79,2.36,2.36,4.73,2.36,7.1,1.58,8.67,3.95,18.13,3.95,26.8-.79,4.74,0,8.68.78,12.62a32.33,32.33,0,0,1,.79,8.68c.79,4.73.79,9.46,1.58,15,.79,8.68-.79,17.35.79,26.81.78,5.52,0,11-.79,16.56-.79,8.67-2.37,16.56-2.37,25.23.79,2.37,0,5.52,0,7.89a223.73,223.73,0,0,1-3.15,22.86c-2.36,13.41-3.94,26-6.31,39.43-1.58,9.47-6.31,18.14-9.46,27.6-.79,3.15-1.58,7.1-2.36,10.25A21.91,21.91,0,0,1,125.3,820c-1.58.79-1.58,2.37-3.15,3.94v.8c-4,5.51-5.52,11.82-7.11,18.13a14.58,14.58,0,0,1-1.57,5.52,92.26,92.26,0,0,1-7.1,18.92,45,45,0,0,0-3.15,9.47c-.79.78-.79,1.57-1.58,3.15s-1.57,3.94-2.36,5.52c0,.79-.79,1.57-.79,2.37-.79,1.57-1.58,2.36-2.37,3.94-1.58,3.15-3.94,6.31-5.51,9.46a17.91,17.91,0,0,1-2.37,3.94c-.79,3.94-1.58,7.88-3.16,11-2.37,3.95-4.73,8.67-7.09,12.62-3.16,7.1-7.89,13.4-11.83,20.5-1.58,1.58-2.37,3.94-3.16,6.31-1.57,2.37-2.36,4.73-4.73,6.31a1.7,1.7,0,0,1-1.58,1.57c-1.57,9.47-3.15,18.14-3.93,26.81-.8,6.31-2.37,11.83-3.95,18.14,0,.79-.79,1.58-.79,2.36.79,6.32-.79,12.62-1.57,18.14a157.71,157.71,0,0,1-3.16,18.93c-3.15,7.88-3.95,15.76-4.73,23.65v2.37c1.58-.79,2.37-.79,3.15-1.58,5.52-6.31,10.25-12.61,15.77-18.92,0-.79.79-1.58.79-2.37,1.58-1.58,2.37-3.94,3.16-6.31,2.36-7.1,6.3-13.4,9.46-20.5a6,6,0,0,0,1.58-3.15c1.57-8.68,6.31-16.56,11-24.45,0-.78.79-1.57,1.58-2.37,3.16-5.52,7.1-11,10.25-17.34a.77.77,0,0,0,.79-.79,17.15,17.15,0,0,1,3.16-3.94l1.57-1.58c.79,0,1.58-.79,2.37-.79H104l.79-.79c.78-.79.78-1.57,1.57-2.36a71,71,0,0,1,7.1-7.89l2.37-2.37c.79-1.57,2.36-3.15,3.15-4.72a23.17,23.17,0,0,1,3.16-6.31c2.36-4,6.3-7.1,9.46-10.25l2.36-2.37c3.94-3.94,7.1-7.89,11-11,2.37-1.57,3.94-3.94,5.52-5.52l7.1-7.1a94.36,94.36,0,0,1,9.46-8.67,44.26,44.26,0,0,1,7.1-5.52c5.52-3.15,11-5.52,15.77-7.89,5.52-3.15,10.25-6.3,14.19-11.82,6.31-8.68,13.41-16.56,22.08-22.08,11.83-7.1,21.29-17.35,30-27.6,5.52-5.52,10.25-11.83,16.56-16.56.79-1.57,2.37-2.36,3.16-3.16,1.57-1.57,3.15-2.36,4.73-3.94,5.52-3.15,11-7.09,16.56-10.25,2.36-1.57,4.73-3.94,7.09-5.52,4.73-3.15,10.25-5.52,15-8.67,7.09-3.94,14.19-7.88,20.5-11h.79c7.09-3.15,14.19-6.31,21.29-8.67,3.94-1.58,7.88-3.16,12.62-5.52,1.57,1.57,2.36,3.16,3.15,3.94-3.15,10.25-5.52,19.71-8.67,29.17-.79,2.37-.79,4.74-2.37,7.1-3.16,6.31-4.73,12.62-6.31,19.72-.79,3.15-3.15,4.73-3.94,7.88a10,10,0,0,1-.79,4.74c-.79,3.94-2.37,7.09-3.16,10.24l-2.36,7.1c-.79,2.37-2.37,4.73-3.16,7.09-1.57,2.37-3.15,5.53-5.52,7.89-.78,0-.78,0-1.57.79a2.76,2.76,0,0,0-.79,1.58c-5.52,8.67-13.41,16.56-21.29,23.65a108.2,108.2,0,0,0-13.41,13.41c-2.36,3.15-4.73,6.31-5.51,9.46s-2.37,4.73-4.74,7.89c-2.37.79-5.52,2.36-8.67,3.15-3.16,4.73-7.1,9.46-9.46,15a23.55,23.55,0,0,1-3.16,6.3,18.71,18.71,0,0,0-4.73,7.1,2.52,2.52,0,0,1-2.37,2.36q-4.72,3.56-9.46,7.1c-3.15,1.57-6.3,4.73-9.46,7.1-4.73,3.94-9.46,8.67-13.4,12.61a17.16,17.16,0,0,1-6.31,4c-6.31,4.73-11.83,10.24-18.93,14.19a159.69,159.69,0,0,1-19.71,11c-7.1,2.36-14.19,7.09-21.29,11-5.52,3.15-10.25,7.1-15.77,11-.79.79-.79,1.58-1.58,2.36,6.31,6.31,10.26,13.41,10.26,21.29a49.11,49.11,0,0,1,.78,10.26c0,4.73,0,8.67-3.15,11.82-.79.79-.79,1.58-1.58,3.16-2.36,7.09-6.31,14.19-11,21.28a53.11,53.11,0,0,1-17.34,15,12.72,12.72,0,0,0-5.52,3.15l-4.74,2.37a7.09,7.09,0,0,0-3.94.79c-2.37,0-4.73.78-7.1.78-.79.79-2.36.79-3.15.79h-1.58a2.88,2.88,0,0,1-2.36-.79,6,6,0,0,1-3.16-.78c-1.58,0-3.15-.79-4.73-.79-2.37,3.15-1.58,7.88-2.37,11.83a37,37,0,0,0-3.94,7.88,68.93,68.93,0,0,0-6.3,13.41c-2.37,7.09-7.1,13.4-10.26,22.87,2.37-2.37,4-3.16,5.52-4.74,3.15-3.15,7.1-6.31,11-10.25a138.79,138.79,0,0,1,11-9.46,10.91,10.91,0,0,0,3.16-2.37c1.57-.79,2.36-1.57,3.94-2.36.79-.79,2.36-1.58,3.15-2.36l7.1-4.74c.79-.79,2.37-1.57,3.16-2.37,1.57-.78,3.93-2.36,5.52-3.15a238.35,238.35,0,0,0,22.07-17.35c7.1-7.09,14.19-13.4,21.29-21.29,3.16-3.94,7.89-7.09,13.41-7.09,4.73,0,8.67-1.58,12.62-4,4.72-2.36,10.24-2.36,15-3.15s8.67.79,12.61,2.36c7.89,4.74,15,9.46,21.29,16.57l2.37,2.36c2.36,1.58,3.15,3.95,3.94,6.31.79,3.94,2.37,8.67,3.16,14.19,0,7.89-3.95,15.77-9.47,22.08-2.36,1.58-3.15,3.94-5.52,5.52a32,32,0,0,1-15,6.31c-9.46.79-18.92-.79-28.38-1.58-4.74-.79-8.68-1.57-12.62-1.57-11-1.58-22.08-4-33.12-6.31-1.58-2.37-3.94-3.95-5.52-6.31-3.94-.79-7.89-2.37-12.61-4,3.94-3.94,7.09-4.72,11.82-2.36,1.58,1.58,3.16,2.36,4.73,3.94,3.16,3.94,7.89,4.73,13.41,5.53,11,2.36,22.87,3.93,33.91,5.51,7.09.79,13.4.79,20.5,1.58,10.25.79,17.35-5.52,23.65-11.83l4.73-7.09c.79-1.58,1.58-2.37,2.37-3.95,3.15-7.88-.79-23.66-7.89-29.18-1.57-1.57-3.15-2.36-4.73-3.94-5.52-7.09-13.4-9.46-22.08-9.46-11,.79-21.29,4.73-30.75,11-.79,0-.79.79-1.58.79-7.88,3.15-12.61,8.68-17.35,15-.78.79-1.57,2.37-2.36,2.37-5.52,2.36-8.67,6.3-11.83,10.25,0,.79-.78,1.57-1.57,3.15-4,.79-8.68,2.37-14.2,3.95-1.58.78-3.94,3.15-6.3,5.52-.8.78-1.59,1.57-1.59,2.36-2.36,3.15-4.72,4.73-7.09,7.1-.79,0-1.58.78-2.37,1.57l-4.73,2.37c-.79.79-2.36,1.58-3.15,2.37h-.79a6,6,0,0,1-3.15,1.57c-.79.79-2.37,1.58-3.16,3.16a10.53,10.53,0,0,0-2.36,3.15,11,11,0,0,1-3.15,2.37c-2.37,1.57-4,3.94-5.53,6.31-2.37,1.57-3.94,3.93-5.52,7.09-2.37.79-4.73,2.37-7.09,3.15-3.16,7.89-6.31,15-9.47,22.08-2.36,4-3.15,7.89-4.73,12.62,0,3.15-.79,6.31-1.58,10.25,0,1.58-.78,3.16-1.57,5.52a90.48,90.48,0,0,1-.79,14.2c-.79,7.88-.79,15.77,1.58,23.65v.79a2.9,2.9,0,0,1-2.37.79v.79c3.15,3.94,3.15,7.88,3.94,12.61,0,3.16.79,6.31.79,9.46,1.58,4.73,2.37,10.26,3.16,15,.79,7.88,3.15,15,5.52,22.86a36.32,36.32,0,0,0,3.94,7.89c2.37,7.89,5.52,16.56,7.89,24.44.78,1.58.78,3.95,1.57,5.52a60.14,60.14,0,0,0,4.73,15.78c.79,3.15,2.37,7.09,3.16,11l2.37,2.36c3.15-3.94,2.36-8.68,3.93-12.62.79-2.36.79-3.94,1.58-5.52.79-3.15,1.58-5.52,2.37-7.88a44.83,44.83,0,0,1,.79-10.25,2.9,2.9,0,0,0,.79-2.37c.78-.78.78-2.37,1.57-3.15a22.94,22.94,0,0,1,1.58-7.1c.79-2.36,1.58-5.52,3.15-7.88s3.16-5.52,4.73-7.89c.79-.79,1.58-2.37,2.37-3.15,2.37-4,4.73-7.1,7.09-11,.79,0,.79-.78,1.59-1.57,2.36-3.15,5.52-5.52,7.88-8.67a52.2,52.2,0,0,0,6.31-7.1,141.9,141.9,0,0,1,30.75-30.75c1.58-2.37,3.94-4,6.31-5.52A68.92,68.92,0,0,1,198.63,1245a168.82,168.82,0,0,1,30.76-12.62l7.09-2.36c2.37-.79,4.73-1.58,7.89-2.37a255,255,0,0,1,28.38-6.31h3.16l9.46-2.36a52.76,52.76,0,0,1,15.77,0,7.11,7.11,0,0,0,3.95.79c7.88-.79,15.76.78,22.86,1.57,4.73.79,8.68,1.58,11.83,3.16a26.33,26.33,0,0,1,9.46,3.94c4.73,2.36,10.25,3.94,15,6.3,4.74,1.59,8.67,4.74,11.83,7.89a11.08,11.08,0,0,0,2.36,3.16c4.74,3.94,10.26,7.89,15,12.61,9.46,10.25,21.29,18.14,30.75,28.39l4.73,7.1,4.73,7.09c.79,1.58.79,3.16,1.58,4.74-2.37,1.57-3.94,1.57-5.52,0-1.58,0-2.37-.79-2.37-1.58-3.15-3.16-7.09-6.31-11.82-7.89-.79.79-3.15.79-5.52.79-1.58-.79-3.94-1.57-5.52-3.15-5.52-4-11.83-6.31-18.14-8.67a38.85,38.85,0,0,1-8.67-3.16,39.88,39.88,0,0,0-10.26-1.58c-9.46-.78-18.13-.78-27.59-1.58a91.57,91.57,0,0,1-14.2-3.15,21.93,21.93,0,0,0-17.34,3.15c-7.1,4.74-15,7.89-21.29,13.41l-5.52,5.52c-1.58.79-3.16,2.37-5.52,3.15l-2.37,2.37c-.79,0-.79,0-.79.79-2.36,2.36-3.94,4.73-6.31,7.1l-3.94,3.94c-5.52,5.52-11,10.25-18.92,12.61a86.57,86.57,0,0,0-11.83,6.31,28.49,28.49,0,0,1-13.41,5.52c-5.52.79-10.25,1.58-14.19,3.95-9.46,4.72-19.72,7.09-29.18,9.46a10.05,10.05,0,0,1-4.73.78A45.35,45.35,0,0,1,160,1353c-3.95,0-7.11,1.58-10.26,0-7.88.78-15-.79-23.65-1.58a17.65,17.65,0,0,0-3.94-3.16,6.08,6.08,0,0,1-3.16-3.15c-2.36,3.15-3.15,6.31-3.95,9.47-.78,1.57-.78,3.94-1.57,5.51-1.58,4.74-3.94,10.26-7.1,14.2v.79a16.93,16.93,0,0,0-3.15,3.94c-.79,0-.79.79-1.58,1.58-.79,3.15-1.57,6.31-2.36,10.25v3.94c.79,3.15.79,5.52,1.57,7.89a18.72,18.72,0,0,0,2.37,9.46c.79,1.57,1.58,3.15,3.15,3.94.79.79.79,1.58,1.58,1.58-.79.79-.79,1.57-1.58,2.36l-1.57,1.58a4.11,4.11,0,0,1,1.57,3.16c2.37,5.51,4.73,11.82,7.1,18.13.79.79.79,1.58,1.57,3.15,2.37,4.74,4.74,10.26,7.11,15.78a191.18,191.18,0,0,1,9.46,27.59c0,1.58,1.57,3.16,1.57,4.74,2.37,6.3,4.73,12.61,5.52,18.92,0,.22.09.44.13.66,3.36,5.89,6.64,11.29,9.34,16.68a48.66,48.66,0,0,1,3.94,23.66c0,4.73-.79,8.67.78,12.62a9.85,9.85,0,0,1,.8,4.73c-.8,9.46-.8,18.14-2.37,26.81-1.58,4.73-2.37,9.46-3.94,14.19v7.89A61.14,61.14,0,0,1,149,1633c-.78.78-1.57.78-3.15,1.57-1.1,3.3-1.05,7-.92,10.75a29.08,29.08,0,0,1,2.5-2.86c4.73-5.52,9.46-11.83,15-17.35,2.36-3.15,4.73-4.73,8.67-6.31.8-.79,2.37-.79,3.94-.79l.79-.78a34.37,34.37,0,0,1,22.87,8.67,53.4,53.4,0,0,1,9.46,9.46c1.58,1.58,2.37,4,3.16,6.31.8,1.61,1.51,3.13,2.16,4.61-.37-3.82-.59-7.71-.59-11.71v-6.31c0-5.52.79-10.25.79-15.77a134,134,0,0,1,1.58-30.75c.79-3.94.79-7.88,1.58-12.61q1.18-5.92,2.36-11.83c.79-3.94,1.58-7.89,2.37-11a39.57,39.57,0,0,1,1.58-9.47c.79-3.15.79-5.51,1.57-8.67,1.58-7.1,3.94-15,5.52-22.07l2.37-4.74a110.82,110.82,0,0,1,6.31-14.2c1.57-3.15,3.94-6.3,5.52-9.46.78-1.57,1.57-2.36,2.36-3.94,3.16-4.73,7.09-9.46,10.25-14.19,6.31-9.46,11-18.93,18.14-27.6,5.52-7.09,12.62-11,21.29-10.25a79.19,79.19,0,0,1,7.88,8.67,10.73,10.73,0,0,1,2.37,3.16c3.15,7.88,7.1,16.56,8.67,25.23,1.58,9.47,4.73,18.92,6.31,27.6a136.71,136.71,0,0,1,3.94,30.75c-.78,6.31,0,13.4,0,20.51V1547c-.78,5.52-.78,10.26-1.57,15.77,0,6.32,0,13.41-2.37,19.72s-3.94,11.82-6.31,18.13c-1.57,6.31-5.52,11.83-7.09,18.93-1.58,3.15-2.37,7.1-3.95,11a44.9,44.9,0,0,0-3.15,9.46c-1.58,7.89-5.52,15.77-8.67,22.87-3.16,5.52-5.52,11.83-8.68,17.34-2.36,7.1-4.73,13.41-8.67,19.72-4.73,6.31-8.68,13.4-12.62,20.5a73.21,73.21,0,0,1-11,15c-3.15,6.31-5.52,12.62-8.67,18.14-.79,3.15-2.37,6.31-3.94,10.25-1.58,4.73-3.95,9.46-5.52,14.2a133.72,133.72,0,0,0-7.1,23.65c-.79,3.94-2.36,8.68-3.15,12.62,0,.78-.79,1.58-.79,2.36s-.79,1.58-.79,2.37a17.4,17.4,0,0,1-2.37,3.94c-.79,1.58-1.57,2.37-2.36,3.94-.79,2.37-.79,5.52-.79,8.68a10,10,0,0,0,.79,4.73,16.93,16.93,0,0,0,3.15,3.94l1.58,1.58a1.71,1.71,0,0,0,1.58,1.58,11,11,0,0,0,2.36,3.15c.79.79.79,1.58,2.36,3.16a10.38,10.38,0,0,0-3.93-.8c-.79,0-.79,0-.79-.78h-2.37c0,1.58,0,3.94.79,5.52v1.57c.79.79.79,1.58,1.58,2.37l4.72,9.46c3.95,7.1,7.89,14.2,11,21.29,3.94,7.89,7.88,15,11.82,22.87s9.46,15,15,22.08c5.52,5.52,12.62,11,18.14,17.35a17.28,17.28,0,0,0,3.95,2.36h3.15c4.73,3.15,9.46,5.52,12.61,9.47l.79.78c.8.79,1.58.79,2.37,1.58,0-3.94-.79-7.1-.79-10.25-.78-4.74-.78-9.46-1.58-14.19v-1.58q-2.35-9.46-4.73-18.93c0-4.73-.78-8.67-.78-13.4a189.5,189.5,0,0,1-.8-21.29l-1.57-1.58c-1.58,0-3.94-.79-6.31-.79-5.52-.79-8.67-3.15-10.25-7.89-1.58-3.15-2.37-6.3-3.94-9.45-.79-4-3.16-7.1-3.16-11-1.58-7.09-1.58-14.19-1.58-21.29a38.82,38.82,0,0,0-.78-9.46v-15c0-.79,0-2.36.78-3.15.79-3.16,2.37-5.52,2.37-8.68.79-5.52,4.73-9.46,8.67-13.4,1.58-1.58,4-2.37,5.53-4q8.28-5.91,16.55-2.36c.8.79.8.79,1.58.79a27.24,27.24,0,0,0,4.73,2.36c0-4.73-3.94-4.73-5.51-6.3v-3.16h5.51c5.52,4.73,10.25,10.25,15.77,15l2.37,4.72a35.63,35.63,0,0,1,5.52,19.72c.78,3.94.78,8.67,1.57,13.4,1.58,7.89,2.37,15.78,0,23.66-.79,3.15-1.57,6.31-2.36,10.25-1.58,3.94-3.15,7.89-6.31,11a53.42,53.42,0,0,1-20.5,14.19c-1.57,5.52-1.57,11-1.57,15.77,0,11.83-2.37,18.93,7.88,48.89-.79.79-1.58.79-2.37,1.58,1.58,14.19,3.94,19.71,13.41,30.75a39.34,39.34,0,0,1,5.51,6.31,64.83,64.83,0,0,1,6.31,9.46,37.72,37.72,0,0,1,2.37,5.52c2.37,4.73,4.73,9.46,8.67,13.41,3.16,3.15,5.52,7.09,8.68,10.25a8.55,8.55,0,0,0-.79,3.94c3.15,3.15,5.52,6.31,8.67,8.67a24.16,24.16,0,0,1,7.89,10.25c3.94,6.31,7.88,11.84,11,18.14a13.93,13.93,0,0,1,3.15,3.94c7.1,6.31,12.62,14.2,18.14,21.29a154.78,154.78,0,0,0,13.4,18.14,51.15,51.15,0,0,0,6.64,9l2.83.47c.78.79,2.36.79,3.15.79l26,4.73c20.51,3.16,40.22,9.47,57.56,22.08a256.39,256.39,0,0,1,22.87,18.13c7.1,6.32,12.62,14.2,18.14,22.08S564.51,2207,570,2215.69c0,.79.8,1.58.8,2.36a59.46,59.46,0,0,0,10.25,18.14c0,1.58.78,3.16.78,5.52,7.11,5.77,14,11.79,21.41,17.22-3.13-11.12-7.66-21.16-15.1-30.63a20.76,20.76,0,0,1-3.94-7.09,78.92,78.92,0,0,0-5.52-11.83,6.65,6.65,0,0,0-4.73-1.58c-.79-2.36-2.36-4.73-4-7.88-.78-1.58-2.36-3.15-3.15-5.53-2.36-4.72-4.73-9.45-7.88-13.4-2.36-3.15-4.73-6.3-8.68-6.3-.79,0-1.57-.79-2.36-1.58.79-1.58,1.57-2.37,2.36-3.94-.79,0-.79-.8-.79-1.58-4.72-4.73-8.67-10.25-14.19-13.41-5.52-7.09-12.61-12.61-17.35-21.29,0-.78-.78-.78-1.57-1.57l-3.16-3.16c-5.51-9.46-13.4-18.13-20.5-27.6-6.31-7.88-12.62-15.77-16.55-26a20.91,20.91,0,0,0-3.95-4.73c-1.58-3.94-3.15-7.1-4.73-11-2.37-4.73-4.73-9.46-8.68-14.19A68.51,68.51,0,0,1,451,2032a50,50,0,0,0-6.31-11c-3.94-7.09-8.67-14.19-13.4-21.29-3.16-3.94-7.1-7.88-8.68-12.61-1.57-3.16-3.15-5.53-3.94-8.68s-2.37-5.52-3.15-7.88c-.79-.79-.79-1.58-1.58-2.37-1.57-3.94-3.94-8.67-5.52-12.62a112.9,112.9,0,0,1-6.31-14.19c-2.36-7.1-5.52-14.19-7.88-20.5a54,54,0,0,1-3.16-7.89c-3.94-9.46-8.67-18.92-10.25-29.17,0-.79-.79-1.58-.79-3.16,0-8.67,0-18.13-.79-26.8,0-9.47,1.58-18.93,2.37-28.39a69.72,69.72,0,0,0,0-18.14v-20.5a164.63,164.63,0,0,0,.79-19.72c0-8.67,0-18.13,2.36-26.8.79-3.94,2.37-7.89,3.16-11.83-.79-3.16-3.94-5.52-2.37-9.47a10.07,10.07,0,0,0,4.73-.78c3.95,3.94,7.89,7.09,11,11,3.16,3.15,6.31,6.3,10.25,8.67a17.17,17.17,0,0,0,4,3.15c.78.79.78,1.58,1.57,1.58,4.74,6.31,11,10.25,16.56,15,2.37,2.36,5.52,5.51,7.1,8.67,3.16,4.73,5.52,9.46,8.68,14.19,5.51,8.67,11.82,17.35,18.13,26.81,3.94,6.31,9.46,11.83,12.61,19.71.79,1.58,3.16,3.16,3.95,5.52,3.15,5.52,7.09,11.83,9.46,18.14,3.15,5.52,5.52,12.62,8.68,18.13,4.73,7.89,7.09,16.57,10.24,24.45a28,28,0,0,1,1.58,7.88c3.16,11,7.1,22.09,10.25,32.34,1.58,7.09,3.16,13.4,4.74,20.49,1.57,3.95,2.36,8.68,3.94,12.63.79,2.36.79,4.72,1.57,6.3,0,3.15,0,5.52,1.58,8.67.79.8.79,1.58.79,3.16,0,3.94,1.58,7.89,2.37,11.83,2.36,7.88,4.72,15.77,7.09,24.44,3.15,11,4.74,22.08,7.1,33.12,2.36,10.25,4.73,21.29,7.09,31.55.79,3.14.79,5.51,1.58,8.67q2.37,13,4.73,26c.79,3.15.79,6.3,1.58,9.46.79,11.83,2.37,23.65,3.16,35.49,0,.78.78,1.57.78,2.36a15.47,15.47,0,0,0,.79,10.25c1.58,3.15,2.36,7.1,3.16,10.25,5.51,11.83,11.82,23.65,17.34,36.27,1.58,2.37,2.37,3.94,4,6.31,6.31,9.46,13.4,18.14,19.71,27.6,3.16,4.73,5.52,10.25,8.68,15v.79c3.94,6.31,5.51,14.2,7.88,21.29a55.06,55.06,0,0,0,3.94,10.25,17,17,0,0,0,2.37,3.94c5.52,8.68,11,17.35,18.14,24.45,7.88,7.89,15.76,15.77,23.65,24.44,3.15,2.37,5.52,4,8.67,6.31a65.73,65.73,0,0,1,9.47,6.31,13.28,13.28,0,0,0,7.88,2.36c4.73,3.16,10.25,6.31,15,10.26.79.78,2.37,1.57,3.94,3.15a83.35,83.35,0,0,1,9.47,7.88,24,24,0,0,0,5.52,4c9.46,3.15,17.35,7.88,25.23,12.61,2.37,1.58,3.94,2.37,6.31,4,4.73,3.15,9.46,6.31,15,9.46.79.79,2.37.79,4.73,1.58a203.18,203.18,0,0,0-11-30.75c-.78-4.74-.78-11.05-2.36-16.57-.79-3.15-.79-6.3-1.58-9.46a21.75,21.75,0,0,0-.79-7.09c-2.36-4.74-3.94-10.25-3.15-15.77l-.79-.79c-.79,0-1.58-.79-2.37-.79-4.73-3.15-9.46-6.31-11.82-11.83-2.37-4.73-4.74-8.67-7.1-12.61-2.37-4.74-5.52-9.47-7.89-14.2v-3.15c-2.36-3.16-3.94-5.52-5.52-7.89-2.36-3.94-5.52-7.09-7.09-11-.79-4.73-3.16-8.68-4.74-12.62-2.36-4.73-5.51-9.45-7.09-14.19l-4.74-9.46c-.78-1.58-1.57-3.15-2.36-4.73a223.62,223.62,0,0,1-6.31-24.44,2.94,2.94,0,0,1-.78-2.37c-3.94-7.89-5.52-17.35-7.89-26-.79-7.09-2.37-14.19-3.15-21.28-.79-2.37-.79-3.94-1.58-6.31-1.58-5.52-1.58-11.83-2.37-17.35-.78-7.1-1.58-15-2.36-22.08v-8.67c-.79-3.15-1.58-6.31-.79-8.68.79-.79,0-1.58,0-2.36l-2.37-28.39c-1.57-7.88-3.15-15.77-4.73-24.44-1.57-3.95-1.57-8.68-1.57-13.41.78-9.46.78-19.71,1.57-29.17a116.18,116.18,0,0,1,.79-16.56,287.27,287.27,0,0,0,0-42.58c-1.58-10.25-.79-20.51-.79-30.76a29.5,29.5,0,0,0-.79-7.88c-.78-2.37-.78-5.52-1.57-7.89.79-2.36,1.57-3.94,4.73-3.15,2.36,5.52,3.94,11,6.3,15.77s4.74,7.89,7.11,11.83a24.74,24.74,0,0,1,3.94,7.89c.78,2.36,1.58,4.72,3.15,6.3a253.54,253.54,0,0,1,15,24.44c2.37,5.52,4.73,11,8.67,15,0,.78,0,.78.8,1.58a6,6,0,0,1,1.57,3.94,74.37,74.37,0,0,0,9.46,17.34,27.85,27.85,0,0,0,3.16,7.1,10.7,10.7,0,0,0,3.15,2.37c0,3.94,3.16,6.3,5.52,8.67.79,1.58,2.37,3.16,3.16,4.73,2.36,4,3.94,7.1,6.3,11,2.37,5.52,4.73,10.25,7.1,15.77.79,2.36,1.57,5.52,3.94,7.89.79.79,1.58,2.37,2.37,3.15,2.37,5.52,4.73,11,6.31,15.77,5.52,13.41,9.46,27.6,13.4,41.8S801.86,2151,805.8,2166C807.38,2173.9,809,2181.78,809,2189.67ZM443.87,2000.42a.83.83,0,0,0,.7-.43,1.31,1.31,0,0,1,.08.43v-.79a.77.77,0,0,1-.08.36,5.88,5.88,0,0,0-1.5-1.94c.8,1.58.8,1.58.8,2.37-.8-.79-1.59-1.57-1.59-2.37-2.36-7.09-5.52-15-7.88-22.08-3.15-8.67-5.52-18.13-7.88-26.8a97.61,97.61,0,0,0-3.16-12.62c-.79-3.15-.79-7.1-2.36-11a95.16,95.16,0,0,0-3.95-14.19c-.79-2.36-.79-4.73-1.57-7.1-1.58-4.73-2.37-9.46-4-14.2,0-2.36-.79-3.94-.79-5.51-.78-3.16-.78-5.53-1.57-7.89-2.37-11-5.52-22.86-7.89-33.91-.78-3.15-1.57-7.09-2.36-10.25a229.86,229.86,0,0,0-3.15-22.86c-1.58-10.26-3.16-20.51-3.16-30.76,0-8.67-.79-18.13-.79-26.81a.77.77,0,0,0-.79-.79h-1.58a85.4,85.4,0,0,0-1.57,24.45c.79,8.67-1.58,17.34,0,26.81,0,3.15-.79,7.1,0,10.25,0,7.88-1.58,15-1.58,22.87-3.15,5.52-.79,11-2.36,16.56,2.36,5.52,1.57,11,2.36,16.55.79,3.16,0,6.31,0,9.47v4.73c.79,8.67,4.73,15.77,7.89,22.87,4.73,10.25,7.88,20.5,11.83,30.75,3.15,7.1,5.51,13.4,8.67,20.5a.77.77,0,0,1,.79.79c2.36,4.73,3.94,9.46,6.31,14.19,3.15,7.1,7.09,14.2,10.25,20.51,3.94,6.31,8.67,12.61,12.61,18.13l1.58,1.58C447,2007.52,444.65,2004.36,443.87,2000.42ZM544.8,2155a52.44,52.44,0,0,1-2.37-6.31l-2.37-7.09c-3.94-10.25-8.67-20.51-17.34-28.39-.79-.79-.79-1.57-2.37-3.94a17.34,17.34,0,0,0,6.31.79c-4.73-15.77-9.46-31.55-15.77-45.74-3.15-6.31-4.74-12.62-7.1-18.92-3.94-12.62-7.1-25.24-10.25-37.85-3.15-8.67-4.73-17.35-7.1-26,.79-.78,1.58-1.57,1.58-2.36-.79,0-1.58-.79-3.15-1.58-2.37-8.67-5.52-18.13-7.89-26.81-1.57-3.94-2.37-7.88-3.94-11-3.15-7.09-4.74-15-7.1-22.07A69,69,0,0,0,462,1905.8c-1.58-4.74-3.94-8.68-4.73-13.41a96.32,96.32,0,0,0-3.94-14.19c-2.37-7.89-5.52-15.77-7.89-23.66-2.37-7.09-4.73-13.4-7.09-20.5-2.37-6.31-4-12.61-6.31-18.13a88.77,88.77,0,0,0-7.89-24.45c-.79-3.15-2.36-5.52-3.15-8.68-1.58-3.94-3.95-8.67-5.52-12.61a88.89,88.89,0,0,1-4.74-8.67q-4.73-8.28-9.46-16.56a13.65,13.65,0,0,0-3.15-4c0,4,0,7.1-.79,10.25,1.58,5.52,2.37,11,.79,17.35v15a19.63,19.63,0,0,0,.79,6.32c0,3.14,1.58,6.3,1.58,9.45,0,4.74,0,9.46,1.57,13.41.79,3.16.79,5.52,1.58,7.88.79,7.1.79,15,2.37,22.08A97,97,0,0,1,410,1856.9c1.57,8.68,3.15,17.35,5.52,26a14.84,14.84,0,0,0,1.57,6.31c0,2.36,1.58,3.94,1.58,5.52-.79,3.94.79,7.09,2.37,10.25a83.83,83.83,0,0,1,3.94,15c1.58,4.73,2.36,10.25,3.94,15,.79,4.72,2.37,9.46,3.16,14.19,2.36,11,4.72,22.07,8.67,32.32s7.88,20.5,11.83,30.76c2.36,5.52,3.94,11.83,6.3,17.35a258.16,258.16,0,0,0,13.41,25.23c3.16,5.52,5.52,10.25,8.67,15a54.5,54.5,0,0,1,6.31,7.89c3.94,5.52,7.1,11.82,11,17.34.79.79,1.58,2.37,2.37,3.16a50.6,50.6,0,0,1,14.19,19.71c3.15,4.73,5.52,9.47,8.67,14.2,4.74,6.3,9.47,11.82,15,18.13A43.13,43.13,0,0,0,544.8,2155Zm18.13,13.4v4.74a6,6,0,0,0,3.94,1.58v-4c-.78-6.31-.78-12.61-1.57-18.92a255.86,255.86,0,0,0-5.52-41,123.75,123.75,0,0,1-3.95-18.13q-1.17-5.92-2.36-11.83c-2.36-9.46-4.73-19.71-6.31-30-1.57-8.68-3.16-16.56-5.52-25.24-1.58-4.73-2.36-10.25-3.94-15.77,0-1.57-.79-2.36-.79-3.94a37.85,37.85,0,0,0-2.37-5.52c-1.57-6.31-2.36-12.62-3.94-18.13-.79-3.16-1.57-5.52-1.57-7.89,0-5.52-3.16-11-3.94-16.56,0-3.15-1.59-6.31-2.37-9.46a23,23,0,0,1-1.58-7.1,96.32,96.32,0,0,0-3.94-14.19c-1.58-4.74-4-9.46-4.74-15-1.57-7.88-4.72-15.77-7.09-22.86l-2.36-4.73-4.74-11.83c-3.15-7.1-5.52-14.2-8.67-20.5-2.37-4.73-3.94-8.67-7.1-13.41-8.67-12.61-17.35-26-26-39.43-1.58-2.36-3.94-4.73-5.52-7.09-2.37-3.94-6.31-7.1-7.09-10.25-2.37-3.94-4.74-7.1-6.31-9.46-3.16-4-4.74-7.1-7.89-10.25-4.73-4.73-9.46-8.68-14.19-12.62l-1.58-1.58c-.79-.79-.79,0-2.37,0a2.88,2.88,0,0,1,.8,2.37c.78,2.36,2.36,3.94,3.15,5.52a55.32,55.32,0,0,1,3.15,7.88,42.55,42.55,0,0,0,6.31,13.41c0,3.15,0,4.73.79,6.3a60.83,60.83,0,0,1,7.88,19.72c1.58,3.94,2.37,8.67,3.15,12.62,1.59,3.15,2.37,7.09,3.95,11,4.73,10.25,7.88,22.08,11.83,32.33,1.57,5.52,3.15,11,4.73,15.77,3.15,8.68,4.73,17.35,7.88,26,3.15,7.1,4.74,15,7.89,22.87a227.84,227.84,0,0,0,6.31,22.08c3.15,8.68,6.31,18.14,9.46,27.6,1.58,6.31,3.15,13.41,6.31,19.71l2.36,7.1c3.16,12.62,6.31,26,10.26,38.64a275.59,275.59,0,0,0,11.83,33.12c3.93,10.25,7.09,21.29,10.24,31.54a84.8,84.8,0,0,0,10.25,22.86,74.69,74.69,0,0,0,11.83,15.77,24.59,24.59,0,0,1,4.74,10.25c0,1.58,1.57,3.16,2.36,5.53-.79.78-.79,2.36-.79,3.94C559.78,2164.43,561.35,2166,562.93,2168.37Zm6.31,17.35q0-3.54-2.37-4.73c0-.79-.78-.79-1.57-.79.79,1.58.79,3.16,1.57,4S568.45,2184.94,569.24,2185.72ZM304.29,1880.56l1.58,1.58c4.73-.79,9.46-3.94,12.62-7.1a28.56,28.56,0,0,0,10.25-19.71c-1.58-.79-2.37-.79-3.94-1.57a56.81,56.81,0,0,0-2.37-22.87,7.66,7.66,0,0,1,.79-7.1c.79.79,1.58,1.58,2.36,1.58a65.51,65.51,0,0,0,3.16,11.82c0,1.58,0,4,2.37,4.74,0-1.58.78-3.16.78-4a81.2,81.2,0,0,1-3.15-23.65c-.79-7.1-2.37-13.41-6.31-19.72-1.58-2.36-3.94-3.94-6.31-6.3H310.6c-2.36-.79-3.94-1.58-6.31-1.58-3.15-1.58-7.09-1.58-11-1.58-4.74,3.16-9.47,6.31-12.62,11a91.36,91.36,0,0,0-3.16,14.2,60.24,60.24,0,0,0-.78,11.82c0,7.1.78,14.2.78,21.3v.78c1.58,9.47,2.37,19.71,7.1,28.39,2.37,5.52,5.52,8.67,11,8.67,2.36-2.37,0-5.52,2.36-7.1a16.63,16.63,0,0,1,3.16,4.73A4.07,4.07,0,0,0,304.29,1880.56Zm52.84-606.37c-1.58-.79-2.37-1.58-3.16-1.58a86.69,86.69,0,0,1-14.19-1.58c-.79,0-1.58-.79-3.15-.79a39.22,39.22,0,0,0-14.2-.79,94,94,0,0,0,17.35,4A127.48,127.48,0,0,0,354,1275,6,6,0,0,0,357.13,1274.19ZM125.3,1323.07c3.15-1.57,6.31-3.94,10.25-6.31,6.31-3.15,12.62-6.31,19.71-7.09a96.54,96.54,0,0,1,15-1.58c2.37.79,4.73,0,7.1-.79,7.09-1.57,15-3.15,22.08-4.73,7.89-2.36,16.56-3.94,24.45-7.89,4.72-1.57,9.46-3.94,14.19-5.51s7.88-3.94,11.83-6.31c5.52-4.74,11.82-9.46,17.35-15,1.57-1.58,3.15-2.37,5.51-4a6,6,0,0,0,3.16-1.57c1.57,0,2.36-.79,3.94-.79a7.09,7.09,0,0,1,3.94-.79c8.68-3.15,17.35-2.37,25.23,0a54.59,54.59,0,0,0,15.78,2.36c3.94,0,7.09.79,11,1.58,1.58,0,3.16,0,3.95.79h3.94a91.47,91.47,0,0,1,24.45,5.52c7.88,2.37,16.55,5.52,25.23,7.88a69.75,69.75,0,0,1,13.4,6.32c5.53,3.94,11,7.09,16.56,11,.79.79,1.58.79,3.94,2.37a28.88,28.88,0,0,0-7.88-12.62c-4.73-4.73-10.25-8.67-15.77-13.4a39.93,39.93,0,0,1-6.31-5.52c-7.1-6.31-14.19-12.62-22.08-18.92a23.78,23.78,0,0,0-6.3-6.31c-4.74-3.95-10.26-5.52-16.57-6.31-3.15-3.94-7.88-5.52-12.61-7.1-3.15-.79-6.31-.79-9.46-1.58-7.89-1.57-15-1.57-22.87-2.36-6.31,0-12.62-.79-18.93,0a61.12,61.12,0,0,1-12.61,1.57c-.79.79-2.37.79-3.16.79a39.49,39.49,0,0,0-9.46,1.58c-12.62,1.58-25.23,4.73-36.27,10.25-3.15,1.58-5.52,2.36-8.68,3.94A117.44,117.44,0,0,0,190,1256.05a4.1,4.1,0,0,0-3.16,1.58c-5.52,5.51-11.83,8.67-17.34,12.61a43.86,43.86,0,0,0-6.31,4.73c-7.1,7.89-13.41,15.77-19.71,23.66-3.16,3.15-4.74,6.31-7.89,9.46a16.35,16.35,0,0,1-3.16,4.73q-3.54,4.73-7.09,9.46Zm-3.15,16.56c.78,1.58,1.57,2.36,2.36,3.95l7.1,2.36c9.46,1.58,18.92,1.58,29.17,1.58,5.52,0,11.83,0,17.35-2.37,4.73-.79,9.46-3.16,14.19-4.73,7.1-2.36,14.2-3.94,21.29-6.31,4.73-.79,9.47-3.15,13.41-5.52,3.94-1.57,7.88-4.73,11.83-6.31,10.25-3.94,17.34-11,25.23-18.92,2.36-2.37,5.52-5.52,8.67-7.1v-.78c.79-.8,2.37-1.58,3.16-2.37,7.88-5.52,15.76-11,24.44-16.56,4.74-2.36,9.46-6.31,15.77-6.31.79,0,.79-.79,1.58-1.58a.77.77,0,0,0-.79-.78,147.09,147.09,0,0,0-19.71-3.16c-2.37,0-4.73.79-7.89,1.58-1.57,0-3.94.79-5.52.79a10,10,0,0,0-4.73.79c-.79.78-2.36,1.57-3.15,2.36l-3.16,3.16a.77.77,0,0,0-.79.79,172.36,172.36,0,0,0-14.19,11c-8.67,7.88-18.92,11.82-30,14.19-4.72,3.15-9.46,5.52-14.19,6.31a127.67,127.67,0,0,1-16.55,3.94c-9.47,1.58-18.14,6.3-27.6,4.73-8.68,1.57-18.14,1.57-25.24,6.31-.78.79-.78.79-1.57.79-6.31,2.36-11,7.88-16.56,11.82C124.51,1334.9,123.72,1337.27,122.15,1339.63Zm-8.68-1.57.79-.79h-.79Zm-8.67,26c.78-1.58,1.57-2.37,1.57-3.15a39.57,39.57,0,0,0,1.58-9.47c-.79.79-.79,2.36-1.58,3.16C104.8,1357.77,104,1360.13,104.8,1364.08ZM62.22,939.85c1.57-1.58,2.36-1.58,2.36-2.37,2.37-3.94,5.52-7.88,7.1-12.62,4.73-8.67,8.67-17.34,13.4-26a6,6,0,0,1,1.58-3.94q4.73-10.64,9.46-21.29a54.34,54.34,0,0,0,3.16-7.88c1.57-3.15,2.36-6.31,3.94-8.68.79-3.94,2.36-7.09,3.15-11,1.58-3.94,2.37-7.88,3.95-11.82.78-2.37,2.36-5.52,3.15-7.89s2.37-4.73,3.16-7.1,2.36-4.73,2.36-7.09a57.08,57.08,0,0,1,3.16-11c.78-1.58.78-3.16,1.57-4.73A175.45,175.45,0,0,0,134,761.64c2.37-11.83,3.94-22.87,5.52-34.7.79-7.09,2.37-14.19,3.16-22.08,0-12.61,1.57-25.22,3.15-37.84a36.15,36.15,0,0,0-1.58-15.78c-.78,2.37-1.57,4-1.57,5.53-1.58,6.3-1.58,13.4-4,19.71a281,281,0,0,0-8.67,27.6,2.88,2.88,0,0,1-.79,2.36c-.79.79-1.57.79-1.57,1.58a155.82,155.82,0,0,1-4,15.77c-.79.79-1.57,1.58-1.57,2.37-1.59,3.15-2.37,6.3-4,8.67-1.57,3.15-3.16,7.09-4.73,10.25l-4.73,9.46c-1.58.8-1.58,2.37-2.37,4a6,6,0,0,1-1.57,3.15,4.1,4.1,0,0,0-1.58,3.15c-.79,1.58-.79,3.15-1.58,4-.79,1.57-1.57,3.15-2.36,4.73,0,.79,0,1.58-.79,1.58l-2.37,4.72a23.07,23.07,0,0,0-1.58,7.1,183.14,183.14,0,0,1-7.09,30c-.79,3.94-1.58,8.67-2.37,12.61-2.37,8.68-4.73,18.14-7.89,26.82-.78,3.94-1.57,7.09-2.36,11s-1.57,8.68-3.15,12.62-3.16,7.09-4,10.25-1.57,6.31-2.36,9.46V902a172.91,172.91,0,0,0-3.15,18.14c-.79,3.94-.79,8.67-1.58,11.83S60.64,936.69,62.22,939.85Zm84.36,91.47c-3.93,3.15-7.88,4.73-11,7.88a44.84,44.84,0,0,1-10.25,6.31c-.79.79-2.37.79-3.15,1.58-3.16,1.58-5.52,2.36-8.68,3.94-2.37,1.58-4.73,2.37-7.1,3.94-.79,0-.79,0-1.57.79a2.76,2.76,0,0,0-1.58.79c-1.58.79-2.37,1.57-3.94,2.37-.79,0-1.58.79-3.16,1.57s-3.15,2.37-5.51,2.37c-2.37,1.58-4.74,3.15-5.53,6.31a58.46,58.46,0,0,0-3.15,12.61,79.52,79.52,0,0,0,1.57,15c0,.78.79,1.57,1.58,3.15,1.58,3.16,3.94,7.1,6.31,11,1.58.79,3.15.79,4.73,1.58,1.58,0,2.37.78,3.16.78,1.57,0,2.36.79,3.94.79.79,0,2.36,0,3.15-.79h3.16c1.57-.78,3.15-.78,3.94-1.57a24.5,24.5,0,0,0,7.88-4h.8c9.46-5.52,16.55-14.19,22.86-23.65,2.37-5.52,5.52-11,7.88-16.56a14.73,14.73,0,0,0,1.58-6.31,123.44,123.44,0,0,0-.78-17.35C153.69,1038.41,150.53,1034.47,146.58,1031.32Zm-80.42,18.92c0-.79,0-.79.79-.79.78-.78,1.57-.78,2.36-1.57l14.19-11.83a2.76,2.76,0,0,1,1.58-.79c3.16-3.94,7.1-7.1,11-10.25a10.91,10.91,0,0,0,3.16-2.37c1.57-.78,2.36-2.37,3.94-3.15.79-.79,2.36-1.58,3.15-2.36,2.37-1.58,4.73-4,7.1-5.53s3.94-3.15,5.52-3.94a11.38,11.38,0,0,0,3.16-2.36,13.94,13.94,0,0,1,5.52-3.94,234.24,234.24,0,0,1,22.86-15.78c8.67-5.52,18.14-11,28.39-14.19,11.82-3.94,23.65-7.89,35.48-12.62,12.62-4.73,23.66-11.83,33.91-18.92,6.31-4.73,11-9.47,17.34-14.19,2.37-2.37,4.74-3.95,7.1-6.32l3.16-3.15c5.52-4.73,11-9.46,15.76-14.19,7.11-7.1,14.2-13.4,21.3-20.51,8.67-8.67,18.14-17.34,24.44-28.38a17,17,0,0,0,2.37-4,63,63,0,0,0,6.31-12.61c2.37-7.88,5.51-16.56,8.67-24.44,5.52-14.2,9.46-29.18,14.2-44.17,0-.78.78-2.36.78-3.93-.78-.79-1.57-.79-2.37-2.37-.78,3.15-1.57,4.73-1.57,6.3-.79,1.59-1.58,2.37-2.37,2.37-3.15,4.74-6.3,9.46-7.09,15-.79.79-1.58,2.37-2.37,3.16a86.06,86.06,0,0,1-6.31,11.83,4.12,4.12,0,0,1-1.57,3.15c-2.37,1.58-3.16,4-4.74,7.1,0,.79-.78,1.58-1.57,2.37,0,.78-.79,1.57-.79,2.36-3.16,3.15-4.73,7.88-6.31,11.83a15.28,15.28,0,0,1-3.94,7.1,60.23,60.23,0,0,0-11.83,20.5c-1.58,3.15-3.15,7.09-5.52,10.25a44.25,44.25,0,0,0-6.3,10.25,13.36,13.36,0,0,1-5.53,7.88c-3.94,3.16-7.09,7.1-11,10.25-3.15,3.16-5.52,6.31-8.67,8.68l-3.94,3.94a10.91,10.91,0,0,1-3.16,2.37c-.79.78-2.36.78-3.94.78a16.32,16.32,0,0,1-3.16,4.74c-.78,0-.78-.8-2.36-.8l6.31-6.3c.79-1.58,2.36-2.37,3.15-3.16a17.37,17.37,0,0,1,3.16-3.94c3.94-3.94,7.88-8.67,11.83-12.62,1.57-1.57,3.93-3.15,5.52-4.72,4.72-6.31,8.67-12.62,13.4-18.93A45,45,0,0,0,313,853.11,79.32,79.32,0,0,1,322.43,835a101.21,101.21,0,0,0,8.68-15.77c2.36-3.94,3.93-7.88,6.3-11,.79-1.57,1.58-2.37,2.37-3.94A158.63,158.63,0,0,0,354,779c1.58-3.16,2.37-7.1,4.73-10.25a2.91,2.91,0,0,0,.79-2.37,2.45,2.45,0,0,0-1.58-.79,177.76,177.76,0,0,0-18.13,7.89c0,.79-.79.79-1.58,1.58-4.73,2.36-8.68,5.51-14.19,7.88-7.1,3.15-15,7.1-21.29,12.62a24.21,24.21,0,0,1-5.52,3.94c-7.89,3.94-15,9.46-21.29,15-.79,1.58-2.37,2.37-3.16,3.94-4.73,4-9.46,9.46-13.4,14.2-4.73,5.52-8.68,11-15,14.19L242,849.16c-4.73,4.74-9.46,8.68-16.56,11.05a12.28,12.28,0,0,0-6.31,4.73c-3.15,4.73-7.09,9.46-10.25,15-3.94,5.52-9.46,9.46-15.77,12.61-3.94,1.59-7.09,3.16-10.25,4.74A102.5,102.5,0,0,0,171,905.15c-3.94,4.74-8.67,8.68-13.4,13.41-3.94,3.94-7.89,8.67-13.41,11.82-4.73,3.16-8.67,7.1-11,12.62,0,.79,0,.79-.79,1.58-3.94,3.94-7.09,8.67-10.24,12.61a17.5,17.5,0,0,1-3.16,3.95c-2.36,1.57-3.95,3.94-5.52,6.31-1.58,1.57-3.15,3.94-4.73,5.52-.79.78-.79,1.57-1.58,2.36a2.76,2.76,0,0,1-.79,1.58,11.17,11.17,0,0,0-1.57,4.73c-.79.78-1.58,1.58-1.58,2.37-.79,1.57-2.37,2.36-3.94,3.15h-.79c-.79-.79-1.58-.79-2.37-1.58h-.79c0,4.73-3.15,8.67-5.52,11.83l-4.73,9.46a92.75,92.75,0,0,0-6.3,12.62c0,1.58-1.59,3.15-2.37,4.73C73.26,1032.89,67,1040,67,1049.45h-.79Zm-22.08,31.54a2.9,2.9,0,0,1,2.37-.79,86.67,86.67,0,0,1,8.67-4.73,6,6,0,0,0,3.15-1.57c5.52-3.16,10.25-5.52,15-8.68,3.93-1.57,7.88-3.94,11.82-5.52,3.16-2.37,6.31-3.94,8.68-6.31.78-.78,1.57-.78,2.36-1.57,1.58-.79,2.37-.79,3.16-1.58,1.57-.79,2.36-.79,3.94-1.58a5.94,5.94,0,0,0,3.15-1.57,28,28,0,0,0,7.1-3.16,27.75,27.75,0,0,0,7.09-3.15,2.48,2.48,0,0,0,1.59-.79c6.3-3.16,13.4-7.1,18.92-12.62a149.52,149.52,0,0,1,21.29-15.77c13.4-7.88,26.81-15.77,40.21-24.44,7.1-3.94,15-8.68,21.3-14.2,8.67-6.3,16.55-13.4,24.44-20.5A16.24,16.24,0,0,0,253,950.1c3.94-2.37,7.89-4.73,10.25-8.68a10,10,0,0,0-.79-4.73c2.37,0,3.15-.78,5.52-.78,0-1.58.79-2.37,1.58-3.94-.79-.8-1.58-.8-3.16-.8-6.31,5.52-12.62,10.25-18.92,15.77a17.16,17.16,0,0,1-6.31,3.95,21.49,21.49,0,0,0-9.46,7.1c-5.52,2.36-10.25,3.94-15.77,6.3-8.67,3.16-18.92,5.52-27.6,9.46-1.58.79-3.15.79-4.73,1.58-.79.79-2.37.79-3.15,1.58-5.53,2.36-11.83,3.15-15.78,7.1,0,.78-.79.78-1.57.78-8.68,3.94-16.57,9.46-24.45,15-5.52,3.94-11,8.67-16.55,12.61-1.59.79-3.16,1.58-4,3.16l-4.73,2.36a13.52,13.52,0,0,0-3.15,4c-1.58.78-2.37,1.57-3.95,2.36-.79.79-2.36,1.58-3.15,2.37-1.58.79-2.37,1.57-3.94,2.36-.79.79-2.37,1.58-3.16,2.37a51.56,51.56,0,0,0-6.31,7.09,21.13,21.13,0,0,0-4.73,3.95c-4.73,3.15-9.46,6.31-12.61,11a45.12,45.12,0,0,1-8.68,8.67c-1.57,1.57-3.94,2.37-5.52,3.94-.79,1.58-2.36,3.16-3.15,4.74-2.36,2.36-4.73,5.51-8.67,6.31C44.87,1077.84,43.29,1079.42,44.08,1081.78Zm14.19,97a5.93,5.93,0,0,0,1.58-3.15c2.37-5.52,4.73-11,7.1-15.77,1.57-6.31,5.52-11,7.09-16.56,2.37-5.52,4.74-11.83,8.67-17.35.79-.79,1.58-2.37,2.37-3.15a21,21,0,0,0,2.37-9.47,17.4,17.4,0,0,0-2.37-3.94,16.24,16.24,0,0,1-3.15-4.73c-3.15-4.73-5.52-10.25-5.52-15.77a100.34,100.34,0,0,1-.79-15v-1.58a.77.77,0,0,1-.79.79,2.88,2.88,0,0,0-2.36.79c-4.74,2.36-9.47,5.52-14.2,7.09l-.79.79c-3.94,1.58-7.09,4-11,6.31-2.37,1.57-5.52,3.94-7.89,5.52H34.62c-3.16,7.1-2.37,14.19-4.74,21.29,4.74,7.1,3.95,15.77,5.53,24.44-.79.79-.79,2.37-1.58,4-1.58.79-2.37,2.36-3.95,3.15,3.16,13.41,4.74,26,7.89,39.43,3.94,12.62,7.1,25.23,11,37.85,2.36-3.16,2.36-3.16,2.36-5.52C51.17,1204.79,52.76,1191.39,58.27,1178.77Zm38.64,236.56a5.92,5.92,0,0,0-.79-3.15c-.79,1.57-.79,2.36,0,3.15Zm3.94,8.67a6,6,0,0,0-1.57-3.94h-.79v1.58c0,.79.79.79.79,1.57C100.07,1423.21,100.07,1423.21,100.85,1424Zm42.59,109.92c.27,1.21.54,2.42.78,3.64,1.39,6.94,2.17,13.9,2.87,20.85a23.89,23.89,0,0,0,.29-9C146.05,1544.07,145.83,1538.76,143.44,1533.92Zm-8.3-5.46c-.5-3-.92-6-1.17-9a39.63,39.63,0,0,0-.95-5.17c-2.41-2.58-5.35-5.46-5.35-9.82-4-3.15-5.52-7.09-7.11-11,0-1.58-.78-2.37-1.57-4a23.88,23.88,0,0,0-3.95-5.52c-6.3-3.94-10.24-9.46-14.19-15.76-1.57-1.59-2.36-3.16-3.94-4.74-.79-1.57-1.58-1.57-3.15-2.37,0,3.16,1.57,4.74,3.15,6.31,6.31,8.68,12.62,17.35,19.72,26a24.57,24.57,0,0,1,3.93,7.88c0,.79.79,1.58.79,2.36.8,2.38,1.58,4.74,4,6.32,0,.78.79,1.57.79,2.36.78,2.37,2.36,3.16,3.15,6.31,0,2.36,2.37,3.94,3.15,6.31A15.53,15.53,0,0,0,135.14,1528.46Zm170.73,12.25a27.59,27.59,0,0,1-1.58,7.88c-1.57,7.1-3.94,14.19-5.51,20.51v3.15c0,9.46-3.95,16.56-7.89,24.44-2.37,3.16-3.94,7.1-5.52,11-2.37,5.53-3.94,10.25-7.1,15a116.46,116.46,0,0,0-9.46,22.87c-3.94,12.61-7.88,24.44-11.83,37.06-1.57,3.95-1.57,8.68-3.94,12.62-3.15,5.52-4.73,11.83-7.89,17.35a27.9,27.9,0,0,0-2.36,11,32,32,0,0,1-3.16,15l-.78.79c0,1.57-.79,3.94-.79,6.31H234.9c-.79-4,1.58-7.1,1.58-10.26a38.16,38.16,0,0,0-2.37-5.51c-2.36,1.57-3.15,3.15-3.15,5.51a39.55,39.55,0,0,0-1.57,9.47c.78,7.09-.8,13.4-3.16,19.71-.79,3.15-1.58,6.31-3.15,8.67a2.76,2.76,0,0,1-.79,1.58,2.9,2.9,0,0,0-.79,2.37c-1.58,3.94-2.37,7.88-1.58,11.82h1.58c.79,0,.79-.78,1.58-1.57v-.79c2.36-6.31,7.09-12.62,7.88-19.72.79-1.57,1.58-3.94,2.37-5.51a61.49,61.49,0,0,0,5.52-12.62,86,86,0,0,1,6.3-11.83c.79-.78.79-1.58,1.58-2.36,7.89-7.89,11.83-18.93,18.14-27.6,6.3-9.47,11-20.5,15.77-30.76,2.36-4.73,4.73-10.25,7.1-15,4.73-7.1,6.3-14.19,7.88-22.07a177.21,177.21,0,0,1,6.31-18.93l2.36-4.73c2.37-7.1,5.52-14.19,7.89-21.3,2.36-5.51,3.15-11.82,4.73-17.34,2.37-8.68,2.37-18.14,2.37-26.81,0-7.1.78-14.19.78-22.08-.78-7.1-.78-14.19-1.57-22.07,0-4-1.58-8.68-2.37-13.41,0-.79-.79-1.58-1.58-3.94-.78,2.36-1.57,3.15-1.57,4.73-1.58,12.62-4.73,25.23-4.73,38.64C308.24,1534.4,306.66,1537.56,305.87,1540.71Zm-85.16,224.73c0-.79,0-1.58.79-1.58,0-1.57.79-3.15.79-3.94a.77.77,0,0,0-.79.79C219.92,1761.5,219.92,1763.07,220.71,1765.44Zm-3.15-125.38c.78,7.1,1.57,15,3.94,22.08,0,1.58.79,2.37.79,3.94,0,.79.79,1.58.79,2.37,3.15,10.25,4.72,21.29,5.51,32.33a31,31,0,0,0,3.16,14.19c.79-3.94-.79-7.09.79-11,1.57,1.58,2.36,2.37,2.36,3.16.79,2.36,0,4.73.79,7.1a6,6,0,0,0,.79,3.15,10.7,10.7,0,0,1,2.37-3.15v-5.52c.78-6.31,2.36-11.83,2.36-18.14-.79-6.31,0-12.62-.79-18.93-.79-2.36,0-4.73,0-6.3,0-5.53,0-11-1.57-15.78,0-1.57,0-2.36-.79-3.15-1.58-6.31-2.37-12.62-.79-18.92a2.45,2.45,0,0,1,1.58-.79,1.7,1.7,0,0,1,1.57,1.57c.79.8.79,2.37.79,3.94.79,3.95,1.58,7.89,2.37,12.62,2.36,6.31,1.57,13.4,2.36,19.72v7.09c0,2.37-.79,3.94-.79,7.1.79,3.94.79,7.89,1.58,13.41,1.58-1.58,2.37-2.37,2.37-3.16a194,194,0,0,1,5.52-20.5c1.57-6.31,3.94-11.83,6.31-18.14a38.7,38.7,0,0,1,3.15-10.25c.79-3.15,2.36-6.31,3.16-9.46a148,148,0,0,0,8.67-15c.79-.79.79-1.58,1.57-2.36,1.58-7.89,5.52-15,9.47-22.88a50.88,50.88,0,0,0,4.72-16.55c.8-8.68,3.16-16.56,5.53-25.24a54.35,54.35,0,0,0,2.36-6.31c.79-2.36.79-5.52,2.37-8.67-.79-7.1.79-14.19,1.57-21.29,0-1.58.79-3.15.79-4.73.8-10.25,1.58-19.71,1.58-30,0-3.15-.78-6.3-1.58-10.25,0-.79,0-.79-.79-1.57-1.57-8.68-3.15-16.57-4.72-24.45-.8-4.73-3.16-9.46-4.74-14.19-4.73-1.58-8.67,0-11.83,3.15-1.57,1.58-3.94,4-4.73,6.31-3.94,7.89-9.46,14.2-14.19,21.29-5.52,8.67-11,16.56-16.56,24.45a158.07,158.07,0,0,0-7.88,16.55,154.1,154.1,0,0,0-6.31,20.51c-2.37,9.46-3.95,18.14-6.31,26.81a157.18,157.18,0,0,0-3.15,18.92A60.88,60.88,0,0,0,221.5,1577c-.79,2.37-.79,4.73-1.58,6.31-.79,5.52,0,11-.79,16.56,0,12.61-.79,25.23-1.57,37.06Zm-48.89,87.53a8.67,8.67,0,0,0,6.3,0c.79,0,.79-.79,1.58-.79,5.52-3.16,10.25-6.31,14.19-11s7.89-9.46,11-15a57.49,57.49,0,0,0,9.47-35.48c0-4-.79-7.89-.79-11a38.84,38.84,0,0,0-2.37-5.52c-3.15-7.88-7.09-15-14.19-19.7-4.73-3.16-8.67-6.32-15-6.32-1.58,0-3.16,0-3.95.79a6.85,6.85,0,0,0-4.73,2.37c-6.31,4.73-11,11-15.77,17.35-3.15,4.73-5.52,9.46-9.46,14.19-2.36,3.15-3.94,8.67-5.52,12.61,0,8.68-2.37,16.57-.79,25.24,0,.79,0,2.36.79,3.15.79,11,7.09,18.14,15,23.66C159.2,1725.22,163.93,1726,168.67,1727.59Zm44.94,75.7a53.64,53.64,0,0,0,1.58-11.83c.79-3.15,0-7.1,0-10.25a51.3,51.3,0,0,1,1.58-18.92c1.57-4,2.36-7.89,4.73-11.83v-.79c.79-.79.79-2.37,1.58-3.15.79-1.58.79-3.16,1.57-4.74.79-5.51,1.58-11.82,3.15-18.92a57,57,0,0,1-2.36-6.31c-.79-3.16-1.57-5.52-2.36-8.67a26.81,26.81,0,0,1-.79-7.89c0-4.73.79-9.46-.79-14.19V1685c-.79-1.58,0-3.16-.79-3.94a62.19,62.19,0,0,0-3.06-11.1c.17,11-3.66,21.28-9.56,31.59a90.53,90.53,0,0,1-15,20.51c-4.73,3.94-9.46,7.1-14.19,11H175a29.42,29.42,0,0,0-7.88-.79,58.54,58.54,0,0,0-6.31,30.75c0,1.24,0,2.48-.11,3.83a32.66,32.66,0,0,1,2.48,4.06c2.36,5.52,6.31,8.67,10.25,11.82,2.36,1.58,5.52,4,5.52,7.89a6,6,0,0,0-1.58,3.94c2.37,4,3.94,7.89,6.31,11A23.82,23.82,0,0,0,190,1812c4.73,4,8.67,7.89,13.4,12.62,0,.79,0,.79.79.79,1.58,2.36,3.16,4.73,5.52,5.52a.77.77,0,0,0,.79-.79v-2.37C209.67,1819.06,210.46,1811.17,213.61,1803.29Zm2.37,16.56c0-1.58.79-2.37.79-3.16a27.78,27.78,0,0,0,2.36-15.77,17.41,17.41,0,0,0-2.36,3.94C215.19,1809.6,213.61,1813.54,216,1819.85Zm-7.89,130.89c-1.57-.79-3.15-1.57-4.73-.79-.62.63-1.24.77-1.48,1.18a.72.72,0,0,1-.1-.39,2.87,2.87,0,0,1-2.36.79,2.76,2.76,0,0,0-1.57-.79v1.58c.78.79,1.57,0,1.57-.79h2.36a.82.82,0,0,1,.1-.4c.24.39.86.4,1.48.4C204.94,1952.32,206.52,1951.53,208.09,1950.74Zm15,.79c-.79-.79-.79-.79-1.58-.79C222.29,1951.53,222.29,1951.53,223.08,1951.53Zm9.46-5.52c.79-1.57-.79-2.36-1.58-2.36-2.37-2.37-4.73-3.16-7.88-4h-3.16c-.79,0-2.36-.78-3.15-.78-4.73,0-8.68-.8-13.41-1.58a143.13,143.13,0,0,0-26,0c-15,.78-30,3.15-44.16,3.94h-1.57c-.79,2.37-1.58,3.94-2.37,6.31,12.62-.79,25.23-2.37,38.64-3.94-.79,2.36-3.95,2.36-5.52,3.94a3.14,3.14,0,0,0,3.15,1.58c8.68-.79,18.14-2.37,26.81-3.16,3.16-.79,7.1-.79,11-.79a38.72,38.72,0,0,1,13.41,0h6.31a2.88,2.88,0,0,0,2.36.79Zm12.61,7.88c-1.57-.78-2.36-1.57-4.73-1.57a2.76,2.76,0,0,0-1.57-.79h-7.1a12.67,12.67,0,0,0,7.1,2.36ZM339,2017.77l-.79-.79v.79Zm-156.13,74.91c3.16-5.52,6.31-10.25,9.46-15.77,3.16-4.73,6.31-9.46,10.25-16.56a.77.77,0,0,1,.79-.79c.79-2.37,0-5.52,0-8.67,0-1.58-.79-3.16,0-4.73-3.94-6.31-5.51-14.2-11.82-20.51-1.58,0-3.95,0-5.52-.78-2.37,0-4.74-.79-7.1-.79-3.16-1.58-6.31-.79-9.46.79-7.1,1.57-13.41,3.94-20.51,6.3-.78,1.58-.78,2.37-1.57,3.16-.8,2.36-2.37,4.73-4.73,5.52-4.74,3.94-9.47,7.88-14.2,12.61a31.75,31.75,0,0,0-7.89,14.2,118.4,118.4,0,0,0-4.72,22.86,10.15,10.15,0,0,0,3.15,7.89c3.94,5.52,7.88,10.25,11.83,15.77a24,24,0,0,0,16.56-.79c7.09-1.58,13.4-4.73,18.92-7.89,1.58-.78,2.37-1.57,3.94-1.57C175.76,2101.35,179.71,2097.41,182.86,2092.68Zm64.66-24.44c0-2.37,0-4.73-3.15-6.31-1.58.78-3.16.78-4.74,1.58h-.78c-.79-.8-.79-.8-1.58-.8-1.58.8-3.16,2.37-4.73,3.16a10.91,10.91,0,0,1-2.37-3.16c3.16-1.57,5.52-2.36,8.68-3.94.78,0,1.57-.79,2.36-.79-.79-.79-.79-1.57-1.58-1.57h-.78c-5.52-1.58-10.26-2.37-15.77-1.58h-4a2.91,2.91,0,0,0-2.36.78c-2.37,0-4,.8-7.1,3.16a21.63,21.63,0,0,1-6.31,11.83c-4.73,5.52-8.67,11-11,17.35-2.36,5.52-6.3,9.46-9.46,14.19a20,20,0,0,1-10.25,7.1c0,8.67,3.94,16.56,11,20.5a57.15,57.15,0,0,0,19.71-3.16,51.89,51.89,0,0,0,13.41-9.46h.79a1.68,1.68,0,0,1,1.57-1.57c.79-.79,1.58-.79,2.37-1.58,0-.79.79-.79,1.58-1.58,5.51-3.94,9.46-10.25,14.19-15.77.79,0,.79-.79,1.58-1.58C244.37,2087.16,246.73,2077.7,247.52,2068.24Zm78.85-22.87c-1.57-2.37-2.36-3.16-5.52-3.95-5.52-.78-11-3.15-16.56-3.94h-.79c-3.15-.79-6.3-2.37-8.67-3.15a80.41,80.41,0,0,0-22.87-5.52c-8.67-.79-17.34-3.94-26-2.37h-.79c-2.36-1.57-3.94-1.57-6.3-1.57s-5.52.78-7.89.78a26.71,26.71,0,0,0-7.88.79,2.76,2.76,0,0,0-1.58.79,11.14,11.14,0,0,0-4.73,1.58,51,51,0,0,0-12.62,7.09,94.36,94.36,0,0,1,3.94,14.2c3.16,0,6.31-.79,8.68-.79a10,10,0,0,0,4.73-.79h3.94c4.73,0,9.46,1.58,13.41,1.58.78,0,1.57.79,2.36.79,3.16,1.57,5.52,2.36,7.89,3.94,7.88-1.58,15.77-3.94,23.65-.79,10.25-3.15,20.51-4.73,31.54-6.31C311.39,2046.94,319.28,2046.16,326.37,2045.37Zm235.77,190.82a.77.77,0,0,0-.79-.79,161,161,0,0,1-14.19-10.25c-3.16-2.36-5.52-5.52-9.46-7.88s-7.1-5.53-10.25-7.89c-7.1-3.16-12.62-7.1-18.93-11.83-3.15-3.16-7.09-5.52-9.46-10.25a2.45,2.45,0,0,1-1.58-.79,5.94,5.94,0,0,1-3.15-.79c-1.58-.78-3.16-2.36-4.73-3.15-9.47-3.15-18.14-9.46-26.81-14.2-3.16-2.36-7.1-3.14-10.25-3.94-3.15,0-15.78-3.94-22.87-6.3a16.33,16.33,0,0,0-4.73-1.58.77.77,0,0,0-.79-.79c-3.94-1.58-7.1-3.16-10.25-3.16-9.46-1.57-18.13-2.36-26.81-4.72-3.94.78-7.89-1.58-12.61-.79-2.37.79-6.31-.79-9.47-.79-5.52-.79-11-1.58-17.35-2.37l-1.57-.78c-8.68,1.57-16.57,1.57-24.45,3.15-7.1,1.58-15.77-.79-23.66,2.36.8.79,1.58,1.58,2.37,1.58,7.1.79,13.41,3.15,19.71,5.52,7.1,2.37,15,4.73,21.29,9.47a12.72,12.72,0,0,0,5.52,3.14l14.19,7.11c6.31,4.72,14.2,6.3,21.3,7.88,8.67,2.36,17.35,3.94,24.44,8.67,5.53,3.16,11.83,5.52,17.35,8.68a38.42,38.42,0,0,1,5.52,2.36,87.16,87.16,0,0,1,11.83,6.31,66.5,66.5,0,0,0,21.29,10.25c8.67,2.37,18.13,5.52,26,10.25a2.45,2.45,0,0,0,.79,1.58c-1.58,0-2.37.78-3.94,1.58-2.37-.8-5.53-1.58-7.89-3.16a55.2,55.2,0,0,0-15-4.73c-7.89-1.58-15-6.3-22.87-10.25-3.16-1.57-6.31-3.16-10.25-5.52l-9.46-4.73c-7.1-3.94-14.19-7.1-21.29-11-5.52-3.16-11-3.94-18.14-5.52a6.1,6.1,0,0,1,.79,2.36,185.85,185.85,0,0,0,19.71,15,136.93,136.93,0,0,1,14.2,8.67c4.73,3.94,9.46,6.31,14.19,9.46a23.6,23.6,0,0,1,6.31,3.16,260.13,260.13,0,0,0,54.41,18.14c8.67,2.36,17.35,1.57,26,.78,7.09-.78,14.19-2.36,22.87-3.94-6.31-1.58-12.62-3.15-18.14-5.52v-.79c.79-.79,1.58-.79,2.36-1.58C536.12,2237,555.05,2238.56,562.14,2236.19Zm7.1-7.89c-3.94-7.88-6.31-16.56-12.61-22.86a17.16,17.16,0,0,1-4-6.31c-.79-.79-1.57-2.36-2.37-2.36-3.94-3.95-5.51-9.47-9.46-14.2-2.36-3.15-4.73-6.31-7.88-8.67a16.94,16.94,0,0,1-3.94-3.16,98.65,98.65,0,0,0-17.35-14.19l-7.1-4.73a58.69,58.69,0,0,0-9.46-5.52c-7.1-4-14.2-7.89-22.08-10.25-6.31-.79-11.83-2.37-18.14-3.16-.79-.78-2.36-.78-3.15-.78a212.59,212.59,0,0,0-22.08-3.16v-.79c-2.49-.33-4.95-.7-7.41-1.09a6.48,6.48,0,0,1-2.05,1.09c-.6-.59-1.19-1.15-1.78-1.69-7.85-1.24-15.68-2.5-24.24-3a154.87,154.87,0,0,1-18.93-1.57c-9.46-.8-18.13-1.58-27.6,0a97.63,97.63,0,0,1-15,1.57c-8.67.79-16.56,2.37-24.44,6.31-8.68,4.73-17.35,8.67-26,12.61-.78,0-.78.8-2.36,2.37,2.36,0,3.94.79,5.52,0,3.94-.79,7.89-1.57,11.83-2.37a29.4,29.4,0,0,1,14.19-1.57,25.94,25.94,0,0,0,11,0c4.73,0,10.25-1.58,15-1.58a64,64,0,0,1,24.45,0c3.94.79,8.67,1.58,12.62,2.37,5.51.78,11.82.78,18.13,1.58,4.73.78,9.46,2.36,14.19,2.36,5.53.79,11.83,2.37,18.14,3.94l4.73,2.37c7.89,2.36,15.77,4.73,23.66,6.31a38.27,38.27,0,0,1,16.56,6.3c5.52,3.16,11,7.1,17.34,9.47A108.54,108.54,0,0,1,507,2187.3,221.81,221.81,0,0,0,534.54,2207c7.1,3.94,12.62,8.67,18.93,13.4,3.94,3.15,8.67,6.31,13.4,9.46h2.37Zm40.24,34.89q3.76,2.43,7.83,4.58c-2.5-3.67-5-7.3-7.07-11.08,0-.79-1.57-1.57-3.15-3.15A35.78,35.78,0,0,0,609.48,2263.19Zm18.11,27.41a23.32,23.32,0,0,0-1.57-7.89,67,67,0,0,0-5.58-10.26,33.14,33.14,0,0,1-6.22-1.69c3.59,5,7.69,10.43,11.8,15.9C626.81,2288.24,627.59,2289,627.59,2290.6ZM768,2288.24c-.79-8.68-2.37-18.14-2.37-27.6-.79-11-2.36-22.08-3.94-33.12-.79-4.73-1.58-9.47-2.36-14.19-1.58-6.31-1.58-13.41-3.16-19.72-1.58-10.25-3.15-19.71-4.73-30-1.58-7.89-2.37-15.77-3.15-23.66-1.58-9.46-3.16-18.13-4.74-26.81-2.36-12.62-4.73-24.45-7.09-37.06a212.49,212.49,0,0,0-9.47-33.91v-.79c-4.72-10.25-7.88-21.29-11.83-32.33-2.36-6.3-4.72-13.4-7.88-19.71s-5.51-12.61-8.67-18.92a14.84,14.84,0,0,1-1.58-6.31c-.78-1.58-2.36-3.15-2.36-5.52-3.16-8.68-5.53-17.35-7.89-26,0-.79-.79-1.58-1.58-3.16-.78,1.58-1.57,2.37-1.57,3.16.79,4.73.79,9.46,1.57,14.19a117.91,117.91,0,0,0,1.58,17.35c.79,10.25,0,20.5-.79,30.75-1.57,15.77-1.57,32.33-2.36,48.1,0,1.58,0,3.16.79,3.94,1.57,9.47,3.15,19.72,4.72,29.18,1.58,6.31.8,11.83,2.37,18.14.79,2.36.79,5.52,1.58,7.88.79,13.41.79,26,1.58,38.64s2.36,24.45,6.3,37.06a2.85,2.85,0,0,0,.8,2.36c2.36,12.62,5.51,26,8.67,38.65,3.15,14.19,8.67,27.59,15,40.21,0,.78.79,1.58,1.57,3.16v.78c2.37,3.94,3.95,7.1,6.31,11a100.85,100.85,0,0,0,8.68,15.77c2.36,2.37,3.94,5.52,5.52,8.68,3.15,6.3,5.52,13.4,11,18.13.79.79.79,2.37,1.57,4,1.58,3.15,2.37,6.3,5.52,8.67.79-1.58,1.58-2.37,2.37-3.95-1.58-5.52-2.37-10.25-4.73-14.19a52.84,52.84,0,0,1-5.52-24.44,145.73,145.73,0,0,0-2.36-26,6,6,0,0,1,.78-3.16c2.37,5.52,3.16,10.25,3.94,15.77a39.94,39.94,0,0,1,1.58,10.25l2.37,7.1a62.87,62.87,0,0,0,5.52,18.92A63.35,63.35,0,0,0,768,2288.24ZM805,2229.1c-.79-11.83,0-24.45-1.57-36.28a60.31,60.31,0,0,0-2.37-16.56c-1.58-9.46-3.94-18.92-6.31-28.38-2.37-7.89-3.94-16.56-7.89-24.45-1.57-5.52-3.94-11-4.73-16.56-.78-7.89-3.94-15.77-7.09-23.65-.79-2.37-.79-3.95-1.58-6.31-2.37-4.73-3.94-9.46-7.1-13.4-3.15-5.53-4.73-11.05-7.88-15.78-4-8.67-7.89-17.34-13.41-25.23a35.12,35.12,0,0,1-6.31-8.67q-5.91-10.65-11.83-21.29-4.73-8.28-9.46-16.57c-3.15-6.3-6.31-12.61-11-18.92-3.15-5.52-7.88-11-10.24-16.56,0-.79,0-.79-.8-.79a6.8,6.8,0,0,0,0,5.52c.8,2.37,1.58,4,2.37,6.31,3.15,10.25,6.31,19.71,11.83,29.18a273.31,273.31,0,0,1,11,26.81,155.75,155.75,0,0,0,6.3,17.35l4.74,14.19q2.36,7.1,4.73,14.19c3.15,6.31,3.94,14.2,5.52,21.29.78,5.52,2.36,11.05,3.15,17.35a151.21,151.21,0,0,0,4.73,26c.79,1.58.79,3.15,1.58,4.73q2.37,18.93,4.73,37.85c1.58,7.88,2.37,15,3.94,22.08,1.58,7.88,2.37,15,4,22.87.78,5.52,1.57,11.83,2.36,17.35a185.81,185.81,0,0,1,3.16,20.5c1.57,11,1.57,23.65,3.15,35.48a2.9,2.9,0,0,0,.79,2.37c.79,8.67,1.58,18.13,2.37,27.6s2.36,18.13,3.15,27.6a.77.77,0,0,1,.79.78c3.94-4.73,5.52-10.25,8.67-15.77,3.16-6.31,5.52-14.19,7.88-21.29,2.37-5.52,3.16-10.25,4.74-15.77a32.8,32.8,0,0,0,2.37-12.62c0-7.88,0-16.55.78-25.23C804.22,2240.92,805,2235.4,805,2229.1ZM910.68,2345a36.4,36.4,0,0,1-4.74,22.08c0,.79-.79,1.57-.79,2.36-1.58,7.89-6.3,14.2-12.61,19.71a52.65,52.65,0,0,0-15,7.1c-2.36,1.58-5.52,2.37-7.88,3.16a21.81,21.81,0,0,1-7.1-.79,13.31,13.31,0,0,1-3.94-1.58c-2.36,3.94-.79,7.1,0,11a11.19,11.19,0,0,1,1.58,4.73,39.53,39.53,0,0,0,3.94,10.25c2.36,2.37,3.94,5.52,5.52,8.68a4.07,4.07,0,0,1,1.58,3.15h-7.1c-2.37-3.94-3.94-7.89-6.31-11-3.15-7.1-5.52-13.4-7.89-20.5-1.57-3.94-.78-7.88-.78-11.83-13.41-14.19-19.71-31.54-21.29-51.25-.79-7.1,0-14.2,0-21.29,0-6.31,3.94-11,7.88-15.77l7.1-2.37c.79-1.58,1.57-2.36,2.37-3.94,5.52-8.67,15-12.62,24.44-10.25.79,0,.79.78,1.58.78a112.9,112.9,0,0,1,14.19,6.31,43.24,43.24,0,0,1,14.19,12.62,18.79,18.79,0,0,1,4.74,7.09,157.1,157.1,0,0,1,6.31,20.51C911.46,2337.12,910.68,2341.06,910.68,2345Zm-7.89-15c-.79-2.37-1.58-4.74-2.37-7.89-1.57-6.31-3.94-11.83-8.67-16.56-6.31-6.31-14.2-10.25-22.08-14.19a8.57,8.57,0,0,0-3.94-.79c-6.31-.79-11,.79-14.2,6.31a17.41,17.41,0,0,0-3.15,3.94c-4.73,6.31-7.89,12.61-7.89,20.5,0,3.16-1.57,7.1-2.36,10.25,0,.79-.79.79-1.58,2.37-.79-2.37-1.57-3.94-2.37-6.31a81.77,81.77,0,0,0,1.58,24.45,153.51,153.51,0,0,0,11.83,28.38c1.58,3.16,3.16,5.52,5.52,7.1,3.95,3.15,7.89,4.73,11,7.09h5.52c2.36-.78,4.73-.78,7.1-2.36,3.94-1.58,7.88-3.94,12.61-6.31,2.37-1.58,4.73-3.15,6.31-5.52,3.94-9.46,8.68-18.13,9.46-28.38C905.94,2345,905.94,2337.12,902.79,2330ZM548,2434.9c0-.79.79-1.58.79-3.15-1.58.78-3.15,2.36-4.74,3.15Zm-49.68-369a13.79,13.79,0,0,1-3.15-3.94c0,2.36.79,3.94,1.57,6.31,3.95,5.51,7.1,11,11.83,15.77-.78-.79,0-2.37-.78-3.16C504.58,2075.33,501.43,2070.6,498.27,2065.87Zm17.35,31.54a36.25,36.25,0,0,0-7.1-13.4A37.12,37.12,0,0,0,515.62,2097.41ZM853.9,2319.77c-.79,0-1.58.8-2.37.8-3.94,14.19-3.94,24.44-.78,30.75a6,6,0,0,0,3.15-1.58c0-10.25,0-19.71,2.37-30h-.79A1.1,1.1,0,0,0,853.9,2319.77Zm29.18,52.84c1.57,0,2.36-.79,3.15-.79,3.15-4.73,6.31-8.68,7.88-14.2-.78-.79-2.36-.79-3.15-.79C886.23,2360.78,883.86,2366.3,883.08,2372.61Zm-651.33-768a23,23,0,0,0,1.58,7.09,11.4,11.4,0,0,1,1.57,4.73c.79,1.58.79,3.95,1.58,7.1a9.38,9.38,0,0,0,3.15-7.88c-1.57-12.62-3.15-26-4.73-38.64v-.79c-1.57-1.58-3.15-3.15-6.31-2.36,0,3.94.8,8.67.8,12.61C230.17,1592.75,231,1598.27,231.75,1604.58Zm-70.18,475.48L140.28,2099c0,.8.79,1.58.79,2.37h1.58a30,30,0,0,0,10.24-7.09c1.58-1.58,3.16-2.37,4.74-4l4.73-7.09c.79-.79,0-1.58,0-2.37A.77.77,0,0,0,161.57,2080.06Zm22.86-13.4c3.16-4.73,7.11-11,7.11-18.93h-3.16c-3.15,6.31-5.52,12.62-8.67,18.93a12.36,12.36,0,0,0,.79,3.15C181.28,2069,182.86,2068.24,184.43,2066.66Zm136.42-212.9a17.51,17.51,0,0,1-2.36-4,2.45,2.45,0,0,1-1.58.79c-.79,7.1-3.15,14.19-6.31,21.29C316.91,1868,319.28,1864,320.85,1853.76Zm-89.1,232.61a20.63,20.63,0,0,0-4.73,3.94c-1.58,2.37-3.15,6.31-5.52,8.67a71,71,0,0,1-7.1,7.89c.79.79.79,1.58,1.58,2.37h1.58c.78-.79,1.57-2.37,2.36-3.16,4-2.36,7.1-6.3,9.47-10.25a14.09,14.09,0,0,1,3.94-5.52c.78-.79.78-2.36.78-3.94C233.33,2086.37,231.75,2085.59,231.75,2086.37Zm-48.89-947c3.94.79,7.88,2.37,11.83,1.59,6.31-.8,12.62-1.59,18.13-3.16.79,0,1.58-.79,2.37-1.58-2.37-.79-3.94-1.57-6.31-2.37-9.46,2.37-19.71,0-30-.78C178.92,1137,180.5,1138.56,182.86,1139.34Zm16.56-39.42h5.52a4.07,4.07,0,0,0,3.15-1.58c-3.94-3.15-3.94-3.15-9.46-4.73-6.31-3.15-11-1.58-16.56,3.94,2.36.79,4,1.58,4.73,1.58C191.54,1097.55,195.48,1098.34,199.42,1099.92ZM144.22,1066c-3.15,2.37-5.52,4.74-8.67,6.31a37.5,37.5,0,0,0-7.88,7.88v1.58c.78.79,1.57.79,2.36,1.58,10.25-4.73,15-9.46,15.77-15.77C145.8,1066.8,145,1066.8,144.22,1066Zm-38.64,33.12c-2.36.79-4.73,2.36-5.51,4.73a2.77,2.77,0,0,0,.78,1.58c1.58.79,3.16.79,4,0a50.83,50.83,0,0,0,11-6.31c2.36-1.58,5.51-3.16,7.09-7.88-2.37.78-3.94.78-4.73,1.57A95.83,95.83,0,0,0,105.58,1099.13Zm67,625.31a34.39,34.39,0,0,0,12.62-17.35q2.36-4.74,4.73-9.47a42.75,42.75,0,0,0,4.73-19.71,26.81,26.81,0,0,1,.79-7.89c1.58-6.3.78-12.61,0-18.92l-2.37-2.37c-1.57,0-2.37.79-3.94.79a15.42,15.42,0,0,1,.79,5.53,27,27,0,0,1,.78,7.88c-.78,4.73-.78,9.46-1.57,14.19a47.56,47.56,0,0,1-6.31,22.87,28,28,0,0,0-3.15,7.1c-2.37,6.3-5.52,11.82-10.25,15.77-.79,0,0,.78,0,.78C170.24,1723.64,171.83,1724.44,172.61,1724.44Z"/></g></g></svg>