<svg xmlns="http://www.w3.org/2000/svg" viewBox="0 0 376.36 2294.91"><g id="Layer_2" data-name="Layer 2"><g id="_1" data-name=" 1"><path fill="black" stroke="black" d="M111.77,175.4a3.09,3.09,0,0,0,2,.63,6.18,6.18,0,0,0,1.75-.3,3.24,3.24,0,0,0,5.85,0,6.18,6.18,0,0,0,1.75.3,3.09,3.09,0,0,0,2-.63,2.78,2.78,0,0,0,1.06-2.22,3.33,3.33,0,0,0-.14-.93,30.89,30.89,0,0,0,8.49-13.85,16,16,0,0,0-.25,2.73c0,5.57,2.65,9.77,6.16,9.77s6.16-4.2,6.16-9.77a17.11,17.11,0,0,0-.24-2.73,30.91,30.91,0,0,0,8.48,13.85,3.33,3.33,0,0,0-.14.93,2.81,2.81,0,0,0,1.06,2.22,3.09,3.09,0,0,0,2,.63,6.18,6.18,0,0,0,1.75-.3,3.24,3.24,0,0,0,5.85,0,6.18,6.18,0,0,0,1.75.3,3.09,3.09,0,0,0,2-.63,2.78,2.78,0,0,0,1.06-2.22,6.1,6.1,0,0,0-1.76-3.66,6.15,6.15,0,0,0,1.76-3.67,2.78,2.78,0,0,0-1.06-2.22,4,4,0,0,0-3.71-.33,3.24,3.24,0,0,0-5.85,0,4,4,0,0,0-3.71.33,2.8,2.8,0,0,0-1,1.73A29.24,29.24,0,0,1,150,154.9a10.31,10.31,0,0,0,5.53-5,2.75,2.75,0,0,0,.18-2.16c-.51-1.53-2.18-2.38-4-3.25a.94.94,0,0,1,.1-.1c1.51-1.5,2.5-2.49,2.12-4-.56-2.26-7.87-5.39-8.7-5.47a2.35,2.35,0,0,0-2.58,2,2.17,2.17,0,0,0,1.93,2.46,29.42,29.42,0,0,1,3.87,2,10.26,10.26,0,0,0-2,2.43,6.15,6.15,0,0,0-12.26,0,10.43,10.43,0,0,0-2-2.43,31.27,31.27,0,0,1,3.82-2,2.26,2.26,0,0,0-.61-4.48c-.82.08-8.14,3.21-8.7,5.47-.38,1.53.62,2.52,2.12,4l.1.1c-1.8.87-3.47,1.72-4,3.25a2.8,2.8,0,0,0,.18,2.16,10.31,10.31,0,0,0,5.53,5,29.24,29.24,0,0,1-4.63,10.46,2.76,2.76,0,0,0-1-1.73,4,4,0,0,0-3.71-.33,3.24,3.24,0,0,0-5.85,0,4,4,0,0,0-3.71.33,2.81,2.81,0,0,0-1.06,2.22,6.21,6.21,0,0,0,1.76,3.67,6.16,6.16,0,0,0-1.76,3.66A2.81,2.81,0,0,0,111.77,175.4Zm34.54-29.57c.4,1.22,1.74,1.89,3.28,2.63.3.15.74.36,1.14.57a4,4,0,0,1-3.18,1.69l-1.1-.07a6.06,6.06,0,0,0-1.09-2.76A6.06,6.06,0,0,0,146.31,145.83Zm-.89,9.13c.06.32.14.67.22,1.06-.11-.3-.21-.6-.34-.87A2,2,0,0,0,145.42,155Zm-5.06-12.29a1.63,1.63,0,0,1,.62,3.13,2.32,2.32,0,0,0-.62.39,2.32,2.32,0,0,0-.62-.39,1.63,1.63,0,0,1,.62-3.13Zm-.62,7.31a2.29,2.29,0,0,0,.62-.38,2.07,2.07,0,0,0,.62.38,1.62,1.62,0,0,1,.24,2.88,2.26,2.26,0,0,0-.86,1,2.26,2.26,0,0,0-.86-1,1.62,1.62,0,0,1,.24-2.88Zm.31,6.24a2.6,2.6,0,0,0,.31-.5,2.6,2.6,0,0,0,.31.5,8.13,8.13,0,0,1,1.32,4.91c0,3.24-1.22,5.09-1.58,5.25-.46-.16-1.68-2-1.68-5.25A8.13,8.13,0,0,1,140.05,156.22Zm-5-.21c.09-.38.16-.73.22-1a2,2,0,0,0,.12.19C135.29,155.42,135.19,155.72,135.08,156ZM130,149c.4-.21.84-.42,1.15-.57,1.53-.74,2.87-1.41,3.28-2.63a6,6,0,0,0,.94,2.06,6.17,6.17,0,0,0-1.09,2.76l-1.1.07A4,4,0,0,1,130,149Z"/><path fill="black" stroke="black" d="M207.41,175.4a3.09,3.09,0,0,0,2,.63,6.18,6.18,0,0,0,1.74-.3,3.25,3.25,0,0,0,5.86,0,6.18,6.18,0,0,0,1.74.3,3.14,3.14,0,0,0,2-.63,2.81,2.81,0,0,0,1.06-2.22,3.33,3.33,0,0,0-.14-.93,30.86,30.86,0,0,0,8.48-13.85,16,16,0,0,0-.24,2.73c0,5.57,2.65,9.77,6.16,9.77s6.15-4.2,6.15-9.77a16,16,0,0,0-.24-2.73,30.86,30.86,0,0,0,8.48,13.85,3.33,3.33,0,0,0-.14.93,2.79,2.79,0,0,0,1.07,2.22,3.09,3.09,0,0,0,2,.63,6.18,6.18,0,0,0,1.74-.3,3.25,3.25,0,0,0,5.86,0,6.18,6.18,0,0,0,1.74.3,3.14,3.14,0,0,0,2-.63,2.81,2.81,0,0,0,1.06-2.22,6.16,6.16,0,0,0-1.76-3.66,6.21,6.21,0,0,0,1.76-3.67,2.81,2.81,0,0,0-1.06-2.22,4,4,0,0,0-3.72-.33,3.23,3.23,0,0,0-5.84,0,4,4,0,0,0-3.71.33,2.76,2.76,0,0,0-1,1.73,29.24,29.24,0,0,1-4.63-10.46,10.24,10.24,0,0,0,5.52-5,2.71,2.71,0,0,0,.18-2.16c-.5-1.53-2.17-2.38-4-3.25l.1-.1c1.51-1.5,2.51-2.49,2.13-4-.57-2.26-7.88-5.39-8.7-5.47a2.35,2.35,0,0,0-2.58,2,2.17,2.17,0,0,0,1.92,2.46,28.8,28.8,0,0,1,3.87,2,10.43,10.43,0,0,0-2,2.43,6.15,6.15,0,0,0-12.26,0,10.77,10.77,0,0,0-2-2.43,32.79,32.79,0,0,1,3.82-2,2.26,2.26,0,0,0-.61-4.48c-.82.08-8.13,3.21-8.7,5.47-.38,1.53.62,2.52,2.13,4l.1.1c-1.81.87-3.48,1.72-4,3.25a2.71,2.71,0,0,0,.18,2.16,10.24,10.24,0,0,0,5.52,5,29.24,29.24,0,0,1-4.63,10.46,2.74,2.74,0,0,0-1-1.73,4,4,0,0,0-3.72-.33,3.23,3.23,0,0,0-5.84,0,4,4,0,0,0-3.71.33,2.79,2.79,0,0,0-1.07,2.22,6.17,6.17,0,0,0,1.77,3.67,6.12,6.12,0,0,0-1.77,3.66A2.79,2.79,0,0,0,207.41,175.4Zm34.53-29.57c.41,1.22,1.75,1.89,3.28,2.63.31.15.75.36,1.15.57a4,4,0,0,1-3.19,1.69l-1.09-.07a6.17,6.17,0,0,0-1.09-2.76A6,6,0,0,0,241.94,145.83Zm-.88,9.13c.06.32.13.67.22,1-.11-.29-.21-.59-.34-.86A2,2,0,0,1,241.06,155ZM236,142.67a1.63,1.63,0,0,1,1.62,1.63,1.61,1.61,0,0,1-1,1.5,2.32,2.32,0,0,0-.62.39,2.38,2.38,0,0,0-.63-.39,1.61,1.61,0,0,1-1-1.5A1.63,1.63,0,0,1,236,142.67Zm-.63,7.31a2.35,2.35,0,0,0,.63-.38,2.07,2.07,0,0,0,.62.38,1.64,1.64,0,0,1,1,1.51,1.61,1.61,0,0,1-.77,1.37,2.24,2.24,0,0,0-.85,1,2.33,2.33,0,0,0-.86-1,1.62,1.62,0,0,1,.23-2.88Zm.31,6.24a2.65,2.65,0,0,0,.32-.5,2.18,2.18,0,0,0,.31.5,8.14,8.14,0,0,1,1.31,4.91c0,3.24-1.21,5.09-1.58,5.25-.46-.16-1.67-2-1.67-5.25A8.21,8.21,0,0,1,235.68,156.22Zm-5-.21c.09-.38.17-.73.22-1a2,2,0,0,1,.12.19C230.93,155.42,230.82,155.72,230.71,156Zm-5.09-7c.4-.21.84-.42,1.15-.57,1.53-.74,2.88-1.41,3.28-2.63a6,6,0,0,0,.94,2.06,6.17,6.17,0,0,0-1.09,2.76l-1.09.07A4,4,0,0,1,225.62,149Z"/><path fill="black" stroke="black" d="M68.87,173.51a54.77,54.77,0,0,0,9.91-.91v7a5.55,5.55,0,0,0-2.63,4.73v.8a5.58,5.58,0,0,0,5.58,5.58h5.84L80.1,736.59,82.9,734h0L98.71,721.6,172.3,826.86l38.06-80,25.39-22.42,13.59,3.32,43.83-33.67,2.48-1.7-6.86-501.76h5.84a5.58,5.58,0,0,0,5.58-5.58v-.8a5.58,5.58,0,0,0-2.63-4.73v-7a54.74,54.74,0,0,0,9.9.91c36.72,0,66.59-29.16,66.59-65,0-35.58-23.72-65.83-56.53-76.54h5a6,6,0,0,0,0-12h-.29a5.64,5.64,0,0,0,.08-.93,5.83,5.83,0,0,0-.11-1.12,9.61,9.61,0,0,0,1.79.18,9.43,9.43,0,0,0,9.42-9.41V0H43V8.71a9.42,9.42,0,0,0,9.41,9.41,9.64,9.64,0,0,0,1.8-.18A5.13,5.13,0,0,0,54,19.06a5.64,5.64,0,0,0,.09.93h-.29a6,6,0,0,0,0,12h5C26,42.67,2.29,72.92,2.29,108.5,2.29,144.35,32.16,173.51,68.87,173.51Zm188.84,83.43-.47-50.19a4.64,4.64,0,0,1,1.43-3.3,7.61,7.61,0,0,1,5.41-2.09c3.83,0,7,2.44,7,5.44L277,701.5,262,713Zm14.92-56.78a12.33,12.33,0,0,0-8.55-3.33,12.13,12.13,0,0,0-8.62,3.43,10.54,10.54,0,0,0-1,1.21,14.89,14.89,0,0,0-21-.59,11.31,11.31,0,0,0-1.52,1.9,16.82,16.82,0,0,0-13.13-5.95,17.06,17.06,0,0,0-12.05,4.75,13.33,13.33,0,0,0-2.25,3,21,21,0,0,0-32.6,0,13.38,13.38,0,0,0-2.26-3,17,17,0,0,0-12-4.75,16.82,16.82,0,0,0-13.13,5.95,11.84,11.84,0,0,0-1.52-1.9,14.9,14.9,0,0,0-21,.59,9.53,9.53,0,0,0-1-1.21,12.15,12.15,0,0,0-8.63-3.43,12.29,12.29,0,0,0-8.54,3.33c-.19-.23-.38-.46-.59-.67a9.36,9.36,0,0,0-6.66-2.66A9.9,9.9,0,0,0,92,197.9l.1-7.22H284.26l.09,7.22a9.86,9.86,0,0,0-4.47-1.07,9.38,9.38,0,0,0-6.67,2.66A7.32,7.32,0,0,0,272.63,200.16ZM138.13,771l-19.52-27.92,5-534.56c0-3.95,4.11-7.17,9.08-7.17a9.87,9.87,0,0,1,7,2.71,6.17,6.17,0,0,1,1.92,4.43Zm29.34,42-24.85-35.54,3.53-566.92c0-5,5.16-9.15,11.43-9.15a12.5,12.5,0,0,1,8.84,3.42,8,8,0,0,1,2.49,5.71ZM92.05,204.66c0-1.79,2.06-3.3,4.43-3.3a4.84,4.84,0,0,1,3.44,1.31,2.73,2.73,0,0,1,.84,1.93l0,2.14h0l-6.15,513-9.77,7.64Zm7.12,511.5,6.1-509.36c0-3,3.18-5.44,7-5.44a7.58,7.58,0,0,1,5.41,2.09,4.64,4.64,0,0,1,1.44,3.3l-5,530L99.57,715.85ZM172,818.22l1.44-604.9c0-6.59,6.63-12,14.75-12s14.73,5.37,14.74,12l1.22,508.85.07,28.35ZM208.72,743l-1.27-532.52a8,8,0,0,1,2.49-5.71,12.5,12.5,0,0,1,8.84-3.42c6.27,0,11.39,4.11,11.43,9.15l3.17,510.74Zm39.7-19.54-10.51-2.57-3.18-510.42h0v-2a6.25,6.25,0,0,1,1.92-4.43,9.89,9.89,0,0,1,7-2.71c5,0,9,3.22,9.08,7.17l4.77,508ZM291,690.74l-9.53,7.32-5.88-491.31h0l0-2.15a2.73,2.73,0,0,1,.85-1.93,4.82,4.82,0,0,1,3.44-1.31c2.37,0,4.4,1.51,4.42,3.3Zm4.65-505.64a1,1,0,0,1-1.05,1.05H81.73a1,1,0,0,1-1-1.05v-.8a1,1,0,0,1,1-1.05h212.9a1,1,0,0,1,1.05,1.05ZM148.12,48.87c12.68,2.94,24.67,5.71,40.06,5.71s27.37-2.77,40.06-5.71c14.56-3.36,30.95-7.15,56-7.58h6.47c38.53.87,69.6,30.57,69.6,67,0,29.3-25.4,53.15-56.62,53.15-24.93,0-45.22-18.65-45.36-41.63.69-20.31,17.86-36.62,38.87-36.62,16.91,0,30.67,13.39,30.67,29.86,0,12.92-10.8,23.43-24.08,23.43a18.66,18.66,0,0,1-16.39-9.65,16.8,16.8,0,0,0,13,6.2A20.73,20.73,0,0,0,321,112.19a25.35,25.35,0,0,0-25.18-25.46A31.11,31.11,0,0,0,264.94,118c0,21.22,17.07,38.49,38.06,38.49,25.92,0,47-21.33,47-47.55,0-32.47-26.1-58.88-58.2-58.88-18.51,0-31.94,3.72-46.15,7.65-15.8,4.38-32.15,8.91-57.48,8.91S146.5,62.08,130.7,57.7c-14.22-3.93-27.64-7.65-46.16-7.65-32.09,0-58.2,26.41-58.2,58.88,0,26.22,21.09,47.55,47,47.55,21,0,38.06-17.27,38.06-38.49a31.11,31.11,0,0,0-30.9-31.26,25.35,25.35,0,0,0-25.18,25.46A20.72,20.72,0,0,0,75.93,133a16.83,16.83,0,0,0,13-6.2,18.66,18.66,0,0,1-16.39,9.65C59.3,136.45,48.5,125.94,48.5,113c0-16.47,13.76-29.86,30.67-29.86,21,0,38.18,16.32,38.86,36.63-.14,23-20.43,41.62-45.35,41.62-31.22,0-56.62-23.85-56.62-53.15,0-36.4,31.06-66.1,69.6-67h6.47C117.17,41.72,133.56,45.51,148.12,48.87Zm-13.39-7.58H241.62c-5.11,1-9.84,2.12-14.4,3.17-13,3-24.17,5.59-39,5.59s-26.08-2.59-39-5.59C144.58,43.41,139.85,42.31,134.73,41.29Zm119.06,78.49c0,.42,0,.84,0,1.27,0,.6,0,1.19.05,1.79a5.87,5.87,0,0,0-4.09-2.11,10.3,10.3,0,0,0,1.82-5.86v-5h3.77a41.6,41.6,0,0,0-1.51,9.72h0Zm-3.14,6.83a1.37,1.37,0,1,1-1.37-1.37A1.37,1.37,0,0,1,250.65,126.61Zm.89-21.31H119.48A43.48,43.48,0,0,0,79.17,78.63C59.76,78.63,44,94.05,44,113c0,15.42,12.83,28,28.61,28a23,23,0,0,0,23.13-22.82c0-8.06-4.57-13-10.11-15.15a12.34,12.34,0,0,0-13,.62,11.77,11.77,0,0,0-5.32,8.89,11.9,11.9,0,0,0-.08,1.34A12.38,12.38,0,0,0,84,125.45a12.25,12.25,0,0,1-8,3,16.19,16.19,0,0,1-16.06-16.28A20.81,20.81,0,0,1,80.52,91.26,26.58,26.58,0,0,1,106.89,118a33.78,33.78,0,0,1-33.53,34,42.62,42.62,0,0,1-40.89-31.38c-2.13-15.2,1.07-28.22,9.25-37.66,8.9-10.26,23.72-16.14,40.67-16.14,16.33,0,25.94,4.5,37.07,9.71,14.85,7,31.69,14.83,68.72,14.83S242,83.43,256.9,76.48C268,71.27,277.64,66.77,294,66.77c17,0,31.78,5.88,40.68,16.14,8.18,9.44,11.38,22.46,9.25,37.67A42.63,42.63,0,0,1,303,152a33.79,33.79,0,0,1-33.54-34,26.59,26.59,0,0,1,26.38-26.73,20.81,20.81,0,0,1,20.65,20.93,16.19,16.19,0,0,1-16.07,16.28,12.23,12.23,0,0,1-8-3,12.21,12.21,0,0,0,4.38.81,12.41,12.41,0,0,0,12.4-12.4,11.9,11.9,0,0,0-.07-1.34,11.78,11.78,0,0,0-5.33-8.89,12.32,12.32,0,0,0-13-.62c-5.54,2.12-10.12,7.09-10.12,15.15A23,23,0,0,0,303.78,141c15.77,0,28.61-12.54,28.61-28,0-19-15.79-34.39-35.2-34.39a43.47,43.47,0,0,0-40.31,26.67ZM247,109.83v5a5.84,5.84,0,0,1-11.68,0v-5Zm-23.79,10.9a10.31,10.31,0,0,0,1.83-5.86v-5h5.75v5a10.31,10.31,0,0,0,1.83,5.86,5.92,5.92,0,0,0-4.71,3A5.89,5.89,0,0,0,223.22,120.73Zm.93,5.88a1.37,1.37,0,1,1-1.37-1.37A1.36,1.36,0,0,1,224.15,126.61Zm8.91-1.37a1.37,1.37,0,1,1-1.36,1.37A1.37,1.37,0,0,1,233.06,125.24Zm-12.54-15.41v5a5.85,5.85,0,0,1-11.69,0v-5Zm-23.8,10.9a10.31,10.31,0,0,0,1.83-5.86v-5h5.75v5a10.31,10.31,0,0,0,1.83,5.86,5.89,5.89,0,0,0-4.7,3A5.92,5.92,0,0,0,196.72,120.73Zm.93,5.88a1.37,1.37,0,1,1-1.36-1.37A1.36,1.36,0,0,1,197.65,126.61Zm8.92-1.37a1.37,1.37,0,1,1-1.37,1.37A1.37,1.37,0,0,1,206.57,125.24ZM194,109.83v5a5.84,5.84,0,0,1-11.68,0v-5H194Zm-23.79,10.9a10.3,10.3,0,0,0,1.82-5.86v-5h5.76v5a10.3,10.3,0,0,0,1.82,5.86,5.89,5.89,0,0,0-4.7,3A5.89,5.89,0,0,0,170.23,120.73Zm.93,5.88a1.37,1.37,0,1,1-1.37-1.37A1.37,1.37,0,0,1,171.16,126.61Zm8.91-1.37a1.37,1.37,0,1,1-1.37,1.37A1.37,1.37,0,0,1,180.07,125.24Zm-12.55-15.41v5a5.84,5.84,0,0,1-11.68,0v-5Zm-23.79,10.9a10.31,10.31,0,0,0,1.83-5.86v-5h5.75v5a10.31,10.31,0,0,0,1.83,5.86,5.92,5.92,0,0,0-4.71,3A5.89,5.89,0,0,0,143.73,120.73Zm.93,5.88a1.37,1.37,0,1,1-1.37-1.37A1.36,1.36,0,0,1,144.66,126.61Zm8.91-1.37a1.37,1.37,0,1,1-1.36,1.37A1.37,1.37,0,0,1,153.57,125.24ZM141,109.83v5a5.85,5.85,0,0,1-11.69,0v-5Zm-18.47,10c0-.08,0-.16,0-.24h0a41.09,41.09,0,0,0-1.52-9.72h3.77v5a10.31,10.31,0,0,0,1.83,5.86,5.85,5.85,0,0,0-4.09,2.11c0-.6,0-1.19,0-1.79C122.59,120.63,122.57,120.21,122.56,119.79Zm4.52,5.45a1.37,1.37,0,1,1-1.37,1.37A1.37,1.37,0,0,1,127.08,125.24Zm-39.6-11.38a7.88,7.88,0,0,1-15.76,0c0-.12,0-.22,0-.34h0c0-.18,0-.36,0-.54a7.87,7.87,0,0,1,3.36-5.6,7,7,0,0,1,3.74-1.09,9.43,9.43,0,0,1,7.93,4.38A7.86,7.86,0,0,1,87.48,113.86ZM41.16,77a53.43,53.43,0,0,1,43.38-22.4c17.9,0,31,3.64,45,7.49,16.09,4.46,32.74,9.07,58.69,9.07s42.59-4.61,58.69-9.07c13.91-3.85,27-7.49,44.94-7.49A53.43,53.43,0,0,1,335.2,77c-9.89-9.4-24.65-14.74-41.24-14.74-17.33,0-27.85,4.92-39,10.13-14.43,6.76-30.78,14.41-66.8,14.41s-52.37-7.65-66.8-14.41c-11.14-5.21-21.65-10.13-39-10.13C65.81,62.24,51,67.58,41.16,77Zm247.72,36.88a7.86,7.86,0,0,1,.68-3.19,9.43,9.43,0,0,1,7.93-4.38,6.91,6.91,0,0,1,3.73,1.09,7.87,7.87,0,0,1,3.36,5.6,4.89,4.89,0,0,1,0,.54h0c0,.12,0,.22,0,.34a7.88,7.88,0,0,1-15.75,0Zm-167,15.57A5.9,5.9,0,0,0,133,126.61a5.84,5.84,0,0,0-.25-1.68,9.88,9.88,0,0,0,4.91,0,5.84,5.84,0,0,0-.25,1.68,5.9,5.9,0,0,0,11,2.88,5.9,5.9,0,0,0,11-2.88,6.2,6.2,0,0,0-.24-1.68,9.88,9.88,0,0,0,4.91,0,5.84,5.84,0,0,0-.25,1.68,5.9,5.9,0,0,0,11,2.88,5.89,5.89,0,0,0,10.79-4.56,9.88,9.88,0,0,0,4.91,0,6.2,6.2,0,0,0-.24,1.68,5.9,5.9,0,0,0,11,2.88,5.89,5.89,0,0,0,10.79-4.56,9.88,9.88,0,0,0,4.91,0,5.84,5.84,0,0,0-.25,1.68,5.9,5.9,0,0,0,11,2.88,5.9,5.9,0,0,0,11-2.88,6.2,6.2,0,0,0-.24-1.68,9.85,9.85,0,0,0,2.45.31,10,10,0,0,0,2.46-.31,5.84,5.84,0,0,0-.25,1.68,5.9,5.9,0,0,0,11.08,2.82c3.34,20.28,18.64,36.7,38.59,42.14h0v7.14H195.89v-8.36a17.65,17.65,0,0,0,5.08-1.67,5.09,5.09,0,0,0,2.77-6.85,5.16,5.16,0,0,0,1.56-3.69,5.07,5.07,0,0,0-1.46-3.57,5,5,0,0,0,.36-1.88,5.14,5.14,0,0,0-2.21-4.24,5.36,5.36,0,0,0,.1-1,5.19,5.19,0,0,0-4.08-5.05,5.16,5.16,0,0,0-5-4.29,5.17,5.17,0,0,0-9.59,0,5.17,5.17,0,0,0-5,4.29,5.19,5.19,0,0,0-4.07,5.05,4.62,4.62,0,0,0,.1,1,5.19,5.19,0,0,0-1.86,6.12,5.14,5.14,0,0,0,.1,7.26,5.19,5.19,0,0,0-.45,2.11,5.06,5.06,0,0,0,3.23,4.74,17.51,17.51,0,0,0,5.07,1.67v8.36H83.31v-7.14h0C103.25,166.13,118.55,149.71,121.9,129.43Zm66.28,28.79a7.72,7.72,0,0,0-7.71,7.51,15.27,15.27,0,0,1-2.53-.82,2.24,2.24,0,0,0-.77-.39.61.61,0,0,1-.48-.57.62.62,0,0,1,.44-.57,2.5,2.5,0,0,0,1.48-2.78,2.28,2.28,0,0,0-2.36-1.84h-.15a.62.62,0,0,1-.51-.62.62.62,0,0,1,.6-.61,2.26,2.26,0,0,0,.87-4.29.64.64,0,0,1-.37-.55.63.63,0,0,1,.51-.64l.25.07a2.27,2.27,0,0,0,1.69-4.15.61.61,0,0,1-.34-.51c0-.52.76-.71,1-.49l.06.07a2.27,2.27,0,0,0,3.14-3.27l0,0h0a.62.62,0,0,1-.21-.45c0-.57.85-.7,1.11-.34a2.29,2.29,0,0,0,3.78-2.59.77.77,0,0,1-.15-.32.64.64,0,0,1,1.28,0,.77.77,0,0,1-.15.32,2.31,2.31,0,0,0,.47,3,2.24,2.24,0,0,0,1.74.52,2.29,2.29,0,0,0,1.57-.92c.25-.36,1.11-.23,1.11.34a.62.62,0,0,1-.17.41l-.07.06a2.26,2.26,0,0,0,3.12,3.28l0,0h0a.64.64,0,0,1,.44-.18.64.64,0,0,1,.64.63.63.63,0,0,1-.34.51,2.26,2.26,0,0,0,1.68,4.15l.13-.07a.63.63,0,0,1,.64.64.64.64,0,0,1-.37.55,2.26,2.26,0,0,0,.87,4.29.62.62,0,0,1,.6.61.64.64,0,0,1-.5.62h-.17a2.49,2.49,0,0,0-2.38,2,2.26,2.26,0,0,0,1.5,2.61.58.58,0,0,1,0,1.14,2.24,2.24,0,0,0-.74.37,14.33,14.33,0,0,1-2.57.84A7.72,7.72,0,0,0,188.18,158.22Zm3.18,7.72v12.78H185V165.94a3.19,3.19,0,1,1,6.37,0ZM319.11,8.7V4.53h9.77V8.71a4.89,4.89,0,0,1-9.77,0Zm-2.26,9.42a.94.94,0,1,1-.94.94A.94.94,0,0,1,316.85,18.12Zm-12-13.59h9.77V8.7a4.89,4.89,0,1,1-9.77,0ZM311.46,20h-3.53a5.64,5.64,0,0,0,.09-.93,5.13,5.13,0,0,0-.12-1.12,9,9,0,0,0,3.59,0,5.83,5.83,0,0,0-.11,1.12A5.64,5.64,0,0,0,311.46,20Zm-8.91-1.87a.94.94,0,1,1-.94.94A.94.94,0,0,1,302.55,18.12Zm-12-9.42V4.53h9.76V8.71a4.88,4.88,0,0,1-9.76,0ZM297.17,20h-3.54a4.73,4.73,0,0,0,.09-.93,5.83,5.83,0,0,0-.11-1.12,9.61,9.61,0,0,0,1.79.18,9.72,9.72,0,0,0,1.8-.18,5.13,5.13,0,0,0-.12,1.12A4.73,4.73,0,0,0,297.17,20Zm-8.92-1.87a.94.94,0,1,1-.94.94A.94.94,0,0,1,288.25,18.12Zm-12-13.59H286V8.7a4.89,4.89,0,1,1-9.77,0ZM282.87,20h-3.53a5.64,5.64,0,0,0,.08-.93,5.83,5.83,0,0,0-.11-1.12,9,9,0,0,0,3.59,0,5.83,5.83,0,0,0-.11,1.12A5.64,5.64,0,0,0,282.87,20ZM274,18.12a.94.94,0,1,1-.94.94A.94.94,0,0,1,274,18.12Zm-12-9.42V4.53h9.77V8.71a4.89,4.89,0,0,1-9.77,0ZM268.58,20H265a5.64,5.64,0,0,0,.09-.93,5.13,5.13,0,0,0-.12-1.12,9,9,0,0,0,3.59,0,5.83,5.83,0,0,0-.11,1.12A4.73,4.73,0,0,0,268.58,20Zm-8.92-1.87a.94.94,0,1,1-.94.94A.94.94,0,0,1,259.66,18.12Zm-12-13.59h9.76V8.7a4.88,4.88,0,1,1-9.76,0ZM254.28,20h-3.54a4.73,4.73,0,0,0,.09-.93,5.83,5.83,0,0,0-.11-1.12,9,9,0,0,0,3.59,0,5.13,5.13,0,0,0-.12,1.12A5.64,5.64,0,0,0,254.28,20Zm-8.92-1.87a.94.94,0,1,1-.93.94A.94.94,0,0,1,245.36,18.12Zm-12-9.42V4.53h9.77V8.71a4.89,4.89,0,0,1-9.77,0ZM240,20h-3.53a5.64,5.64,0,0,0,.08-.93,5.83,5.83,0,0,0-.11-1.12,9,9,0,0,0,3.59,0,5.83,5.83,0,0,0-.11,1.12A5.64,5.64,0,0,0,240,20Zm-8.91-1.87a.94.94,0,1,1-.94.94A.95.95,0,0,1,231.07,18.12ZM219,4.53h9.76V8.7a4.88,4.88,0,1,1-9.76,0ZM225.69,20h-3.54a4.73,4.73,0,0,0,.09-.93,5.13,5.13,0,0,0-.12-1.12,9.72,9.72,0,0,0,1.8.18,9.61,9.61,0,0,0,1.79-.18,5.83,5.83,0,0,0-.11,1.12A4.73,4.73,0,0,0,225.69,20Zm-8.92-1.87a.94.94,0,1,1-.94.94A.94.94,0,0,1,216.77,18.12Zm-12-9.42V4.53h9.77V8.71a4.89,4.89,0,0,1-9.77,0ZM211.39,20h-3.53a5.64,5.64,0,0,0,.08-.93,5.83,5.83,0,0,0-.11-1.12,9,9,0,0,0,3.59,0,5.13,5.13,0,0,0-.12,1.12A5.64,5.64,0,0,0,211.39,20Zm-8.92-1.87a.94.94,0,1,1-.93.94A.94.94,0,0,1,202.47,18.12Zm-12-13.59h9.77V8.7a4.89,4.89,0,1,1-9.77,0ZM197.09,20h-3.53a5.64,5.64,0,0,0,.09-.93,5.13,5.13,0,0,0-.12-1.12,9,9,0,0,0,3.59,0,5.83,5.83,0,0,0-.11,1.12A5.64,5.64,0,0,0,197.09,20Zm-8.91-1.87a.94.94,0,1,1-.94.94A.94.94,0,0,1,188.18,18.12Zm-12-13.59h9.76V8.71a4.88,4.88,0,1,1-9.76,0ZM182.8,20h-3.54a4.73,4.73,0,0,0,.09-.93,5.13,5.13,0,0,0-.12-1.12,9.09,9.09,0,0,0,3.6,0,5.13,5.13,0,0,0-.12,1.12A4.73,4.73,0,0,0,182.8,20Zm-8.92-1.87a.94.94,0,1,1-.94.94A.94.94,0,0,1,173.88,18.12Zm-12-13.59h9.77V8.71a4.89,4.89,0,0,1-9.77,0ZM168.5,20H165a5.64,5.64,0,0,0,.08-.93,5.83,5.83,0,0,0-.11-1.12,9,9,0,0,0,3.59,0,5.13,5.13,0,0,0-.12,1.12A5.64,5.64,0,0,0,168.5,20Zm-8.91-1.87a.94.94,0,1,1-.94.94A.94.94,0,0,1,159.59,18.12Zm-12-13.59h9.77V8.71a4.89,4.89,0,0,1-9.77,0ZM154.2,20h-3.53a5.64,5.64,0,0,0,.09-.93,5.13,5.13,0,0,0-.12-1.12,9,9,0,0,0,3.59,0,5.83,5.83,0,0,0-.11,1.12A5.64,5.64,0,0,0,154.2,20Zm-8.91-1.87a.94.94,0,1,1-.94.94A.94.94,0,0,1,145.29,18.12Zm-12-13.59H143V8.71a4.88,4.88,0,0,1-9.76,0ZM139.91,20h-3.54a4.73,4.73,0,0,0,.09-.93,5.83,5.83,0,0,0-.11-1.12,9.61,9.61,0,0,0,1.79.18,9.72,9.72,0,0,0,1.8-.18,5.13,5.13,0,0,0-.12,1.12A5.64,5.64,0,0,0,139.91,20ZM131,18.12a.94.94,0,1,1-.94.94A.94.94,0,0,1,131,18.12ZM119,4.53h9.77V8.71a4.89,4.89,0,0,1-9.77,0ZM125.61,20h-3.53a5.64,5.64,0,0,0,.08-.93,5.83,5.83,0,0,0-.11-1.12,9,9,0,0,0,3.59,0,5.83,5.83,0,0,0-.11,1.12A5.64,5.64,0,0,0,125.61,20Zm-8.91-1.87a.94.94,0,1,1-.94.94A.94.94,0,0,1,116.7,18.12Zm-12-13.59h9.76V8.71a4.88,4.88,0,0,1-9.76,0ZM111.32,20h-3.54a5.64,5.64,0,0,0,.09-.93,5.13,5.13,0,0,0-.12-1.12,9.72,9.72,0,0,0,1.8.18,9.61,9.61,0,0,0,1.79-.18,5.83,5.83,0,0,0-.11,1.12A4.73,4.73,0,0,0,111.32,20Zm-8.92-1.87a.94.94,0,1,1-.94.94A.94.94,0,0,1,102.4,18.12Zm-12-13.59h9.77V8.71a4.89,4.89,0,0,1-9.77,0ZM97,20H93.48a4.73,4.73,0,0,0,.09-.93,5.83,5.83,0,0,0-.11-1.12,9,9,0,0,0,3.59,0,5.13,5.13,0,0,0-.12,1.12A5.64,5.64,0,0,0,97,20ZM88.1,18.12a.94.94,0,1,1-.93.94A.94.94,0,0,1,88.1,18.12Zm-12-13.59h9.77V8.71a4.89,4.89,0,0,1-9.77,0ZM82.72,20H79.19a5.64,5.64,0,0,0,.09-.93,5.13,5.13,0,0,0-.12-1.12,9,9,0,0,0,3.59,0,5.83,5.83,0,0,0-.11,1.12A5.64,5.64,0,0,0,82.72,20Zm-8.91-1.87a.94.94,0,1,1-.94.94A.95.95,0,0,1,73.81,18.12Zm-12-13.59h9.76V8.71a4.88,4.88,0,0,1-9.76,0ZM68.43,20H64.89a4.73,4.73,0,0,0,.09-.93,5.13,5.13,0,0,0-.12-1.12,9.72,9.72,0,0,0,1.8.18,9.81,9.81,0,0,0,1.8-.18,5.13,5.13,0,0,0-.12,1.12A4.73,4.73,0,0,0,68.43,20Zm-8.92-1.87a.94.94,0,1,1-.94.94A.94.94,0,0,1,59.51,18.12Zm-7.15-4.53a4.89,4.89,0,0,1-4.88-4.88V4.53h9.77V8.71A4.89,4.89,0,0,1,52.36,13.59Zm1.48,13.84a1.46,1.46,0,0,1,0-2.91H322.52a1.46,1.46,0,0,1,0,2.91ZM85,32.33c30.71,0,48.05-.11,63.35-.21C160.74,32,172,32,188.18,32s27.43.07,39.87.16c15.3.1,32.65.21,63.35.21,43.09,0,78.14,34.17,78.14,76.17,0,33.35-27.84,60.48-62.06,60.48a49.82,49.82,0,0,1-30-9.94,52.43,52.43,0,0,0,26.15,6.9c33.72,0,61.15-25.88,61.15-57.68,0-38.66-32.69-70.23-73.37-71.48v0h-.77c-.58,0-1.15,0-1.73,0-1.62,0-3.21,0-4.77,0h-192c-1.56,0-3.15,0-4.77,0-.58,0-1.16,0-1.74,0H84.9v0C44.22,38,11.53,69.6,11.53,108.26c0,31.8,27.43,57.68,61.15,57.68A52.39,52.39,0,0,0,98.82,159,49.8,49.8,0,0,1,68.87,169c-34.21,0-62-27.13-62-60.48C6.82,66.5,41.87,32.33,85,32.33Z"/><path fill="black" stroke="black" d="M358.65,2260.06a4.82,4.82,0,0,0-.69-4.16,13.47,13.47,0,0,0-3.13-3,22.87,22.87,0,0,1-5.24-5.35,32.91,32.91,0,0,1-4.67-9.72,16.46,16.46,0,0,0-2.31-32.67l-.25,0c-11.82,0-24.5-8.32-26.16-22l-7.76-561.46-2.75,1.19-.21-.54-37.69,14.85-26-1.27-54.12-42.18-54.57,89.86-26.65,25.24-38.68,17,.16.36-1.43.62-6.31,455.85c-1.59,11.68-13.77,22.45-26.16,22.45a1.9,1.9,0,0,0-.25,0,16.46,16.46,0,0,0-2.3,32.68,33.28,33.28,0,0,1-4.68,9.71,22.68,22.68,0,0,1-5.25,5.35,13.63,13.63,0,0,0-3.12,3,4.86,4.86,0,0,0-.7,4.16A22.35,22.35,0,0,0,0,2281.88v2.57a10.47,10.47,0,0,0,10.46,10.46H365.9a10.47,10.47,0,0,0,10.46-10.46v-2.57A22.34,22.34,0,0,0,358.65,2260.06Zm-47.16-80a28.24,28.24,0,0,0,.19,3.21l.06,4.35a7,7,0,0,1-1.95,5,5.77,5.77,0,0,1-4.13,1.77c-3.44,0-6.28-3.07-6.32-6.83l0-3.5h0l-6.62-552.46,11.24-4.43ZM270.7,1640.28l17.47-6.88,6.6,550.74a10.62,10.62,0,0,1-3,7.56,8.93,8.93,0,0,1-6.38,2.72c-5.25,0-9.56-4.64-9.61-10.33l0-2.83h0Zm-59.88-23.47,28.27,22,3.36,539.2a16.93,16.93,0,0,1-4.79,12,14.42,14.42,0,0,1-10.28,4.37c-8.38,0-15.21-7.35-15.23-16.39v-4.58h0Zm60.43,564.49a13.51,13.51,0,0,1-3.81,9.63,11.46,11.46,0,0,1-8.19,3.49c-6.71,0-12.21-5.91-12.25-13.16l0-3.24L243.63,1640l22.55,1.1Zm-82.53-581.7,17.56,13.68,1.33,560.18a21.76,21.76,0,0,1-6.19,15.35,18.43,18.43,0,0,1-26.48,0,21.71,21.71,0,0,1-6.19-15.35L170,1630.64l-2.42,3.72Zm-79.2,111.76,22.9-21.69-3.06,491.59c-.05,7.25-5.54,13.16-12.25,13.16a11.5,11.5,0,0,1-8.2-3.49,13.59,13.59,0,0,1-3.81-9.63ZM137,1684.82l28.52-47L164.21,2178c0,9-6.86,16.39-15.23,16.39a14.44,14.44,0,0,1-10.29-4.37,16.92,16.92,0,0,1-4.78-12Zm-32,29-4.39,467.46h0l0,2.83c-.06,5.69-4.37,10.33-9.62,10.33a8.93,8.93,0,0,1-6.37-2.72,10.59,10.59,0,0,1-3-7.57l5.54-462.49ZM64.69,2182.88a25.57,25.57,0,0,0,.18-2.76l6.18-451.4,11.52-5.07-5.51,460.43h0l0,3.5c0,3.76-2.88,6.83-6.32,6.83a5.81,5.81,0,0,1-4.14-1.77,7,7,0,0,1-1.94-5ZM61.31,2193a10.91,10.91,0,0,0,2,2.87,10.26,10.26,0,0,0,7.36,3.11,10.77,10.77,0,0,0,9.32-5.62,13,13,0,0,0,1.31,1.56,13.43,13.43,0,0,0,9.6,4.06,14.09,14.09,0,0,0,12.42-7.81,16.56,16.56,0,0,0,2.35,3,16,16,0,0,0,11.41,4.82,16.74,16.74,0,0,0,15.09-10.07,21,21,0,0,0,3.28,4.38,19,19,0,0,0,13.5,5.69,19.83,19.83,0,0,0,18.28-13,25.15,25.15,0,0,0,4.47,6.11,23,23,0,0,0,32.9,0,25.15,25.15,0,0,0,4.47-6.11,19.82,19.82,0,0,0,18.28,13,19,19,0,0,0,13.5-5.69,20.92,20.92,0,0,0,3.27-4.38,16.76,16.76,0,0,0,15.1,10.07,16,16,0,0,0,11.41-4.82,16.56,16.56,0,0,0,2.35-3,14.08,14.08,0,0,0,12.41,7.81,13.4,13.4,0,0,0,9.6-4.06,14.13,14.13,0,0,0,1.32-1.56,10.77,10.77,0,0,0,9.32,5.62,10.28,10.28,0,0,0,7.36-3.11,11,11,0,0,0,1.75-2.36,30,30,0,0,0,11.31,11.62H49.47A33.87,33.87,0,0,0,61.31,2193Zm-39,28.61a12,12,0,0,1,12-12H342.11a11.95,11.95,0,0,1,0,23.9H34.25A12,12,0,0,1,22.3,2221.57Zm-.15,36.87a9.52,9.52,0,0,1,2.16-2,27.71,27.71,0,0,0,6.16-6.32,37.33,37.33,0,0,0,5.6-12.07H340.29a37.33,37.33,0,0,0,5.6,12.07,27.5,27.5,0,0,0,6.16,6.32,9.44,9.44,0,0,1,2.15,2c.17.24.13.32.1.39a2,2,0,0,1-1.71.75H23.77a2,2,0,0,1-1.71-.75C22,2258.76,22,2258.68,22.15,2258.44Zm349.68,26a5.94,5.94,0,0,1-5.93,5.93H10.46a5.94,5.94,0,0,1-5.93-5.93v-2.57a17.79,17.79,0,0,1,17.77-17.77H354.05a17.8,17.8,0,0,1,17.78,17.77Z"/></g></g></svg>