<svg xmlns="http://www.w3.org/2000/svg" viewBox="0 0 173.32 729.22"><defs><style>.cls-1{fill:#ffffff00;}.cls-1,.cls-10,.cls-14,.cls-17,.cls-18,.cls-19,.cls-2,.cls-20,.cls-22,.cls-24,.cls-3,.cls-4,.cls-5,.cls-6,.cls-7{fill-rule:evenodd;}.cls-10,.cls-11,.cls-12,.cls-13,.cls-14,.cls-15,.cls-16,.cls-17,.cls-18,.cls-19,.cls-2,.cls-20,.cls-22,.cls-23,.cls-24,.cls-4,.cls-5,.cls-6,.cls-7,.cls-8,.cls-9{fill:none;}.cls-10,.cls-11,.cls-12,.cls-14,.cls-15,.cls-16,.cls-17,.cls-2,.cls-20,.cls-22,.cls-23,.cls-24,.cls-4,.cls-5,.cls-7,.cls-9{stroke:#231f20;}.cls-10,.cls-11,.cls-12,.cls-13,.cls-14,.cls-15,.cls-16,.cls-18,.cls-19,.cls-2,.cls-20,.cls-22,.cls-23,.cls-24,.cls-4,.cls-5,.cls-7,.cls-9{stroke-miterlimit:3.86;}.cls-19,.cls-2{stroke-width:0.36px;}.cls-21,.cls-3{fill:#fff;}.cls-4{stroke-width:0.34px;}.cls-5{stroke-width:0.28px;}.cls-10,.cls-11,.cls-13,.cls-17,.cls-24,.cls-7{stroke-linecap:round;}.cls-11,.cls-14,.cls-17,.cls-7,.cls-9{stroke-width:0.72px;}.cls-10{stroke-width:0.68px;}.cls-12,.cls-13{stroke-width:0.75px;}.cls-13,.cls-18,.cls-19{stroke:#fff;}.cls-15{stroke-width:0.01px;}.cls-16,.cls-18,.cls-20{stroke-width:1.44px;}.cls-17{stroke-linejoin:round;}.cls-22,.cls-23,.cls-24{stroke-width:1.58px;}</style></defs><g id="Layer_2" data-name="Layer 2"><g id="Vordergrund"><path class="cls-1" d="M130.3,61.07a22,22,0,0,1-2-1.55c0,.84.05,1.7.05,2.62l5,645.07h2.11L130.31,62.14c0-.33,0-.71,0-1Z"/><path class="cls-2" d="M130.3,61.07a22,22,0,0,1-2-1.55c0,.84.05,1.7.05,2.62l5,645.07h2.11L130.31,62.14c0-.33,0-.71,0-1Z"/><path class="cls-1" d="M72.14,726.73,72.9,61.35a5.81,5.81,0,0,1,11.59,0l.2,665.38Z"/><path class="cls-2" d="M72.14,726.73,72.9,61.35a5.81,5.81,0,0,1,11.59,0l.2,665.38Z"/><path class="cls-1" d="M59.17,723.25l2-661.89c.11-3,2.27-5.37,4.92-5.37s4.82,2.38,4.91,5.37L69.81,723.25Z"/><path class="cls-2" d="M59.17,723.25l2-661.89c.11-3,2.27-5.37,4.92-5.37s4.82,2.38,4.91,5.37L69.81,723.25Z"/><path class="cls-1" d="M41.78,61.07a22,22,0,0,0,2-1.55c0,.84-.05,1.7-.05,2.62L40,698.72h-2.1L41.77,62.14c0-.33,0-.71,0-1Z"/><path class="cls-2" d="M41.78,61.07a22,22,0,0,0,2-1.55c0,.84-.05,1.7-.05,2.62L40,698.72h-2.1L41.77,62.14c0-.33,0-.71,0-1Z"/><path class="cls-1" d="M48.47,714.5,51.46,62c.09-3,1.83-5.36,3.95-5.36S59.26,59,59.32,62L57,714.5Z"/><path class="cls-2" d="M48.47,714.5,51.46,62c.09-3,1.83-5.36,3.95-5.36S59.26,59,59.32,62L57,714.5Z"/><path class="cls-1" d="M41.55,698.72,45.12,62c.07-3,1.16-5.36,2.48-5.36S50,59,50,62L46.85,698.72Z"/><path class="cls-2" d="M41.55,698.72,45.12,62c.07-3,1.16-5.36,2.48-5.36S50,59,50,62L46.85,698.72Z"/><path class="cls-3" d="M73.38,703.27,74,64.89a4.71,4.71,0,0,1,9.39,0l.12,638.38Z"/><path class="cls-2" d="M73.38,703.27,74,64.89a4.71,4.71,0,0,1,9.39,0l.12,638.38Z"/><path class="cls-3" d="M58.53,75.78,56.23,700H49.35l2.8-624.1a6.25,6.25,0,0,0,2.21.87A7.19,7.19,0,0,0,57,76.66,4.73,4.73,0,0,0,58.53,75.78Z"/><path class="cls-2" d="M58.53,75.78,56.23,700H49.35l2.8-624.1a6.25,6.25,0,0,0,2.21.87A7.19,7.19,0,0,0,57,76.66,4.73,4.73,0,0,0,58.53,75.78Z"/><path class="cls-3" d="M42.28,698.72,45.67,83.16a3.33,3.33,0,0,0,1.58-.06,6.78,6.78,0,0,0,1.6-1.41l.43-1L46.17,698.72Z"/><path class="cls-2" d="M42.28,698.72,45.67,83.16a3.33,3.33,0,0,0,1.58-.06,6.78,6.78,0,0,0,1.6-1.41l.43-1L46.17,698.72Z"/><path class="cls-2" d="M42,85.56c.43-.31.8-.58,1.19-.92,0,.49,0,1,0,1.55l-.45,72H41.59l.44-72c0-.19,0-.42,0-.61"/><path class="cls-1" d="M101.16,724.89l-2-663.54a5.81,5.81,0,0,0-11.59,0l1,663.54Z"/><path class="cls-2" d="M101.16,724.89l-2-663.54a5.81,5.81,0,0,0-11.59,0l1,663.54Z"/><path class="cls-1" d="M114.1,717.8,110.91,61.36c-.11-3-2.28-5.37-4.93-5.37s-4.81,2.38-4.9,5.37l2.39,656.44Z"/><path class="cls-2" d="M114.1,717.8,110.91,61.36c-.11-3-2.28-5.37-4.93-5.37s-4.81,2.38-4.9,5.37l2.39,656.44Z"/><path class="cls-1" d="M124.87,722.61,120.62,62c-.1-3-1.83-5.36-4-5.36S112.82,59,112.76,62l3.6,660.65Z"/><path class="cls-2" d="M124.87,722.61,120.62,62c-.1-3-1.83-5.36-4-5.36S112.82,59,112.76,62l3.6,660.65Z"/><path class="cls-1" d="M131.88,722.61,127,62c-.07-3-1.16-5.36-2.49-5.36S122.08,59,122.05,62l4.52,660.65Z"/><path class="cls-2" d="M131.88,722.61,127,62c-.07-3-1.16-5.36-2.49-5.36S122.08,59,122.05,62l4.52,660.65Z"/><path class="cls-3" d="M113.13,713.93,110.06,64.28a4,4,0,0,0-4-3.74,3.92,3.92,0,0,0-4,3.74l2.44,649.65Z"/><path class="cls-2" d="M113.13,713.93,110.06,64.28a4,4,0,0,0-4-3.74,3.92,3.92,0,0,0-4,3.74l2.44,649.65Z"/><path class="cls-3" d="M99.9,706.51,98.09,64.89a4.71,4.71,0,0,0-9.39,0l1.06,641.62Z"/><path class="cls-2" d="M99.9,706.51,98.09,64.89a4.71,4.71,0,0,0-9.39,0l1.06,641.62Z"/><path class="cls-3" d="M122.88,73.3l4.33,626.07h3.67L126.31,75.68a3.26,3.26,0,0,1-1.5-.06,6.53,6.53,0,0,1-1.52-1.34C123.16,74,122.88,73.3,122.88,73.3Z"/><path class="cls-4" d="M122.88,73.3l4.33,626.07h3.67L126.31,75.68a3.26,3.26,0,0,1-1.5-.06,6.53,6.53,0,0,1-1.52-1.34C123.16,74,122.88,73.3,122.88,73.3Z"/><path class="cls-3" d="M60.15,715.16,62,64.28a4,4,0,0,1,8,0L68.75,715.16Z"/><path class="cls-3" d="M113.54,68.34l3.53,639.76H124l-4-637.62a6.24,6.24,0,0,1-2.22.87c-1.07.12-2.32-1.27-2.65-2.14C114.79,68.52,113.54,68.34,113.54,68.34Z"/><path class="cls-2" d="M113.54,68.34l3.53,639.76H124l-4-637.62a6.24,6.24,0,0,1-2.22.87c-1.07.12-2.32-1.27-2.65-2.14C114.79,68.52,113.54,68.34,113.54,68.34Z"/><path class="cls-3" d="M130,93.59a11.09,11.09,0,0,1-.91-.72c0,.39,0,.78,0,1.21l.45,55.71h.89L130,94.08c0-.15,0-.33,0-.47Z"/><path class="cls-5" d="M130,93.59a11.09,11.09,0,0,1-.91-.72c0,.39,0,.78,0,1.21l.45,55.71h.89L130,94.08c0-.15,0-.33,0-.47Z"/><path class="cls-6" d="M75,702.61,75.46,66.4c.2-3.54,1.35-4.09,3.69-4.25"/><path class="cls-7" d="M75,702.61,75.46,66.4c.2-3.54,1.35-4.09,3.69-4.25"/><line class="cls-8" x1="50.99" y1="699.41" x2="53.63" y2="76.02"/><line class="cls-9" x1="50.99" y1="699.41" x2="53.63" y2="76.02"/><line class="cls-8" x1="52.73" y1="699.44" x2="55.21" y2="76.04"/><line class="cls-9" x1="52.73" y1="699.44" x2="55.21" y2="76.04"/><line class="cls-8" x1="43.73" y1="698.72" x2="46.98" y2="84.86"/><line class="cls-9" x1="43.73" y1="698.72" x2="46.98" y2="84.86"/><path class="cls-7" d="M61.65,705.28,63.37,65.19A3.56,3.56,0,0,1,67,61.81a3.28,3.28,0,0,1,.52,0"/><path class="cls-10" d="M63.32,702,64.87,66.2a3.29,3.29,0,0,1,.71-1.91"/><path class="cls-6" d="M91.41,706.12l-1-639.5c.06-3.58,1.72-4.21,3.69-4.25"/><path class="cls-7" d="M91.41,706.12l-1-639.5c.06-3.58,1.72-4.21,3.69-4.25"/><path class="cls-7" d="M103.69,64.08C104.06,62.33,105.5,62,107,62a4.67,4.67,0,0,1,.52,0"/><path class="cls-7" d="M103.41,65.49v-.17a3.41,3.41,0,0,1,.29-1.24"/><line class="cls-11" x1="105.78" y1="704.21" x2="103.41" y2="66.97"/><path class="cls-10" d="M107.43,700.92,104.92,66.34a3.21,3.21,0,0,1,.7-1.91"/><line class="cls-8" x1="118.45" y1="707.45" x2="114.9" y2="68.25"/><line class="cls-12" x1="118.45" y1="707.45" x2="114.9" y2="68.25"/><line class="cls-8" x1="128.65" y1="707.68" x2="124.15" y2="68.44"/><line class="cls-12" x1="128.65" y1="707.68" x2="124.15" y2="68.44"/><path class="cls-6" d="M76.66,703.82,77,67.4a6.52,6.52,0,0,1,.49-2.91"/><path class="cls-7" d="M76.66,703.82,77,67.4a6.52,6.52,0,0,1,.49-2.91"/><line class="cls-8" x1="124.18" y1="72.96" x2="124.14" y2="66.44"/><line class="cls-13" x1="124.18" y1="72.96" x2="124.14" y2="66.44"/><path class="cls-1" d="M123.13,42l-73.22.2L49.58,39s.29.36.56.67a3.91,3.91,0,0,0,4.19,1.44c.94-.18,1.46-.28,1.83-.81s.4,0,.9.74.86.22.57-.51a8,8,0,0,1-.43-1.36c-.07-.3.14-.87.5-.29a10.18,10.18,0,0,0,2.09,2.23,3.65,3.65,0,0,0,3,.15c.86-.43,1.08-1.73,1.08-2.67s-1.3-3-1.66-4.1-3-7.42-3-7.42,2.8-.14,2.77.21,2.2,6.78,3.49,8.72a22.39,22.39,0,0,0,4.25,4.17c.93.66,4.82,2.17,6.69.73a3.53,3.53,0,0,0,1.3-4.32c-.43-1.16-1.79-4.54-2.23-6s-.58-2.37-.72-2.81-.21-.72.36-.72,1.73.07,2.23.07.73-.06.94.87a27.21,27.21,0,0,0,1.44,4c.43.86,1.06,2.33,1.72,3.7.75,1.55,1.08,2.25,1.57,3.19a13.35,13.35,0,0,0,1.28,1.82,2.8,2.8,0,0,0,2.4,1.17,2.75,2.75,0,0,0,2.14-1.24A17.67,17.67,0,0,0,90,38.9c.5-.94.92-1.72,1.67-3.27.66-1.37,1.41-2.78,1.84-3.64A26.08,26.08,0,0,0,95,28c.22-.93.44-.87.94-.87s1.65-.07,2.23-.07.51.29.36.72-.28,1.37-.72,2.81-1.8,4.82-2.23,6a3.53,3.53,0,0,0,1.3,4.32c1.87,1.44,5.76-.07,6.69-.73A22.39,22.39,0,0,0,107.77,36c1.29-1.94,3.52-8.5,3.5-8.72s2.77-.21,2.77-.21-2.59,6.26-3,7.42-1.66,3.16-1.66,4.1.22,2.24,1.08,2.67a3.65,3.65,0,0,0,3-.15,10.18,10.18,0,0,0,2.09-2.23c.36-.58.57,0,.5.29a8,8,0,0,1-.43,1.36c-.29.73.07,1.31.57.51s.43-1.2.79-.84a2.65,2.65,0,0,0,2,1,5.51,5.51,0,0,0,2.66-.31,4.74,4.74,0,0,0,1.51-1.23c.27-.31.56-.67.56-.67Z"/><path class="cls-1" d="M89.13,24.42h2.66a.74.74,0,0,1,.68.54,30.84,30.84,0,0,1-.26,4.3,25.66,25.66,0,0,1-.86,4.45c-1.16,4-3.19,7.29-4.85,7.19-1.66.1-3.78-3.19-4.93-7.19a24.76,24.76,0,0,1-.86-4.45,29.27,29.27,0,0,1-.26-4.3.74.74,0,0,1,.67-.54h8Z"/><path class="cls-2" d="M89.13,24.42h2.66a.74.74,0,0,1,.68.54,30.84,30.84,0,0,1-.26,4.3,25.66,25.66,0,0,1-.86,4.45c-1.16,4-3.19,7.29-4.85,7.19-1.66.1-3.78-3.19-4.93-7.19a24.76,24.76,0,0,1-.86-4.45,29.27,29.27,0,0,1-.26-4.3.74.74,0,0,1,.67-.54h8Z"/><path class="cls-1" d="M73,28.88c.17.46.26.59.39.9,1.8,4.35,4.48,8.69,1.51,10.17C72.2,41.3,68.19,37.26,66.12,33a15.85,15.85,0,0,1-1.36-4.14,17.25,17.25,0,0,1-.41-4,1.22,1.22,0,0,1,1.07-.49h4.69c.79,0,.83,0,1.07,0s.52,0,.66.64a14.54,14.54,0,0,0,.42,2C72.48,27.63,72.84,28.43,73,28.88Z"/><path class="cls-14" d="M73,28.88c.17.46.26.59.39.9,1.8,4.35,4.48,8.69,1.51,10.17C72.2,41.3,68.19,37.26,66.12,33a15.85,15.85,0,0,1-1.36-4.14,17.25,17.25,0,0,1-.41-4,1.22,1.22,0,0,1,1.07-.49h4.69c.79,0,.83,0,1.07,0s.52,0,.66.64a14.54,14.54,0,0,0,.42,2C72.48,27.63,72.84,28.43,73,28.88Z"/><path class="cls-1" d="M21.13,4.47A2.76,2.76,0,0,0,23,7a26.9,26.9,0,0,0,3.38.67,2.28,2.28,0,0,1,1.83,1.48,4,4,0,0,1,.25,1.54H144.89a3.94,3.94,0,0,1,.24-1.54A2.31,2.31,0,0,1,147,7.7,26.9,26.9,0,0,0,150.34,7a2.76,2.76,0,0,0,1.85-2.56C152.19,4.05,21.13,4.05,21.13,4.47Z"/><path class="cls-2" d="M21.13,4.47A2.76,2.76,0,0,0,23,7a26.9,26.9,0,0,0,3.38.67,2.28,2.28,0,0,1,1.83,1.48,4,4,0,0,1,.25,1.54H144.89a3.94,3.94,0,0,1,.24-1.54A2.31,2.31,0,0,1,147,7.7,26.9,26.9,0,0,0,150.34,7a2.76,2.76,0,0,0,1.85-2.56C152.19,4.05,21.13,4.05,21.13,4.47Z"/><rect class="cls-15" x="43.63" y="51.98" width="0.16" height="0.45"/><path class="cls-14" d="M25.81,41a3.38,3.38,0,0,1,2.77-2.49,4.4,4.4,0,0,1,5,2.7,4.25,4.25,0,0,1,.3,1.75"/><circle class="cls-16" cx="29.03" cy="41.87" r="3.33"/><path class="cls-14" d="M54.43,31.94a.47.47,0,0,1,.08-.31.55.55,0,0,1,.69-.14c.43.14.49.65.37,1.08a1.12,1.12,0,0,1-1.47.58,1.44,1.44,0,0,1-.81-1.85,1.76,1.76,0,0,1,2.24-1,2.07,2.07,0,0,1,1.26,2.63A2.6,2.6,0,0,1,54,34.53a3.94,3.94,0,0,1-2.37-.72,12.06,12.06,0,0,1-3.29-3.36,27.32,27.32,0,0,0-3.63-4.18A15.54,15.54,0,0,0,43.11,25c-.34-.2-.38,0,0,.34a15.42,15.42,0,0,1,1.68,1.48c.2.38.24.55,0,.82s-.45.82-.72.38-.17-.55-.55-.48-.69.27-.69-.21a2.79,2.79,0,0,0-.2-1.13c-.14-.31-.18-.07-.18.38s0,.55-.13.65a2.36,2.36,0,0,1-.52.17"/><path class="cls-14" d="M53.93,37.4a.53.53,0,0,1,.15-.32.63.63,0,0,1,.78,0c.43.23.4.8.19,1.24a1.23,1.23,0,0,1-1.7.35,1.57,1.57,0,0,1-.53-2.16,1.94,1.94,0,0,1,2.63-.69,2.27,2.27,0,0,1,.85,3.09c-.6,1.3-2.17,1.5-3.35,1.23a4.26,4.26,0,0,1-2.42-1.24c-1.34-1-1.92-2.91-2.46-4"/><path class="cls-17" d="M55.39,26.54a.47.47,0,0,1,0-.31c.06-.27.32-.36.6-.37.44,0,.68.45.71.89,0,.61-.56,1-1.18,1.05a1.44,1.44,0,0,1-1.39-1.46,1.75,1.75,0,0,1,1.75-1.74,2.07,2.07,0,0,1,2.08,2,2.54,2.54,0,0,1-2.06,2.45,5,5,0,0,1-2.49.17c-1.67-.15-3.31-1.44-4.25-2a22.09,22.09,0,0,0-5.23-2.95"/><path class="cls-14" d="M21.29,26.7a17,17,0,0,1,2.08-1.43C27.94,22.59,33.79,22.18,40,24.2a3.56,3.56,0,0,1,1.89,1.62c.34.68.14.68.14.93s-.52.68-.65.17-.17-.59-.42-.52-.44.35-.71-.27-.42-.62-.45-.38-.2.72-.69,0-.58-.14-.82-.31a4.66,4.66,0,0,1-.82-.65c-.24-.28-.24,0-.41,0s.38.14-.69-.21-.82-.34-1.06-.34"/><path class="cls-14" d="M52.55,37.32a4.78,4.78,0,0,1-1.48-.92,11.8,11.8,0,0,1-2.79-3.78,24.12,24.12,0,0,0-3.4-4.8"/><path class="cls-3" d="M66.89,33.39c-1.83-3.76-1.8-7.55.07-8.47s4.14.16,6.39,5.59c1.61,3.87,4,7.72,1.34,9C72.29,40.74,68.73,37.15,66.89,33.39Z"/><path class="cls-1" d="M58.35,28.32c-.35.5-1.36.86-1.58,1.15s-.09.39.2.75a3.1,3.1,0,0,1,.81,1.62,3.25,3.25,0,0,1-.65,2.45,1.21,1.21,0,0,0-.07,1.8c.5.72,2.4,3,2.81,3.46,1,1.15,3.31,1.22,2.73-.94s-2.74-6.33-3.31-7.7A27.22,27.22,0,0,1,58.35,28.32Z"/><path class="cls-2" d="M58.35,28.32c-.35.5-1.36.86-1.58,1.15s-.09.39.2.75a3.1,3.1,0,0,1,.81,1.62,3.25,3.25,0,0,1-.65,2.45,1.21,1.21,0,0,0-.07,1.8c.5.72,2.4,3,2.81,3.46,1,1.15,3.31,1.22,2.73-.94s-2.74-6.33-3.31-7.7A27.22,27.22,0,0,1,58.35,28.32Z"/><path class="cls-3" d="M45.21,4.58A2,2,0,0,0,46,6.92c1.19.66,1.56.66,1.81,1.48a3.69,3.69,0,0,0,.7,1.56c.41.58.71.88.88.88h.14c.17,0,.32-.3.73-.88A3.69,3.69,0,0,0,51,8.4c.25-.82.62-.82,1.81-1.48s.83-2.09.83-2.46H50.72a3,3,0,0,0-1,1.26,7.71,7.71,0,0,0-.2,1.5h-.17a7.71,7.71,0,0,0-.2-1.5,2.91,2.91,0,0,0-1-1.26C48,4.41,45.28,4.31,45.21,4.58Z"/><path class="cls-2" d="M45.21,4.58A2,2,0,0,0,46,6.92c1.19.66,1.56.66,1.81,1.48a3.69,3.69,0,0,0,.7,1.56c.41.58.71.88.88.88h.14c.17,0,.32-.3.73-.88A3.69,3.69,0,0,0,51,8.4c.25-.82.62-.82,1.81-1.48s.83-2.09.83-2.46H50.72a3,3,0,0,0-1,1.26,7.71,7.71,0,0,0-.2,1.5h-.17a7.71,7.71,0,0,0-.2-1.5,2.91,2.91,0,0,0-1-1.26C48,4.41,45.28,4.31,45.21,4.58Z"/><path class="cls-3" d="M36,4.58a2,2,0,0,0,.82,2.34c1.19.66,1.56.66,1.81,1.48A4,4,0,0,0,39.3,10c.41.58.71.88.88.88h.14c.17,0,.32-.3.73-.88a3.82,3.82,0,0,0,.71-1.56c.24-.82.61-.82,1.8-1.48s.83-2.09.83-2.46H41.48a2.84,2.84,0,0,0-1,1.26,7.16,7.16,0,0,0-.21,1.5h-.17a7.71,7.71,0,0,0-.2-1.5,2.91,2.91,0,0,0-1-1.26C38.77,4.41,36,4.31,36,4.58Z"/><path class="cls-2" d="M36,4.58a2,2,0,0,0,.82,2.34c1.19.66,1.56.66,1.81,1.48A4,4,0,0,0,39.3,10c.41.58.71.88.88.88h.14c.17,0,.32-.3.73-.88a3.82,3.82,0,0,0,.71-1.56c.24-.82.61-.82,1.8-1.48s.83-2.09.83-2.46H41.48a2.84,2.84,0,0,0-1,1.26,7.16,7.16,0,0,0-.21,1.5h-.17a7.71,7.71,0,0,0-.2-1.5,2.91,2.91,0,0,0-1-1.26C38.77,4.41,36,4.31,36,4.58Z"/><path class="cls-3" d="M54.46,4.58a2,2,0,0,0,.83,2.34c1.19.66,1.56.66,1.8,1.48A3.82,3.82,0,0,0,57.8,10c.41.58.71.88.88.88h.14c.17,0,.32-.3.73-.88a4,4,0,0,0,.7-1.56c.25-.82.62-.82,1.81-1.48s.83-2.09.83-2.46H60a3,3,0,0,0-1,1.26,7.71,7.71,0,0,0-.2,1.5h-.17a7.71,7.71,0,0,0-.2-1.5,3,3,0,0,0-1-1.26C57.26,4.41,54.53,4.31,54.46,4.58Z"/><path class="cls-2" d="M54.46,4.58a2,2,0,0,0,.83,2.34c1.19.66,1.56.66,1.8,1.48A3.82,3.82,0,0,0,57.8,10c.41.58.71.88.88.88h.14c.17,0,.32-.3.73-.88a4,4,0,0,0,.7-1.56c.25-.82.62-.82,1.81-1.48s.83-2.09.83-2.46H60a3,3,0,0,0-1,1.26,7.71,7.71,0,0,0-.2,1.5h-.17a7.71,7.71,0,0,0-.2-1.5,3,3,0,0,0-1-1.26C57.26,4.41,54.53,4.31,54.46,4.58Z"/><path class="cls-3" d="M73.44,4.48a2,2,0,0,0,.83,2.34c1.19.66,1.55.66,1.8,1.48a4,4,0,0,0,.7,1.56c.42.58.72.88.88.88h.15c.16,0,.32-.3.73-.88a4,4,0,0,0,.7-1.56c.25-.82.61-.82,1.81-1.48s.82-2.09.82-2.46H79a2.91,2.91,0,0,0-1,1.26,7.71,7.71,0,0,0-.2,1.5H77.6a7.16,7.16,0,0,0-.21-1.5,2.91,2.91,0,0,0-1-1.26C76.24,4.31,73.51,4.21,73.44,4.48Z"/><path class="cls-2" d="M73.44,4.48a2,2,0,0,0,.83,2.34c1.19.66,1.55.66,1.8,1.48a4,4,0,0,0,.7,1.56c.42.58.72.88.88.88h.15c.16,0,.32-.3.73-.88a4,4,0,0,0,.7-1.56c.25-.82.61-.82,1.81-1.48s.82-2.09.82-2.46H79a2.91,2.91,0,0,0-1,1.26,7.71,7.71,0,0,0-.2,1.5H77.6a7.16,7.16,0,0,0-.21-1.5,2.91,2.91,0,0,0-1-1.26C76.24,4.31,73.51,4.21,73.44,4.48Z"/><path class="cls-3" d="M64.19,4.48A2,2,0,0,0,65,6.82c1.19.66,1.56.66,1.8,1.48a3.82,3.82,0,0,0,.71,1.56c.41.58.71.88.87.88h.15c.17,0,.32-.3.73-.88A4,4,0,0,0,70,8.3c.25-.82.62-.82,1.81-1.48s.83-2.09.83-2.46H69.7a3,3,0,0,0-1,1.26,7.71,7.71,0,0,0-.2,1.5h-.17a7.71,7.71,0,0,0-.2-1.5,3,3,0,0,0-1-1.26C67,4.31,64.26,4.21,64.19,4.48Z"/><path class="cls-2" d="M64.19,4.48A2,2,0,0,0,65,6.82c1.19.66,1.56.66,1.8,1.48a3.82,3.82,0,0,0,.71,1.56c.41.58.71.88.87.88h.15c.17,0,.32-.3.73-.88A4,4,0,0,0,70,8.3c.25-.82.62-.82,1.81-1.48s.83-2.09.83-2.46H69.7a3,3,0,0,0-1,1.26,7.71,7.71,0,0,0-.2,1.5h-.17a7.71,7.71,0,0,0-.2-1.5,3,3,0,0,0-1-1.26C67,4.31,64.26,4.21,64.19,4.48Z"/><path class="cls-3" d="M82.88,4.48a2.14,2.14,0,0,0,.74,2.34c1.06.66,1.39.66,1.61,1.48a4.07,4.07,0,0,0,.63,1.56c.37.58.64.88.79.88h.13c.14,0,.28-.3.65-.88a4.07,4.07,0,0,0,.62-1.56c.23-.82.55-.82,1.62-1.48s.74-2.09.74-2.46H87.8a2.88,2.88,0,0,0-.87,1.26,9.15,9.15,0,0,0-.18,1.5h-.16a7.35,7.35,0,0,0-.18-1.5,2.88,2.88,0,0,0-.87-1.26C85.39,4.31,82.94,4.21,82.88,4.48Z"/><path class="cls-2" d="M82.88,4.48a2.14,2.14,0,0,0,.74,2.34c1.06.66,1.39.66,1.61,1.48a4.07,4.07,0,0,0,.63,1.56c.37.58.64.88.79.88h.13c.14,0,.28-.3.65-.88a4.07,4.07,0,0,0,.62-1.56c.23-.82.55-.82,1.62-1.48s.74-2.09.74-2.46H87.8a2.88,2.88,0,0,0-.87,1.26,9.15,9.15,0,0,0-.18,1.5h-.16a7.35,7.35,0,0,0-.18-1.5,2.88,2.88,0,0,0-.87-1.26C85.39,4.31,82.94,4.21,82.88,4.48Z"/><path class="cls-14" d="M56.15,27.61a3.17,3.17,0,0,1-2,.47,11.29,11.29,0,0,1-3.91-1.81,24,24,0,0,0-2.68-1.92.59.59,0,0,1-.24-.55c0-.38,0-.52-.31-.52s-.41,0-.52-.34.07-.27-.48-.34-.79,0-.79.1.59.27-.1.38S44,23,44,23.28a.63.63,0,0,1-.24.59c-.21.2-.58.41-.27.54s-.59.31-1.1-.06-.34-.52-.93-.45-.72.24-.85-.07-.45-.31-.72-.31a2.82,2.82,0,0,1-.59,0c-.13,0-.3-.41-.44-.41s-2.85,0-1.82.24"/><path class="cls-14" d="M54.57,33.22a4.59,4.59,0,0,1-1.85-.41,11.82,11.82,0,0,1-3.3-3.35,21.29,21.29,0,0,0-3.81-4.4"/><path class="cls-2" d="M44.71,4.42v6.26s.17.14-.25,0a3.06,3.06,0,0,1-1.52-1.51,5.19,5.19,0,0,1-.21-1.81s.67-.33,1-.57a1.55,1.55,0,0,0,.65-1.23C44.35,4.25,44.71,4.42,44.71,4.42Z"/><path class="cls-3" d="M44.71,4.42v6.26s.17.14-.25,0a3.06,3.06,0,0,1-1.52-1.51,5.19,5.19,0,0,1-.21-1.81s.67-.33,1-.57a1.55,1.55,0,0,0,.65-1.23C44.35,4.25,44.71,4.42,44.71,4.42Z"/><path class="cls-2" d="M44.71,4.42v6.26s.17.14-.25,0a3.06,3.06,0,0,1-1.52-1.51,5.19,5.19,0,0,1-.21-1.81s.67-.33,1-.57a1.55,1.55,0,0,0,.65-1.23C44.35,4.25,44.71,4.42,44.71,4.42Z"/><path class="cls-3" d="M44.92,4.42v6.26s-.18.14.25,0a3,3,0,0,0,1.51-1.51,5.05,5.05,0,0,0,.22-1.81,11.6,11.6,0,0,1-1-.57,1.52,1.52,0,0,1-.65-1.23C45.28,4.25,44.92,4.42,44.92,4.42Z"/><path class="cls-2" d="M44.92,4.42v6.26s-.18.14.25,0a3,3,0,0,0,1.51-1.51,5.05,5.05,0,0,0,.22-1.81,11.6,11.6,0,0,1-1-.57,1.52,1.52,0,0,1-.65-1.23C45.28,4.25,44.92,4.42,44.92,4.42Z"/><path class="cls-3" d="M53.91,4.42v6.26s.18.14-.25,0a3,3,0,0,1-1.51-1.51,5.05,5.05,0,0,1-.22-1.81s.68-.33,1-.57a1.54,1.54,0,0,0,.64-1.23C53.56,4.25,53.91,4.42,53.91,4.42Z"/><path class="cls-2" d="M53.91,4.42v6.26s.18.14-.25,0a3,3,0,0,1-1.51-1.51,5.05,5.05,0,0,1-.22-1.81s.68-.33,1-.57a1.54,1.54,0,0,0,.64-1.23C53.56,4.25,53.91,4.42,53.91,4.42Z"/><path class="cls-3" d="M54.13,4.42v6.26s-.18.14.25,0a3,3,0,0,0,1.51-1.51,4.94,4.94,0,0,0,.21-1.81s-.67-.33-1-.57a1.58,1.58,0,0,1-.65-1.23C54.48,4.25,54.13,4.42,54.13,4.42Z"/><path class="cls-2" d="M54.13,4.42v6.26s-.18.14.25,0a3,3,0,0,0,1.51-1.51,4.94,4.94,0,0,0,.21-1.81s-.67-.33-1-.57a1.58,1.58,0,0,1-.65-1.23C54.48,4.25,54.13,4.42,54.13,4.42Z"/><path class="cls-3" d="M63.38,4.42v6.26s.18.14-.25,0a3,3,0,0,1-1.51-1.51,5.05,5.05,0,0,1-.22-1.81s.68-.33,1.05-.57a1.54,1.54,0,0,0,.64-1.23C63,4.25,63.38,4.42,63.38,4.42Z"/><path class="cls-2" d="M63.38,4.42v6.26s.18.14-.25,0a3,3,0,0,1-1.51-1.51,5.05,5.05,0,0,1-.22-1.81s.68-.33,1.05-.57a1.54,1.54,0,0,0,.64-1.23C63,4.25,63.38,4.42,63.38,4.42Z"/><path class="cls-3" d="M63.72,4.42v6.26s-.18.14.25,0a3,3,0,0,0,1.51-1.51,5.05,5.05,0,0,0,.22-1.81s-.68-.33-1-.57A1.54,1.54,0,0,1,64,5.56C64.08,4.25,63.72,4.42,63.72,4.42Z"/><path class="cls-2" d="M63.72,4.42v6.26s-.18.14.25,0a3,3,0,0,0,1.51-1.51,5.05,5.05,0,0,0,.22-1.81s-.68-.33-1-.57A1.54,1.54,0,0,1,64,5.56C64.08,4.25,63.72,4.42,63.72,4.42Z"/><path class="cls-3" d="M72.88,4.34V10.6s.17.14-.26,0a3.11,3.11,0,0,1-1.51-1.52,5.13,5.13,0,0,1-.21-1.8s.67-.33,1-.57a1.55,1.55,0,0,0,.65-1.24C72.52,4.17,72.88,4.34,72.88,4.34Z"/><path class="cls-2" d="M72.88,4.34V10.6s.17.14-.26,0a3.11,3.11,0,0,1-1.51-1.52,5.13,5.13,0,0,1-.21-1.8s.67-.33,1-.57a1.55,1.55,0,0,0,.65-1.24C72.52,4.17,72.88,4.34,72.88,4.34Z"/><path class="cls-3" d="M73.22,4.34V10.6s-.18.14.25,0A3.07,3.07,0,0,0,75,9.08a4.88,4.88,0,0,0,.21-1.8s-.67-.33-1-.57a1.58,1.58,0,0,1-.65-1.24C73.57,4.17,73.22,4.34,73.22,4.34Z"/><path class="cls-2" d="M73.22,4.34V10.6s-.18.14.25,0A3.07,3.07,0,0,0,75,9.08a4.88,4.88,0,0,0,.21-1.8s-.67-.33-1-.57a1.58,1.58,0,0,1-.65-1.24C73.57,4.17,73.22,4.34,73.22,4.34Z"/><path class="cls-3" d="M35.25,4.42v6.26s.18.14-.25,0a3,3,0,0,1-1.51-1.51,4.94,4.94,0,0,1-.21-1.81s.67-.33,1-.57A1.58,1.58,0,0,0,35,5.56C34.9,4.25,35.25,4.42,35.25,4.42Z"/><path class="cls-2" d="M35.25,4.42v6.26s.18.14-.25,0a3,3,0,0,1-1.51-1.51,4.94,4.94,0,0,1-.21-1.81s.67-.33,1-.57A1.58,1.58,0,0,0,35,5.56C34.9,4.25,35.25,4.42,35.25,4.42Z"/><path class="cls-3" d="M35.59,4.42v6.26s-.17.14.25,0a3.06,3.06,0,0,0,1.52-1.51,5.19,5.19,0,0,0,.21-1.81s-.67-.33-1-.57a1.55,1.55,0,0,1-.65-1.23C36,4.25,35.59,4.42,35.59,4.42Z"/><path class="cls-2" d="M35.59,4.42v6.26s-.17.14.25,0a3.06,3.06,0,0,0,1.52-1.51,5.19,5.19,0,0,0,.21-1.81s-.67-.33-1-.57a1.55,1.55,0,0,1-.65-1.23C36,4.25,35.59,4.42,35.59,4.42Z"/><path class="cls-3" d="M82.27,4.34V10.6s.17.14-.26,0a3.07,3.07,0,0,1-1.51-1.52,4.88,4.88,0,0,1-.21-1.8s.67-.33,1-.57A1.58,1.58,0,0,0,82,5.47C81.92,4.17,82.27,4.34,82.27,4.34Z"/><path class="cls-2" d="M82.27,4.34V10.6s.17.14-.26,0a3.07,3.07,0,0,1-1.51-1.52,4.88,4.88,0,0,1-.21-1.8s.67-.33,1-.57A1.58,1.58,0,0,0,82,5.47C81.92,4.17,82.27,4.34,82.27,4.34Z"/><path class="cls-3" d="M82.61,4.34V10.6s-.17.14.26,0a3.11,3.11,0,0,0,1.51-1.52,5.13,5.13,0,0,0,.21-1.8s-.67-.33-1-.57a1.55,1.55,0,0,1-.65-1.24C83,4.17,82.61,4.34,82.61,4.34Z"/><path class="cls-2" d="M82.61,4.34V10.6s-.17.14.26,0a3.11,3.11,0,0,0,1.51-1.52,5.13,5.13,0,0,0,.21-1.8s-.67-.33-1-.57a1.55,1.55,0,0,1-.65-1.24C83,4.17,82.61,4.34,82.61,4.34Z"/><path class="cls-18" d="M22.29,4.11a2.78,2.78,0,0,0,1.85,2.57c1.52.48,2,.07,3.18.62.76.37,1.6.71,1.75,1.28s.1.46-.11.95-.35.52-.24.91.63.14.84-.21.39-.49.63-.18.64,1.2,1.2.53.42-1.37.74-2a2.55,2.55,0,0,1,.73-1,4,4,0,0,1,.49-.32"/><path class="cls-3" d="M23.31,4.36a2.05,2.05,0,0,0,.25,1,2.59,2.59,0,0,0,1.26,1,2.63,2.63,0,0,0,1.26.24c.49,0-.9-.56-1.12-1.09a5.1,5.1,0,0,1-.28-1.16Z"/><path class="cls-2" d="M23.31,4.36a2.05,2.05,0,0,0,.25,1,2.59,2.59,0,0,0,1.26,1,2.63,2.63,0,0,0,1.26.24c.49,0-.9-.56-1.12-1.09a5.1,5.1,0,0,1-.28-1.16Z"/><path class="cls-3" d="M26.63,5.09a1.23,1.23,0,0,0,.75,1.1,16.48,16.48,0,0,1,1.69.67c.77.42.69.52.69,1.19a2.1,2.1,0,0,0,.42,1.19,2.27,2.27,0,0,1,.33-1.11,4,4,0,0,0,.85-1.86,9.13,9.13,0,0,0,.34-1.91H26.46A1.66,1.66,0,0,1,26.63,5.09Z"/><path class="cls-2" d="M26.63,5.09a1.23,1.23,0,0,0,.75,1.1,16.48,16.48,0,0,1,1.69.67c.77.42.69.52.69,1.19a2.1,2.1,0,0,0,.42,1.19,2.27,2.27,0,0,1,.33-1.11,4,4,0,0,0,.85-1.86,9.13,9.13,0,0,0,.34-1.91H26.46A1.66,1.66,0,0,1,26.63,5.09Z"/><path class="cls-3" d="M76.86,27.41s1.61,5,2.37,6.42.9,1.83,1.08,2.11.25.7.39.36c.27-.62.8-1.58.73-.36a8.27,8.27,0,0,0,.32,3.33c.36.85.45,1.4.61,1.72s-.22.59-.47.11a15.41,15.41,0,0,0-1.33-2.28,10.63,10.63,0,0,0-2-2.22c-.55-.3-.69-1,.11-.51,1.19.69,1.28.42.9-.15s-1.49-3-1.77-3.59-1.33-3.27-1.51-4a3.67,3.67,0,0,0-.32-.91Z"/><path class="cls-3" d="M61.2,27.52s1.66,5,2.36,6.37.85,1.8,1,2.08.25.68.32.33c.13-.66.31-1.58.38-.32A10.4,10.4,0,0,0,66,39.25c.34.84.47,1.4.61,1.71s-.1.62-.33.15A18.33,18.33,0,0,0,65,38.9a10,10,0,0,0-1.69-2.11c-.44-.26-.6-.94,0-.54.94.61,1,.33.65-.22s-1.39-2.92-1.66-3.53-1.3-3.24-1.5-3.93-.32-1.05-.32-1.05Z"/><path class="cls-1" d="M74.48,25.44c0-.26.46-.47,1-.47h1.9c.57,0,1,.21,1,.47h0c0,.26-.45.47-1,.47H75.5c-.56,0-1-.21-1-.47Z"/><path class="cls-2" d="M74.48,25.44c0-.26.46-.47,1-.47h1.9c.57,0,1,.21,1,.47h0c0,.26-.45.47-1,.47H75.5c-.56,0-1-.21-1-.47Z"/><path class="cls-1" d="M58.45,25.39c0-.26.46-.47,1-.47h1.91c.56,0,1,.21,1,.47h0c0,.26-.46.47-1,.47H59.47c-.56,0-1-.21-1-.47Z"/><path class="cls-2" d="M58.45,25.39c0-.26.46-.47,1-.47h1.91c.56,0,1,.21,1,.47h0c0,.26-.46.47-1,.47H59.47c-.56,0-1-.21-1-.47Z"/><path class="cls-1" d="M53.4,26.9a2.25,2.25,0,0,1-.32-1,1.5,1.5,0,0,1,1.44-1.45h-5.1s1.11.8,1.35,1,1.07.67,1.42.88.55.27.78.4S53.45,27,53.4,26.9Z"/><path class="cls-1" d="M67.47,31c-.77-1.89-.75-3.79,0-4.24s1.73.08,2.67,2.79c.67,1.94,1.66,3.87.56,4.53S68.24,32.92,67.47,31Z"/><path class="cls-2" d="M66.22,38c.26.59.89,2.4,1,2.86s0,.52,1.36.52c1.5,0,2.13,0,1.18-.52a8.72,8.72,0,0,1-2.57-2C66.39,37.76,66,37.36,66.22,38Z"/><path class="cls-1" d="M84.41,14.21l-55.56.15C15.35,14.54,5.23,25.61,4.46,38.9a22.42,22.42,0,0,0,8,18.64c-3.58-4.21-6.67-10.47-6.53-16.7C6.25,25.16,18,17.18,31.49,17l55.56-.15Z"/><path class="cls-1" d="M46.57,41.33A15.24,15.24,0,0,0,32,26.84c-7.85-.4-15.92,5.11-16.38,13-.37,6.42,4.48,12,9.9,12.86l-.27-.34c-4.59-1.11-8.86-6.41-8.54-11.91.4-7.07,7.66-11.8,14.74-11.67,8.38.16,14.57,5.73,15.09,13.12Z"/><path class="cls-2" d="M46.57,41.33A15.24,15.24,0,0,0,32,26.84c-7.85-.4-15.92,5.11-16.38,13-.37,6.42,4.48,12,9.9,12.86l-.27-.34c-4.59-1.11-8.86-6.41-8.54-11.91.4-7.07,7.66-11.8,14.74-11.67,8.38.16,14.57,5.73,15.09,13.12Z"/><path class="cls-1" d="M13.5,44.3a14.45,14.45,0,0,0,1.76,4.08,14.61,14.61,0,0,0,18,5.64,11.89,11.89,0,0,0,7-9.72,11.86,11.86,0,0,1-7,10.62,14.61,14.61,0,0,1-18-5.64A13.71,13.71,0,0,1,13.5,44.3Z"/><path class="cls-2" d="M13.5,44.3a14.45,14.45,0,0,0,1.76,4.08,14.61,14.61,0,0,0,18,5.64,11.89,11.89,0,0,0,7-9.72,11.86,11.86,0,0,1-7,10.62,14.61,14.61,0,0,1-18-5.64A13.71,13.71,0,0,1,13.5,44.3Z"/><path class="cls-1" d="M20.48,42.7a8.78,8.78,0,0,0,1,2.55c1.86,3,5.88,4.4,8.65,3.37A6,6,0,0,0,34,43l-.06,0A6.11,6.11,0,0,1,30,48.17c-2.77,1-6.33-.5-8.18-3.55a5.49,5.49,0,0,1-.66-2Z"/><path class="cls-14" d="M20.48,42.7a8.78,8.78,0,0,0,1,2.55c1.86,3,5.88,4.4,8.65,3.37A6,6,0,0,0,34,43l-.06,0A6.11,6.11,0,0,1,30,48.17c-2.77,1-6.33-.5-8.18-3.55a5.49,5.49,0,0,1-.66-2Z"/><path class="cls-1" d="M25.88,43a3.33,3.33,0,0,0,6.48-1.09c0-.14,0-.29,0-.43l.14.13a2.84,2.84,0,0,1,.07.66,3.33,3.33,0,0,1-6.31,1.49Z"/><path class="cls-2" d="M25.88,43a3.33,3.33,0,0,0,6.48-1.09c0-.14,0-.29,0-.43l.14.13a2.84,2.84,0,0,1,.07.66,3.33,3.33,0,0,1-6.31,1.49Z"/><path class="cls-2" d="M147.51,41a3.36,3.36,0,0,0-2.77-2.49A4.38,4.38,0,0,0,139.41,43"/><circle class="cls-16" cx="144.29" cy="41.87" r="3.33"/><path class="cls-14" d="M118.89,31.94a.42.42,0,0,0-.08-.31.55.55,0,0,0-.69-.14c-.42.14-.49.65-.37,1.08a1.13,1.13,0,0,0,1.47.58A1.43,1.43,0,0,0,120,31.3a1.76,1.76,0,0,0-2.24-1,2.07,2.07,0,0,0-1.26,2.63,2.6,2.6,0,0,0,2.82,1.63,3.93,3.93,0,0,0,2.36-.72A12.06,12.06,0,0,0,125,30.45a27.32,27.32,0,0,1,3.63-4.18A15.54,15.54,0,0,1,130.21,25c.35-.2.38,0,0,.34a13.74,13.74,0,0,0-1.68,1.48c-.21.38-.24.55,0,.82s.44.82.72.38.17-.55.54-.48.69.27.69-.21a2.62,2.62,0,0,1,.21-1.13c.13-.31.17-.07.17.38s0,.55.14.65a2.18,2.18,0,0,0,.51.17"/><path class="cls-14" d="M119.39,37.4a.53.53,0,0,0-.15-.32.63.63,0,0,0-.78,0c-.43.23-.4.8-.18,1.24a1.22,1.22,0,0,0,1.69.35,1.57,1.57,0,0,0,.53-2.16,1.93,1.93,0,0,0-2.62-.69,2.28,2.28,0,0,0-.86,3.09,2.86,2.86,0,0,0,3.36,1.23,4.32,4.32,0,0,0,2.42-1.24c1.33-1,1.92-2.91,2.45-4"/><path class="cls-14" d="M117.93,26.54a.47.47,0,0,0,0-.31c-.07-.27-.33-.36-.61-.37-.44,0-.68.45-.71.89,0,.61.57,1,1.18,1.05a1.44,1.44,0,0,0,1.39-1.46,1.75,1.75,0,0,0-1.75-1.74,2.06,2.06,0,0,0-2.07,2,2.59,2.59,0,0,0,2.08,2.5,3.91,3.91,0,0,0,2.47.12,11.88,11.88,0,0,0,4.24-2,23.63,23.63,0,0,1,5.35-3"/><path class="cls-14" d="M152,26.7A17,17,0,0,0,150,25.27c-4.57-2.68-10.42-3.09-16.57-1.07a3.54,3.54,0,0,0-1.9,1.62c-.34.68-.14.68-.14.93s.52.68.66.17.17-.59.41-.52.44.35.72-.27.41-.62.44-.38.21.72.69,0,.58-.14.82-.31a4.66,4.66,0,0,0,.82-.65c.24-.28.24,0,.42,0s-.38.14.68-.21.82-.34,1.06-.34"/><path class="cls-1" d="M114.61,28.61a1.41,1.41,0,0,0,1.27,1c.36.05.19.47,0,.63a2.62,2.62,0,0,0-.78,1.71,3.49,3.49,0,0,0,.82,2.5c.64.51.56.94.06,1.66s-2.4,3-2.81,3.46c-1,1.15-3.31,1.22-2.73-.94s2.83-6.29,3.31-7.7S114.61,28.61,114.61,28.61Z"/><path class="cls-2" d="M114.61,28.61a1.41,1.41,0,0,0,1.27,1c.36.05.19.47,0,.63a2.62,2.62,0,0,0-.78,1.71,3.49,3.49,0,0,0,.82,2.5c.64.51.56.94.06,1.66s-2.4,3-2.81,3.46c-1,1.15-3.31,1.22-2.73-.94s2.83-6.29,3.31-7.7S114.61,28.61,114.61,28.61Z"/><path class="cls-3" d="M128.11,4.58a2,2,0,0,1-.83,2.34c-1.19.66-1.56.66-1.8,1.48a3.82,3.82,0,0,1-.71,1.56c-.41.58-.71.88-.87.88h-.15c-.17,0-.32-.3-.73-.88a4,4,0,0,1-.7-1.56c-.25-.82-.62-.82-1.81-1.48s-.83-2.09-.83-2.46h2.92a3,3,0,0,1,1,1.26,7.71,7.71,0,0,1,.2,1.5H124a7.71,7.71,0,0,1,.2-1.5,3,3,0,0,1,1-1.26C125.31,4.41,128,4.31,128.11,4.58Z"/><path class="cls-2" d="M128.11,4.58a2,2,0,0,1-.83,2.34c-1.19.66-1.56.66-1.8,1.48a3.82,3.82,0,0,1-.71,1.56c-.41.58-.71.88-.87.88h-.15c-.17,0-.32-.3-.73-.88a4,4,0,0,1-.7-1.56c-.25-.82-.62-.82-1.81-1.48s-.83-2.09-.83-2.46h2.92a3,3,0,0,1,1,1.26,7.71,7.71,0,0,1,.2,1.5H124a7.71,7.71,0,0,1,.2-1.5,3,3,0,0,1,1-1.26C125.31,4.41,128,4.31,128.11,4.58Z"/><path class="cls-3" d="M137.36,4.58a2,2,0,0,1-.83,2.34c-1.19.66-1.56.66-1.81,1.48A3.69,3.69,0,0,1,134,10c-.41.58-.71.88-.88.88H133c-.17,0-.32-.3-.73-.88a3.82,3.82,0,0,1-.7-1.56c-.25-.82-.62-.82-1.81-1.48s-.83-2.09-.83-2.46h2.92a3,3,0,0,1,1,1.26,7.71,7.71,0,0,1,.2,1.5h.17a7.71,7.71,0,0,1,.2-1.5,2.91,2.91,0,0,1,1-1.26C134.55,4.41,137.29,4.31,137.36,4.58Z"/><path class="cls-2" d="M137.36,4.58a2,2,0,0,1-.83,2.34c-1.19.66-1.56.66-1.81,1.48A3.69,3.69,0,0,1,134,10c-.41.58-.71.88-.88.88H133c-.17,0-.32-.3-.73-.88a3.82,3.82,0,0,1-.7-1.56c-.25-.82-.62-.82-1.81-1.48s-.83-2.09-.83-2.46h2.92a3,3,0,0,1,1,1.26,7.71,7.71,0,0,1,.2,1.5h.17a7.71,7.71,0,0,1,.2-1.5,2.91,2.91,0,0,1,1-1.26C134.55,4.41,137.29,4.31,137.36,4.58Z"/><path class="cls-3" d="M118.86,4.58A2,2,0,0,1,118,6.92c-1.19.66-1.55.66-1.8,1.48a4,4,0,0,1-.7,1.56c-.42.58-.72.88-.88.88h-.15c-.16,0-.31-.3-.73-.88a4,4,0,0,1-.7-1.56c-.25-.82-.61-.82-1.81-1.48s-.82-2.09-.82-2.46h2.91a2.91,2.91,0,0,1,1,1.26,7.71,7.71,0,0,1,.2,1.5h.17a7.16,7.16,0,0,1,.21-1.5,2.91,2.91,0,0,1,1-1.26C116.06,4.41,118.79,4.31,118.86,4.58Z"/><path class="cls-2" d="M118.86,4.58A2,2,0,0,1,118,6.92c-1.19.66-1.55.66-1.8,1.48a4,4,0,0,1-.7,1.56c-.42.58-.72.88-.88.88h-.15c-.16,0-.31-.3-.73-.88a4,4,0,0,1-.7-1.56c-.25-.82-.61-.82-1.81-1.48s-.82-2.09-.82-2.46h2.91a2.91,2.91,0,0,1,1,1.26,7.71,7.71,0,0,1,.2,1.5h.17a7.16,7.16,0,0,1,.21-1.5,2.91,2.91,0,0,1,1-1.26C116.06,4.41,118.79,4.31,118.86,4.58Z"/><path class="cls-3" d="M99.88,4.48a2,2,0,0,1-.82,2.34c-1.2.66-1.56.66-1.81,1.48a4,4,0,0,1-.7,1.56c-.42.58-.72.88-.88.88h-.15c-.16,0-.31-.3-.73-.88a4,4,0,0,1-.7-1.56c-.25-.82-.61-.82-1.8-1.48s-.83-2.09-.83-2.46h2.91a2.91,2.91,0,0,1,1,1.26,7.71,7.71,0,0,1,.2,1.5h.18a6.4,6.4,0,0,1,.2-1.5,2.84,2.84,0,0,1,1-1.26C97.08,4.31,99.81,4.21,99.88,4.48Z"/><path class="cls-2" d="M99.88,4.48a2,2,0,0,1-.82,2.34c-1.2.66-1.56.66-1.81,1.48a4,4,0,0,1-.7,1.56c-.42.58-.72.88-.88.88h-.15c-.16,0-.31-.3-.73-.88a4,4,0,0,1-.7-1.56c-.25-.82-.61-.82-1.8-1.48s-.83-2.09-.83-2.46h2.91a2.91,2.91,0,0,1,1,1.26,7.71,7.71,0,0,1,.2,1.5h.18a6.4,6.4,0,0,1,.2-1.5,2.84,2.84,0,0,1,1-1.26C97.08,4.31,99.81,4.21,99.88,4.48Z"/><path class="cls-3" d="M109.13,4.48a2,2,0,0,1-.83,2.34c-1.19.66-1.55.66-1.8,1.48a4,4,0,0,1-.7,1.56c-.42.58-.72.88-.88.88h-.15c-.16,0-.31-.3-.73-.88a4,4,0,0,1-.7-1.56c-.25-.82-.61-.82-1.81-1.48s-.82-2.09-.82-2.46h2.91a2.91,2.91,0,0,1,1,1.26,7.71,7.71,0,0,1,.2,1.5H105a7.16,7.16,0,0,1,.21-1.5,2.84,2.84,0,0,1,1-1.26C106.33,4.31,109.06,4.21,109.13,4.48Z"/><path class="cls-2" d="M109.13,4.48a2,2,0,0,1-.83,2.34c-1.19.66-1.55.66-1.8,1.48a4,4,0,0,1-.7,1.56c-.42.58-.72.88-.88.88h-.15c-.16,0-.31-.3-.73-.88a4,4,0,0,1-.7-1.56c-.25-.82-.61-.82-1.81-1.48s-.82-2.09-.82-2.46h2.91a2.91,2.91,0,0,1,1,1.26,7.71,7.71,0,0,1,.2,1.5H105a7.16,7.16,0,0,1,.21-1.5,2.84,2.84,0,0,1,1-1.26C106.33,4.31,109.06,4.21,109.13,4.48Z"/><path class="cls-14" d="M117.33,27.68a2,2,0,0,0,1.83.4A9.89,9.89,0,0,0,123,26.19a31.58,31.58,0,0,1,2.81-1.84.59.59,0,0,0,.23-.55c0-.38,0-.52.31-.52s.42,0,.52-.34-.07-.27.48-.34.79,0,.79.1-.58.27.1.38,1.13-.1,1.13.2a.65.65,0,0,0,.24.59c.21.2.58.41.27.54s.59.31,1.1-.06.34-.52.93-.45.72.24.85-.07.45-.31.73-.31a2.73,2.73,0,0,0,.58,0c.13,0,.31-.41.44-.41s2.85,0,1.82.24"/><path class="cls-14" d="M118.64,33.22a2.4,2.4,0,0,0,2-.41,26.15,26.15,0,0,0,3.3-3.35,22.07,22.07,0,0,1,3.88-4.41"/><path class="cls-14" d="M119.58,38.79a4.31,4.31,0,0,0,2.52-1.25,26.43,26.43,0,0,0,2.8-3.78A20,20,0,0,1,129,28.49"/><path class="cls-2" d="M128.61,4.42v6.26s-.17.14.26,0a3,3,0,0,0,1.51-1.51,5.19,5.19,0,0,0,.21-1.81s-.67-.33-1-.57a1.55,1.55,0,0,1-.65-1.23C129,4.25,128.61,4.42,128.61,4.42Z"/><path class="cls-3" d="M128.61,4.42v6.26s-.17.14.26,0a3,3,0,0,0,1.51-1.51,5.19,5.19,0,0,0,.21-1.81s-.67-.33-1-.57a1.55,1.55,0,0,1-.65-1.23C129,4.25,128.61,4.42,128.61,4.42Z"/><path class="cls-2" d="M128.61,4.42v6.26s-.17.14.26,0a3,3,0,0,0,1.51-1.51,5.19,5.19,0,0,0,.21-1.81s-.67-.33-1-.57a1.55,1.55,0,0,1-.65-1.23C129,4.25,128.61,4.42,128.61,4.42Z"/><path class="cls-3" d="M128.4,4.42v6.26s.18.14-.25,0a3,3,0,0,1-1.51-1.51,5.05,5.05,0,0,1-.22-1.81s.68-.33,1-.57a1.54,1.54,0,0,0,.64-1.23C128,4.25,128.4,4.42,128.4,4.42Z"/><path class="cls-2" d="M128.4,4.42v6.26s.18.14-.25,0a3,3,0,0,1-1.51-1.51,5.05,5.05,0,0,1-.22-1.81s.68-.33,1-.57a1.54,1.54,0,0,0,.64-1.23C128,4.25,128.4,4.42,128.4,4.42Z"/><path class="cls-3" d="M119.41,4.42v6.26s-.18.14.25,0a3,3,0,0,0,1.51-1.51,5.05,5.05,0,0,0,.22-1.81s-.68-.33-1-.57a1.54,1.54,0,0,1-.64-1.23C119.77,4.25,119.41,4.42,119.41,4.42Z"/><path class="cls-2" d="M119.41,4.42v6.26s-.18.14.25,0a3,3,0,0,0,1.51-1.51,5.05,5.05,0,0,0,.22-1.81s-.68-.33-1-.57a1.54,1.54,0,0,1-.64-1.23C119.77,4.25,119.41,4.42,119.41,4.42Z"/><path class="cls-3" d="M119.2,4.42v6.26s.17.14-.26,0a3,3,0,0,1-1.51-1.51,5.19,5.19,0,0,1-.21-1.81s.67-.33,1-.57a1.55,1.55,0,0,0,.65-1.23C118.84,4.25,119.2,4.42,119.2,4.42Z"/><path class="cls-2" d="M119.2,4.42v6.26s.17.14-.26,0a3,3,0,0,1-1.51-1.51,5.19,5.19,0,0,1-.21-1.81s.67-.33,1-.57a1.55,1.55,0,0,0,.65-1.23C118.84,4.25,119.2,4.42,119.2,4.42Z"/><path class="cls-3" d="M109.94,4.42v6.26s-.18.14.25,0a3,3,0,0,0,1.51-1.51,5.05,5.05,0,0,0,.22-1.81s-.68-.33-1-.57a1.54,1.54,0,0,1-.64-1.23C110.3,4.25,109.94,4.42,109.94,4.42Z"/><path class="cls-2" d="M109.94,4.42v6.26s-.18.14.25,0a3,3,0,0,0,1.51-1.51,5.05,5.05,0,0,0,.22-1.81s-.68-.33-1-.57a1.54,1.54,0,0,1-.64-1.23C110.3,4.25,109.94,4.42,109.94,4.42Z"/><path class="cls-3" d="M109.6,4.42v6.26s.18.14-.25,0a3,3,0,0,1-1.51-1.51,5.05,5.05,0,0,1-.22-1.81s.68-.33,1-.57a1.54,1.54,0,0,0,.64-1.23C109.24,4.25,109.6,4.42,109.6,4.42Z"/><path class="cls-2" d="M109.6,4.42v6.26s.18.14-.25,0a3,3,0,0,1-1.51-1.51,5.05,5.05,0,0,1-.22-1.81s.68-.33,1-.57a1.54,1.54,0,0,0,.64-1.23C109.24,4.25,109.6,4.42,109.6,4.42Z"/><path class="cls-3" d="M100.44,4.34V10.6s-.17.14.26,0a3.07,3.07,0,0,0,1.51-1.52,5.13,5.13,0,0,0,.21-1.8s-.67-.33-1-.57a1.58,1.58,0,0,1-.65-1.24C100.8,4.17,100.44,4.34,100.44,4.34Z"/><path class="cls-2" d="M100.44,4.34V10.6s-.17.14.26,0a3.07,3.07,0,0,0,1.51-1.52,5.13,5.13,0,0,0,.21-1.8s-.67-.33-1-.57a1.58,1.58,0,0,1-.65-1.24C100.8,4.17,100.44,4.34,100.44,4.34Z"/><path class="cls-3" d="M100.11,4.34V10.6s.17.14-.26,0a3.07,3.07,0,0,1-1.51-1.52,5.13,5.13,0,0,1-.21-1.8s.67-.33,1-.57a1.55,1.55,0,0,0,.65-1.24C99.75,4.17,100.11,4.34,100.11,4.34Z"/><path class="cls-2" d="M100.11,4.34V10.6s.17.14-.26,0a3.07,3.07,0,0,1-1.51-1.52,5.13,5.13,0,0,1-.21-1.8s.67-.33,1-.57a1.55,1.55,0,0,0,.65-1.24C99.75,4.17,100.11,4.34,100.11,4.34Z"/><path class="cls-3" d="M138.07,4.42v6.26s-.18.14.25,0a3,3,0,0,0,1.51-1.51,5.05,5.05,0,0,0,.22-1.81S139.37,7,139,6.79a1.54,1.54,0,0,1-.64-1.23C138.43,4.25,138.07,4.42,138.07,4.42Z"/><path class="cls-2" d="M138.07,4.42v6.26s-.18.14.25,0a3,3,0,0,0,1.51-1.51,5.05,5.05,0,0,0,.22-1.81S139.37,7,139,6.79a1.54,1.54,0,0,1-.64-1.23C138.43,4.25,138.07,4.42,138.07,4.42Z"/><path class="cls-3" d="M137.73,4.42v6.26s.18.14-.25,0A3,3,0,0,1,136,9.17a5.05,5.05,0,0,1-.22-1.81s.68-.33,1.05-.57a1.54,1.54,0,0,0,.64-1.23C137.37,4.25,137.73,4.42,137.73,4.42Z"/><path class="cls-2" d="M137.73,4.42v6.26s.18.14-.25,0A3,3,0,0,1,136,9.17a5.05,5.05,0,0,1-.22-1.81s.68-.33,1.05-.57a1.54,1.54,0,0,0,.64-1.23C137.37,4.25,137.73,4.42,137.73,4.42Z"/><path class="cls-3" d="M91.05,4.34V10.6s-.18.14.25,0a3,3,0,0,0,1.51-1.52A5,5,0,0,0,93,7.28s-.68-.33-1-.57a1.55,1.55,0,0,1-.64-1.24C91.4,4.17,91.05,4.34,91.05,4.34Z"/><path class="cls-2" d="M91.05,4.34V10.6s-.18.14.25,0a3,3,0,0,0,1.51-1.52A5,5,0,0,0,93,7.28s-.68-.33-1-.57a1.55,1.55,0,0,1-.64-1.24C91.4,4.17,91.05,4.34,91.05,4.34Z"/><path class="cls-3" d="M90.71,4.34V10.6s.18.14-.25,0A3,3,0,0,1,89,9.08a5,5,0,0,1-.22-1.8,11.6,11.6,0,0,0,1-.57,1.53,1.53,0,0,0,.65-1.24C90.35,4.17,90.71,4.34,90.71,4.34Z"/><path class="cls-2" d="M90.71,4.34V10.6s.18.14-.25,0A3,3,0,0,1,89,9.08a5,5,0,0,1-.22-1.8,11.6,11.6,0,0,0,1-.57,1.53,1.53,0,0,0,.65-1.24C90.35,4.17,90.71,4.34,90.71,4.34Z"/><path class="cls-18" d="M151,4.11a2.78,2.78,0,0,1-1.85,2.57c-1.52.48-2,.07-3.18.62-.75.37-1.6.71-1.74,1.28s-.11.46.1.95.35.52.25.91-.64.14-.85-.21-.38-.49-.63-.18-.63,1.2-1.19.53-.43-1.37-.74-2a2.65,2.65,0,0,0-.74-1,4,4,0,0,0-.49-.32"/><path class="cls-3" d="M150,4.36a2.05,2.05,0,0,1-.25,1,2.61,2.61,0,0,1-1.27,1,2.61,2.61,0,0,1-1.26.24c-.49,0,.91-.56,1.12-1.09a4.81,4.81,0,0,0,.29-1.16Z"/><path class="cls-19" d="M150,4.36a2.05,2.05,0,0,1-.25,1,2.61,2.61,0,0,1-1.27,1,2.61,2.61,0,0,1-1.26.24c-.49,0,.91-.56,1.12-1.09a4.81,4.81,0,0,0,.29-1.16Z"/><path class="cls-3" d="M146.7,5.09a1.24,1.24,0,0,1-.76,1.1,16.48,16.48,0,0,0-1.69.67c-.77.42-.69.52-.69,1.19a2.13,2.13,0,0,1-.41,1.19,2.36,2.36,0,0,0-.34-1.11A4,4,0,0,1,142,6.27a9.13,9.13,0,0,1-.34-1.91h5.24A1.74,1.74,0,0,0,146.7,5.09Z"/><path class="cls-19" d="M146.7,5.09a1.24,1.24,0,0,1-.76,1.1,16.48,16.48,0,0,0-1.69.67c-.77.42-.69.52-.69,1.19a2.13,2.13,0,0,1-.41,1.19,2.36,2.36,0,0,0-.34-1.11A4,4,0,0,1,142,6.27a9.13,9.13,0,0,1-.34-1.91h5.24A1.74,1.74,0,0,0,146.7,5.09Z"/><path class="cls-3" d="M96.46,27.41a67.65,67.65,0,0,1-2.37,6.42c-.76,1.44-.9,1.83-1.08,2.11s-.25.7-.39.36c-.27-.62-.8-1.58-.73-.36a8.09,8.09,0,0,1-.32,3.33c-.36.85-.45,1.4-.61,1.72s.22.59.47.11a16.36,16.36,0,0,1,1.33-2.28,10.63,10.63,0,0,1,2-2.22c.55-.3.69-1-.11-.51-1.19.69-1.27.42-.9-.15s1.49-3,1.77-3.59,1.34-3.27,1.51-4a3.32,3.32,0,0,1,.33-.91Z"/><path class="cls-3" d="M112.13,27.52s-1.67,5-2.37,6.37-.85,1.8-1,2.08-.25.68-.33.33c-.13-.66-.31-1.58-.38-.32a10.4,10.4,0,0,1-.68,3.27c-.34.84-.46,1.4-.61,1.71s.1.62.33.15a18.33,18.33,0,0,1,1.2-2.21,9.74,9.74,0,0,1,1.7-2.11c.43-.26.6-.94,0-.54-.95.61-1,.33-.65-.22s1.38-2.92,1.65-3.53,1.3-3.24,1.5-3.93.32-1.05.32-1.05Z"/><path class="cls-1" d="M94.9,25.44c0-.26.45-.47,1-.47h1.9c.56,0,1,.21,1,.47h0c0,.26-.46.47-1,.47h-1.9c-.57,0-1-.21-1-.47Z"/><path class="cls-2" d="M94.9,25.44c0-.26.45-.47,1-.47h1.9c.56,0,1,.21,1,.47h0c0,.26-.46.47-1,.47h-1.9c-.57,0-1-.21-1-.47Z"/><path class="cls-1" d="M110.93,25.39c0-.26.45-.47,1-.47h1.9c.56,0,1,.21,1,.47h0c0,.26-.46.47-1,.47H112c-.57,0-1-.21-1-.47Z"/><path class="cls-2" d="M110.93,25.39c0-.26.45-.47,1-.47h1.9c.56,0,1,.21,1,.47h0c0,.26-.46.47-1,.47H112c-.57,0-1-.21-1-.47Z"/><path class="cls-1" d="M100.31,28.88c-.17.46-.25.59-.38.9-1.81,4.35-4.48,8.69-1.51,10.17,2.7,1.35,6.71-2.69,8.78-6.93a15.49,15.49,0,0,0,1.36-4.14,17.25,17.25,0,0,0,.41-4,1.22,1.22,0,0,0-1.07-.49h-4.69c-.78,0-.83,0-1.07,0s-.51,0-.65.64a14.52,14.52,0,0,1-.43,2C100.85,27.63,100.49,28.43,100.31,28.88Z"/><path class="cls-14" d="M100.31,28.88c-.17.46-.25.59-.38.9-1.81,4.35-4.48,8.69-1.51,10.17,2.7,1.35,6.71-2.69,8.78-6.93a15.49,15.49,0,0,0,1.36-4.14,17.25,17.25,0,0,0,.41-4,1.22,1.22,0,0,0-1.07-.49h-4.69c-.78,0-.83,0-1.07,0s-.51,0-.65.64a14.52,14.52,0,0,1-.43,2C100.85,27.63,100.49,28.43,100.31,28.88Z"/><path class="cls-3" d="M107.11,38c-.27.59-.9,2.4-1,2.86s0,.52-1.37.52-2.13,0-1.18-.52a8.59,8.59,0,0,0,2.57-2C106.93,37.76,107.37,37.36,107.11,38Z"/><path class="cls-1" d="M85.89,14.27l58.58.09c13.5.18,23.63,11.25,24.39,24.54a22.44,22.44,0,0,1-8,18.64c3.58-4.21,6.65-9.48,6.2-17-1-15.66-11.78-23.39-25.28-23.57L81.9,16.69Z"/><path class="cls-2" d="M85.89,14.27l58.58.09c13.5.18,23.63,11.25,24.39,24.54a22.44,22.44,0,0,1-8,18.64c3.58-4.21,6.65-9.48,6.2-17-1-15.66-11.78-23.39-25.28-23.57L81.9,16.69Z"/><path class="cls-1" d="M126.75,41.33a15.24,15.24,0,0,1,14.57-14.49c7.86-.4,15.93,5.11,16.38,13,.37,6.42-4.47,12-9.9,12.86l.27-.34c4.59-1.11,8.86-6.41,8.55-11.91-.41-7.07-7.67-11.8-14.74-11.67-8.39.16-14.58,5.73-15.1,13.12Z"/><path class="cls-2" d="M126.75,41.33a15.24,15.24,0,0,1,14.57-14.49c7.86-.4,15.93,5.11,16.38,13,.37,6.42-4.47,12-9.9,12.86l.27-.34c4.59-1.11,8.86-6.41,8.55-11.91-.41-7.07-7.67-11.8-14.74-11.67-8.39.16-14.58,5.73-15.1,13.12Z"/><path class="cls-1" d="M159.82,44.3a14.45,14.45,0,0,1-1.76,4.08,14.6,14.6,0,0,1-18,5.64,11.86,11.86,0,0,1-7-9.72,11.83,11.83,0,0,0,7,10.62,14.6,14.6,0,0,0,18-5.64A13.71,13.71,0,0,0,159.82,44.3Z"/><path class="cls-2" d="M159.82,44.3a14.45,14.45,0,0,1-1.76,4.08,14.6,14.6,0,0,1-18,5.64,11.86,11.86,0,0,1-7-9.72,11.83,11.83,0,0,0,7,10.62,14.6,14.6,0,0,0,18-5.64A13.71,13.71,0,0,0,159.82,44.3Z"/><path class="cls-1" d="M153.19,42.59a7.26,7.26,0,0,1-1.33,2.82c-2.14,2.86-5.88,4.24-8.65,3.21A6,6,0,0,1,139.34,43l.07,0a6.08,6.08,0,0,0,3.87,5.18,6.77,6.77,0,0,0,8.1-3.61,7.42,7.42,0,0,0,.76-2.21Z"/><path class="cls-2" d="M153.19,42.59a7.26,7.26,0,0,1-1.33,2.82c-2.14,2.86-5.88,4.24-8.65,3.21A6,6,0,0,1,139.34,43l.07,0a6.08,6.08,0,0,0,3.87,5.18,6.77,6.77,0,0,0,8.1-3.61,7.42,7.42,0,0,0,.76-2.21Z"/><path class="cls-1" d="M147.44,43A3.33,3.33,0,0,1,141,41.87c0-.14,0-.29,0-.43l-.14.13a2.84,2.84,0,0,0-.07.66,3.33,3.33,0,0,0,6.31,1.49Z"/><path class="cls-2" d="M147.44,43A3.33,3.33,0,0,1,141,41.87c0-.14,0-.29,0-.43l-.14.13a2.84,2.84,0,0,0-.07.66,3.33,3.33,0,0,0,6.31,1.49Z"/><polygon class="cls-16" points="82.25 4.36 19.76 4.36 19.76 0.72 82.26 0.72 90.31 0.72 153.56 0.72 153.56 4.36 90.3 4.36 82.25 4.36"/><path class="cls-20" d="M20.82,42.57a8.06,8.06,0,0,1,5.23-9.13,10.44,10.44,0,0,1,13.18,5,11.78,11.78,0,0,1-6,15.54,14.61,14.61,0,0,1-18-5.64c-4.72-7.49-1.47-17.24,6.16-21.72C29.7,21.8,43.09,25,47.66,33.86c5.94,11.51,1,23.83-9.54,29.88-12.14,7-31,.36-35.64-13.68C-1.6,37.83.86,22.88,15.62,14.78a31.89,31.89,0,0,1,12.05-3.91l56.74-.29h4.5l56.74.29a31.89,31.89,0,0,1,12,3.91c14.76,8.1,17.22,23,13.14,35.28-4.68,14-23.5,20.67-35.64,13.68-10.51-6.05-15.48-18.37-9.54-29.88,4.57-8.86,18-12.06,26.24-7.2,7.64,4.48,10.88,14.23,6.16,21.72a14.6,14.6,0,0,1-18,5.64,11.78,11.78,0,0,1-6-15.54c2.37-5.06,9-7,13.63-4.91a8.29,8.29,0,0,1,4.94,9"/><path class="cls-20" d="M31.47,39.52a4.1,4.1,0,0,1,1.11,4.83A4.94,4.94,0,0,1,26.82,47a6.22,6.22,0,0,1-4.13-6.84c.52-3.77,4.68-5.81,8.45-5.3,4.61.63,7.11,5.55,6.5,10.16-.73,5.43-6.33,8.33-11.78,7.68S15.24,46.35,15.62,39.8c.46-7.85,8.53-13.36,16.38-13,9.49.48,16.38,9,14.22,19.8a20,20,0,0,1-23,16A22.8,22.8,0,0,1,4.46,38.9c.77-13.29,10.89-24.36,24.39-24.54l55.56-.15h4.5l55.56.15c13.5.18,23.63,11.25,24.39,24.54a22.79,22.79,0,0,1-18.72,23.76,20,20,0,0,1-23-16c-2.16-10.8,4.73-19.32,14.22-19.8,7.86-.4,15.93,5.11,16.38,13,.38,6.55-4.68,12.24-10.24,12.9S136.41,50.45,135.69,45c-.62-4.61,1.89-9.53,6.49-10.16,3.77-.51,7.93,1.53,8.46,5.3A6.24,6.24,0,0,1,146.5,47a5,5,0,0,1-5.76-2.65,4.1,4.1,0,0,1,1.11-4.83"/><polygon class="cls-1" points="84.32 48.39 123.45 48.39 123.95 49.96 84.82 49.97 88.5 49.97 49.38 49.96 49.87 48.39 89 48.39 84.32 48.39"/><polygon class="cls-2" points="84.32 48.39 123.45 48.39 123.95 49.96 84.82 49.97 88.5 49.97 49.38 49.96 49.87 48.39 89 48.39 84.32 48.39"/><polygon class="cls-1" points="85.41 51.81 124.54 51.82 125.29 53.12 86.16 53.12 87.16 53.12 48.03 53.12 48.78 51.82 87.91 51.81 85.41 51.81"/><polygon class="cls-2" points="85.41 51.81 124.54 51.82 125.29 53.12 86.16 53.12 87.16 53.12 48.03 53.12 48.78 51.82 87.91 51.81 85.41 51.81"/><polyline class="cls-20" points="50.23 42.05 89.38 42.05 83.94 42.05 123.09 42.05"/><polyline class="cls-14" points="50.23 43.67 89.38 43.67 83.94 43.67 123.09 43.67"/><polyline class="cls-14" points="50.23 45.29 89.38 45.29 83.94 45.29 123.09 45.29"/><polyline class="cls-14" points="50.23 46.91 89.38 46.91 83.94 46.91 123.09 46.91"/><ellipse class="cls-21" cx="65.96" cy="45.45" rx="8.5" ry="2.67"/><path class="cls-20" d="M21.13,4.47A2.76,2.76,0,0,0,23,7a26.9,26.9,0,0,0,3.38.67,2.28,2.28,0,0,1,1.83,1.48,4,4,0,0,1,.25,1.54H144.89a3.94,3.94,0,0,1,.24-1.54A2.31,2.31,0,0,1,147,7.7,26.9,26.9,0,0,0,150.34,7a2.76,2.76,0,0,0,1.85-2.56C152.19,4.05,21.13,4.05,21.13,4.47Z"/><path class="cls-3" d="M88.55,25.54h2A.59.59,0,0,1,91,26a30.88,30.88,0,0,1-.19,3.62,25.26,25.26,0,0,1-.64,3.73c-.86,3.36-2.38,6.58-3.6,6.49-1.23.09-2.79-3.13-3.64-6.49a22.88,22.88,0,0,1-.64-3.73A26.81,26.81,0,0,1,82.13,26a.57.57,0,0,1,.5-.45h5.92Z"/><path class="cls-2" d="M88.55,25.54h2A.59.59,0,0,1,91,26a30.88,30.88,0,0,1-.19,3.62,25.26,25.26,0,0,1-.64,3.73c-.86,3.36-2.38,6.58-3.6,6.49-1.23.09-2.79-3.13-3.64-6.49a22.88,22.88,0,0,1-.64-3.73A26.81,26.81,0,0,1,82.13,26a.57.57,0,0,1,.5-.45h5.92Z"/><path class="cls-6" d="M27.22,18.46a33,33,0,0,1,4.63-.38L84,17.94h3.14l54.67.15A26.39,26.39,0,0,1,155,21.57"/><path class="cls-7" d="M27.22,18.46a33,33,0,0,1,4.63-.38L84,17.94h3.14l54.67.15A26.39,26.39,0,0,1,155,21.57"/><path class="cls-6" d="M19.93,20.81a22.42,22.42,0,0,1,5.3-1.95"/><path class="cls-7" d="M19.93,20.81a22.42,22.42,0,0,1,5.3-1.95"/><path class="cls-7" d="M154.12,55.1a14.82,14.82,0,0,1-6.94,2"/><path class="cls-7" d="M160.05,49.06c-.24.45-.5.91-.78,1.36a14.62,14.62,0,0,1-2.76,3.22"/><path class="cls-7" d="M162,41.91a17.21,17.21,0,0,1-1.2,5.43"/><path class="cls-6" d="M12,27.13a21.65,21.65,0,0,1,5-4.85"/><path class="cls-7" d="M12,27.13a21.65,21.65,0,0,1,5-4.85"/><path class="cls-6" d="M7.34,40.47A26.3,26.3,0,0,1,11,28.67"/><path class="cls-7" d="M7.34,40.47A26.3,26.3,0,0,1,11,28.67"/><path class="cls-1" d="M85.71,37.75a20.9,20.9,0,0,1-1.14-3.4,25.26,25.26,0,0,1-.64-3.73A30.88,30.88,0,0,1,83.74,27a.59.59,0,0,1,.5-.45h1.84l.87,0s.35.5,0,.85-1.16.56-1.21,1.42a19.94,19.94,0,0,0,.15,5.46c.45,2,.4,2.32.66,3S86.24,39,85.71,37.75Z"/><path class="cls-3" d="M106.43,33.39c1.83-3.76,1.81-7.55-.07-8.47s-4.14.16-6.39,5.59c-1.61,3.87-4,7.72-1.34,9C101,40.74,104.59,37.15,106.43,33.39Z"/><path class="cls-1" d="M105.85,31c.77-1.89.75-3.79,0-4.24s-1.73.08-2.67,2.79c-.67,1.94-1.66,3.87-.56,4.53S105.08,32.92,105.85,31Z"/><path class="cls-6" d="M15,25.93a19.85,19.85,0,0,1,8.59-5.19"/><path class="cls-7" d="M15,25.93a19.85,19.85,0,0,1,8.59-5.19"/><path class="cls-7" d="M41.62,46.4c-.42,4.06-3.47,7.64-7.42,9.67a14.15,14.15,0,0,1-10,1"/><path class="cls-7" d="M39.47,54A16.83,16.83,0,0,1,36,56.82"/><path class="cls-7" d="M42,50.33a12.4,12.4,0,0,1-1,1.74"/><path class="cls-6" d="M146.07,20.09A24.92,24.92,0,0,1,155,23.23"/><path class="cls-17" d="M146.07,20.09A24.92,24.92,0,0,1,155,23.23"/><polyline class="cls-6" points="33.92 19.74 84.02 19.6 87.16 19.59 132.96 19.72"/><polyline class="cls-17" points="33.92 19.74 84.02 19.6 87.16 19.59 132.96 19.72"/><path class="cls-7" d="M133.55,32.52a12.22,12.22,0,0,1,5-2.19"/><path class="cls-7" d="M129.9,49.5a16.21,16.21,0,0,1-1-3.36,13.6,13.6,0,0,1,3-12.12"/><path class="cls-7" d="M132.61,53.82a16.33,16.33,0,0,1-1.19-1.55"/><path class="cls-7" d="M140,30a9.8,9.8,0,0,1,2.1-.07"/><path class="cls-7" d="M131.63,36.58a9.9,9.9,0,0,1,3.23-3.24"/><path class="cls-7" d="M130.64,45.59c0-.2-.09-.41-.14-.62-.08-.41-.14-.81-.18-1.21"/><path class="cls-1" d="M120.08,26.9a2.39,2.39,0,0,0,.32-1A1.51,1.51,0,0,0,119,24.43h5.1s-1.11.8-1.35,1-1.07.67-1.42.88-.55.27-.78.4S120,27,120.08,26.9Z"/><path class="cls-7" d="M157.74,54.53a14.78,14.78,0,0,1-4.07,2.38"/><path class="cls-6" d="M156.15,22.47a27.73,27.73,0,0,1,2.63,2.16"/><path class="cls-17" d="M156.15,22.47a27.73,27.73,0,0,1,2.63,2.16"/><line class="cls-11" x1="122.91" y1="54.47" x2="125.83" y2="54.4"/><line class="cls-11" x1="47.63" y1="54.57" x2="53.12" y2="54.57"/><line class="cls-11" x1="46.54" y1="56.09" x2="50.04" y2="56.09"/><line class="cls-11" x1="124.72" y1="55.91" x2="126.93" y2="55.8"/><path class="cls-1" d="M130.3,61.07a22,22,0,0,1-2-1.55c0,.84.05,1.7.05,2.62l5,645.07h2.11L130.31,62.14c0-.33,0-.71,0-1Z"/><path class="cls-2" d="M130.3,61.07a22,22,0,0,1-2-1.55c0,.84.05,1.7.05,2.62l5,645.07h2.11L130.31,62.14c0-.33,0-.71,0-1Z"/><path class="cls-1" d="M72.14,726.73,72.9,61.35a5.81,5.81,0,0,1,11.59,0l.2,665.38Z"/><path class="cls-2" d="M72.14,726.73,72.9,61.35a5.81,5.81,0,0,1,11.59,0l.2,665.38Z"/><path class="cls-1" d="M59.17,723.25l2-661.89c.11-3,2.27-5.37,4.92-5.37s4.82,2.38,4.91,5.37L69.81,723.25Z"/><path class="cls-2" d="M59.17,723.25l2-661.89c.11-3,2.27-5.37,4.92-5.37s4.82,2.38,4.91,5.37L69.81,723.25Z"/><path class="cls-1" d="M41.78,61.07a22,22,0,0,0,2-1.55c0,.84-.05,1.7-.05,2.62L40,698.72h-2.1L41.77,62.14c0-.33,0-.71,0-1Z"/><path class="cls-2" d="M41.78,61.07a22,22,0,0,0,2-1.55c0,.84-.05,1.7-.05,2.62L40,698.72h-2.1L41.77,62.14c0-.33,0-.71,0-1Z"/><path class="cls-1" d="M48.47,714.5,51.46,62c.09-3,1.83-5.36,3.95-5.36S59.26,59,59.32,62L57,714.5Z"/><path class="cls-2" d="M48.47,714.5,51.46,62c.09-3,1.83-5.36,3.95-5.36S59.26,59,59.32,62L57,714.5Z"/><path class="cls-1" d="M41.55,698.72,45.12,62c.07-3,1.16-5.36,2.48-5.36S50,59,50,62L46.85,698.72Z"/><path class="cls-2" d="M41.55,698.72,45.12,62c.07-3,1.16-5.36,2.48-5.36S50,59,50,62L46.85,698.72Z"/><path class="cls-3" d="M73.38,703.27,74,64.89a4.71,4.71,0,0,1,9.39,0l.12,638.38Z"/><path class="cls-2" d="M73.38,703.27,74,64.89a4.71,4.71,0,0,1,9.39,0l.12,638.38Z"/><path class="cls-3" d="M58.53,75.78,56.23,700H49.35l2.8-624.1a6.25,6.25,0,0,0,2.21.87A7.19,7.19,0,0,0,57,76.66,4.73,4.73,0,0,0,58.53,75.78Z"/><path class="cls-2" d="M58.53,75.78,56.23,700H49.35l2.8-624.1a6.25,6.25,0,0,0,2.21.87A7.19,7.19,0,0,0,57,76.66,4.73,4.73,0,0,0,58.53,75.78Z"/><path class="cls-3" d="M42.28,698.72,45.67,83.16a3.33,3.33,0,0,0,1.58-.06,6.78,6.78,0,0,0,1.6-1.41l.43-1L46.17,698.72Z"/><path class="cls-2" d="M42.28,698.72,45.67,83.16a3.33,3.33,0,0,0,1.58-.06,6.78,6.78,0,0,0,1.6-1.41l.43-1L46.17,698.72Z"/><path class="cls-2" d="M42,85.56c.43-.31.8-.58,1.19-.92,0,.49,0,1,0,1.55l-.45,72H41.59l.44-72c0-.19,0-.42,0-.61"/><path class="cls-1" d="M101.16,724.89l-2-663.54a5.81,5.81,0,0,0-11.59,0l1,663.54Z"/><path class="cls-2" d="M101.16,724.89l-2-663.54a5.81,5.81,0,0,0-11.59,0l1,663.54Z"/><path class="cls-1" d="M114.1,717.8,110.91,61.36c-.11-3-2.28-5.37-4.93-5.37s-4.81,2.38-4.9,5.37l2.39,656.44Z"/><path class="cls-2" d="M114.1,717.8,110.91,61.36c-.11-3-2.28-5.37-4.93-5.37s-4.81,2.38-4.9,5.37l2.39,656.44Z"/><path class="cls-1" d="M124.87,722.61,120.62,62c-.1-3-1.83-5.36-4-5.36S112.82,59,112.76,62l3.6,660.65Z"/><path class="cls-2" d="M124.87,722.61,120.62,62c-.1-3-1.83-5.36-4-5.36S112.82,59,112.76,62l3.6,660.65Z"/><path class="cls-1" d="M131.88,722.61,127,62c-.07-3-1.16-5.36-2.49-5.36S122.08,59,122.05,62l4.52,660.65Z"/><path class="cls-2" d="M131.88,722.61,127,62c-.07-3-1.16-5.36-2.49-5.36S122.08,59,122.05,62l4.52,660.65Z"/><path class="cls-3" d="M113.13,713.93,110.06,64.28a4,4,0,0,0-4-3.74,3.92,3.92,0,0,0-4,3.74l2.44,649.65Z"/><path class="cls-2" d="M113.13,713.93,110.06,64.28a4,4,0,0,0-4-3.74,3.92,3.92,0,0,0-4,3.74l2.44,649.65Z"/><path class="cls-3" d="M99.9,706.51,98.09,64.89a4.71,4.71,0,0,0-9.39,0l1.06,641.62Z"/><path class="cls-2" d="M99.9,706.51,98.09,64.89a4.71,4.71,0,0,0-9.39,0l1.06,641.62Z"/><path class="cls-3" d="M122.88,73.3l4.33,626.07h3.67L126.31,75.68a3.26,3.26,0,0,1-1.5-.06,6.53,6.53,0,0,1-1.52-1.34C123.16,74,122.88,73.3,122.88,73.3Z"/><path class="cls-4" d="M122.88,73.3l4.33,626.07h3.67L126.31,75.68a3.26,3.26,0,0,1-1.5-.06,6.53,6.53,0,0,1-1.52-1.34C123.16,74,122.88,73.3,122.88,73.3Z"/><path class="cls-3" d="M60.15,715.16,62,64.28a4,4,0,0,1,8,0L68.75,715.16Z"/><path class="cls-3" d="M113.54,68.34l3.53,639.76H124l-4-637.62a6.24,6.24,0,0,1-2.22.87c-1.07.12-2.32-1.27-2.65-2.14C114.79,68.52,113.54,68.34,113.54,68.34Z"/><path class="cls-2" d="M113.54,68.34l3.53,639.76H124l-4-637.62a6.24,6.24,0,0,1-2.22.87c-1.07.12-2.32-1.27-2.65-2.14C114.79,68.52,113.54,68.34,113.54,68.34Z"/><path class="cls-3" d="M130,93.59a11.09,11.09,0,0,1-.91-.72c0,.39,0,.78,0,1.21l.45,55.71h.89L130,94.08c0-.15,0-.33,0-.47Z"/><path class="cls-5" d="M130,93.59a11.09,11.09,0,0,1-.91-.72c0,.39,0,.78,0,1.21l.45,55.71h.89L130,94.08c0-.15,0-.33,0-.47Z"/><path class="cls-6" d="M75,702.61,75.46,66.4c.2-3.54,1.35-4.09,3.69-4.25"/><path class="cls-7" d="M75,702.61,75.46,66.4c.2-3.54,1.35-4.09,3.69-4.25"/><line class="cls-8" x1="50.99" y1="699.41" x2="53.63" y2="76.02"/><line class="cls-9" x1="50.99" y1="699.41" x2="53.63" y2="76.02"/><line class="cls-8" x1="52.73" y1="699.44" x2="55.21" y2="76.04"/><line class="cls-9" x1="52.73" y1="699.44" x2="55.21" y2="76.04"/><line class="cls-8" x1="43.73" y1="698.72" x2="46.98" y2="84.86"/><line class="cls-9" x1="43.73" y1="698.72" x2="46.98" y2="84.86"/><path class="cls-7" d="M61.65,705.28,63.37,65.19A3.56,3.56,0,0,1,67,61.81a3.28,3.28,0,0,1,.52,0"/><path class="cls-10" d="M63.32,702,64.87,66.2a3.29,3.29,0,0,1,.71-1.91"/><path class="cls-6" d="M91.41,706.12l-1-639.5c.06-3.58,1.72-4.21,3.69-4.25"/><path class="cls-7" d="M91.41,706.12l-1-639.5c.06-3.58,1.72-4.21,3.69-4.25"/><path class="cls-7" d="M103.69,64.08C104.06,62.33,105.5,62,107,62a4.67,4.67,0,0,1,.52,0"/><path class="cls-7" d="M103.41,65.49v-.17a3.41,3.41,0,0,1,.29-1.24"/><line class="cls-11" x1="105.78" y1="704.21" x2="103.41" y2="66.97"/><path class="cls-10" d="M107.43,700.92,104.92,66.34a3.21,3.21,0,0,1,.7-1.91"/><line class="cls-8" x1="118.45" y1="707.45" x2="114.9" y2="68.25"/><line class="cls-12" x1="118.45" y1="707.45" x2="114.9" y2="68.25"/><line class="cls-8" x1="128.65" y1="707.68" x2="124.15" y2="68.44"/><line class="cls-12" x1="128.65" y1="707.68" x2="124.15" y2="68.44"/><path class="cls-6" d="M76.66,703.82,77,67.4a6.52,6.52,0,0,1,.49-2.91"/><path class="cls-7" d="M76.66,703.82,77,67.4a6.52,6.52,0,0,1,.49-2.91"/><line class="cls-8" x1="124.18" y1="72.96" x2="124.14" y2="66.44"/><line class="cls-13" x1="124.18" y1="72.96" x2="124.14" y2="66.44"/><polygon class="cls-3" points="31.53 674.64 141.82 674.64 141.84 677.76 31.5 677.76 31.53 674.64"/><polygon class="cls-22" points="31.53 674.64 141.82 674.64 141.84 677.76 31.5 677.76 31.53 674.64"/><polygon class="cls-3" points="25.65 684.76 146.59 684.76 146.62 687.88 25.62 687.88 25.65 684.76"/><polygon class="cls-22" points="25.65 684.76 146.59 684.76 146.62 687.88 25.62 687.88 25.65 684.76"/><path class="cls-3" d="M20.46,693.61c0-3.16,3.14-5.72,6.94-5.72H145.94c3.81,0,6.92,2.56,6.94,5.72h0c0,3.16-3,5.73-6.84,5.73H27.31c-3.81,0-6.87-2.57-6.85-5.73Z"/><path class="cls-22" d="M20.46,693.61c0-3.16,3.14-5.72,6.94-5.72H145.94c3.81,0,6.92,2.56,6.94,5.72h0c0,3.16-3,5.73-6.84,5.73H27.31c-3.81,0-6.87-2.57-6.85-5.73Z"/><path class="cls-21" d="M144.82,684.76c-3.17-.14-5.61-1.51-5.63-3.47a4.1,4.1,0,0,1,2.65-3.52l-110.24,0a4,4,0,0,1,2.58,3.5c0,2-2.33,3.27-5.49,3.42Z"/><path class="cls-23" d="M144.82,684.76c-3.17-.14-5.61-1.51-5.63-3.47a4.1,4.1,0,0,1,2.65-3.52l-110.24,0a4,4,0,0,1,2.58,3.5c0,2-2.33,3.27-5.49,3.42Z"/><path class="cls-24" d="M143.59,695.64H29.07a7.88,7.88,0,0,1-3.77-.93"/><polygon class="cls-3" points="19.71 699.35 153.61 699.35 153.77 728.42 19.55 728.42 19.71 699.35"/><polygon class="cls-22" points="19.71 699.35 153.61 699.35 153.77 728.42 19.55 728.42 19.71 699.35"/></g></g></svg>