<svg xmlns="http://www.w3.org/2000/svg" viewBox="0 0 595.28 804.2"><defs><style>.cls-1,.cls-4{fill:#ffffff00;}.cls-2,.cls-26{fill:#231f20;}.cls-11,.cls-15,.cls-17,.cls-18,.cls-19,.cls-2,.cls-20,.cls-22,.cls-27,.cls-28,.cls-29,.cls-3,.cls-30,.cls-32,.cls-33,.cls-35,.cls-36,.cls-4,.cls-5,.cls-6,.cls-7,.cls-8{fill-rule:evenodd;}.cls-10,.cls-11,.cls-12,.cls-13,.cls-14,.cls-15,.cls-16,.cls-17,.cls-18,.cls-19,.cls-20,.cls-21,.cls-22,.cls-23,.cls-24,.cls-25,.cls-27,.cls-28,.cls-3,.cls-30,.cls-31,.cls-32,.cls-33,.cls-34,.cls-35,.cls-36,.cls-37,.cls-5,.cls-6,.cls-7,.cls-8,.cls-9{fill:none;}.cls-10,.cls-11,.cls-12,.cls-13,.cls-15,.cls-16,.cls-17,.cls-18,.cls-19,.cls-20,.cls-21,.cls-22,.cls-23,.cls-24,.cls-25,.cls-27,.cls-28,.cls-3,.cls-30,.cls-31,.cls-32,.cls-33,.cls-34,.cls-35,.cls-36,.cls-37,.cls-5,.cls-6,.cls-8{stroke:#231f20;}.cls-10,.cls-11,.cls-12,.cls-13,.cls-14,.cls-15,.cls-16,.cls-17,.cls-18,.cls-19,.cls-20,.cls-21,.cls-22,.cls-23,.cls-24,.cls-25,.cls-27,.cls-28,.cls-3,.cls-30,.cls-31,.cls-32,.cls-33,.cls-34,.cls-35,.cls-36,.cls-37,.cls-5,.cls-6,.cls-8{stroke-miterlimit:3.86;}.cls-3{stroke-width:0.36px;}.cls-5{stroke-width:0.34px;}.cls-6{stroke-width:0.28px;}.cls-11,.cls-12,.cls-14,.cls-17,.cls-24,.cls-25,.cls-27,.cls-32,.cls-33,.cls-34,.cls-8{stroke-linecap:round;}.cls-10,.cls-12,.cls-8{stroke-width:0.71px;}.cls-11{stroke-width:0.67px;}.cls-13,.cls-14{stroke-width:0.74px;}.cls-14{stroke:#fff;}.cls-15,.cls-16,.cls-17{stroke-width:1.53px;}.cls-18,.cls-21,.cls-33,.cls-34{stroke-width:0.79px;}.cls-19{stroke-width:0.01px;}.cls-20,.cls-23,.cls-24,.cls-27{stroke-width:1.58px;}.cls-22,.cls-25,.cls-31,.cls-32{stroke-width:1.19px;}.cls-28{stroke-width:1.12px;}.cls-30{stroke-width:0.67px;}.cls-35{stroke-width:0.94px;}.cls-36,.cls-37{stroke-width:0.79px;}</style></defs><g id="Layer_2" data-name="Layer 2"><g id="Vordergrund"><polygon class="cls-1" points="0 0 595.27 0 595.27 804.2 0 804.2 0 0 0 0"/><path class="cls-2" d="M532.47,146.09a22.61,22.61,0,0,1-2-1.44c0,.78.06,9.68.06,10.54l5,599h2.11l-5.16-598.95c0-.31,0-8.77,0-9.06Z"/><path class="cls-3" d="M532.47,146.09a22.61,22.61,0,0,1-2-1.44c0,.78.06,9.68.06,10.54l5,599h2.11l-5.16-598.95c0-.31,0-8.77,0-9.06Z"/><path class="cls-2" d="M474.31,772.26l.76-617.81a5.54,5.54,0,0,1,5.79-5c3.13,0,5.68,2.21,5.8,5l.2,617.81Z"/><path class="cls-3" d="M474.31,772.26l.76-617.81a5.54,5.54,0,0,1,5.79-5c3.13,0,5.68,2.21,5.8,5l.2,617.81Z"/><path class="cls-2" d="M461.34,769l2-614.57a4.92,4.92,0,1,1,9.83,0L472,769Z"/><path class="cls-3" d="M461.34,769l2-614.57a4.92,4.92,0,1,1,9.83,0L472,769Z"/><path class="cls-2" d="M444,145.19a21.07,21.07,0,0,0,2-1.44c0,.78-.05,1.58-.05,2.44l-3.77,600.07H440l3.92-600.07c0-.31,0-.67,0-1Z"/><path class="cls-3" d="M444,145.19a21.07,21.07,0,0,0,2-1.44c0,.78-.05,1.58-.05,2.44l-3.77,600.07H440l3.92-600.07c0-.31,0-.67,0-1Z"/><path class="cls-2" d="M450.64,760.91l3-605.89c.09-2.77,1.83-5,3.95-5s3.84,2.21,3.91,5l-2.35,605.89Z"/><path class="cls-3" d="M450.64,760.91l3-605.89c.09-2.77,1.83-5,3.95-5s3.84,2.21,3.91,5l-2.35,605.89Z"/><path class="cls-2" d="M443.72,746.26,447.29,155c.07-2.77,1.16-5,2.48-5s2.4,2.21,2.43,5L449,746.26Z"/><path class="cls-3" d="M443.72,746.26,447.29,155c.07-2.77,1.16-5,2.48-5s2.4,2.21,2.43,5L449,746.26Z"/><path class="cls-4" d="M475.54,750.48l.63-592.74a4.75,4.75,0,0,1,9.39,0l.12,592.74Z"/><path class="cls-3" d="M475.54,750.48l.63-592.74a4.75,4.75,0,0,1,9.39,0l.12,592.74Z"/><path class="cls-4" d="M460.69,167.85l-2.3,579.61h-6.87L454.31,168a6.66,6.66,0,0,0,2.22.8,7.44,7.44,0,0,0,2.65-.12A4.63,4.63,0,0,0,460.69,167.85Z"/><path class="cls-3" d="M460.69,167.85l-2.3,579.61h-6.87L454.31,168a6.66,6.66,0,0,0,2.22.8,7.44,7.44,0,0,0,2.65-.12A4.63,4.63,0,0,0,460.69,167.85Z"/><path class="cls-4" d="M444.45,746.25l3.39-571.55a3.57,3.57,0,0,0,1.57-.06,6.36,6.36,0,0,0,1.6-1.3c.14-.3.43-1,.43-1l-3.1,573.88Z"/><path class="cls-3" d="M444.45,746.25l3.39-571.55a3.57,3.57,0,0,0,1.57-.06,6.36,6.36,0,0,0,1.6-1.3c.14-.3.43-1,.43-1l-3.1,573.88Z"/><path class="cls-3" d="M444.2,176.93a13.24,13.24,0,0,0,1.18-.86c0,.46,0,.94,0,1.45l-.44,66.86h-1.15l.44-66.86c0-.18,0-.4,0-.57"/><path class="cls-2" d="M503.33,770.56l-2-616.11c-.12-2.76-2.67-5-5.8-5s-5.68,2.21-5.79,5l1,616.11Z"/><path class="cls-3" d="M503.33,770.56l-2-616.11c-.12-2.76-2.67-5-5.8-5s-5.68,2.21-5.79,5l1,616.11Z"/><path class="cls-2" d="M516.27,764l-3.19-609.51a4.92,4.92,0,1,0-9.83,0L505.64,764Z"/><path class="cls-3" d="M516.27,764l-3.19-609.51a4.92,4.92,0,1,0-9.83,0L505.64,764Z"/><path class="cls-2" d="M527,768.43,522.79,155c-.1-2.77-1.84-5-4-5s-3.84,2.21-3.9,5l3.6,613.41Z"/><path class="cls-3" d="M527,768.43,522.79,155c-.1-2.77-1.84-5-4-5s-3.84,2.21-3.9,5l3.6,613.41Z"/><path class="cls-2" d="M534.05,768.43,529.13,155c-.07-2.77-1.17-5-2.49-5s-2.4,2.21-2.42,5l4.51,613.41Z"/><path class="cls-3" d="M534.05,768.43,529.13,155c-.07-2.77-1.17-5-2.49-5s-2.4,2.21-2.42,5l4.51,613.41Z"/><path class="cls-4" d="M515.3,760.37l-3.08-603.2a4,4,0,0,0-8,0l2.43,603.2Z"/><path class="cls-3" d="M515.3,760.37l-3.08-603.2a4,4,0,0,0-8,0l2.43,603.2Z"/><path class="cls-4" d="M502.06,753.49l-1.8-595.75a4.75,4.75,0,0,0-9.39,0l1.06,595.75Z"/><path class="cls-3" d="M502.06,753.49l-1.8-595.75a4.75,4.75,0,0,0-9.39,0l1.06,595.75Z"/><path class="cls-4" d="M525.05,165.55l4.33,581.31h3.67l-4.58-579.11a3.33,3.33,0,0,1-1.49-.05,6.29,6.29,0,0,1-1.52-1.24Z"/><path class="cls-5" d="M525.05,165.55l4.33,581.31h3.67l-4.58-579.11a3.33,3.33,0,0,1-1.49-.05,6.29,6.29,0,0,1-1.52-1.24Z"/><path class="cls-4" d="M462.32,761.52l1.88-604.35a4,4,0,0,1,8,0l-1.24,604.35Z"/><path class="cls-4" d="M515.71,160.94l3.53,594h6.88l-4-592a6.66,6.66,0,0,1-2.22.8c-1.07.12-2.32-1.17-2.65-2C517,161.11,515.71,160.94,515.71,160.94Z"/><path class="cls-3" d="M515.71,160.94l3.53,594h6.88l-4-592a6.66,6.66,0,0,1-2.22.8c-1.07.12-2.32-1.17-2.65-2C517,161.11,515.71,160.94,515.71,160.94Z"/><path class="cls-4" d="M532.19,184.38c-.33-.22-.62-.42-.92-.66,0,.36,0,.72,0,1.12l.45,51.73h.89l-.44-51.73c0-.14,0-.3,0-.44Z"/><path class="cls-6" d="M532.19,184.38c-.33-.22-.62-.42-.92-.66,0,.36,0,.72,0,1.12l.45,51.73h.89l-.44-51.73c0-.14,0-.3,0-.44Z"/><path class="cls-7" d="M477.16,749.86l.47-590.72c.2-3.29,1.34-3.8,3.69-3.95"/><path class="cls-8" d="M477.16,749.86l.47-590.72c.2-3.29,1.34-3.8,3.69-3.95"/><line class="cls-9" x1="453.16" y1="746.9" x2="455.8" y2="168.07"/><line class="cls-10" x1="453.16" y1="746.9" x2="455.8" y2="168.07"/><line class="cls-9" x1="454.89" y1="746.92" x2="457.38" y2="168.09"/><line class="cls-10" x1="454.89" y1="746.92" x2="457.38" y2="168.09"/><line class="cls-9" x1="445.9" y1="746.25" x2="449.15" y2="176.28"/><line class="cls-10" x1="445.9" y1="746.25" x2="449.15" y2="176.28"/><path class="cls-8" d="M463.82,752.34,465.54,158a3.45,3.45,0,0,1,3.59-3.13,5,5,0,0,1,.53,0"/><path class="cls-11" d="M465.49,749.29,467,159a3,3,0,0,1,.71-1.78"/><path class="cls-7" d="M493.58,753.12l-1.05-593.78c.06-3.32,1.71-3.9,3.68-3.94"/><path class="cls-8" d="M493.58,753.12l-1.05-593.78c.06-3.32,1.71-3.9,3.68-3.94"/><path class="cls-8" d="M505.85,157c.38-1.62,1.81-2,3.3-2a4.67,4.67,0,0,1,.52,0"/><path class="cls-8" d="M505.57,158.3v-.16a3.24,3.24,0,0,1,.28-1.16"/><line class="cls-12" x1="507.95" y1="751.35" x2="505.58" y2="159.66"/><path class="cls-11" d="M509.6,748.3l-2.52-589.22a3,3,0,0,1,.7-1.77"/><line class="cls-9" x1="520.62" y1="754.36" x2="517.07" y2="160.86"/><line class="cls-13" x1="520.62" y1="754.36" x2="517.07" y2="160.86"/><line class="cls-9" x1="530.82" y1="754.58" x2="526.32" y2="161.03"/><line class="cls-13" x1="530.82" y1="754.58" x2="526.32" y2="161.03"/><path class="cls-7" d="M478.82,751l.32-590.93a5.63,5.63,0,0,1,.49-2.69"/><path class="cls-8" d="M478.82,751l.32-590.93a5.63,5.63,0,0,1,.49-2.69"/><line class="cls-9" x1="526.35" y1="165.23" x2="526.3" y2="159.17"/><line class="cls-14" x1="526.35" y1="165.23" x2="526.3" y2="159.17"/><polygon class="cls-4" points="433.69 723.89 543.99 723.89 544.01 726.79 433.67 726.79 433.69 723.89"/><polygon class="cls-15" points="433.69 723.89 543.99 723.89 544.01 726.79 433.67 726.79 433.69 723.89"/><polygon class="cls-4" points="427.82 733.29 548.76 733.29 548.79 736.19 427.79 736.19 427.82 733.29"/><polygon class="cls-15" points="427.82 733.29 548.76 733.29 548.79 736.19 427.79 736.19 427.82 733.29"/><path class="cls-4" d="M422.63,741.51c0-2.94,3.14-5.32,6.94-5.32H548.11c3.81,0,6.91,2.38,6.94,5.32h0c0,2.93-3,5.32-6.84,5.32H429.48c-3.81,0-6.88-2.39-6.85-5.32Z"/><path class="cls-15" d="M422.63,741.51c0-2.94,3.14-5.32,6.94-5.32H548.11c3.81,0,6.91,2.38,6.94,5.32h0c0,2.93-3,5.32-6.84,5.32H429.48c-3.81,0-6.88-2.39-6.85-5.32Z"/><path class="cls-1" d="M547,733.29c-3.16-.13-5.6-1.4-5.62-3.22A3.84,3.84,0,0,1,544,726.8l-110.23,0a3.75,3.75,0,0,1,2.58,3.25c0,1.81-2.33,3-5.49,3.17Z"/><path class="cls-16" d="M547,733.29c-3.16-.13-5.6-1.4-5.62-3.22A3.84,3.84,0,0,1,544,726.8l-110.23,0a3.75,3.75,0,0,1,2.58,3.25c0,1.81-2.33,3-5.49,3.17Z"/><path class="cls-17" d="M545.76,743.4H431.24a8.31,8.31,0,0,1-3.77-.87"/><polygon class="cls-4" points="421.88 746.84 555.78 746.84 555.94 773.83 421.72 773.83 421.88 746.84"/><polygon class="cls-15" points="421.88 746.84 555.78 746.84 555.94 773.83 421.72 773.83 421.88 746.84"/><path class="cls-2" d="M426.22,38.34l0-5.75.05-.15-2.77-.06,0-2.51h-.11c-3.23-.3-5.68-2.59-5.65-5.36a1.16,1.16,0,0,1,.06-.42h-7.25a1.16,1.16,0,0,0-.06.42c0,2.77,2.41,5.06,5.65,5.36h.11l0,2.51,2.77.06-.05.15L419,38.34Z"/><path class="cls-18" d="M426.22,38.34l0-5.75.05-.15-2.77-.06,0-2.51h-.11c-3.23-.3-5.68-2.59-5.65-5.36a1.16,1.16,0,0,1,.06-.42h-7.25a1.16,1.16,0,0,0-.06.42c0,2.77,2.41,5.06,5.65,5.36h.11l0,2.51,2.77.06-.05.15L419,38.34Z"/><polygon class="cls-19" points="446.42 145.03 446.57 145.03 446.57 145.46 446.42 145.46 446.42 145.03"/><path class="cls-20" d="M564.87,24.08a2.77,2.77,0,0,1,0,.42c0,3-2.82,5.4-6.37,5.4H416.93c-3.55,0-6.4-2.42-6.37-5.4a1.16,1.16,0,0,1,.06-.42Z"/><polygon class="cls-20" points="419.01 32.55 556.45 32.55 556.51 38.34 418.95 38.34 419.01 32.55"/><polyline class="cls-18" points="416.3 32.44 416.32 29.86 559.14 29.86 559.17 32.44 419.06 32.44"/><path class="cls-20" d="M549.25,38.34l-.06-5.75-.05-.15,2.77-.06,0-2.51H552c3.24-.3,5.68-2.59,5.65-5.36a1.16,1.16,0,0,0-.06-.42h-.14"/><polygon class="cls-2" points="423.34 29.81 559.09 29.81 559.12 32.39 423.49 32.39 423.34 29.81"/><polygon class="cls-18" points="423.34 29.81 559.09 29.81 559.12 32.39 423.49 32.39 423.34 29.81"/><path class="cls-18" d="M438.47,49.31A1.09,1.09,0,0,1,438,50a1.48,1.48,0,0,1-1.81-.13c-1-.62-.74-1.9-.13-2.84.85-1.31,2.71-1.22,4.06-.42,1.73,1,1.74,3.32.67,5-1.29,2.06-4.18,2.2-6.3,1-2.5-1.46-2.74-4.74-1.21-7.17a5.7,5.7,0,0,1,5.48-2.48,7.54,7.54,0,0,1,3.05,1c3.27,1.9,3.76,6.15,1.77,9.33a7.23,7.23,0,0,1-6.39,3.27"/><path class="cls-21" d="M463.89,63.08a68,68,0,0,0-3.68-6.38c-6.68-10.25-14.55-13.33-21.41-13.77"/><path class="cls-21" d="M458.58,59.09l-.42-.69c-4.41-7-9.43-10.77-14.33-12.62"/><path class="cls-18" d="M438.47,49.31A1.09,1.09,0,0,1,438,50a1.48,1.48,0,0,1-1.81-.13c-1-.62-.74-1.9-.13-2.84.85-1.31,2.71-1.22,4.06-.42,1.73,1,1.74,3.32.67,5-1.29,2.06-4.18,2.2-6.3,1-2.5-1.46-2.74-4.74-1.21-7.17a5.7,5.7,0,0,1,5.48-2.48,7.54,7.54,0,0,1,3.05,1c3.27,1.9,3.76,6.15,1.77,9.33-2.22,3.56-7.12,4.18-10.78,2.05-4-2.35-4.56-7.46-2.31-11.5,1.9-3.39,6.43-4.41,11.09-4,6.68.83,15,5.4,21.41,13.76a59.57,59.57,0,0,1,6.46,10.12"/><path class="cls-18" d="M438.47,49.31A1.09,1.09,0,0,1,438,50a1.48,1.48,0,0,1-1.81-.13c-1-.62-.74-1.9-.13-2.84.85-1.31,2.71-1.22,4.06-.42,1.73,1,1.74,3.32.67,5-1.29,2.06-4.18,2.2-6.3,1-2.5-1.46-2.74-4.74-1.21-7.17a5.7,5.7,0,0,1,5.48-2.48,7.54,7.54,0,0,1,3.05,1c3.27,1.9,3.76,6.15,1.77,9.33a7.23,7.23,0,0,1-6.39,3.27"/><path class="cls-22" d="M438,39.78c-3.25.29-6.08,1.5-7.48,4-2.25,4-1.73,9.15,2.31,11.5a9,9,0,0,0,4.39,1.22H426.81a9,9,0,0,1-4.51-1.23c-4-2.35-4.55-7.46-2.29-11.5a4.46,4.46,0,0,1,.61-.9"/><path class="cls-21" d="M467.23,65.27a68.29,68.29,0,0,0-4.74-8.57c-6.69-10.25-14.55-13.33-21.42-13.77L438,42.86"/><path class="cls-18" d="M428.7,56.5a9,9,0,0,1-4.12-1.22c-4-2.35-4.55-7.46-2.29-11.5l.13-.22"/><path class="cls-18" d="M431,56.5a9.06,9.06,0,0,1-4.13-1.22A7.06,7.06,0,0,1,423.52,51h2.84a7.11,7.11,0,0,0,3.34,4.33,9.06,9.06,0,0,0,4.13,1.22Z"/><path class="cls-18" d="M423.26,49.46a9,9,0,0,1,.07-2.07h2.84a9.61,9.61,0,0,0-.07,2.07Z"/><path class="cls-18" d="M423.58,46.17a10.66,10.66,0,0,1,1-2.39,6.93,6.93,0,0,1,.73-1h2.84a6.93,6.93,0,0,0-.73,1,11.14,11.14,0,0,0-1,2.39Z"/><path class="cls-23" d="M479.36,59.06v.25a4.21,4.21,0,0,0,.71,3.46"/><path class="cls-20" d="M474,75.3a10.74,10.74,0,0,0,.4-3.6c-.27-4.47-3.73-8-4.82-8s-4.57,3.54-4.86,8a11.61,11.61,0,0,0,.34,3.6"/><path class="cls-20" d="M442.37,54.79a26,26,0,0,1,6.74.3c5.58,1,12.21,4.73,17.66,11.16"/><path class="cls-20" d="M473.79,79.35a8.63,8.63,0,0,1-4,.94,7.83,7.83,0,0,1-7.44-4.74c-3-8.14-8.25-14-13.35-16.64a15.09,15.09,0,0,0-3.91-1.37,1.26,1.26,0,0,0-1.1.27c-.95,1-1.66,3.7-2,4.26s-1,1.19-1.49,1.19h-7.8c-.77,0-2.29-1.16-2-4.1.11-1.19.16-2,.22-2.65"/><path class="cls-20" d="M472.94,67.06a21.21,21.21,0,0,1,1.55-6.22c1.45-4,5.81-4.75,8.53-4.69A4.64,4.64,0,0,1,487.4,60c.21,1.94-2,3.54-4.53,3.54a5,5,0,0,1-2.95-.86l-.42.56a5.41,5.41,0,0,0-1.28,2.3c-.52,1.33-.51,7.91-.51,7.91v.15"/><path class="cls-2" d="M435.2,56.57l0,.22c-.11.82,0,1.58.33,1.68s.62-.49.74-1.31a2.35,2.35,0,0,0,0-.59Z"/><path class="cls-20" d="M431.72,62.7h-7c-.72,0-2.17-1.11-1.91-3.9.15-1.62.19-2.6.28-3.13"/><path class="cls-2" d="M426.89,56.38l-.05.2c-.17.78,0,1.5.34,1.61s.78-.43.95-1.21a1.52,1.52,0,0,0,0-.56Z"/><path class="cls-20" d="M441,63.26a23.86,23.86,0,0,1,4.12,8l-5.28.57a16.42,16.42,0,0,0-6.29-8.59Z"/><path class="cls-23" d="M442.51,80.28c.26.51.5,1,.72,1.58a54,54,0,0,1,4.1,23.76"/><path class="cls-23" d="M430.41,73.2c-1.81,0-3.26.84-3.27,1.87a1.76,1.76,0,0,0,1.08,1.41,2,2,0,0,1,1.29,1.86,2.58,2.58,0,0,1-2.82,2.2c-3.32,0-6-2.14-6-4.74s2.61-4.56,6.07-4.74a16.64,16.64,0,0,1,10.37,3"/><path class="cls-23" d="M427.31,74.84a16.81,16.81,0,0,1,11.34,10.87,52.64,52.64,0,0,1,3.24,19"/><path class="cls-23" d="M476.53,105.8c2.68.16,6,2.55,7.59,10.24a78.43,78.43,0,0,1,1.4,18.78c-.07,1.3.47,2.84-4.53,2.84s-7.27,0-8-2.15-.32-16.06-.79-18.26a19.79,19.79,0,0,0-1.66-4.87c-.39-.68-.62-1.06-.62-1.06"/><path class="cls-23" d="M478.14,106.18a16.45,16.45,0,0,0-6.45-1.42c-8.86-.45-11.39,1.63-12.88,5.08a2.25,2.25,0,0,0-.23.87c0,1.68,3,3,6.06,3s4.37-1,5.5-2.86c1.23-2,3.59-4.63,5-5a4.74,4.74,0,0,1,1.43-.13"/><path class="cls-24" d="M471.83,104.75c-4,.24-5.92,1.32-7.13,3"/><path class="cls-23" d="M447.47,105.58c2.44.83,5.36,2.77,6.75,10.46a93.07,93.07,0,0,1,1.18,18.78c0,2.14-.86,2.88-4.1,2.84-6.74-.07-8.33.19-8.42-2-.09-2.44.15-16.24-.26-18.44a25.44,25.44,0,0,0-1.17-4.8,1.35,1.35,0,0,1-.14-.45"/><path class="cls-23" d="M448.88,106.16a13.53,13.53,0,0,0-5.81-1.4c-8-.45-9.7,1.63-11.06,5.08a2.64,2.64,0,0,0-.21.87c0,1.68,2.14,3,4.88,3s4.51-.79,5-2.86,1.66-4.59,4.84-4.07"/><path class="cls-24" d="M443.2,104.75c-3.62.24-5.34,1.32-6.45,3"/><path class="cls-23" d="M446.6,137.52c-.07-3.44,0-21.57-.23-23.68-.31-2.85-.7-4.46-2.69-6.39"/><path class="cls-23" d="M447.75,137.52c-.07-3.44,0-21.57-.23-23.68-.31-2.85-.7-4.46-2.69-6.39"/><path class="cls-23" d="M468.59,104.72s.13.61-.37-10.87-10.25-20-13.33-21a20,20,0,0,0-6.4-1.4c-8.82-.45-11.35,1.26-12.27,5a3.78,3.78,0,0,0-.23.86c0,1.66,2.43,3,5.45,3s5.18-.69,5.48-2.83c.48-3.54.82-5,6.26-3.2"/><path class="cls-24" d="M448.62,71.46c-4,.23-5.89,1.31-7.1,3"/><path class="cls-21" d="M471.41,64.63a92.86,92.86,0,0,1,.92-9.5c.92-7.24,3.77-10.08,5.67-8.85"/><path class="cls-21" d="M472.77,66.26a72.83,72.83,0,0,1,1.15-10.43c.76-4.39,1.49-6.5,2.66-7.69"/><path class="cls-18" d="M477.17,44.18a2.53,2.53,0,0,0-1.18.15c-3.28,1.49-4.36,3.82-5.48,8.64-.64,2.74-.78,7.85-.87,10.6"/><path class="cls-18" d="M477.8,48.84a6.92,6.92,0,0,0-.09,3.11c.07.45.27,1.5.81.7s.57-3.12.33-4.78c-.09-.59-.5-1.76-1-1.62a1.38,1.38,0,0,0-.75.66c-.8,1.24-.93,4-.46,6.07.33,1.47.93,2.22,1.56,2.24"/><path class="cls-18" d="M481,55.05a2,2,0,0,0,1.53-.77c1.12-1.57,1.31-4.62.25-7.56-.71-2-1.75-2.33-2.44-2.39L477,44.18a3.42,3.42,0,0,1,3.16,2.59c.91,2.83.43,6.2-.62,7.72a1.8,1.8,0,0,1-1.39.73Z"/><path class="cls-20" d="M502.78,104.82c.08-6.77.09-13.25-.09-17.92-.56-15.19-8.47-15.42-15-15.42s-14.49.16-15.06,15.42c-.17,4.66-.16,11.12-.08,17.88"/><path class="cls-21" d="M488.55,137.62c.52-5.56.87-16,.87-27.88,0-17.62-.79-31.84-1.74-31.84S486,92.12,486,109.74c0,11.9.34,22.32.83,27.88"/><path class="cls-20" d="M468.38,113.13a6.82,6.82,0,0,1,1.41,4.73c0,2.28.06,12.43.11,14.16a14,14,0,0,1-.41,4.52c-.36.7-.94,1.06-5,1.18s-5.56-1.48-5.91-2.3-1.54-4.21-.21-6.85a34.44,34.44,0,0,0,3-10.17,26.75,26.75,0,0,0-.28-5.14s2.07.4,2.41.44a10.46,10.46,0,0,0,3.46-.25c.82-.27,1-.39,1.08-.39A1,1,0,0,1,468.38,113.13Z"/><line class="cls-25" x1="523.08" y1="43.63" x2="451.86" y2="43.66"/><path class="cls-18" d="M438.73,39.73c-11.49.06-16.22,3.9-16.22,3.9a2.87,2.87,0,0,1-3-2.61,3,3,0,0,1,3.25-2.62H552.6A3,3,0,0,1,555.85,41c0,1.44-1.77,3.41-3.2,2.61-6.16-3.46-14.76-3.77-14.76-3.77"/><path class="cls-18" d="M537.09,49.31a1.12,1.12,0,0,0,.42.68,1.5,1.5,0,0,0,1.82-.13c.95-.62.74-1.9.12-2.84-.84-1.31-2.7-1.22-4.05-.42-1.73,1-1.74,3.32-.67,5,1.29,2.06,4.18,2.2,6.3,1,2.5-1.46,2.74-4.74,1.21-7.17a5.7,5.7,0,0,0-5.48-2.48,7.49,7.49,0,0,0-3,1c-3.27,1.9-3.76,6.15-1.77,9.33a7.23,7.23,0,0,0,6.39,3.27"/><path class="cls-18" d="M537.09,49.31a1.12,1.12,0,0,0,.42.68,1.5,1.5,0,0,0,1.82-.13c.95-.62.74-1.9.12-2.84-.84-1.31-2.7-1.22-4.05-.42-1.73,1-1.74,3.32-.67,5,1.29,2.06,4.18,2.2,6.3,1,2.5-1.46,2.74-4.74,1.21-7.17a5.7,5.7,0,0,0-5.48-2.48,7.49,7.49,0,0,0-3,1c-3.27,1.9-3.76,6.15-1.77,9.33,2.22,3.56,7.13,4.18,10.78,2.05,4-2.35,4.56-7.46,2.3-11.5-1.89-3.39-6.42-4.41-11.08-4-6.68.83-15,5.4-21.41,13.76a60.2,60.2,0,0,0-6.46,10.12"/><path class="cls-18" d="M537.09,49.31a1.12,1.12,0,0,0,.42.68,1.5,1.5,0,0,0,1.82-.13c.95-.62.74-1.9.12-2.84-.84-1.31-2.7-1.22-4.05-.42-1.73,1-1.74,3.32-.67,5,1.29,2.06,4.18,2.2,6.3,1,2.5-1.46,2.74-4.74,1.21-7.17a5.7,5.7,0,0,0-5.48-2.48,7.49,7.49,0,0,0-3,1c-3.27,1.9-3.76,6.15-1.77,9.33a7.23,7.23,0,0,0,6.39,3.27"/><path class="cls-22" d="M536.1,39.71c3.85,0,7.32,1.21,8.92,4.07,2.26,4,1.74,9.15-2.3,11.5a9,9,0,0,1-4.39,1.22h10.42a9,9,0,0,0,4.51-1.23c4-2.35,4.54-7.46,2.28-11.5-.15-.26-.35-.51-.49-.75"/><path class="cls-18" d="M546.86,56.5A9,9,0,0,0,551,55.28c4-2.35,4.55-7.46,2.29-11.5l-.11-.18"/><path class="cls-18" d="M544.58,56.5a9.06,9.06,0,0,0,4.13-1.22A7.06,7.06,0,0,0,552,51h-2.85a7.06,7.06,0,0,1-3.33,4.33,9.06,9.06,0,0,1-4.13,1.22Z"/><path class="cls-18" d="M552.3,49.46a9,9,0,0,0-.07-2.07h-2.84a9,9,0,0,1,.06,2.07Z"/><path class="cls-18" d="M552,46.17a11.68,11.68,0,0,0-1-2.39,6.93,6.93,0,0,0-.73-1h-2.84a6.87,6.87,0,0,1,.72,1,11.19,11.19,0,0,1,1,2.39Z"/><path class="cls-23" d="M496.2,59.06v.25a4.17,4.17,0,0,1-.71,3.46"/><path class="cls-20" d="M501.45,75.3a10.74,10.74,0,0,1-.4-3.6c.26-4.47,3.72-8,4.82-8s4.57,3.54,4.86,8a11.61,11.61,0,0,1-.34,3.6"/><path class="cls-20" d="M533.19,54.79a26,26,0,0,0-6.74.3c-5.58,1-12.21,4.73-17.66,11.16"/><path class="cls-20" d="M501.22,79a8.59,8.59,0,0,0,4.51,1.25,7.83,7.83,0,0,0,7.45-4.74c3-8.14,8.25-14,13.34-16.64a15.09,15.09,0,0,1,3.91-1.37,1.26,1.26,0,0,1,1.1.27c1,1,1.66,3.7,2,4.26s1,1.19,1.49,1.19h7.81c.76,0,2.28-1.16,2-4.1-.11-1.19-.16-2-.22-2.65"/><path class="cls-20" d="M502.62,67.06a20.88,20.88,0,0,0-1.55-6.22c-1.45-4-5.81-4.75-8.53-4.69A4.64,4.64,0,0,0,488.16,60c-.21,1.94,2,3.54,4.53,3.54a5.09,5.09,0,0,0,3-.86l.42.56a5.63,5.63,0,0,1,1.28,2.3c.51,1.33.5,7.91.5,7.91l0,.31"/><path class="cls-2" d="M540,56.57l0,.22c.11.82,0,1.58-.33,1.68s-.63-.49-.74-1.31a2,2,0,0,1,0-.59Z"/><path class="cls-20" d="M543.84,62.7h7c.73,0,2.17-1.11,1.91-3.9-.24-2.59-.2-3.53-.51-3.65"/><path class="cls-2" d="M548.43,56.38l.05.2c.13.78,0,1.5-.28,1.61s-.63-.43-.77-1.21a1.77,1.77,0,0,1,0-.56Z"/><path class="cls-20" d="M534.57,63.26a23.13,23.13,0,0,0-4.12,7.88l5.28.71A16.48,16.48,0,0,1,542,63.26Z"/><path class="cls-23" d="M545.15,73.2c1.82,0,3.27.84,3.28,1.87a1.78,1.78,0,0,1-1.08,1.41,2,2,0,0,0-1.29,1.86,2.57,2.57,0,0,0,2.81,2.2c3.33,0,6-2.14,6-4.74s-2.61-4.56-6.07-4.74a16.76,16.76,0,0,0-10.55,3.15"/><path class="cls-23" d="M548.25,74.84a16.81,16.81,0,0,0-11.33,10.87,52.64,52.64,0,0,0-3.24,19"/><path class="cls-23" d="M499.05,105.8c-2.69.16-6,2.55-7.59,10.24a78.43,78.43,0,0,0-1.4,18.78c.08,1.3-.47,2.84,4.53,2.84s7.28,0,8-2.15.32-16.06.78-18.26a19.69,19.69,0,0,1,1.67-4.87c.38-.68.61-1.06.61-1.06"/><path class="cls-23" d="M497.44,106.18a16.4,16.4,0,0,1,6.44-1.42c8.86-.45,11.4,1.63,12.88,5.08a2.46,2.46,0,0,1,.24.87c0,1.68-3,3-6.06,3s-4.38-1-5.5-2.86c-1.23-2-3.6-4.63-5-5a4.8,4.8,0,0,0-1.43-.13"/><path class="cls-24" d="M503.74,104.75c4,.24,5.92,1.32,7.14,3"/><path class="cls-23" d="M528.1,105.58c-2.44.83-5.36,2.77-6.74,10.46a93.07,93.07,0,0,0-1.18,18.78c0,2.14.86,2.88,4.1,2.84,6.74-.07,8.33.19,8.42-2,.09-2.44-.15-16.24.26-18.44a25.66,25.66,0,0,1,1.16-4.8,1.39,1.39,0,0,0,.15-.45"/><path class="cls-23" d="M526.7,106.16a13.52,13.52,0,0,1,5.8-1.4c8-.45,9.7,1.63,11.06,5.08a2.41,2.41,0,0,1,.21.87c0,1.68-2.13,3-4.87,3s-4.52-.79-5-2.86-1.65-4.59-4.84-4.07"/><path class="cls-24" d="M532.38,104.75c3.61.24,5.34,1.32,6.44,3"/><path class="cls-23" d="M529,137.52c.07-3.44,0-21.57.22-23.68.32-2.85.7-4.46,2.7-6.39"/><path class="cls-23" d="M527.83,137.52c.07-3.44,0-21.57.22-23.68.32-2.85.7-4.46,2.7-6.39"/><path class="cls-23" d="M533.07,80.34c-2.38-.16-4.16-.93-4.42-2.8-.49-3.54-.83-5-6.27-3.2"/><path class="cls-23" d="M507,104.72s-.13.61.36-10.87,10.24-20,13.32-21a20.06,20.06,0,0,1,6.41-1.4c8.82-.45,11.34,1.26,12.26,5a4.4,4.4,0,0,1,.24.86c0,1.66-2.43,3-5.45,3-.36,0-.72,0-1.06,0"/><path class="cls-24" d="M526.94,71.46c4,.23,5.89,1.31,7.11,3"/><path class="cls-21" d="M504.15,64.63a92.86,92.86,0,0,0-.92-9.5c-.92-7.24-3.77-10.08-5.67-8.85"/><path class="cls-21" d="M502.8,66.26a74.29,74.29,0,0,0-1.16-10.43c-.76-4.39-1.49-6.5-2.66-7.69"/><path class="cls-18" d="M498.38,44.18a2.5,2.5,0,0,1,1.18.15c3.29,1.49,4.37,3.82,5.49,8.64a68.89,68.89,0,0,1,.94,10.6"/><path class="cls-18" d="M497.76,48.84a6.92,6.92,0,0,1,.09,3.11c-.07.45-.27,1.5-.81.7s-.58-3.12-.33-4.78c.09-.59.49-1.76,1-1.62a1.38,1.38,0,0,1,.75.66c.8,1.24.92,4,.46,6.07-.33,1.47-.93,2.22-1.56,2.24"/><path class="cls-18" d="M494.61,55.05a2,2,0,0,1-1.53-.77c-1.12-1.57-1.31-4.62-.25-7.56.71-2,1.74-2.33,2.44-2.39l3.26-.15a3.44,3.44,0,0,0-3.16,2.59c-.9,2.83-.42,6.2.63,7.72a1.8,1.8,0,0,0,1.39.73Z"/><path class="cls-26" d="M487,137.62c-.52-5.56-.87-16-.87-27.88,0-17.62.86-31.2,1.81-31.2s1.65,13.58,1.66,31.2c0,11.9-.34,22.32-.83,27.88Z"/><path class="cls-20" d="M507.2,113.13a6.87,6.87,0,0,0-1.42,4.73c0,2.28,0,12.43-.1,14.16a14,14,0,0,0,.41,4.52c.36.7.94,1.06,5,1.18s5.56-1.48,5.91-2.3,1.54-4.21.21-6.85a34.15,34.15,0,0,1-3-10.17,27.2,27.2,0,0,1,.27-5.14s-2.06.4-2.4.44a10.42,10.42,0,0,1-3.46-.25c-.83-.27-1-.39-1.08-.39A.87.87,0,0,0,507.2,113.13Z"/><path class="cls-27" d="M481.11,74.8A2.57,2.57,0,0,1,481.9,76c.24.93.24,2.52,5.05,2.45,6-.08,6.74-1.52,7.34-2.69a7.24,7.24,0,0,1,.56-.94"/><path class="cls-2" d="M485.43,57.69a15.66,15.66,0,0,0,1.88-5.87h.83a14.77,14.77,0,0,0,1.8,5.87Z"/><path class="cls-2" d="M485.43,43.8a15.61,15.61,0,0,1,1.88,5.86h.83a14.88,14.88,0,0,1,1.79-5.86Z"/><path class="cls-28" d="M435,140.6a3.12,3.12,0,0,1,3.29-2.89h98.74a3.12,3.12,0,0,1,3.29,2.89h0a3.07,3.07,0,0,1-3.25,2.89H438.28A3.07,3.07,0,0,1,435,140.6Z"/><polygon class="cls-29" points="438.5 143.49 536.88 143.49 536.9 146.16 438.48 146.16 438.5 143.49"/><polygon class="cls-30" points="438.5 143.49 536.88 143.49 536.9 146.16 438.48 146.16 438.5 143.49"/><path class="cls-20" d="M502.12,81.43c0-.63.73-1.14,1.62-1.14H508c.9,0,1.62.51,1.63,1.14h0c0,.63-.73,1.14-1.62,1.14h-4.29c-.9,0-1.62-.51-1.63-1.14Z"/><path class="cls-20" d="M465.67,81.43c0-.63.73-1.14,1.62-1.14h4.29c.9,0,1.62.51,1.62,1.14h0c0,.63-.73,1.14-1.62,1.14h-4.29c-.9,0-1.62-.51-1.62-1.14Z"/><line class="cls-25" x1="487.74" y1="64.17" x2="487.79" y2="69.2"/><line class="cls-23" x1="532.92" y1="60.39" x2="529.65" y2="71.31"/><line class="cls-23" x1="442.74" y1="60.39" x2="446.02" y2="71.31"/><line class="cls-31" x1="472.26" y1="47.41" x2="457.23" y2="47.41"/><line class="cls-31" x1="487.14" y1="50.6" x2="484.36" y2="50.63"/><line class="cls-31" x1="491.16" y1="50.65" x2="488.46" y2="50.65"/><line class="cls-25" x1="517.98" y1="47.41" x2="503.43" y2="47.41"/><line class="cls-31" x1="470.89" y1="51.2" x2="461.17" y2="51.2"/><line class="cls-25" x1="514.24" y1="51.2" x2="504.76" y2="51.2"/><line class="cls-31" x1="470.17" y1="54.87" x2="464.11" y2="54.87"/><line class="cls-25" x1="511.3" y1="54.87" x2="505.6" y2="54.87"/><path class="cls-26" d="M442.37,54.79a25.2,25.2,0,0,1,16,4l-.22-.37c-4.41-7-9.43-10.77-14.33-12.62a7.17,7.17,0,0,1-.21,7.45A5.69,5.69,0,0,1,442.37,54.79Z"/><path class="cls-21" d="M442.37,54.79a25.2,25.2,0,0,1,16,4l-.22-.37c-4.41-7-9.43-10.77-14.33-12.62a7.17,7.17,0,0,1-.21,7.45A5.69,5.69,0,0,1,442.37,54.79Z"/><path class="cls-21" d="M531.43,45.74c-6.46,2.88-9.81,5.57-14.19,12.56l-.42.68-5.31,4a70.26,70.26,0,0,1,3.67-6.39c6.07-9.31,14.62-13.05,19-13.58Z"/><path class="cls-2" d="M520,137.88s.37-32.93.31-43.39c0-8,1.9-14.73,7.3-20.21l-1.52-.54C520,79.46,517.4,86,517.44,94.49c0,10.46-.33,43.39-.33,43.39Z"/><path class="cls-2" d="M455.59,137.88s-.37-32.93-.32-43.39c0-8-1.9-14.73-7.3-20.21l1.51-.54c6.12,5.72,8.69,12.22,8.65,20.75-.05,10.46.34,43.39.34,43.39Z"/><path class="cls-26" d="M533,80.33q-.37.73-.69,1.53a53.83,53.83,0,0,0-4.09,23.76l-1.42.39a53.72,53.72,0,0,1,2.43-23.51,18.12,18.12,0,0,1,1.21-2.91Z"/><path class="cls-25" d="M466.22,104.72s.13.61-.36-10.87c-.29-6.64-3.69-12.31-7.1-16.09"/><path class="cls-32" d="M453.75,109.07c0-5.92-.06-11.33,0-14.58,0-6.55-1.3-12.2-4.64-17"/><path class="cls-20" d="M450.56,59.8c-.51-.33-1-.62-1.52-.89a15.09,15.09,0,0,0-3.91-1.37,1.26,1.26,0,0,0-1.1.27c-.95,1-1.66,3.7-2,4.26s-1,1.19-1.49,1.19h-7.8c-.77,0-2.29-1.16-2-4.1.11-1.19.16-2,.22-2.65"/><path class="cls-32" d="M457.71,71.09a30.3,30.3,0,0,0-10.59-11"/><path class="cls-33" d="M454.57,71.09a30.22,30.22,0,0,0-10.59-11"/><path class="cls-33" d="M451.39,109.07c0-5.92-.06-11.33-.05-14.58,0-6.55-1.29-12.2-4.63-17"/><path class="cls-34" d="M463.85,104.72s.13.61-.36-10.87c-.28-6.64-3.68-12.31-7.09-16.09"/><path class="cls-21" d="M440.16,80.28c.25.51.49,1,.71,1.58A54,54,0,0,1,445,105.62"/><path class="cls-34" d="M450.87,112.57a29.69,29.69,0,0,1,.83,3.47,90,90,0,0,1,1.2,17.79"/><path class="cls-18" d="M467.33,116.35c0,.46.09,1,.09,1.51,0,2.28.05,12.43.1,14.16,0,.77,0,1.65,0,2.44"/><path class="cls-24" d="M478.77,109.79A20.91,20.91,0,0,1,481,116,79.54,79.54,0,0,1,482.43,133"/><path class="cls-9" d="M483.8,113.81c0-1.33,0-2.69,0-4.07,0-12.54.35-23.36,1-28.55"/><path class="cls-25" d="M483.8,113.81c0-1.33,0-2.69,0-4.07,0-12.54.35-23.36,1-28.55"/><path class="cls-33" d="M479.06,76.62a2.62,2.62,0,0,1,.79,1.18c.19.73.23,1.85,2.51,2.28"/><path class="cls-34" d="M475.61,109.79A20.91,20.91,0,0,1,477.8,116,79.37,79.37,0,0,1,479.26,133"/><path class="cls-33" d="M464.09,66.37a10.79,10.79,0,0,0-1.23,4.27l0,.34"/><path class="cls-35" d="M492.92,58.1a2.75,2.75,0,0,0-1.85,2.16,1.35,1.35,0,0,0,.05.53"/><path class="cls-24" d="M499.75,132c.21-4.93.09-13.1.43-14.74a19.69,19.69,0,0,1,1.67-4.87c.38-.68.62-1.06.62-1.06"/><path class="cls-33" d="M521.49,77c-4,4.94-5.66,10.54-5.63,17.5,0,3.14,0,8.28-.05,14"/><path class="cls-33" d="M512.44,70.26a30.43,30.43,0,0,1,10-11.85"/><path class="cls-18" d="M506,65.86a10.87,10.87,0,0,1,1.86,9.44"/><path class="cls-9" d="M481.42,109.31c0-10.78.29-20.24.76-25.88"/><path class="cls-25" d="M481.42,109.31c0-10.78.29-20.24.76-25.88"/><path class="cls-9" d="M479.06,106.63c.06-9.66.32-18,.76-23.2"/><path class="cls-25" d="M479.06,106.63c.06-9.66.32-18,.76-23.2"/><path class="cls-33" d="M500.41,104.82c.09-6.77.1-13.25-.08-17.92s-1-7.82-2.27-10.08"/><path class="cls-33" d="M498,104.82c.1-6.77.1-13.25-.07-17.92a25,25,0,0,0-1.64-8.79"/><path class="cls-33" d="M495.68,104.82c.09-6.77.1-13.25-.07-17.92a28.75,28.75,0,0,0-1-7"/><path class="cls-33" d="M519.13,77c-4,4.94-5.66,10.54-5.63,17.5,0,2.65,0,6.72,0,11.33"/><path class="cls-36" d="M512.39,85.17a31.28,31.28,0,0,0-1.25,9.32c0,2.38,0,5.9,0,9.94"/><path class="cls-34" d="M497.37,132c.21-4.93.09-13.1.44-14.74a19.69,19.69,0,0,1,1.67-4.87c.39-.68.62-1.06.62-1.06"/><path class="cls-37" d="M524.3,104.07a52.83,52.83,0,0,1,2.6-21.57,8.66,8.66,0,0,1,.48-1.32"/><path class="cls-21" d="M536.19,82.22a18.07,18.07,0,0,0-1.63,3.49,52.64,52.64,0,0,0-3.24,19"/><path class="cls-34" d="M529.23,48.7A23.77,23.77,0,0,0,522,54.33"/><path class="cls-21" d="M525.48,134.22c0-6.4,0-18.67.2-20.38a10,10,0,0,1,1.49-5"/><line class="cls-34" x1="430.87" y1="35.39" x2="543.26" y2="35.39"/><path class="cls-26" d="M531.06,43.75a31.37,31.37,0,0,0-15.88,12.84A67.77,67.77,0,0,0,511.53,63l-3.2,2.31a69.58,69.58,0,0,1,4.74-8.57c6.68-10.25,14.55-13.33,21.42-13.77,0,0,2.4-.1,2.66,0S531.06,43.75,531.06,43.75Z"/><path class="cls-21" d="M531.06,43.75a31.37,31.37,0,0,0-15.88,12.84A67.77,67.77,0,0,0,511.53,63l-3.2,2.31a69.58,69.58,0,0,1,4.74-8.57c6.68-10.25,14.55-13.33,21.42-13.77,0,0,2.4-.1,2.66,0S531.06,43.75,531.06,43.75Z"/><path class="cls-18" d="M518.14,71.41a33,33,0,0,1,6-8.37"/><path class="cls-18" d="M515.38,132.09a6.7,6.7,0,0,0-.58-3.52,33.86,33.86,0,0,1-3-10.17,22.27,22.27,0,0,1,.23-4.81"/><line class="cls-24" x1="414.78" y1="27.08" x2="546.26" y2="27.08"/></g></g></svg>