<svg width="347.51" height="74.067" xmlns="http://www.w3.org/2000/svg">

 <metadata>image/svg+xmlOpenclipartSmall Floral Divider2010-05-01T14:09:49What it says. Small. Floral. Divider. Simple, elegant, graceful and useful. Wooo!https://openclipart.org/detail/58351/small-floral-divider-by-j4p4nj4p4nblack and whitedividerfloralsimple</metadata>
 <g>
  <title>background</title>
  <rect fill="#ffacb3" id="canvas_background" height="76.067" width="349.51" y="-1" x="-1"/>
 </g>
 <g>
  <title>Layer 1</title>
  <g id="layer1">
   <path fill="#000000" d="m22.549993,73.400006c-5.76,-0.88 -12.56,-4.15 -16.18,-7.77c-4.31,-4.31 -5.78,-8.13 -5.83,-15.1c-0.03,-5.51 0.39,-7.12 2.77,-10.64c1.56,-2.3 4.79,-5.19 7.25,-6.5c2.44,-1.29 4.44,-2.59 4.44,-2.89c0,-0.29 -1.46,-1.39 -3.25,-2.42c-8.33,-4.85 -11.75,-10.72 -11.75,-20.2c0,-6.37 0.24,-6.44 10.72,-3l7.15,2.34l2.02,-2.02c3.52,-3.52 27.84,-3.27 25.66,0.26c-0.62,0.99 5.86,8.07 7.38,8.07c1.28,0 1.31,-1.26 0.16,-6.22l-0.87,-3.72l8.09,0.1c4.44,0.06 9.55,0.72 11.35,1.48c4.28,1.78 5.01,1.72 5.59,-0.46c0.41,-1.58 1.42,-1.79 7.6,-1.57c3.92,0.15 7.55,0.52 8.07,0.84s1.23,0.13 1.57,-0.43c0.76,-1.23 7.63,-1.29 12.68,-0.12c2.27,0.53 4.05,0.48 4.66,-0.13c1.45,-1.45 7.66,0.87 11.35,4.25l3.12,2.85l5.88,-4.15c5.86,-4.14 5.9,-4.15 15.1,-4.16c7.53,0 9.97,0.39 13.32,2.16c4.43,2.35 9.83,7.91 10.88,11.22c1.06,3.35 2.15,2.45 5.69,-4.69c2.97,-6 3.67,-6.76 6.34,-6.86c1.64,-0.07 4.25,-0.46 5.78,-0.87c1.96,-0.53 3.3,-0.29 4.5,0.79c1.49,1.34 1.96,1.36 3.65,0.12c1.11,-0.81 4.24,-1.43 7.25,-1.43c4.23,0 5.31,0.33 5.31,1.62c0,1.2 0.58,1.45 2.25,0.98c5.69,-1.62 7.67,-1.69 10.36,-0.36c2.02,1.01 3.95,1.2 6.39,0.63c18.15,-4.19 34.33,-4.95 58.77,-2.78c10.78,0.95 12.93,0.88 17.69,-0.62c5.32,-1.67 5.49,-1.66 8.94,0.47c3.15,1.95 3.92,2.05 7.56,0.96c2.92,-0.88 4.69,-0.92 6.38,-0.15c2.73,1.24 10.09,0.12 14.66,-2.25c2.94,-1.51 3.05,-1.49 3.96,0.9c0.52,1.35 0.71,3.72 0.43,5.26c-0.68,3.75 -3.39,9.34 -4.53,9.34c-0.51,0 -1.29,0.99 -1.74,2.21c-0.67,1.8 -0.25,2.58 2.28,4.28c3.85,2.6 4.45,5.23 1.62,7.21l-2.16,1.52l2.07,1.93c2.35,2.2 2.53,3 0.98,4.55c-0.79,0.79 -0.77,1.69 0.06,3.24c0.63,1.19 1.01,3.6 0.84,5.36c-0.27,2.84 -0.62,3.17 -3.06,2.92c-2.03,-0.22 -2.75,0.15 -2.75,1.41c0,3.45 -5.18,10.4 -10.7,14.35c-9.85,7.05 -23.58,9.75 -33.8,6.66c-2.79,-0.85 -5.96,-0.95 -10.5,-0.34c-9.08,1.22 -22.33,0.02 -25.28,-2.3c-1.28,-1.01 -3.96,-2.14 -5.96,-2.51c-3.05,-0.58 -4.23,-0.23 -7.37,2.16c-3.48,2.66 -4.41,2.86 -13.7,3.02c-5.48,0.09 -11.47,0.44 -13.3,0.79c-2.74,0.51 -3.71,0.19 -5.46,-1.82l-2.12,-2.44l-4.45,1.97c-3.57,1.58 -5.58,1.83 -10.15,1.27c-3.14,-0.39 -6.83,-1.47 -8.21,-2.42c-1.37,-0.94 -3.96,-2.21 -5.75,-2.81l-3.26,-1.1l0.64,3.94c0.72,4.56 0.93,4.5 -9.84,2.94c-4.23,-0.61 -7.63,-0.62 -9.19,-0.02c-1.8,0.68 -3.35,0.51 -5.64,-0.64c-2.77,-1.38 -3.09,-1.94 -2.56,-4.57c0.59,-2.94 0.56,-2.97 -1.65,-1.42c-8.23,5.78 -16.45,7.93 -29.66,7.77c-10.18,-0.13 -28.86,-3.7 -33.06,-6.32c-1.19,-0.74 -4.08,-0.43 -10.42,1.13c-18.5,4.55 -44.78,6.83 -57.06,4.95zm38.45,-4.4c3.58,-0.34 7.4,-1 8.5,-1.46c1.1,-0.47 6.28,-1.83 11.5,-3.03c5.23,-1.21 12.88,-3.23 17,-4.51c19.68,-6.09 24.91,-7.47 28.56,-7.54c2.74,-0.05 3.37,-0.29 2.08,-0.8c-2.26,-0.89 32.4,-9.72 45.86,-11.68c11.59,-1.69 27.76,-1.22 32.75,0.95c4.38,1.9 4.86,0.71 1.11,-2.76c-5.5,-5.1 -22.41,-7.27 -32.61,-4.17c-2.66,0.81 -4.75,1.02 -4.75,0.49s0.67,-0.96 1.49,-0.96c2.36,0 14.51,-5.11 14.51,-6.1c0,-0.49 -0.56,-0.91 -1.25,-0.93c-0.69,-0.01 -4.02,-0.19 -7.4,-0.39c-5.77,-0.34 -6.51,-0.12 -11.89,3.53c-3.15,2.14 -6.21,3.89 -6.79,3.89c-0.59,0 0.82,-1.22 3.13,-2.72s4.2,-3.24 4.2,-3.88c0,-1.73 -5.35,0.43 -12.38,5.01c-6.97,4.53 -27.64,14.91 -28.33,14.21c-0.27,-0.26 1.47,-1.38 3.86,-2.49c4.97,-2.31 17.77,-11.88 18.88,-14.13c1.36,-2.75 2.84,-6.47 3.48,-8.75c0.46,-1.64 0.2,-2.25 -0.94,-2.25c-0.86,0 -1.57,0.36 -1.57,0.79c0,1.8 -16.58,19.19 -18.32,19.21c-0.44,0 -2.24,1.08 -4,2.39c-3.35,2.51 -11.68,6.95 -11.68,6.23c0,-0.23 1.96,-1.57 4.35,-2.97c5.95,-3.49 12.94,-11.59 11.5,-13.33c-1.13,-1.36 -3.25,-0.78 -2.37,0.65c0.28,0.45 -0.37,1.88 -1.44,3.18l-1.95,2.35l1.04,-3.89c2.12,-7.91 -1.54,-19.53 -7.61,-24.16c-3.72,-2.84 -4.52,-3.01 -4.52,-0.95c0,1.89 -0.76,1.88 -4.5,-0.08c-1.65,-0.86 -5.21,-1.83 -7.91,-2.15c-4.65,-0.55 -4.88,-0.47 -4.34,1.58c0.67,2.56 0.88,2.52 -3.59,0.65c-1.98,-0.82 -5.86,-1.5 -8.63,-1.5c-4.33,0 -5.03,0.28 -5.03,1.97c0,1.08 1.01,2.5 2.25,3.17c4.57,2.44 -0.2,1.86 -5.87,-0.73c-3.24,-1.47 -7.9,-2.79 -10.38,-2.92c-2.47,-0.14 -5.96,-0.59 -7.75,-1c-2.74,-0.62 -3.25,-0.45 -3.25,1.08c0,1.96 4.02,8.42 5.25,8.43c0.41,0 0.75,0.96 0.75,2.13c0,1.55 -0.33,1.86 -1.25,1.14c-0.69,-0.54 -2.74,-1.27 -4.56,-1.61c-3.34,-0.64 -4.01,-0.33 -8.78,4.05c-3.01,2.75 -7.14,3.66 -18.66,4.11c-2.71,0.1 -4.75,0.66 -4.75,1.3c0,1.1 16.38,0.79 23.54,-0.45c2.49,-0.42 16.23,-4.07 23.71,-6.28c0.96,-0.29 1.75,-0.05 1.75,0.53c0,0.57 -1.24,1.34 -2.75,1.7s-3.32,1.11 -4.02,1.66s-2.27,1.13 -3.5,1.27c-1.23,0.15 -5.15,0.81 -8.73,1.45c-3.57,0.65 -8.97,1.4 -12,1.66c-3.02,0.27 -6.17,0.75 -7,1.07c-2.11,0.83 3.23,2.01 9.75,2.16c5.68,0.12 9.04,2.26 8.44,5.38c-0.18,0.95 0.26,1.78 0.99,1.84c3.47,0.28 7.58,-0.45 10.2,-1.8c2.31,-1.19 3.05,-1.24 3.67,-0.22c0.6,0.96 1.74,0.56 4.62,-1.62c2.11,-1.58 3.98,-3.24 4.16,-3.67c0.19,-0.44 1.02,-0.8 1.86,-0.8c1.07,0 1.3,0.53 0.79,1.75c-0.4,0.97 -0.96,2.77 -1.22,4c-0.44,2.04 -0.11,2.25 3.43,2.25c6.14,0 13.82,-5.53 19.37,-13.94c0.85,-1.29 2.07,-2.17 2.7,-1.95c0.71,0.24 -0.14,2.46 -2.28,5.89c-2.05,3.28 -3.44,6.82 -3.46,8.75c-0.02,3.78 0.76,4.01 4.25,1.25c1.4,-1.1 2.93,-2 3.4,-2s1.41,-0.9 2.1,-2c2.7,-4.32 9.29,-0.91 7.73,4c-1.31,4.14 -18.56,15.27 -25.83,16.66c-1,0.2 -7.53,1.73 -14.5,3.4c-6.97,1.68 -16.27,3.51 -20.67,4.07c-9.75,1.24 -27.38,1.12 -33.5,-0.23c-12.6,-2.79 -18.32,-13.9 -10.63,-20.65c5.79,-5.08 17.17,-5.12 21.36,-0.07c1,1.21 0.84,1.91 -0.85,3.72c-1.14,1.23 -2.67,2.01 -3.39,1.74c-1.22,-0.47 -5.29,2.97 -4.4,3.72c0.23,0.19 2.97,1.54 6.1,2.99c4.59,2.14 6.19,2.46 8.31,1.65c1.44,-0.54 2.34,-1.44 2,-1.99c-0.35,-0.57 0.47,-1.01 1.88,-1.01c3.58,0 4.18,-1.75 1.74,-5.05c-2.45,-3.32 -2.59,-3.95 -0.86,-3.95c0.69,0 3.05,2.69 5.25,5.98c3.82,5.71 7.49,7.9 7.49,4.47c0,-1.41 0.21,-1.41 2.22,0c3.17,2.21 4.36,1.93 4.24,-1c-0.12,-2.69 -1.04,-3.9 -5.96,-7.86c-1.65,-1.33 -2.7,-2.71 -2.35,-3.07c0.67,-0.67 4.26,1.06 6.55,3.15c1.91,1.74 6.99,2.61 8.93,1.52c1.53,-0.85 1.48,-1.02 -0.47,-1.63c-4.47,-1.43 -1.93,-2.15 3.59,-1.03c5.88,1.2 8.25,1 8.25,-0.69c0,-0.53 0.45,-0.68 1,-0.34s1,0.15 1,-0.44c0,-0.58 -0.76,-1.06 -1.68,-1.06c-0.93,0 -2.73,-0.98 -4.01,-2.18c-2.22,-2.08 -2.47,-2.11 -5.69,-0.57c-2.04,0.97 -3.73,1.24 -4.28,0.69c-0.56,-0.56 -2.28,-0.53 -4.37,0.07c-6.65,1.91 -9.46,1.33 -11.04,-2.25c-1.38,-3.13 -1.73,-3.29 -9.93,-4.41c-17.3,-2.38 -25.69,-1.07 -32.14,5.01c-4.91,4.63 -6.41,9.37 -4.89,15.46c1.77,7.09 8.42,12.89 17.53,15.31c3.12,0.82 28.2,0.41 39.5,-0.66zm56.78,-26.93c3.46,-2.87 6.22,-8.24 6.22,-12.09c0,-3.59 -4.54,-6.6 -8.9,-5.91c-2.77,0.45 -3.22,0.33 -1.93,-0.48c0.92,-0.59 2.8,-1.16 4.18,-1.27c1.38,-0.12 2.26,-0.61 1.96,-1.1c-0.9,-1.45 -7.02,-3.69 -10.03,-3.66c-4.02,0.03 -11.09,3.5 -14.72,7.24c-6.31,6.5 -7.86,7.07 -2.68,0.98c2.92,-3.43 5.72,-6.25 6.22,-6.25s0.9,-0.5 0.9,-1.13c0,-0.77 -1.62,-0.92 -5.25,-0.46c-8.48,1.08 -11.8,2.53 -20,8.75c-4.26,3.24 -7.75,5.45 -7.75,4.92s2.48,-2.9 5.51,-5.26c3.05,-2.38 4.95,-4.49 4.25,-4.71c-0.69,-0.22 -1.62,-1.01 -2.06,-1.75c-0.44,-0.75 -1.56,-1.37 -2.5,-1.39c-2.4,-0.05 -7.25,-2.88 -5.01,-2.93c0.93,-0.02 2.01,0.48 2.4,1.11c0.51,0.82 4.29,0.96 13.31,0.49c15.99,-0.83 20.09,-1.49 19.46,-3.15c-0.27,-0.71 -0.01,-1.58 0.57,-1.94c0.59,-0.37 1.07,-0.21 1.07,0.35s1.69,1.32 3.75,1.7c9.24,1.68 17.69,7.88 18.8,13.8c0.87,4.66 -2.95,12.18 -7.55,14.83l-3.5,2.02l3.28,-2.71zm-55.97,-8.22c0.73,-0.29 1.59,-0.25 1.92,0.08s-0.26,0.57 -1.31,0.52c-1.17,-0.04 -1.4,-0.28 -0.61,-0.6zm-3.81,-4.82c0.69,-0.82 1.7,-1.5 2.25,-1.5s0.45,0.67 -0.25,1.5c-0.68,0.83 -1.69,1.5 -2.24,1.5c-0.56,0 -0.45,-0.66 0.24,-1.5zm36,-16.52c-2.22,-0.74 -2.11,-0.81 1.04,-0.71c1.95,0.06 4.08,-0.22 4.74,-0.63c0.8,-0.5 1,-0.23 0.6,0.81c-0.64,1.68 -2.45,1.83 -6.38,0.53zm49.05,54.37c8,-2.97 15.5,-8.76 12.75,-9.85c-1.03,-0.41 -4.3,0.61 -8.28,2.57c-5.74,2.82 -7.88,3.3 -16.64,3.73c-7.32,0.35 -12.33,0 -18.4,-1.27c-7.08,-1.49 -9.14,-1.57 -13.46,-0.53c-2.81,0.67 -4.96,1.67 -4.78,2.22c0.57,1.7 11.27,4.67 22.26,6.19c6.81,0.94 19.81,-0.56 26.55,-3.06zm88.29,2.02c7.69,0.67 12.44,-0.63 7.14,-1.96c-7.27,-1.83 -12.59,-7.63 -12.41,-13.56c0.06,-1.81 0.4,-1.44 1.51,1.59c1.73,4.72 3.74,7.08 7.74,9.07c5.84,2.92 14.81,0.82 16.27,-3.8c0.83,-2.59 0.21,-2.88 -3.41,-1.62c-2.57,0.9 -3.82,0.76 -6.9,-0.75c-5.16,-2.53 -7.04,-6.08 -5.36,-10.13c0.78,-1.88 2.4,-3.47 4.18,-4.09c4.16,-1.45 3.58,-3.12 -1.1,-3.12c-2.2,0 -4,-0.47 -4,-1.04c0,-0.58 -1.1,-2.15 -2.45,-3.5c-2.73,-2.73 -6.55,-3.29 -6.55,-0.96c0,0.83 -0.35,1.5 -0.78,1.5c-1.32,0 -3.98,5.38 -3.66,7.38c0.17,1.04 0.78,2.37 1.37,2.95c1.59,1.59 1.3,2.8 -0.6,2.47c-1.31,-0.23 -1.71,0.61 -1.9,4.02c-0.17,2.96 0.2,4.49 1.16,4.86c0.78,0.29 1.41,1.15 1.41,1.9c0,0.8 -0.62,1.12 -1.51,0.78c-1.08,-0.41 -1.34,-0.12 -0.89,1.03c0.39,1.01 -0.24,2.31 -1.66,3.46c-1.42,1.16 -2.04,2.45 -1.65,3.46c0.52,1.36 1.13,1.44 3.76,0.53c1.88,-0.66 6,-0.85 10.29,-0.47zm-53.83,-0.38c0.34,-0.55 -0.34,-2.23 -1.52,-3.72c-1.24,-1.58 -1.68,-2.87 -1.06,-3.08c1.94,-0.64 1.12,-2.65 -1.92,-4.69c-2.01,-1.34 -2.81,-2.56 -2.44,-3.71c0.4,-1.27 -0.2,-1.9 -2.26,-2.39c-1.55,-0.37 -3.27,-1.03 -3.84,-1.47c-2.28,-1.78 -15.96,-2.07 -23.91,-0.51c-11.35,2.23 -11.85,3.58 -1.31,3.58c4.76,0 11.04,0.51 13.95,1.13c5.91,1.25 13.73,4.88 15.74,7.3c1.87,2.25 0.7,1.95 -3.53,-0.93c-2.03,-1.37 -4.02,-2.5 -4.42,-2.5s-0.99,1.47 -1.32,3.25c-0.32,1.79 -0.9,4.33 -1.29,5.65c-0.68,2.36 -0.6,2.39 4.22,1.76c2.69,-0.35 6.25,-0.23 7.9,0.27c4.12,1.24 6.27,1.26 7.01,0.06zm132.13,-0.3c-7.15,-4.58 -7.89,-6.46 -5.11,-13.11c0.85,-2.01 1.27,-4.09 0.94,-4.62c-0.81,-1.32 -3.82,-1.2 -5.23,0.2c-0.87,0.88 -1.5,0.87 -2.59,-0.03c-1.15,-0.96 -2.02,-0.6 -4.46,1.84c-3.06,3.06 -4.66,3.7 -5.56,2.24c-0.73,-1.19 0.41,-2.43 4.94,-5.36c3.12,-2.02 4.48,-2.4 5.87,-1.62c1.2,0.67 2.01,0.67 2.43,0.01c0.35,-0.55 1.53,-1.17 2.63,-1.38c1.32,-0.25 2.11,-1.31 2.32,-3.11c0.38,-3.29 -0.27,-3.38 -4.71,-0.67c-2.66,1.62 -3.57,1.79 -4.19,0.79c-0.63,-1.01 -1.2,-0.92 -2.69,0.42c-2.29,2.08 -4.37,2.25 -3.62,0.3c0.53,-1.4 7.91,-5.4 14.04,-7.61c1.74,-0.63 4.21,-2.29 5.5,-3.7l2.35,-2.56l-4.71,0.62l-4.72,0.62l1.01,-2.65c1.19,-3.15 0.57,-5.31 -1.55,-5.31c-0.84,0 -1.53,-0.45 -1.53,-1s0.45,-1 1,-1s1,-0.51 1,-1.14c0,-0.78 -1.77,-0.95 -5.75,-0.55c-7.57,0.77 -12.25,2.21 -16.45,5.06l-3.44,2.33l-1.26,-2.85c-0.7,-1.56 -1.76,-2.85 -2.35,-2.85c-1.85,0 -4.75,3.21 -4.75,5.27c0,1.29 -0.49,1.76 -1.44,1.39c-1.1,-0.42 -1.52,0.47 -1.75,3.65l-0.31,4.19l-2.24,-3.5c-1.24,-1.92 -2.25,-3.09 -2.25,-2.59c-0.01,0.5 -0.85,0.14 -1.89,-0.8c-1.79,-1.62 -1.92,-1.57 -2.68,1.1c-1.79,6.23 -0.69,10.24 4.18,15.16c1.29,1.31 2.12,2.74 1.85,3.19c-0.28,0.44 -0.04,1.09 0.52,1.43c2.1,1.31 0.9,2.44 -1.99,1.86c-2.03,-0.4 -3,-0.2 -3,0.64c0,0.68 -0.67,0.97 -1.5,0.65c-0.93,-0.36 -1.5,0.01 -1.5,0.96c0,2.66 1.86,5.15 5.51,7.41c2.01,1.24 3.42,2.86 3.26,3.75c-0.17,0.97 0.77,1.84 2.49,2.32c3.29,0.9 19.04,0.5 23.15,-0.6c2.72,-0.72 2.79,-0.86 1.06,-2.12c-1.02,-0.75 -3.94,-1.36 -6.49,-1.36c-6.43,0 -19.84,-2.47 -18.83,-3.47c0.23,-0.24 3.47,0 7.2,0.52c6.68,0.95 11.65,0.5 11.65,-1.06c0,-0.44 -2.36,-2.13 -5.25,-3.76c-7.07,-3.99 -18.22,-16.23 -14.78,-16.23c0.57,0 1.03,0.39 1.03,0.86c0,1.57 8.18,10.19 11.12,11.7c3.75,1.94 3.74,0.95 -0.09,-8.17c-1.64,-3.9 -3.2,-9.73 -3.48,-12.98c-0.47,-5.64 -0.45,-5.7 0.43,-1.41c1.51,7.31 3.04,12 3.93,12c0.45,0 1.83,-2.77 3.07,-6.15c2.77,-7.6 9.47,-13.74 15.02,-13.76c0.83,-0.01 -0.07,0.67 -2,1.51c-6.75,2.91 -13.78,11.79 -7.43,9.38c3.32,-1.27 7.43,-1.25 7.43,0.02c0,0.55 -1.55,1 -3.45,1c-5.02,0 -9.11,5.52 -8.9,12.03c0.2,6.61 6.24,15.75 11.85,17.95c3.17,1.24 3.92,0.73 3.69,-2.48c-0.12,-1.65 0.23,-3.67 0.78,-4.5c0.75,-1.12 1,-0.49 1.02,2.53c0.02,6.61 3.81,10.34 10.51,10.35c2.7,0.01 2.81,-0.12 1.14,-1.19zm-99.95,-2.78c2.83,-1.37 4.53,-2.94 4.94,-4.54c0.78,-3.12 0.07,-3.81 -2.48,-2.45c-4.76,2.55 -13.56,0.16 -16.61,-4.5c-1.9,-2.91 -4.09,-3.1 -5.71,-0.51c-1.09,1.74 -1.39,1.77 -3.5,0.39c-2.62,-1.72 -5.33,-1.12 -5.33,1.17c0,0.84 -0.45,1.53 -1,1.53s-1,1.35 -1,3c0,2.32 0.45,3 1.96,3c1.08,0 4.25,0.9 7.04,2c6.03,2.38 6.61,2.45 5.08,0.6c-1.82,-2.2 -2.96,-7.18 -1.99,-8.71c0.62,-0.97 0.89,-0.45 0.9,1.73c0.01,3.5 3.82,8 7.34,8.69c4.46,0.87 6.15,0.64 10.36,-1.4zm121.47,-4.97c3.25,-3.25 5.15,-6.22 6.13,-9.58c1.18,-4.07 1.84,-4.91 4.06,-5.17c3.14,-0.38 3.22,-0.88 0.69,-4.18c-1.72,-2.24 -1.76,-2.66 -0.39,-4.18c1.4,-1.53 1.24,-1.83 -1.71,-3.36l-3.24,-1.68l3.28,-2.57l3.28,-2.57l-4.81,-2.32c-2.65,-1.28 -5.86,-2.33 -7.14,-2.33c-3.32,0 -2.84,-1.54 0.94,-3.04c5.94,-2.34 11.62,-9.26 10.34,-12.59c-0.66,-1.72 -6.28,-1.01 -11.02,1.38c-2.62,1.34 -3.04,1.32 -4.11,-0.13c-1.59,-2.18 -5.41,-2 -8.46,0.38c-3.14,2.46 -4,2.49 -4,0.13c0,-3.79 -2.45,-4.55 -10.05,-3.12c-5.77,1.09 -9.98,1.09 -24.36,0c-10.94,-0.83 -21.42,-1.04 -28.24,-0.57c-15.25,1.04 -16.3,1.2 -21.35,3.07c-9.38,3.5 -9.97,3.57 -9.72,1.17c0.17,-1.67 -0.38,-2.25 -2.38,-2.48c-2.62,-0.3 -13.27,3.97 -14.38,5.78c-0.69,1.11 -9.21,5.03 -10.9,5.01c-0.61,-0.01 0.91,-1.17 3.38,-2.58c5.95,-3.39 8,-5.33 8,-7.56c0,-1.3 -0.74,-1.85 -2.5,-1.85c-1.82,0 -4.87,2.37 -11.07,8.6c-4.71,4.73 -8.87,8.3 -9.24,7.92c-0.38,-0.38 0.66,-1.84 2.31,-3.26c4,-3.43 7.5,-8.25 7.5,-10.33c0,-1.87 -3.65,-3.29 -4.59,-1.78c-0.32,0.52 -1.33,0.88 -2.25,0.79c-3.19,-0.32 -3.77,0.09 -5.03,3.58c-0.7,1.93 -2.81,5.54 -4.7,8.01s-3.43,4.67 -3.43,4.88c0,0.22 1.69,0.39 3.75,0.39s6.11,0.16 9,0.35c2.89,0.2 5.25,0.1 5.25,-0.2c0,-0.31 2.36,-1.17 5.25,-1.9s5.81,-1.54 6.5,-1.8c0.69,-0.25 1.25,0.04 1.25,0.65s-0.79,1.14 -1.75,1.18c-1.29,0.06 -1.38,0.23 -0.34,0.64c0.78,0.31 1.99,-0.23 2.7,-1.19c2.89,-3.96 21.6,-2.83 25.68,1.55c0.98,1.06 2.56,1.9 3.5,1.86c1.26,-0.05 1.12,-0.3 -0.54,-0.97c-1.24,-0.49 -2.25,-1.19 -2.25,-1.55c0,-0.71 0.51,-0.58 9.73,2.37c5.77,1.84 6.15,1.86 5.28,0.23c-0.52,-0.96 -0.62,-2.07 -0.23,-2.46s-0.08,-1.15 -1.04,-1.68c-1.91,-1.07 -2.35,-2.88 -0.69,-2.88c0.58,0 2.71,1.13 4.74,2.5c2.07,1.41 5.11,2.5 6.94,2.5c3.44,0 4.05,-0.81 2.09,-2.78c-2.22,-2.21 -0.18,-2.21 5.92,0.01l6.08,2.21l2.01,-2.47l2.01,-2.47l3.05,2.91c2.54,2.43 3.29,2.69 4.58,1.62c0.84,-0.7 1.53,-1.6 1.53,-2c0,-1.14 -12.15,-4.14 -20.2,-4.99c-4.02,-0.42 -6.17,-0.87 -4.8,-1c4.8,-0.44 10.55,0.11 17.5,1.69c4.11,0.93 12.57,1.68 20.5,1.8c17.94,0.29 26.06,2.2 31.63,7.43c9.16,8.62 11.07,14.69 6.94,22.05c-1.38,2.47 -3.48,6.4 -4.65,8.73s-3.77,5.83 -5.77,7.78l-3.65,3.55l3.47,-1.21c1.92,-0.66 5.6,-3.33 8.19,-5.92zm-5.16,-36.94c0,-0.55 0.48,-1 1.06,-1s0.78,0.45 0.44,1s-0.82,1 -1.06,1s-0.44,-0.45 -0.44,-1zm-127.19,-4.68c0.73,-0.29 1.59,-0.25 1.92,0.08s-0.26,0.57 -1.31,0.52c-1.17,-0.04 -1.4,-0.28 -0.61,-0.6zm14.19,-3.24c4.68,-0.99 10.68,-2.11 13.34,-2.51c2.66,-0.39 5.81,-0.91 7,-1.15c1.19,-0.23 7.56,-0.91 14.16,-1.5c11.94,-1.07 19.37,-0.88 48,1.24c8.25,0.61 20.63,0.87 27.5,0.59c9.17,-0.38 11.84,-0.24 10,0.52c-4.32,1.8 -48.96,1 -52.23,-0.93c-0.41,-0.24 -7.83,-0.45 -16.5,-0.46c-15.29,-0.03 -30.93,1.49 -47.63,4.64c-11.02,2.08 -13.94,1.72 -3.64,-0.44zm30.73,-0.8c1.77,-0.22 4.92,-0.22 7,-0.01c2.07,0.22 0.62,0.4 -3.23,0.41c-3.85,0 -5.55,-0.18 -3.77,-0.4zm76.52,48c2.52,-2.28 2.17,-3.28 -1.18,-3.28c-1.61,0 -3.6,-0.67 -4.43,-1.5c-0.82,-0.82 -2.15,-1.5 -2.96,-1.5s-1.75,-0.75 -2.11,-1.67c-0.56,-1.46 -0.83,-1.49 -2.04,-0.25c-2.64,2.69 -2.91,6.62 -0.6,8.61c4.09,3.51 9.16,3.35 13.32,-0.41zm-264.75,-1.16l3,-0.86l-2.92,-1.17c-1.61,-0.64 -3.63,-1 -4.5,-0.79c-0.87,0.2 -3,-0.47 -4.75,-1.49c-3.15,-1.86 -3.18,-1.86 -8.69,0.85c-6.08,2.98 -6.58,2.89 -13.56,-2.19c-1.97,-1.44 -4.16,-2.26 -5.17,-1.94c-4.26,1.35 -2.54,-6.93 1.97,-9.49c1.49,-0.85 1.48,-1.06 -0.06,-2.62c-1.57,-1.6 -1.96,-1.56 -6.5,0.69c-4.54,2.26 -4.84,2.64 -5.13,6.76c-0.72,10.02 9.77,14.34 32.81,13.5c5.78,-0.21 11.85,-0.77 13.5,-1.25zm82.75,-1.17c7.59,-3.5 -1.25,-5.85 -15.27,-4.05c-4.9,0.63 -9.93,1.53 -11.19,2c-2.06,0.78 -1.79,1.03 2.71,2.48c5.79,1.87 19.31,1.63 23.75,-0.43zm-68.83,-1.55c2.27,-0.87 1.96,-1.9 -0.97,-3.24c-3.25,-1.48 -3.45,-1.46 -3.45,0.34c0,0.83 -0.67,1.5 -1.5,1.5c-0.82,0 -1.5,0.45 -1.5,1c0,1.1 4.91,1.36 7.42,0.4zm144.79,-4.16c1.37,-1.37 1.79,-2.67 1.33,-4.12c-0.6,-1.89 -0.84,-1.96 -2.18,-0.62c-1.82,1.82 -6.73,1.98 -8.14,0.25c-0.56,-0.68 -1.18,-2.37 -1.38,-3.75c-0.26,-1.91 -0.87,-2.44 -2.59,-2.26c-1.24,0.13 -2.25,-0.2 -2.25,-0.75c0,-1.43 -1.72,-1.21 -4.43,0.56c-2.24,1.47 -2.29,1.71 -0.89,4.5c0.81,1.63 1.85,2.95 2.33,2.95c0.47,0 1.15,0.94 1.52,2.09c1.52,4.79 12.3,5.53 16.68,1.15zm-131.36,1.67c1.73,-0.61 3.15,-1.44 3.15,-1.85c0,-0.83 -12.37,-7.06 -14.04,-7.06c-0.59,0 -0.78,0.48 -0.42,1.07c0.37,0.59 -0.32,1.33 -1.55,1.65c-1.92,0.5 -1.43,1.02 3.65,3.92c3.22,1.84 5.91,3.34 5.96,3.35c0.06,0.01 1.52,-0.48 3.25,-1.08zm166.58,-1.25c3.15,-3.15 4.19,-9.56 2.17,-13.46c-4.58,-8.86 -17.04,-15.64 -31.52,-17.14c-4.97,-0.51 -10.06,-0.77 -11.31,-0.58s-4.45,0.64 -7.11,1.01s-6.94,1.58 -9.5,2.69c-4.39,1.92 -4.52,2.08 -2.31,2.93c1.29,0.5 5.56,0.56 9.5,0.15c18.04,-1.9 32.26,-0.06 40.72,5.29c4.55,2.87 8.93,8.94 8.93,12.37c0,3.01 -3.61,7.05 -6.42,7.18c-1.81,0.09 -1.76,0.21 0.42,0.9c3.77,1.21 3.92,1.18 6.43,-1.34zm-69.78,-1.66c1.39,-1.65 3.39,-3 4.44,-3s1.91,-0.44 1.91,-0.98c0,-3.22 -18.11,-6.14 -18.72,-3.02c-0.16,0.83 1.29,2.52 3.21,3.76c1.93,1.25 3.51,2.9 3.51,3.67c0,1.17 0.98,2.03 2.82,2.49c0.17,0.05 1.45,-1.27 2.83,-2.92zm-86.65,-1.5c0.69,-0.82 1.87,-1.5 2.63,-1.5c2.53,0 11.56,-5.46 13.48,-8.16c1.74,-2.43 1.71,-5.84 -0.05,-5.84c-0.41,0 -1.6,1.77 -2.64,3.93c-2.03,4.16 -3.97,5.03 -11.92,5.35c-3.81,0.15 -4.01,0 -4.31,-3.06c-0.17,-1.77 -0.7,-3.22 -1.18,-3.22c-0.78,0 -7.01,8.48 -7.01,9.53c0,0.63 7.31,4.38 8.63,4.43c0.62,0.02 1.69,-0.63 2.37,-1.46zm152.25,0.11c2.11,-1.6 2.34,-5.61 0.31,-5.61c-0.79,0 -1.72,0.45 -2.06,1s-1.49,1 -2.56,1c-1.25,0 -1.94,0.69 -1.94,1.93c0,1.62 1.12,2.44 4,2.93c0.28,0.04 1.29,-0.52 2.25,-1.25zm78.83,0.39c6.49,-1.81 11.49,-10.26 9.13,-15.45c-1.55,-3.38 -2.59,-3.21 -3.75,0.62c-1.12,3.7 -5.38,7.2 -8.08,6.64c-1.48,-0.31 -1.1,-0.77 1.73,-2.15c3.27,-1.59 5.89,-5.06 5.89,-7.8c0,-3.53 -3.56,-7.96 -8.29,-10.31c-2.81,-1.4 -5.63,-2.55 -6.27,-2.55c-1.82,0 -0.45,4.92 1.68,6.07c1.04,0.55 1.88,1.93 1.88,3.05c0,2.55 2.11,2 3.59,-0.94c0.6,-1.19 1.39,-1.87 1.75,-1.5c1.31,1.3 0.62,3.38 -1.85,5.52c-1.59,1.38 -2.3,2.82 -1.95,3.94c0.48,1.5 -0.2,1.8 -4.64,2.06c-6.35,0.37 -8.74,2.83 -5.18,5.32c1.31,0.91 1.96,2.15 1.62,3.05c-0.32,0.83 0.22,2.39 1.2,3.47c1.96,2.18 5.96,2.51 11.54,0.96zm-67.08,-4.96c0,-5.48 -7.4,-18.04 -10.62,-18.04c-0.8,0 -3.27,-0.92 -5.49,-2.05c-5.92,-3.03 -6.96,-1.84 -1.15,1.31c8.13,4.43 13.44,11.1 14.63,18.35c0.59,3.66 0.46,3.39 1.63,3.39c0.55,0 1,-1.33 1,-2.96zm-45.3,0.31c0.58,-1.51 -2.72,-5.35 -4.59,-5.35c-0.58,0 -0.75,3.94 -0.26,6.25c0.3,1.46 4.22,0.73 4.85,-0.9zm-46.7,-1.85c0,-0.99 -0.99,-1.5 -2.94,-1.5c-3.6,0 -4.95,1.7 -1.82,2.3c4.19,0.8 4.76,0.71 4.76,-0.8zm77,-0.06c0,-0.85 -0.45,-1.28 -1,-0.94s-1,1.05 -1,1.56c0,0.52 0.45,0.94 1,0.94s1,-0.7 1,-1.56zm-22.07,-6.95c0.09,-2.48 -2.62,-4.25 -7.76,-5.08c-4.48,-0.71 -6.8,1.15 -2.71,2.17c1.4,0.35 3.98,2.45 5.73,4.67c2.82,3.55 3.28,3.8 3.93,2.14c0.41,-1.04 0.77,-2.79 0.81,-3.9zm-61.18,-11.86c3.86,-1.99 4.12,-4.2 1.21,-10.2c-1.79,-3.7 -7.52,-8.2 -8.81,-6.91c-0.22,0.22 0.59,2.08 1.8,4.13c1.75,2.95 2.04,4.47 1.43,7.29c-0.43,1.96 -0.81,4.12 -0.84,4.79c-0.03,0.68 -0.76,2.05 -1.61,3.05c-3.25,3.79 -3.2,4.63 0.12,2.12c1.9,-1.43 4.91,-3.35 6.7,-4.27zm-18.68,2.79c1.03,-1.24 1.06,-1.99 0.11,-3.5c-1.03,-1.65 -0.92,-1.92 0.81,-1.92c1.11,0 2.01,-0.64 2.01,-1.43s0.98,-1.74 2.17,-2.12c2.04,-0.65 1.98,-0.76 -0.92,-1.99c-3.73,-1.56 -5.25,-4.13 -5.25,-8.89c0,-4.66 -2.18,-4.71 -6.36,-0.14c-2.53,2.75 -3.2,4.43 -3.45,8.6c-0.29,4.92 -0.1,5.37 3.8,9.07c4.58,4.37 5.21,4.57 7.08,2.32zm-121.73,-7.34c0.32,-1.61 1.53,-3.8 2.68,-4.88c2.49,-2.32 8.22,-3.44 11.29,-2.21c1.72,0.69 1.1,0.9 -2.84,0.95c-6.02,0.08 -9.47,2.16 -9.47,5.74c0,2.29 0.29,2.49 2.75,1.88c1.51,-0.38 3.65,-0.66 4.75,-0.63c9.9,0.29 13.92,-0.12 14.94,-1.52c0.62,-0.83 1.93,-1.64 2.92,-1.78c2.01,-0.3 3.62,-2.36 3.6,-4.63c-0.01,-0.82 -1.61,-3.21 -3.56,-5.31c-3.49,-3.75 -3.69,-3.83 -11.7,-4.13c-8.32,-0.31 -11.46,0.66 -14.37,4.43c-0.64,0.83 -1.91,2.41 -2.82,3.51c-1.65,1.99 -1.65,1.99 -1.21,-0.1c0.69,-3.3 -1.02,-5.5 -3.74,-4.82c-1.29,0.32 -2.64,0.1 -3.01,-0.5c-0.37,-0.59 -1.77,-1.08 -3.11,-1.08c-1.9,0 -2.44,0.53 -2.44,2.38c0,6.27 7.43,15.62 12.41,15.62c1.79,0 2.48,-0.69 2.93,-2.92zm150.01,0.66c1.6,-1.18 1.62,-1.58 0.16,-5.7c-1.88,-5.33 -3.86,-7.67 -8.51,-10.02c-4.85,-2.46 -9.2,-3.26 -13.41,-2.47c-5.04,0.95 -4.47,2.45 0.93,2.45c3.03,0 5.76,0.78 8.27,2.37c5.13,3.24 5.82,4.27 8.59,12.88c0.66,2.08 1.63,2.2 3.97,0.49zm59.65,0.26c0,-0.55 -0.79,-0.99 -1.75,-0.98c-1.49,0.01 -1.53,0.16 -0.25,0.98c1.89,1.22 2,1.22 2,0zm-4,-1c0,-0.55 -0.56,-1.04 -1.25,-1.08c-2.97,-0.21 -7.6,-0.16 -12.25,0.13c-4.35,0.28 -3.97,0.4 3,0.95c4.4,0.35 8.56,0.72 9.25,0.82s1.25,-0.27 1.25,-0.82zm-78,-6.03c0,-0.57 -0.79,-1.32 -1.75,-1.69c-0.96,-0.36 -2.3,-1.36 -2.97,-2.21c-1.79,-2.3 -1.54,0.11 0.28,2.71c1.59,2.28 4.44,3.04 4.44,1.19zm4.49,-0.95c0.85,-1.37 -1.15,-4.76 -3.58,-6.06c-1.52,-0.82 -2.42,-0.77 -3.57,0.17c-1.33,1.11 -1.1,1.62 1.82,4.05c3.67,3.04 4.43,3.3 5.33,1.84z" id="path2480"/>
  </g>
 </g>
</svg>