<svg xmlns="http://www.w3.org/2000/svg" viewBox="0 0 376.36 2294.91"><g id="Layer_2" data-name="Layer 2"><g id="_1" data-name=" 1"><path d="M117.11,2198.94a16,16,0,0,1-11.41-4.82,18.14,18.14,0,0,1-5.13-12.87L119.1,208.49c.06-6.43,6.16-11.66,13.61-11.66a14.44,14.44,0,0,1,10.22,4,10.74,10.74,0,0,1,3.23,7.65L133.89,2181.29C133.83,2191,126.3,2198.94,117.11,2198.94Zm15.6-1997.58c-5,0-9,3.22-9.08,7.17L105.1,2181.29a13.6,13.6,0,0,0,3.81,9.64,11.5,11.5,0,0,0,8.2,3.49c6.71,0,12.2-5.91,12.25-13.16L141.63,208.5a6.17,6.17,0,0,0-1.92-4.43A9.87,9.87,0,0,0,132.71,201.36Z"/><path d="M259.25,2198.94c-9.19,0-16.72-7.92-16.78-17.65L230.19,208.53a10.8,10.8,0,0,1,3.24-7.65,14.44,14.44,0,0,1,10.22-4c7.44,0,13.55,5.23,13.61,11.66l18.52,1972.76a18.09,18.09,0,0,1-5.12,12.87A16,16,0,0,1,259.25,2198.94ZM243.65,201.36a9.89,9.89,0,0,0-7,2.71,6.25,6.25,0,0,0-1.92,4.43L247,2181.26c0,7.25,5.54,13.16,12.25,13.16h0a11.46,11.46,0,0,0,8.19-3.49,13.51,13.51,0,0,0,3.81-9.64L252.73,208.53C252.69,204.58,248.62,201.36,243.65,201.36Z"/><path d="M90.93,2198.94a13.43,13.43,0,0,1-9.6-4.06,15.16,15.16,0,0,1-4.27-10.8L100.74,206.75c.06-5.47,5.24-9.92,11.53-9.92a12.15,12.15,0,0,1,8.63,3.43,9.18,9.18,0,0,1,2.75,6.54L105.08,2184.13C105,2192.3,98.66,2198.94,90.93,2198.94ZM112.27,201.36c-3.82,0-7,2.44-7,5.44L81.59,2184.13a10.59,10.59,0,0,0,3,7.57,8.93,8.93,0,0,0,6.37,2.72c5.25,0,9.56-4.64,9.62-10.33L119.12,206.75a4.64,4.64,0,0,0-1.44-3.3A7.58,7.58,0,0,0,112.27,201.36Z"/><path d="M70.7,2198.94a10.26,10.26,0,0,1-7.36-3.11,11.56,11.56,0,0,1-3.25-8.24l27.44-1983c0-4.28,4.07-7.77,9-7.77a9.36,9.36,0,0,1,6.66,2.66,7.23,7.23,0,0,1,2.15,5.17l-23.74,1983C81.47,2193.88,76.61,2198.94,70.7,2198.94ZM96.48,201.36c-2.37,0-4.4,1.51-4.43,3.3l-27.43,1983a7,7,0,0,0,1.94,5,5.81,5.81,0,0,0,4.14,1.77c3.44,0,6.27-3.07,6.32-6.83l23.74-1983a2.73,2.73,0,0,0-.84-1.93A4.84,4.84,0,0,0,96.48,201.36Z"/><path d="M305.66,2198.94c-5.91,0-10.78-5.06-10.85-11.29l-23.75-1983a7.26,7.26,0,0,1,2.15-5.16,9.38,9.38,0,0,1,6.67-2.66c4.87,0,8.89,3.49,8.95,7.77l27.44,1983a11.56,11.56,0,0,1-3.25,8.24A10.28,10.28,0,0,1,305.66,2198.94ZM279.88,201.36a4.82,4.82,0,0,0-3.44,1.31,2.73,2.73,0,0,0-.85,1.93l23.75,1983c0,3.76,2.88,6.83,6.32,6.83a5.77,5.77,0,0,0,4.13-1.77,7,7,0,0,0,1.95-5l-27.44-1983C284.28,202.87,282.25,201.36,279.88,201.36Z"/><path d="M285.42,2198.94c-7.72,0-14.06-6.64-14.14-14.81L252.71,206.8a9.14,9.14,0,0,1,2.75-6.54,12.13,12.13,0,0,1,8.62-3.43c6.3,0,11.47,4.45,11.54,9.92L299.3,2184.08a15.14,15.14,0,0,1-4.28,10.8A13.4,13.4,0,0,1,285.42,2198.94ZM264.08,201.36a7.61,7.61,0,0,0-5.41,2.09,4.64,4.64,0,0,0-1.43,3.3l18.57,1977.34c.05,5.69,4.37,10.33,9.61,10.33a8.93,8.93,0,0,0,6.38-2.72,10.63,10.63,0,0,0,3-7.57L271.09,206.8C271.05,203.8,267.91,201.36,264.08,201.36Z"/><path d="M79.6,126.26A12.41,12.41,0,1,1,92,113.86,12.42,12.42,0,0,1,79.6,126.26Zm0-20.28a7.88,7.88,0,1,0,7.88,7.88A7.89,7.89,0,0,0,79.6,106Z"/><path d="M181,18.12a9.42,9.42,0,0,1-9.41-9.41V0h18.82V8.71A9.42,9.42,0,0,1,181,18.12ZM176.15,4.53V8.71a4.88,4.88,0,1,0,9.76,0V4.53Z"/><path d="M173.88,24.52a5.47,5.47,0,1,1,5.47-5.46A5.48,5.48,0,0,1,173.88,24.52Zm0-6.4a.94.94,0,1,0,.94.94A.94.94,0,0,0,173.88,18.12Z"/><path d="M166.73,18.12a9.42,9.42,0,0,1-9.41-9.41V0h18.83V8.71A9.43,9.43,0,0,1,166.73,18.12ZM161.85,4.53V8.71a4.89,4.89,0,0,0,9.77,0V4.53Z"/><path d="M159.59,24.52a5.47,5.47,0,1,1,5.46-5.46A5.47,5.47,0,0,1,159.59,24.52Zm0-6.4a.94.94,0,1,0,.93.94A.94.94,0,0,0,159.59,18.12Z"/><path d="M152.44,18.12A9.43,9.43,0,0,1,143,8.71V0h18.83V8.71A9.42,9.42,0,0,1,152.44,18.12ZM147.55,4.53V8.71a4.89,4.89,0,0,0,9.77,0V4.53Z"/><path d="M145.29,24.52a5.47,5.47,0,1,1,5.47-5.46A5.47,5.47,0,0,1,145.29,24.52Zm0-6.4a.94.94,0,1,0,.94.94A.94.94,0,0,0,145.29,18.12Z"/><path d="M138.14,18.12a9.42,9.42,0,0,1-9.41-9.41V0h18.82V8.71A9.42,9.42,0,0,1,138.14,18.12ZM133.26,4.53V8.71a4.88,4.88,0,0,0,9.76,0V4.53Z"/><path d="M131,24.52a5.47,5.47,0,1,1,5.47-5.46A5.47,5.47,0,0,1,131,24.52Zm0-6.4a.94.94,0,1,0,.94.94A.94.94,0,0,0,131,18.12Z"/><path d="M123.84,18.12a9.42,9.42,0,0,1-9.41-9.41V0h18.83V8.71A9.42,9.42,0,0,1,123.84,18.12ZM119,4.53V8.71a4.89,4.89,0,0,0,9.77,0V4.53Z"/><path d="M116.7,24.52a5.47,5.47,0,1,1,5.46-5.46A5.47,5.47,0,0,1,116.7,24.52Zm0-6.4a.94.94,0,1,0,.93.94A.94.94,0,0,0,116.7,18.12Z"/><path d="M109.55,18.12a9.42,9.42,0,0,1-9.41-9.41V0H119V8.71A9.42,9.42,0,0,1,109.55,18.12ZM104.67,4.53V8.71a4.88,4.88,0,0,0,9.76,0V4.53Z"/><path d="M102.4,24.52a5.47,5.47,0,1,1,5.47-5.46A5.48,5.48,0,0,1,102.4,24.52Zm0-6.4a.94.94,0,1,0,.94.94A.94.94,0,0,0,102.4,18.12Z"/><path d="M95.25,18.12a9.42,9.42,0,0,1-9.41-9.41V0h18.83V8.71A9.43,9.43,0,0,1,95.25,18.12ZM90.37,4.53V8.71a4.89,4.89,0,0,0,9.77,0V4.53Z"/><path d="M88.1,24.52a5.47,5.47,0,1,1,5.47-5.46A5.47,5.47,0,0,1,88.1,24.52Zm0-6.4a.94.94,0,1,0,.94.94A.94.94,0,0,0,88.1,18.12Z"/><path d="M81,18.12a9.43,9.43,0,0,1-9.42-9.41V0H90.37V8.71A9.42,9.42,0,0,1,81,18.12ZM76.07,4.53V8.71a4.89,4.89,0,0,0,9.77,0V4.53Z"/><path d="M73.81,24.52a5.47,5.47,0,1,1,5.47-5.46A5.47,5.47,0,0,1,73.81,24.52Zm0-6.4a.94.94,0,1,0,.94.94A.94.94,0,0,0,73.81,18.12Z"/><path d="M66.66,18.12a9.42,9.42,0,0,1-9.41-9.41V0H76.07V8.71A9.42,9.42,0,0,1,66.66,18.12ZM61.78,4.53V8.71a4.88,4.88,0,0,0,9.76,0V4.53Z"/><path d="M59.51,24.52A5.47,5.47,0,1,1,65,19.06,5.48,5.48,0,0,1,59.51,24.52Zm0-6.4a.94.94,0,1,0,.94.94A.94.94,0,0,0,59.51,18.12Z"/><path d="M52.36,18.12A9.42,9.42,0,0,1,43,8.71V0H61.78V8.71A9.43,9.43,0,0,1,52.36,18.12ZM47.48,4.53V8.71a4.89,4.89,0,0,0,9.77,0V4.53Z"/><path d="M180.07,132.5a5.9,5.9,0,1,1,5.9-5.89A5.9,5.9,0,0,1,180.07,132.5Zm0-7.26a1.37,1.37,0,1,0,1.37,1.37A1.37,1.37,0,0,0,180.07,125.24Z"/><path d="M161.68,125.24a10.38,10.38,0,0,1-10.37-10.37V105.3h20.74v9.57A10.38,10.38,0,0,1,161.68,125.24Zm-5.84-15.41v5a5.84,5.84,0,0,0,11.68,0v-5Z"/><path d="M153.57,132.5a5.9,5.9,0,1,1,5.9-5.89A5.89,5.89,0,0,1,153.57,132.5Zm0-7.26a1.37,1.37,0,1,0,1.37,1.37A1.36,1.36,0,0,0,153.57,125.24Z"/><path d="M169.79,132.5a5.9,5.9,0,1,1,5.9-5.89A5.9,5.9,0,0,1,169.79,132.5Zm0-7.26a1.37,1.37,0,1,0,1.37,1.37A1.37,1.37,0,0,0,169.79,125.24Z"/><path d="M135.19,125.24a10.39,10.39,0,0,1-10.38-10.37V105.3h20.75v9.57A10.39,10.39,0,0,1,135.19,125.24Zm-5.85-15.41v5a5.85,5.85,0,0,0,11.69,0v-5Z"/><path d="M127.08,132.5a5.9,5.9,0,1,1,5.9-5.89A5.9,5.9,0,0,1,127.08,132.5Zm0-7.26a1.37,1.37,0,1,0,1.37,1.37A1.37,1.37,0,0,0,127.08,125.24Z"/><path d="M143.29,132.5a5.9,5.9,0,1,1,5.9-5.89A5.89,5.89,0,0,1,143.29,132.5Zm0-7.26a1.37,1.37,0,1,0,1.37,1.37A1.37,1.37,0,0,0,143.29,125.24Z"/><path d="M140.36,170.9c-3.51,0-6.16-4.2-6.16-9.77a14.15,14.15,0,0,1,1.22-6,6.13,6.13,0,0,1-.06-7.26,6.11,6.11,0,0,1-1.16-3.59,6.16,6.16,0,1,1,12.32,0,6.11,6.11,0,0,1-1.16,3.59,6.13,6.13,0,0,1-.06,7.26,14.15,14.15,0,0,1,1.22,6C146.52,166.7,143.87,170.9,140.36,170.9Zm0-15.18a2.6,2.6,0,0,1-.31.5,8.13,8.13,0,0,0-1.32,4.91c0,3.24,1.22,5.09,1.68,5.25.36-.16,1.58-2,1.58-5.25a8.13,8.13,0,0,0-1.32-4.91A2.6,2.6,0,0,1,140.36,155.72Zm0-6.12a2.29,2.29,0,0,1-.62.38,1.62,1.62,0,0,0-.24,2.88,2.26,2.26,0,0,1,.86,1,2.26,2.26,0,0,1,.86-1A1.62,1.62,0,0,0,141,150,2.07,2.07,0,0,1,140.36,149.6Zm0-6.93a1.63,1.63,0,0,0-.62,3.13,2.32,2.32,0,0,1,.62.39,2.32,2.32,0,0,1,.62-.39,1.63,1.63,0,0,0-.62-3.13Z"/><path d="M123.63,173.55a2.29,2.29,0,0,1-1.74-.81,2.27,2.27,0,0,1,.29-3.19c5.61-4.69,7.74-11.29,8.5-14.65a10.31,10.31,0,0,1-5.53-5,2.8,2.8,0,0,1-.18-2.16c.51-1.53,2.18-2.38,4-3.25l-.1-.1c-1.5-1.5-2.5-2.49-2.12-4,.56-2.26,7.88-5.39,8.7-5.47a2.26,2.26,0,0,1,.61,4.48,31.27,31.27,0,0,0-3.82,2c1.33,1.33,2.28,2.32,2.33,3.59.08,1.85-1.54,2.63-3.41,3.53-.31.15-.75.36-1.15.57a4,4,0,0,0,3.18,1.69l2.65-.16-.25,2.63c0,.49-1.24,12.11-10.49,19.83A2.2,2.2,0,0,1,123.63,173.55Z"/><path d="M157.09,173.55a2.22,2.22,0,0,1-1.45-.53c-9.25-7.72-10.44-19.34-10.49-19.83l-.25-2.63,2.65.16a4,4,0,0,0,3.18-1.69c-.4-.21-.84-.42-1.14-.57-1.88-.9-3.5-1.68-3.42-3.53.05-1.27,1-2.26,2.34-3.59a29.42,29.42,0,0,0-3.87-2,2.17,2.17,0,0,1-1.93-2.46,2.35,2.35,0,0,1,2.58-2c.83.08,8.14,3.21,8.7,5.47.38,1.53-.61,2.52-2.12,4a.94.94,0,0,0-.1.1c1.8.87,3.47,1.72,4,3.25a2.75,2.75,0,0,1-.18,2.16,10.31,10.31,0,0,1-5.53,5c.76,3.36,2.89,10,8.5,14.65a2.26,2.26,0,0,1-1.45,4Z"/><path d="M118.41,177.58c-3.17,0-4.3-4.34-4.3-8.06s1.13-8.07,4.3-8.07,4.29,4.34,4.29,8.07S121.57,177.58,118.41,177.58Z"/><path d="M113.73,176a3.11,3.11,0,0,1-2-.63,2.81,2.81,0,0,1-1.06-2.22c0-2.4,3.05-5.15,4.86-6.57,2.48-1.94,7-4.91,9.47-3a2.79,2.79,0,0,1,1.06,2.23c0,2.39-3,5.14-4.86,6.56S116.2,176,113.73,176Z"/><path d="M123.08,176c-2.46,0-5.59-2.11-7.51-3.61s-4.86-4.17-4.86-6.56a2.82,2.82,0,0,1,1.06-2.23c2.46-1.93,7,1,9.47,3,1.81,1.42,4.86,4.17,4.86,6.57A2.78,2.78,0,0,1,125,175.4,3.09,3.09,0,0,1,123.08,176Z"/><ellipse cx="162.32" cy="169.52" rx="4.29" ry="8.07"/><path d="M157.64,176a3.09,3.09,0,0,1-2-.63,2.81,2.81,0,0,1-1.06-2.22c0-2.4,3-5.15,4.86-6.57,2.48-1.94,7-4.91,9.47-3a2.79,2.79,0,0,1,1.06,2.23c0,2.39-3,5.14-4.86,6.56S160.11,176,157.64,176Z"/><path d="M167,176c-2.46,0-5.59-2.11-7.51-3.61s-4.86-4.17-4.86-6.56a2.82,2.82,0,0,1,1.06-2.23c2.46-1.93,7,1,9.47,3C167,168,170,170.78,170,173.18A2.78,2.78,0,0,1,169,175.4,3.09,3.09,0,0,1,167,176Z"/><path d="M81,183.25A2.27,2.27,0,0,1,78.78,181v-9.4a2.27,2.27,0,1,1,4.53,0V181A2.27,2.27,0,0,1,81,183.25Z"/><rect x="118.72" y="105.3" width="69.46" height="4.53"/><path d="M68.87,173.51c-36.71,0-66.58-29.16-66.58-65C2.29,64,39.37,27.8,85,27.8c30.7,0,48-.11,63.32-.21,12.45-.09,23.71-.16,39.91-.16V32c-16.19,0-27.44.07-39.88.16-15.3.1-32.64.21-63.35.21C41.87,32.33,6.82,66.5,6.82,108.5,6.82,141.85,34.66,169,68.87,169c27.13,0,49.2-21.5,49.2-47.93,0-20.9-17.45-37.89-38.9-37.89C62.26,83.16,48.5,96.55,48.5,113c0,12.92,10.8,23.43,24.08,23.43a18.46,18.46,0,0,0,18.6-18.29c0-8-5.83-11.33-10.83-11.77l.4-4.51c7.45.65,15,5.94,15,16.28A23,23,0,0,1,72.58,141C56.8,141,44,128.44,44,113c0-19,15.79-34.39,35.2-34.39,23.94,0,43.43,19,43.43,42.42C122.6,150,98.5,173.51,68.87,173.51Z"/><path d="M72.68,165.94c-33.72,0-61.15-25.88-61.15-57.68,0-39.45,34-71.54,75.87-71.54,28.26,0,46,4.11,61.74,7.74,13,3,24.16,5.59,39,5.59v4.53c-15.39,0-27.38-2.77-40.06-5.71-15.46-3.57-33-7.62-60.72-7.62-39.34,0-71.34,30.06-71.34,67,0,29.3,25.4,53.15,56.62,53.15,25,0,45.36-18.78,45.36-41.86h4.53C122.57,145.13,100.19,165.94,72.68,165.94Z"/><path d="M73.36,156.48c-25.93,0-47-21.33-47-47.55,0-32.47,26.11-58.88,58.2-58.88,18.52,0,31.94,3.72,46.16,7.65,15.8,4.38,32.14,8.91,57.48,8.91v4.53c-26,0-42.6-4.61-58.69-9.07-13.91-3.85-27.05-7.49-44.95-7.49C55,54.58,30.87,79,30.87,108.93c0,23.72,19.06,43,42.49,43a33.78,33.78,0,0,0,33.53-34A26.58,26.58,0,0,0,80.52,91.26a20.81,20.81,0,0,0-20.65,20.93,16.19,16.19,0,0,0,16.06,16.28,12.5,12.5,0,0,0,12.4-12.57,9.54,9.54,0,0,0-9.46-9.61,7.19,7.19,0,0,0-7.12,7.23H67.22a11.72,11.72,0,0,1,11.65-11.76,14.08,14.08,0,0,1,14,14.14A17,17,0,0,1,75.93,133a20.72,20.72,0,0,1-20.59-20.81A25.35,25.35,0,0,1,80.52,86.73,31.11,31.11,0,0,1,111.42,118C111.42,139.21,94.35,156.48,73.36,156.48Z"/><path d="M28,121.44C25.63,104.8,29.19,90.45,38.3,80c9.75-11.26,25.83-17.71,44.1-17.71,17.33,0,27.84,4.92,39,10.13,14.43,6.76,30.78,14.41,66.8,14.41v4.53c-37,0-53.87-7.88-68.72-14.83-11.13-5.21-20.74-9.71-37.06-9.71-17,0-31.78,5.88-40.68,16.14C33.5,92.4,30.31,105.5,32.49,120.8Z"/><rect x="84.9" y="36.76" width="103.28" height="4.53"/><path d="M296.76,126.26a12.41,12.41,0,1,1,12.4-12.4A12.42,12.42,0,0,1,296.76,126.26Zm0-20.28a7.88,7.88,0,1,0,7.87,7.88A7.88,7.88,0,0,0,296.76,106Z"/><path d="M195.33,18.12a9.43,9.43,0,0,1-9.42-9.41V0h18.83V8.7A9.42,9.42,0,0,1,195.33,18.12ZM190.44,4.53V8.71a4.89,4.89,0,1,0,9.77,0V4.53Z"/><path d="M195.89,183.25H180.46V165.94a7.72,7.72,0,1,1,15.43,0ZM185,178.72h6.37V165.94a3.19,3.19,0,1,0-6.37,0Z"/><path d="M202.47,24.52a5.47,5.47,0,1,1,5.47-5.46A5.47,5.47,0,0,1,202.47,24.52Zm0-6.4a.94.94,0,1,0,.94.94A.94.94,0,0,0,202.47,18.12Z"/><path d="M209.62,18.12a9.42,9.42,0,0,1-9.41-9.41V0H219V8.71A9.43,9.43,0,0,1,209.62,18.12ZM204.74,4.53V8.71a4.89,4.89,0,0,0,9.77,0V4.53Z"/><path d="M216.77,24.52a5.47,5.47,0,1,1,5.47-5.46A5.48,5.48,0,0,1,216.77,24.52Zm0-6.4a.94.94,0,1,0,.94.94A.94.94,0,0,0,216.77,18.12Z"/><path d="M223.92,18.12a9.42,9.42,0,0,1-9.41-9.41V0h18.82V8.7A9.42,9.42,0,0,1,223.92,18.12ZM219,4.53V8.71a4.88,4.88,0,1,0,9.76,0V4.53Z"/><path d="M231.07,24.52a5.47,5.47,0,1,1,5.46-5.46A5.47,5.47,0,0,1,231.07,24.52Zm0-6.4a.94.94,0,1,0,.94.94A.94.94,0,0,0,231.07,18.12Z"/><path d="M238.22,18.12a9.43,9.43,0,0,1-9.42-9.41V0h18.83V8.71A9.42,9.42,0,0,1,238.22,18.12ZM233.33,4.53V8.71a4.89,4.89,0,0,0,9.77,0V4.53Z"/><path d="M245.36,24.52a5.47,5.47,0,1,1,5.47-5.46A5.47,5.47,0,0,1,245.36,24.52Zm0-6.4a.94.94,0,1,0,.94.94A.94.94,0,0,0,245.36,18.12Z"/><path d="M252.51,18.12a9.42,9.42,0,0,1-9.41-9.41V0h18.82V8.7A9.42,9.42,0,0,1,252.51,18.12ZM247.63,4.53V8.71a4.89,4.89,0,1,0,9.77,0V4.53Z"/><path d="M259.66,24.52a5.47,5.47,0,1,1,5.47-5.46A5.48,5.48,0,0,1,259.66,24.52Zm0-6.4a.94.94,0,1,0,.94.94A.94.94,0,0,0,259.66,18.12Z"/><path d="M266.81,18.12a9.42,9.42,0,0,1-9.41-9.41V0h18.82V8.71A9.42,9.42,0,0,1,266.81,18.12ZM261.92,4.53V8.71a4.89,4.89,0,0,0,9.77,0V4.53Z"/><path d="M274,24.52a5.47,5.47,0,1,1,5.46-5.46A5.47,5.47,0,0,1,274,24.52Zm0-6.4a.94.94,0,1,0,.93.94A.94.94,0,0,0,274,18.12Z"/><path d="M281.1,18.12a9.42,9.42,0,0,1-9.41-9.41V0h18.83V8.7A9.43,9.43,0,0,1,281.1,18.12ZM276.22,4.53V8.71a4.89,4.89,0,1,0,9.77,0V4.53Z"/><path d="M288.25,24.52a5.47,5.47,0,1,1,5.47-5.46A5.47,5.47,0,0,1,288.25,24.52Zm0-6.4a.94.94,0,1,0,.94.94A.95.95,0,0,0,288.25,18.12Z"/><path d="M295.4,18.12A9.42,9.42,0,0,1,286,8.71V0h18.82V8.71A9.42,9.42,0,0,1,295.4,18.12ZM290.52,4.53V8.71a4.88,4.88,0,0,0,9.76,0V4.53Z"/><path d="M302.55,24.52A5.47,5.47,0,1,1,308,19.06,5.47,5.47,0,0,1,302.55,24.52Zm0-6.4a.94.94,0,1,0,.94.94A.94.94,0,0,0,302.55,18.12Z"/><path d="M309.7,18.12a9.43,9.43,0,0,1-9.42-9.41V0h18.83V8.7A9.42,9.42,0,0,1,309.7,18.12ZM304.81,4.53V8.71a4.89,4.89,0,1,0,9.77,0V4.53Z"/><path d="M316.85,24.52a5.47,5.47,0,1,1,5.46-5.46A5.47,5.47,0,0,1,316.85,24.52Zm0-6.4a.94.94,0,1,0,.93.94A.94.94,0,0,0,316.85,18.12Z"/><path d="M324,18.12a9.42,9.42,0,0,1-9.41-9.41V0h18.83V8.71A9.43,9.43,0,0,1,324,18.12ZM319.11,4.53V8.71a4.89,4.89,0,0,0,9.77,0V4.53Z"/><path d="M188.18,24.52a5.47,5.47,0,1,1,5.47-5.46A5.47,5.47,0,0,1,188.18,24.52Zm0-6.4a.94.94,0,1,0,.94.94A.94.94,0,0,0,188.18,18.12Z"/><path d="M188.18,125.24a10.38,10.38,0,0,1-10.37-10.37V105.3h20.74v9.57A10.38,10.38,0,0,1,188.18,125.24Zm-5.84-15.41v5a5.84,5.84,0,0,0,11.68,0v-5Z"/><path d="M196.29,132.5a5.9,5.9,0,1,1,5.89-5.89A5.9,5.9,0,0,1,196.29,132.5Zm0-7.26a1.37,1.37,0,1,0,1.36,1.37A1.37,1.37,0,0,0,196.29,125.24Z"/><path d="M214.67,125.24a10.39,10.39,0,0,1-10.37-10.37V105.3h20.75v9.57A10.39,10.39,0,0,1,214.67,125.24Zm-5.84-15.41v5a5.85,5.85,0,0,0,11.69,0v-5Z"/><path d="M222.78,132.5a5.9,5.9,0,1,1,5.9-5.89A5.9,5.9,0,0,1,222.78,132.5Zm0-7.26a1.37,1.37,0,1,0,1.37,1.37A1.37,1.37,0,0,0,222.78,125.24Z"/><path d="M206.57,132.5a5.9,5.9,0,1,1,5.9-5.89A5.9,5.9,0,0,1,206.57,132.5Zm0-7.26a1.37,1.37,0,1,0,1.37,1.37A1.37,1.37,0,0,0,206.57,125.24Z"/><path d="M241.17,125.24a10.38,10.38,0,0,1-10.37-10.37V105.3h20.74v9.57A10.38,10.38,0,0,1,241.17,125.24Zm-5.84-15.41v5a5.84,5.84,0,0,0,11.68,0v-5Z"/><path d="M249.28,132.5a5.9,5.9,0,1,1,5.9-5.89A5.9,5.9,0,0,1,249.28,132.5Zm0-7.26a1.37,1.37,0,1,0,1.37,1.37A1.37,1.37,0,0,0,249.28,125.24Z"/><path d="M233.06,132.5a5.9,5.9,0,1,1,5.9-5.89A5.89,5.89,0,0,1,233.06,132.5Zm0-7.26a1.37,1.37,0,1,0,1.37,1.37A1.36,1.36,0,0,0,233.06,125.24Z"/><path d="M322.52,32H53.84a6,6,0,0,1,0-12H322.52a6,6,0,0,1,0,12ZM53.84,24.52a1.46,1.46,0,0,0,0,2.91H322.52a1.46,1.46,0,0,0,0-2.91Z"/><path d="M294.63,190.68H81.73a5.58,5.58,0,0,1-5.58-5.58v-.8a5.58,5.58,0,0,1,5.58-5.58h212.9a5.58,5.58,0,0,1,5.58,5.58v.8A5.58,5.58,0,0,1,294.63,190.68Zm-212.9-7.43a1,1,0,0,0-1,1.05v.8a1,1,0,0,0,1,1.05h212.9a1,1,0,0,0,1.05-1.05v-.8a1,1,0,0,0-1.05-1.05Z"/><path d="M182.45,170.71a20.1,20.1,0,0,1-7.06-2,5.09,5.09,0,0,1-2.77-6.85,5.13,5.13,0,0,1-.11-7.26,5.19,5.19,0,0,1,1.86-6.12,4.62,4.62,0,0,1-.1-1,5.19,5.19,0,0,1,4.07-5.05,5.16,5.16,0,0,1,5-4.29,5.17,5.17,0,0,1,9.59,0,5.16,5.16,0,0,1,5,4.29,5.19,5.19,0,0,1,4.08,5.05,5.36,5.36,0,0,1-.1,1,5.14,5.14,0,0,1,2.21,4.24,5,5,0,0,1-.36,1.88,5.07,5.07,0,0,1,1.46,3.57,5.16,5.16,0,0,1-1.56,3.69,5.09,5.09,0,0,1-2.77,6.85,20,20,0,0,1-7,2l-.62-4.49a18.6,18.6,0,0,0,5.13-1.32,2.24,2.24,0,0,1,.74-.37.58.58,0,0,0,0-1.14,2.26,2.26,0,0,1-1.5-2.61,2.49,2.49,0,0,1,2.38-2h.17a.64.64,0,0,0,.5-.62.62.62,0,0,0-.6-.61,2.26,2.26,0,0,1-.87-4.29.64.64,0,0,0,.37-.55.63.63,0,0,0-.64-.64l-.13.07a2.26,2.26,0,0,1-1.68-4.15.63.63,0,0,0,.34-.51.64.64,0,0,0-.64-.63.64.64,0,0,0-.44.18h0l0,0a2.27,2.27,0,0,1-3.13-3.28l.07-.06a.62.62,0,0,0,.17-.41c0-.57-.86-.7-1.11-.34a2.29,2.29,0,0,1-1.57.92,2.24,2.24,0,0,1-1.74-.52,2.31,2.31,0,0,1-.47-3,.77.77,0,0,0,.15-.32.64.64,0,0,0-1.28,0,.77.77,0,0,0,.15.32,2.27,2.27,0,0,1-.44,3,2.3,2.3,0,0,1-3.34-.37c-.26-.36-1.11-.23-1.11.34a.62.62,0,0,0,.21.45h0l0,0a2.27,2.27,0,0,1-3.14,3.27l-.06-.07c-.28-.22-1,0-1,.49a.61.61,0,0,0,.34.51,2.27,2.27,0,0,1-1.69,4.15l-.25-.07a.63.63,0,0,0-.51.64.64.64,0,0,0,.37.55,2.26,2.26,0,0,1-.87,4.29.62.62,0,0,0-.6.61.62.62,0,0,0,.51.62h.15a2.28,2.28,0,0,1,2.36,1.85,2.5,2.5,0,0,1-1.48,2.77.62.62,0,0,0-.44.57.61.61,0,0,0,.48.57,2.24,2.24,0,0,1,.77.39,19.58,19.58,0,0,0,5.12,1.31Z"/><path d="M236,170.9c-3.51,0-6.16-4.2-6.16-9.77a14.3,14.3,0,0,1,1.21-6,6.09,6.09,0,0,1-1.21-3.66,6.18,6.18,0,0,1,1.15-3.6,6.16,6.16,0,1,1,10,0,6.17,6.17,0,0,1-.06,7.26,14.3,14.3,0,0,1,1.21,6C242.15,166.7,239.51,170.9,236,170.9Zm0-15.18a2.65,2.65,0,0,1-.32.5,8.21,8.21,0,0,0-1.31,4.91c0,3.24,1.21,5.09,1.68,5.25.36-.16,1.57-2,1.57-5.25a8.14,8.14,0,0,0-1.31-4.91A2.18,2.18,0,0,1,236,155.72Zm0-6.12a2.35,2.35,0,0,1-.63.38,1.62,1.62,0,0,0-.23,2.88,2.33,2.33,0,0,1,.86,1,2.24,2.24,0,0,1,.85-1,1.61,1.61,0,0,0,.77-1.37,1.64,1.64,0,0,0-1-1.51A2.07,2.07,0,0,1,236,149.6Zm0-6.93a1.63,1.63,0,0,0-1.63,1.63,1.61,1.61,0,0,0,1,1.5,2.55,2.55,0,0,1,.63.39,2.32,2.32,0,0,1,.62-.39,1.61,1.61,0,0,0,1-1.5A1.63,1.63,0,0,0,236,142.67Z"/><path d="M252.72,173.55a2.24,2.24,0,0,1-1.45-.53c-9.24-7.72-10.44-19.34-10.48-19.83l-.25-2.63,2.64.16a4,4,0,0,0,3.19-1.69c-.4-.21-.84-.42-1.15-.57-1.87-.9-3.49-1.68-3.41-3.53.05-1.27,1-2.26,2.33-3.59a28.8,28.8,0,0,0-3.87-2,2.17,2.17,0,0,1-1.92-2.46,2.35,2.35,0,0,1,2.58-2c.82.08,8.13,3.21,8.7,5.47.38,1.53-.62,2.52-2.13,4l-.1.1c1.81.87,3.48,1.72,4,3.25a2.71,2.71,0,0,1-.18,2.16,10.24,10.24,0,0,1-5.52,5c.76,3.36,2.89,10,8.5,14.65a2.26,2.26,0,0,1-1.46,4Z"/><path d="M219.27,173.55a2.26,2.26,0,0,1-1.46-4c5.61-4.69,7.75-11.29,8.5-14.65a10.24,10.24,0,0,1-5.52-5,2.71,2.71,0,0,1-.18-2.16c.5-1.53,2.17-2.38,4-3.25l-.1-.1c-1.51-1.5-2.51-2.49-2.13-4,.57-2.26,7.88-5.39,8.7-5.47a2.26,2.26,0,0,1,.61,4.48,32.79,32.79,0,0,0-3.82,2c1.33,1.33,2.28,2.32,2.34,3.59.07,1.85-1.55,2.63-3.42,3.53-.31.15-.75.36-1.15.57a4,4,0,0,0,3.19,1.69l2.64-.16-.25,2.63c0,.49-1.24,12.11-10.48,19.83A2.22,2.22,0,0,1,219.27,173.55Z"/><ellipse cx="257.95" cy="169.52" rx="4.29" ry="8.07"/><path d="M262.62,176c-2.46,0-5.59-2.11-7.5-3.61s-4.87-4.17-4.87-6.56a2.8,2.8,0,0,1,1.07-2.23c2.46-1.93,7,1,9.46,3,1.82,1.42,4.87,4.17,4.87,6.57a2.81,2.81,0,0,1-1.06,2.22A3.14,3.14,0,0,1,262.62,176Z"/><path d="M253.28,176a3.09,3.09,0,0,1-2-.63,2.79,2.79,0,0,1-1.07-2.22c0-2.4,3.05-5.15,4.87-6.57,2.48-1.94,7-4.91,9.47-3a2.82,2.82,0,0,1,1.06,2.23c0,2.39-3,5.14-4.87,6.56S255.74,176,253.28,176Z"/><path d="M214,177.58c-3.17,0-4.29-4.34-4.29-8.06s1.12-8.07,4.29-8.07,4.29,4.34,4.29,8.07S217.21,177.58,214,177.58Z"/><path d="M218.71,176c-2.46,0-5.59-2.11-7.5-3.61s-4.87-4.17-4.87-6.56a2.8,2.8,0,0,1,1.07-2.23c2.46-1.93,7,1,9.46,3,1.82,1.42,4.87,4.17,4.87,6.57a2.81,2.81,0,0,1-1.06,2.22A3.14,3.14,0,0,1,218.71,176Z"/><path d="M209.37,176a3.09,3.09,0,0,1-2-.63,2.79,2.79,0,0,1-1.07-2.22c0-2.4,3-5.15,4.87-6.57,2.48-1.94,7-4.91,9.47-3a2.82,2.82,0,0,1,1.06,2.23c0,2.39-3.05,5.14-4.87,6.56S211.83,176,209.37,176Z"/><path d="M295.31,183.25a2.27,2.27,0,0,1-2.26-2.27v-9.4a2.27,2.27,0,1,1,4.53,0V181A2.27,2.27,0,0,1,295.31,183.25Z"/><rect x="188.18" y="105.3" width="69.46" height="4.53"/><path d="M307.48,173.51c-29.62,0-53.72-23.53-53.72-52.46,0-23.39,19.48-42.42,43.43-42.42,19.41,0,35.2,15.42,35.2,34.39,0,15.42-12.84,28-28.61,28a23,23,0,0,1-23.14-22.82c0-10.34,7.52-15.63,15-16.28l.4,4.51c-5,.44-10.84,3.79-10.84,11.77a18.47,18.47,0,0,0,18.61,18.29c13.28,0,24.08-10.51,24.08-23.43,0-16.47-13.76-29.86-30.67-29.86-21.45,0-38.9,17-38.9,37.89,0,26.43,22.07,47.93,49.19,47.93,34.22,0,62.06-27.13,62.06-60.48,0-42-35.05-76.17-78.14-76.17-30.7,0-48-.11-63.35-.21C215.61,32,204.37,32,188.18,32V27.43c16.2,0,27.45.07,39.9.16,15.3.1,32.63.21,63.32.21,45.58,0,82.67,36.2,82.67,80.7C374.07,144.35,344.2,173.51,307.48,173.51Z"/><path d="M303.68,165.94c-27.51,0-49.89-20.81-49.89-46.39h4.53c0,23.08,20.35,41.86,45.36,41.86,31.22,0,56.62-23.85,56.62-53.15,0-36.95-32-67-71.34-67-27.74,0-45.26,4-60.72,7.62-12.69,2.94-24.67,5.71-40.06,5.71V50.05c14.87,0,26.07-2.59,39-5.59,15.69-3.63,33.48-7.74,61.74-7.74,41.84,0,75.87,32.09,75.87,71.54C364.83,140.06,337.4,165.94,303.68,165.94Z"/><path d="M303,156.48c-21,0-38.06-17.27-38.06-38.49a31.11,31.11,0,0,1,30.9-31.26A25.35,25.35,0,0,1,321,112.19,20.73,20.73,0,0,1,300.42,133a17,17,0,0,1-16.93-17.1,14.08,14.08,0,0,1,14-14.14,11.72,11.72,0,0,1,11.65,11.76h-4.53a7.19,7.19,0,0,0-7.12-7.23A9.55,9.55,0,0,0,288,115.9a12.51,12.51,0,0,0,12.4,12.57,16.19,16.19,0,0,0,16.07-16.28,20.81,20.81,0,0,0-20.65-20.93A26.58,26.58,0,0,0,269.47,118,33.78,33.78,0,0,0,303,152c23.43,0,42.49-19.3,42.49-43,0-30-24.08-54.35-53.68-54.35-17.9,0-31,3.64-44.94,7.49-16.1,4.46-32.74,9.07-58.69,9.07V66.61c25.33,0,41.68-4.53,57.48-8.91,14.21-3.93,27.64-7.65,46.15-7.65,32.1,0,58.2,26.41,58.2,58.88C350,135.15,328.92,156.48,303,156.48Z"/><path d="M348.35,121.44l-4.49-.64c2.19-15.3-1-28.4-9.22-37.89-8.9-10.26-23.73-16.14-40.68-16.14-16.32,0-25.93,4.5-37.06,9.71-14.86,7-31.69,14.83-68.72,14.83V86.78c36,0,52.37-7.65,66.8-14.41,11.13-5.21,21.65-10.13,39-10.13,18.27,0,34.34,6.45,44.1,17.71C347.17,90.45,350.73,104.8,348.35,121.44Z"/><rect x="188.18" y="36.76" width="103.28" height="4.53"/><path d="M188.18,2198.94a23.13,23.13,0,0,1-16.45-6.93,26.29,26.29,0,0,1-7.51-18.56L168.9,213.31c0-9.09,8.67-16.48,19.28-16.48s19.25,7.39,19.27,16.48l4.69,1960.14a26.34,26.34,0,0,1-7.51,18.56A23.17,23.17,0,0,1,188.18,2198.94Zm0-1997.58c-8.12,0-14.73,5.37-14.75,12l-4.68,1960.14a21.71,21.71,0,0,0,6.19,15.35,18.43,18.43,0,0,0,26.48,0,21.76,21.76,0,0,0,6.19-15.35L202.93,213.32C202.91,206.73,196.29,201.36,188.18,201.36Z"/><path d="M149,2198.94a19,19,0,0,1-13.5-5.69,21.5,21.5,0,0,1-6.1-15.23L141.62,210.48c0-7.52,7.21-13.65,16-13.65a17,17,0,0,1,12,4.75,12.6,12.6,0,0,1,3.82,8.92L168.74,2178C168.71,2189.57,159.85,2198.94,149,2198.94Zm8.6-1997.58c-6.27,0-11.4,4.11-11.43,9.15L133.91,2178.05a16.92,16.92,0,0,0,4.78,12,14.44,14.44,0,0,0,10.29,4.37c8.37,0,15.21-7.35,15.23-16.39l4.7-1967.54a8,8,0,0,0-2.49-5.71A12.5,12.5,0,0,0,157.58,201.36Z"/><path d="M227.38,2198.94c-10.87,0-19.73-9.37-19.76-20.9L202.92,210.5a12.63,12.63,0,0,1,3.81-8.92,17.06,17.06,0,0,1,12.05-4.75c8.75,0,15.91,6.13,15.95,13.65L247,2178a21.55,21.55,0,0,1-6.1,15.23A19,19,0,0,1,227.38,2198.94Zm-8.6-1997.58a12.5,12.5,0,0,0-8.84,3.42,8,8,0,0,0-2.49,5.71L212.15,2178c0,9,6.85,16.39,15.23,16.39a14.42,14.42,0,0,0,10.28-4.37,16.93,16.93,0,0,0,4.79-12L230.21,210.51C230.17,205.47,225.05,201.36,218.78,201.36Z"/><path d="M342.36,2209.62H34a2.26,2.26,0,1,1,0-4.52c13.29,0,26.34-12.39,26.34-25L87.6,188.39a2.28,2.28,0,0,1,2.27-2.24H286.49a2.26,2.26,0,0,1,2.26,2.24L316,2180.06c0,15.47,13.67,25,26.34,25a2.26,2.26,0,1,1,0,4.52ZM49.47,2205.1H326.08c-8.33-4.92-14.59-13.61-14.59-25L284.26,190.68H92.1L64.87,2180.12C64.87,2190.07,58.4,2199.67,49.47,2205.1Z"/><path d="M342.11,2238.05H34.25a16.48,16.48,0,1,1,0-33H342.11a16.48,16.48,0,1,1,0,33ZM34.25,2209.62a12,12,0,1,0,0,23.9H342.11a12,12,0,0,0,0-23.9Z"/><path d="M352.59,2264.11H23.77a6.42,6.42,0,0,1-5.71-3.16,4.77,4.77,0,0,1,.34-5,13.63,13.63,0,0,1,3.12-3,22.68,22.68,0,0,0,5.25-5.35A31.61,31.61,0,0,0,32,2235.45a2.26,2.26,0,0,1,2.24-1.93H342.11a2.27,2.27,0,0,1,2.24,1.93,31.93,31.93,0,0,0,5.24,12.06,22.87,22.87,0,0,0,5.24,5.35,13.47,13.47,0,0,1,3.13,3,4.79,4.79,0,0,1,.34,5A6.42,6.42,0,0,1,352.59,2264.11ZM36.07,2238.05a37.33,37.33,0,0,1-5.6,12.07,27.71,27.71,0,0,1-6.16,6.32,9.52,9.52,0,0,0-2.16,2c-.17.24-.12.32-.09.39a2,2,0,0,0,1.71.75H352.59a2,2,0,0,0,1.71-.75c0-.07.07-.15-.1-.39h0a9.44,9.44,0,0,0-2.15-2,27.5,27.5,0,0,1-6.16-6.32,37.33,37.33,0,0,1-5.6-12.07Z"/><path d="M365.9,2294.91H10.46A10.47,10.47,0,0,1,0,2284.45v-2.57a22.33,22.33,0,0,1,22.3-22.3H354.05a22.34,22.34,0,0,1,22.31,22.3v2.57A10.47,10.47,0,0,1,365.9,2294.91Zm-343.6-30.8a17.79,17.79,0,0,0-17.77,17.77v2.57a5.94,5.94,0,0,0,5.93,5.93H365.9a5.94,5.94,0,0,0,5.93-5.93v-2.57a17.8,17.8,0,0,0-17.78-17.77Z"/></g></g></svg>